# Blender 4.4.1
# www.blender.org
mtllib rankB.mtl
o テキスト.001
v -0.194261 -0.326021 0.000000
v 0.039739 -0.326021 0.000000
v 0.080265 -0.324044 0.000000
v 0.116448 -0.318372 0.000000
v 0.148442 -0.309396 0.000000
v 0.176406 -0.297502 0.000000
v 0.200495 -0.283081 0.000000
v 0.220864 -0.266521 0.000000
v 0.237672 -0.248210 0.000000
v 0.251073 -0.228539 0.000000
v 0.261224 -0.207896 0.000000
v 0.268281 -0.186669 0.000000
v 0.272401 -0.165247 0.000000
v 0.273739 -0.144020 0.000000
v 0.272460 -0.121555 0.000000
v 0.268675 -0.100210 0.000000
v 0.262458 -0.080067 0.000000
v 0.253888 -0.061206 0.000000
v 0.243039 -0.043705 0.000000
v 0.229989 -0.027645 0.000000
v 0.214815 -0.013107 0.000000
v 0.197591 -0.000169 0.000000
v 0.178396 0.011089 0.000000
v 0.157304 0.020586 0.000000
v 0.134393 0.028243 0.000000
v 0.109739 0.033980 0.000000
v 0.109739 0.035980 0.000000
v 0.126701 0.043588 0.000000
v 0.142096 0.051933 0.000000
v 0.155942 0.061042 0.000000
v 0.168258 0.070942 0.000000
v 0.179059 0.081662 0.000000
v 0.188364 0.093229 0.000000
v 0.196190 0.105672 0.000000
v 0.202554 0.119017 0.000000
v 0.207474 0.133292 0.000000
v 0.210966 0.148526 0.000000
v 0.213049 0.164746 0.000000
v 0.213739 0.181980 0.000000
v 0.212415 0.203469 0.000000
v 0.208392 0.224730 0.000000
v 0.201599 0.245448 0.000000
v 0.191962 0.265313 0.000000
v 0.179408 0.284011 0.000000
v 0.163864 0.301230 0.000000
v 0.145258 0.316657 0.000000
v 0.123517 0.329979 0.000000
v 0.098568 0.340886 0.000000
v 0.070337 0.349063 0.000000
v 0.038752 0.354198 0.000000
v 0.003739 0.355980 0.000000
v -0.194261 0.355980 0.000000
v -0.096261 0.267980 0.000000
v -0.006261 0.267980 0.000000
v 0.014987 0.267084 0.000000
v 0.033804 0.264484 0.000000
v 0.050302 0.260308 0.000000
v 0.064591 0.254683 0.000000
v 0.076783 0.247739 0.000000
v 0.086989 0.239605 0.000000
v 0.095320 0.230407 0.000000
v 0.101888 0.220276 0.000000
v 0.106802 0.209339 0.000000
v 0.110175 0.197725 0.000000
v 0.112117 0.185562 0.000000
v 0.112739 0.172980 0.000000
v 0.111758 0.155500 0.000000
v 0.108809 0.139558 0.000000
v 0.103880 0.125151 0.000000
v 0.096962 0.112276 0.000000
v 0.088043 0.100928 0.000000
v 0.077114 0.091104 0.000000
v 0.064165 0.082802 0.000000
v 0.049184 0.076017 0.000000
v 0.032161 0.070745 0.000000
v 0.013087 0.066984 0.000000
v -0.008051 0.064730 0.000000
v -0.031261 0.063980 0.000000
v -0.096261 0.063980 0.000000
v -0.096261 -0.024020 0.000000
v 0.021739 -0.024020 0.000000
v 0.046348 -0.024922 0.000000
v 0.068688 -0.027567 0.000000
v 0.088786 -0.031864 0.000000
v 0.106665 -0.037724 0.000000
v 0.122350 -0.045056 0.000000
v 0.135864 -0.053770 0.000000
v 0.147233 -0.063776 0.000000
v 0.156480 -0.074983 0.000000
v 0.163630 -0.087302 0.000000
v 0.168707 -0.100641 0.000000
v 0.171735 -0.114911 0.000000
v 0.172739 -0.130020 0.000000
v 0.172063 -0.142859 0.000000
v 0.169911 -0.155729 0.000000
v 0.166099 -0.168411 0.000000
v 0.160443 -0.180687 0.000000
v 0.152760 -0.192338 0.000000
v 0.142864 -0.203145 0.000000
v 0.130573 -0.212890 0.000000
v 0.115702 -0.221354 0.000000
v 0.098067 -0.228317 0.000000
v 0.077485 -0.233562 0.000000
v 0.053770 -0.236869 0.000000
v 0.026739 -0.238021 0.000000
v -0.096261 -0.238021 0.000000
vn -0.0000 -0.0000 1.0000
vt 0.000000 0.000000
vt 0.495238 0.000000
vt 0.485714 0.000000
vt 0.476190 0.000000
vt 0.466667 0.000000
vt 0.457143 0.000000
vt 0.447619 0.000000
vt 0.438095 0.000000
vt 0.428571 0.000000
vt 0.419048 0.000000
vt 0.409524 0.000000
vt 0.504762 0.000000
vt 0.400000 0.000000
vt 0.742857 0.000000
vt 0.514286 0.000000
vt 0.523810 0.000000
vt 0.390476 0.000000
vt 0.533333 0.000000
vt 0.542857 0.000000
vt 0.552381 0.000000
vt 0.561905 0.000000
vt 0.380952 0.000000
vt 0.571429 0.000000
vt 0.580952 0.000000
vt 0.371429 0.000000
vt 0.590476 0.000000
vt 0.600000 0.000000
vt 0.361905 0.000000
vt 0.609524 0.000000
vt 0.619048 0.000000
vt 0.352381 0.000000
vt 0.628571 0.000000
vt 0.342857 0.000000
vt 0.638095 0.000000
vt 0.333333 0.000000
vt 0.647619 0.000000
vt 0.323810 0.000000
vt 0.657143 0.000000
vt 0.314286 0.000000
vt 0.666667 0.000000
vt 0.304762 0.000000
vt 0.676190 0.000000
vt 0.295238 0.000000
vt 0.685714 0.000000
vt 0.695238 0.000000
vt 0.285714 0.000000
vt 0.704762 0.000000
vt 0.276190 0.000000
vt 0.714286 0.000000
vt 0.723810 0.000000
vt 0.733333 0.000000
vt 0.752381 0.000000
vt 0.266667 0.000000
vt 0.257143 0.000000
vt 0.247619 0.000000
vt 0.238095 0.000000
vt 0.228571 0.000000
vt 0.219048 0.000000
vt 0.209524 0.000000
vt 0.200000 0.000000
vt 0.190476 0.000000
vt 0.761905 0.000000
vt 0.180952 0.000000
vt 1.000000 0.000000
vt 0.771429 0.000000
vt 0.780952 0.000000
vt 0.790476 0.000000
vt 0.171429 0.000000
vt 0.800000 0.000000
vt 0.809524 0.000000
vt 0.161905 0.000000
vt 0.819048 0.000000
vt 0.828571 0.000000
vt 0.152381 0.000000
vt 0.838095 0.000000
vt 0.847619 0.000000
vt 0.142857 0.000000
vt 0.857143 0.000000
vt 0.133333 0.000000
vt 0.866667 0.000000
vt 0.876190 0.000000
vt 0.123810 0.000000
vt 0.885714 0.000000
vt 0.895238 0.000000
vt 0.114286 0.000000
vt 0.904762 0.000000
vt 0.104762 0.000000
vt 0.914286 0.000000
vt 0.923810 0.000000
vt 0.095238 0.000000
vt 0.933333 0.000000
vt 0.942857 0.000000
vt 0.085714 0.000000
vt 0.952381 0.000000
vt 0.961905 0.000000
vt 0.971429 0.000000
vt 0.076190 0.000000
vt 0.980952 0.000000
vt 0.990476 0.000000
vt 0.066667 0.000000
vt 0.057143 0.000000
vt 0.047619 0.000000
vt 0.038095 0.000000
vt 0.028571 0.000000
vt 0.019048 0.000000
vt 0.009524 0.000000
s 0
f 1/1/1 53/2/1 52/3/1
f 53/2/1 51/4/1 52/3/1
f 53/2/1 50/5/1 51/4/1
f 53/2/1 49/6/1 50/5/1
f 53/2/1 48/7/1 49/6/1
f 53/2/1 47/8/1 48/7/1
f 53/2/1 46/9/1 47/8/1
f 53/2/1 45/10/1 46/9/1
f 53/2/1 44/11/1 45/10/1
f 53/2/1 54/12/1 44/11/1
f 54/12/1 43/13/1 44/11/1
f 1/1/1 79/14/1 53/2/1
f 55/15/1 43/13/1 54/12/1
f 56/16/1 43/13/1 55/15/1
f 56/16/1 42/17/1 43/13/1
f 57/18/1 42/17/1 56/16/1
f 58/19/1 42/17/1 57/18/1
f 59/20/1 42/17/1 58/19/1
f 60/21/1 42/17/1 59/20/1
f 60/21/1 41/22/1 42/17/1
f 61/23/1 41/22/1 60/21/1
f 62/24/1 41/22/1 61/23/1
f 62/24/1 40/25/1 41/22/1
f 63/26/1 40/25/1 62/24/1
f 64/27/1 40/25/1 63/26/1
f 64/27/1 39/28/1 40/25/1
f 65/29/1 39/28/1 64/27/1
f 66/30/1 39/28/1 65/29/1
f 66/30/1 38/31/1 39/28/1
f 67/32/1 38/31/1 66/30/1
f 67/32/1 37/33/1 38/31/1
f 68/34/1 37/33/1 67/32/1
f 68/34/1 36/35/1 37/33/1
f 69/36/1 36/35/1 68/34/1
f 69/36/1 35/37/1 36/35/1
f 70/38/1 35/37/1 69/36/1
f 70/38/1 34/39/1 35/37/1
f 71/40/1 34/39/1 70/38/1
f 71/40/1 33/41/1 34/39/1
f 72/42/1 33/41/1 71/40/1
f 72/42/1 32/43/1 33/41/1
f 73/44/1 32/43/1 72/42/1
f 74/45/1 32/43/1 73/44/1
f 74/45/1 31/46/1 32/43/1
f 75/47/1 31/46/1 74/45/1
f 75/47/1 30/48/1 31/46/1
f 76/49/1 30/48/1 75/47/1
f 77/50/1 30/48/1 76/49/1
f 78/51/1 30/48/1 77/50/1
f 1/1/1 80/52/1 79/14/1
f 80/52/1 78/51/1 79/14/1
f 80/52/1 30/48/1 78/51/1
f 80/52/1 29/53/1 30/48/1
f 80/52/1 28/54/1 29/53/1
f 80/52/1 27/55/1 28/54/1
f 80/52/1 26/56/1 27/55/1
f 80/52/1 25/57/1 26/56/1
f 80/52/1 24/58/1 25/57/1
f 80/52/1 23/59/1 24/58/1
f 80/52/1 22/60/1 23/59/1
f 80/52/1 21/61/1 22/60/1
f 80/52/1 81/62/1 21/61/1
f 81/62/1 20/63/1 21/61/1
f 1/1/1 106/64/1 80/52/1
f 82/65/1 20/63/1 81/62/1
f 83/66/1 20/63/1 82/65/1
f 84/67/1 20/63/1 83/66/1
f 84/67/1 19/68/1 20/63/1
f 85/69/1 19/68/1 84/67/1
f 86/70/1 19/68/1 85/69/1
f 86/70/1 18/71/1 19/68/1
f 87/72/1 18/71/1 86/70/1
f 88/73/1 18/71/1 87/72/1
f 88/73/1 17/74/1 18/71/1
f 89/75/1 17/74/1 88/73/1
f 90/76/1 17/74/1 89/75/1
f 90/76/1 16/77/1 17/74/1
f 91/78/1 16/77/1 90/76/1
f 91/78/1 15/79/1 16/77/1
f 92/80/1 15/79/1 91/78/1
f 93/81/1 15/79/1 92/80/1
f 93/81/1 14/82/1 15/79/1
f 94/83/1 14/82/1 93/81/1
f 95/84/1 14/82/1 94/83/1
f 95/84/1 13/85/1 14/82/1
f 96/86/1 13/85/1 95/84/1
f 96/86/1 12/87/1 13/85/1
f 97/88/1 12/87/1 96/86/1
f 98/89/1 12/87/1 97/88/1
f 98/89/1 11/90/1 12/87/1
f 99/91/1 11/90/1 98/89/1
f 100/92/1 11/90/1 99/91/1
f 100/92/1 10/93/1 11/90/1
f 101/94/1 10/93/1 100/92/1
f 102/95/1 10/93/1 101/94/1
f 103/96/1 10/93/1 102/95/1
f 103/96/1 9/97/1 10/93/1
f 104/98/1 9/97/1 103/96/1
f 105/99/1 9/97/1 104/98/1
f 1/1/1 105/99/1 106/64/1
f 1/1/1 9/97/1 105/99/1
f 1/1/1 8/100/1 9/97/1
f 1/1/1 7/101/1 8/100/1
f 1/1/1 6/102/1 7/101/1
f 1/1/1 5/103/1 6/102/1
f 1/1/1 4/104/1 5/103/1
f 1/1/1 3/105/1 4/104/1
f 1/1/1 2/106/1 3/105/1
