# Blender 4.4.1
# www.blender.org
mtllib 5.mtl
o テキスト.001
v 0.000000 0.682000 -0.175861
v 0.000000 0.682000 0.127139
v 0.000000 0.327000 0.127139
v 0.000000 0.333863 0.090926
v 0.000000 0.336653 0.057352
v 0.000000 0.335672 0.026514
v 0.000000 0.331222 -0.001491
v 0.000000 0.323606 -0.026565
v 0.000000 0.313125 -0.048611
v 0.000000 0.300082 -0.067532
v 0.000000 0.284778 -0.083231
v 0.000000 0.267516 -0.095611
v 0.000000 0.248597 -0.104574
v 0.000000 0.228325 -0.110023
v 0.000000 0.207000 -0.111861
v 0.000000 0.190505 -0.110557
v 0.000000 0.174625 -0.106764
v 0.000000 0.159516 -0.100658
v 0.000000 0.145333 -0.092417
v 0.000000 0.132234 -0.082217
v 0.000000 0.120375 -0.070236
v 0.000000 0.109911 -0.056651
v 0.000000 0.101000 -0.041639
v 0.000000 0.093797 -0.025377
v 0.000000 0.088458 -0.008042
v 0.000000 0.085141 0.010189
v 0.000000 0.084000 0.029139
v 0.000000 0.084354 0.041638
v 0.000000 0.085412 0.054134
v 0.000000 0.087172 0.066623
v 0.000000 0.089630 0.079102
v 0.000000 0.092782 0.091566
v 0.000000 0.096625 0.104014
v 0.000000 0.101156 0.116440
v 0.000000 0.106370 0.128843
v 0.000000 0.112266 0.141217
v 0.000000 0.118838 0.153560
v 0.000000 0.126084 0.165869
v 0.000000 0.134000 0.178139
v 0.000000 0.033000 0.178139
v 0.000000 0.025872 0.163625
v 0.000000 0.019472 0.149528
v 0.000000 0.013781 0.135764
v 0.000000 0.008778 0.122250
v 0.000000 0.004441 0.108903
v 0.000000 0.000750 0.095639
v 0.000000 -0.002316 0.082375
v 0.000000 -0.004778 0.069028
v 0.000000 -0.006656 0.055514
v 0.000000 -0.007972 0.041750
v 0.000000 -0.008747 0.027653
v 0.000000 -0.009000 0.013139
v 0.000000 -0.007117 -0.018348
v 0.000000 -0.001602 -0.048171
v 0.000000 0.007344 -0.076127
v 0.000000 0.019519 -0.102009
v 0.000000 0.034721 -0.125614
v 0.000000 0.052750 -0.146736
v 0.000000 0.073404 -0.165171
v 0.000000 0.096481 -0.180713
v 0.000000 0.121781 -0.193158
v 0.000000 0.149102 -0.202301
v 0.000000 0.178242 -0.207937
v 0.000000 0.209000 -0.209861
v 0.000000 0.239851 -0.207923
v 0.000000 0.269227 -0.202185
v 0.000000 0.296859 -0.192767
v 0.000000 0.322481 -0.179787
v 0.000000 0.345826 -0.163362
v 0.000000 0.366625 -0.143611
v 0.000000 0.384612 -0.120652
v 0.000000 0.399519 -0.094602
v 0.000000 0.411078 -0.065580
v 0.000000 0.419023 -0.033704
v 0.000000 0.423086 0.000909
v 0.000000 0.423000 0.038139
v 0.000000 0.594000 0.038139
v 0.000000 0.594000 -0.175861
v 0.043426 0.682000 0.127139
v 0.043426 0.327000 0.127139
v 0.043426 0.594000 0.038139
v 0.043426 0.682000 -0.175861
v 0.043426 0.594000 -0.175861
v 0.043426 0.423000 0.038139
v 0.043426 0.423086 0.000909
v 0.043426 0.419023 -0.033704
v 0.043426 0.411078 -0.065580
v 0.043426 0.399519 -0.094602
v 0.043426 0.384612 -0.120652
v 0.043426 0.333863 0.090926
v 0.043426 0.366625 -0.143611
v 0.043426 0.336653 0.057352
v 0.043426 0.345826 -0.163362
v 0.043426 0.335672 0.026514
v 0.043426 0.322481 -0.179787
v 0.043426 0.331222 -0.001491
v 0.043426 0.323606 -0.026565
v 0.043426 0.313125 -0.048611
v 0.043426 0.296859 -0.192767
v 0.043426 0.300082 -0.067532
v 0.043426 0.284778 -0.083231
v 0.043426 0.269227 -0.202185
v 0.043426 0.267516 -0.095611
v 0.043426 0.239851 -0.207923
v 0.043426 0.248597 -0.104574
v 0.043426 0.228325 -0.110023
v 0.043426 0.209000 -0.209861
v 0.043426 0.207000 -0.111861
v 0.043426 0.178242 -0.207937
v 0.043426 0.190505 -0.110557
v 0.043426 0.174625 -0.106764
v 0.043426 0.149102 -0.202301
v 0.043426 0.159516 -0.100658
v 0.043426 0.145333 -0.092417
v 0.043426 0.121781 -0.193158
v 0.043426 0.132234 -0.082217
v 0.043426 0.134000 0.178139
v 0.043426 0.033000 0.178139
v 0.043426 0.126084 0.165869
v 0.043426 0.120375 -0.070236
v 0.043426 0.118838 0.153560
v 0.043426 0.096481 -0.180713
v 0.043426 0.109911 -0.056651
v 0.043426 0.112266 0.141217
v 0.043426 0.106370 0.128843
v 0.043426 0.101000 -0.041639
v 0.043426 0.101156 0.116440
v 0.043426 0.096625 0.104014
v 0.043426 0.093797 -0.025377
v 0.043426 0.092782 0.091566
v 0.043426 0.073404 -0.165171
v 0.043426 0.088458 -0.008042
v 0.043426 0.089630 0.079102
v 0.043426 0.087172 0.066623
v 0.043426 0.085141 0.010189
v 0.043426 0.085412 0.054134
v 0.043426 0.084354 0.041638
v 0.043426 0.084000 0.029139
v 0.043426 0.052750 -0.146736
v 0.043426 0.034721 -0.125614
v 0.043426 0.019519 -0.102009
v 0.043426 0.025872 0.163625
v 0.043426 0.019472 0.149528
v 0.043426 0.007344 -0.076127
v 0.043426 0.013781 0.135764
v 0.043426 0.008778 0.122250
v 0.043426 0.004441 0.108903
v 0.043426 -0.001602 -0.048171
v 0.043426 0.000750 0.095639
v 0.043426 -0.002316 0.082375
v 0.043426 -0.007117 -0.018348
v 0.043426 -0.004778 0.069028
v 0.043426 -0.006656 0.055514
v 0.043426 -0.007972 0.041750
v 0.043426 -0.009000 0.013139
v 0.043426 -0.008747 0.027653
vn -0.5681 -0.6338 0.5250
vn -0.5774 0.5773 0.5773
vn -0.9045 -0.3015 -0.3015
vn -0.5773 0.5774 -0.5774
vn -0.5774 -0.5774 -0.5774
vn -0.9048 0.3015 -0.3008
vn -0.6940 0.7188 -0.0412
vn -0.6930 0.7092 -0.1295
vn -0.6923 0.6869 -0.2213
vn -0.6916 0.6505 -0.3138
vn -0.6912 0.5996 -0.4034
vn -0.7190 -0.6886 -0.0936
vn -0.6910 0.5348 -0.4863
vn -0.7202 -0.6935 -0.0177
vn -0.6910 0.4581 -0.5592
vn -0.7215 -0.6893 0.0655
vn -0.6912 0.3722 -0.6194
vn -0.7229 -0.6734 0.1550
vn -0.7242 -0.6430 0.2489
vn -0.7255 -0.5960 0.3441
vn -0.6916 0.2804 -0.6656
vn -0.7266 -0.5307 0.4363
vn -0.7274 -0.4474 0.5203
vn -0.6922 0.1860 -0.6974
vn -0.7279 -0.3480 0.5908
vn -0.6927 0.0919 -0.7153
vn -0.7279 -0.2367 0.6435
vn -0.7275 -0.1190 0.6757
vn -0.6933 0.0001 -0.7207
vn -0.7261 -0.0024 0.6876
vn -0.6929 -0.0912 -0.7152
vn -0.7250 0.1075 0.6803
vn -0.7243 0.2098 0.6568
vn -0.6926 -0.1834 -0.6977
vn -0.7235 0.3035 0.6201
vn -0.7226 0.3869 0.5728
vn -0.6923 -0.2744 -0.6674
vn -0.7219 0.4594 0.5175
vn -0.6052 -0.4210 0.6757
vn -0.5531 0.7316 0.3986
vn -0.7117 0.5979 -0.3687
vn -0.7213 0.5215 0.4558
vn -0.7120 0.6126 -0.3432
vn -0.6922 -0.3617 -0.6246
vn -0.7209 0.5735 0.3890
vn -0.7122 0.6269 -0.3160
vn -0.7124 0.6404 -0.2870
vn -0.7207 0.6161 0.3179
vn -0.7126 0.6531 -0.2562
vn -0.7128 0.6648 -0.2237
vn -0.7206 0.6494 0.2429
vn -0.7130 0.6751 -0.1894
vn -0.6921 -0.4429 -0.5699
vn -0.7207 0.6735 0.1644
vn -0.7131 0.6840 -0.1537
vn -0.7133 0.6911 -0.1167
vn -0.7208 0.6881 0.0830
vn -0.7134 0.6963 -0.0785
vn -0.7135 0.6996 -0.0395
vn -0.7172 0.6968 0.0111
vn -0.6922 -0.5160 -0.5047
vn -0.6923 -0.5791 -0.4306
vn -0.6925 -0.6310 -0.3496
vn -0.7037 -0.6424 0.3035
vn -0.7033 -0.6522 0.2828
vn -0.6928 -0.6711 -0.2639
vn -0.7029 -0.6623 0.2594
vn -0.7026 -0.6722 0.2335
vn -0.7023 -0.6816 0.2055
vn -0.6931 -0.6991 -0.1757
vn -0.7022 -0.6900 0.1757
vn -0.7021 -0.6972 0.1448
vn -0.6935 -0.7151 -0.0872
vn -0.7022 -0.7029 0.1136
vn -0.7023 -0.7070 0.0829
vn -0.7026 -0.7096 0.0534
vn -0.6985 -0.7154 -0.0151
vn -0.7029 -0.7108 0.0257
vn 0.5681 -0.6338 0.5250
vn 0.9045 -0.3015 -0.3015
vn 0.5774 0.5773 0.5773
vn 0.5773 0.5774 -0.5774
vn 0.5774 -0.5774 -0.5774
vn 0.9048 0.3015 -0.3008
vn 0.6930 0.7092 -0.1295
vn 0.6940 0.7188 -0.0412
vn 0.6923 0.6869 -0.2213
vn 0.6916 0.6505 -0.3138
vn 0.6912 0.5996 -0.4034
vn 0.7190 -0.6886 -0.0936
vn 0.6910 0.5348 -0.4863
vn 0.7202 -0.6935 -0.0177
vn 0.6910 0.4581 -0.5592
vn 0.7215 -0.6893 0.0655
vn 0.6912 0.3722 -0.6194
vn 0.7229 -0.6734 0.1550
vn 0.7242 -0.6430 0.2489
vn 0.7255 -0.5960 0.3441
vn 0.6916 0.2804 -0.6656
vn 0.7266 -0.5307 0.4363
vn 0.7274 -0.4474 0.5203
vn 0.6922 0.1860 -0.6974
vn 0.7279 -0.3480 0.5908
vn 0.6927 0.0919 -0.7153
vn 0.7279 -0.2367 0.6435
vn 0.7275 -0.1190 0.6757
vn 0.6933 0.0001 -0.7207
vn 0.7261 -0.0024 0.6876
vn 0.6929 -0.0912 -0.7152
vn 0.7250 0.1075 0.6803
vn 0.7243 0.2098 0.6568
vn 0.6926 -0.1834 -0.6977
vn 0.7235 0.3035 0.6201
vn 0.7226 0.3869 0.5728
vn 0.6923 -0.2744 -0.6674
vn 0.7219 0.4594 0.5175
vn 0.6052 -0.4210 0.6757
vn 0.7117 0.5979 -0.3687
vn 0.5531 0.7316 0.3986
vn 0.7213 0.5215 0.4558
vn 0.7120 0.6126 -0.3432
vn 0.6922 -0.3617 -0.6246
vn 0.7209 0.5735 0.3890
vn 0.7122 0.6269 -0.3160
vn 0.7124 0.6404 -0.2870
vn 0.7207 0.6161 0.3179
vn 0.7126 0.6531 -0.2562
vn 0.7128 0.6648 -0.2237
vn 0.7206 0.6494 0.2429
vn 0.7130 0.6751 -0.1894
vn 0.6921 -0.4429 -0.5699
vn 0.7207 0.6735 0.1644
vn 0.7131 0.6840 -0.1537
vn 0.7133 0.6911 -0.1167
vn 0.7208 0.6881 0.0830
vn 0.7134 0.6963 -0.0785
vn 0.7135 0.6996 -0.0395
vn 0.7172 0.6968 0.0111
vn 0.6922 -0.5160 -0.5047
vn 0.6923 -0.5791 -0.4306
vn 0.6925 -0.6310 -0.3496
vn 0.7037 -0.6424 0.3035
vn 0.7033 -0.6522 0.2828
vn 0.6928 -0.6711 -0.2639
vn 0.7029 -0.6623 0.2594
vn 0.7026 -0.6722 0.2335
vn 0.7023 -0.6816 0.2055
vn 0.6931 -0.6991 -0.1757
vn 0.7022 -0.6900 0.1757
vn 0.7021 -0.6972 0.1448
vn 0.6935 -0.7151 -0.0872
vn 0.7022 -0.7029 0.1136
vn 0.7023 -0.7070 0.0829
vn 0.7026 -0.7096 0.0534
vn 0.6985 -0.7154 -0.0151
vn 0.7029 -0.7108 0.0257
vt 0.025974 0.000000
vt 0.012987 0.000000
vt 0.987013 0.000000
vt 0.000000 0.000000
vt 1.000000 0.000000
vt 0.974026 0.000000
vt 0.961039 0.000000
vt 0.948052 0.000000
vt 0.935065 0.000000
vt 0.922078 0.000000
vt 0.909091 0.000000
vt 0.038961 0.000000
vt 0.896104 0.000000
vt 0.051948 0.000000
vt 0.883117 0.000000
vt 0.064935 0.000000
vt 0.870130 0.000000
vt 0.077922 0.000000
vt 0.090909 0.000000
vt 0.103896 0.000000
vt 0.857143 0.000000
vt 0.116883 0.000000
vt 0.129870 0.000000
vt 0.844156 0.000000
vt 0.142857 0.000000
vt 0.831169 0.000000
vt 0.155844 0.000000
vt 0.168831 0.000000
vt 0.818182 0.000000
vt 0.181818 0.000000
vt 0.805195 0.000000
vt 0.194805 0.000000
vt 0.207792 0.000000
vt 0.792208 0.000000
vt 0.220779 0.000000
vt 0.233766 0.000000
vt 0.779221 0.000000
vt 0.246753 0.000000
vt 0.506494 0.000000
vt 0.493506 0.000000
vt 0.480519 0.000000
vt 0.259740 0.000000
vt 0.467532 0.000000
vt 0.766234 0.000000
vt 0.272727 0.000000
vt 0.454545 0.000000
vt 0.441558 0.000000
vt 0.285714 0.000000
vt 0.428571 0.000000
vt 0.415584 0.000000
vt 0.298701 0.000000
vt 0.402597 0.000000
vt 0.753247 0.000000
vt 0.311688 0.000000
vt 0.389610 0.000000
vt 0.376623 0.000000
vt 0.324675 0.000000
vt 0.363636 0.000000
vt 0.350649 0.000000
vt 0.337662 0.000000
vt 0.740260 0.000000
vt 0.727273 0.000000
vt 0.714286 0.000000
vt 0.519481 0.000000
vt 0.532468 0.000000
vt 0.701299 0.000000
vt 0.545455 0.000000
vt 0.558442 0.000000
vt 0.571429 0.000000
vt 0.688312 0.000000
vt 0.584416 0.000000
vt 0.597403 0.000000
vt 0.675325 0.000000
vt 0.610390 0.000000
vt 0.623377 0.000000
vt 0.636364 0.000000
vt 0.662338 0.000000
vt 0.649351 0.000000
s 1
usemtl マテリアル.005
f 3/1/1 2/2/2 77/3/3
f 77/3/3 2/2/2 1/4/4
f 77/3/3 1/4/4 78/5/5
f 3/1/1 77/3/3 76/6/6
f 76/6/6 75/7/7 74/8/8
f 3/1/1 76/6/6 74/8/8
f 3/1/1 74/8/8 73/9/9
f 3/1/1 73/9/9 72/10/10
f 3/1/1 72/10/10 71/11/11
f 3/1/1 71/11/11 4/12/12
f 4/12/12 71/11/11 70/13/13
f 4/12/12 70/13/13 5/14/14
f 5/14/14 70/13/13 69/15/15
f 5/14/14 69/15/15 6/16/16
f 6/16/16 69/15/15 68/17/17
f 7/18/18 6/16/16 68/17/17
f 8/19/19 7/18/18 68/17/17
f 9/20/20 8/19/19 68/17/17
f 9/20/20 68/17/17 67/21/21
f 10/22/22 9/20/20 67/21/21
f 11/23/23 10/22/22 67/21/21
f 11/23/23 67/21/21 66/24/24
f 12/25/25 11/23/23 66/24/24
f 12/25/25 66/24/24 65/26/26
f 13/27/27 12/25/25 65/26/26
f 14/28/28 13/27/27 65/26/26
f 14/28/28 65/26/26 64/29/29
f 15/30/30 14/28/28 64/29/29
f 15/30/30 64/29/29 63/31/31
f 16/32/32 15/30/30 63/31/31
f 17/33/33 16/32/32 63/31/31
f 17/33/33 63/31/31 62/34/34
f 18/35/35 17/33/33 62/34/34
f 19/36/36 18/35/35 62/34/34
f 19/36/36 62/34/34 61/37/37
f 20/38/38 19/36/36 61/37/37
f 40/39/39 39/40/40 38/41/41
f 21/42/42 20/38/38 61/37/37
f 40/39/39 38/41/41 37/43/43
f 21/42/42 61/37/37 60/44/44
f 22/45/45 21/42/42 60/44/44
f 40/39/39 37/43/43 36/46/46
f 40/39/39 36/46/46 35/47/47
f 23/48/48 22/45/45 60/44/44
f 40/39/39 35/47/47 34/49/49
f 40/39/39 34/49/49 33/50/50
f 24/51/51 23/48/48 60/44/44
f 40/39/39 33/50/50 32/52/52
f 24/51/51 60/44/44 59/53/53
f 25/54/54 24/51/51 59/53/53
f 40/39/39 32/52/52 31/55/55
f 40/39/39 31/55/55 30/56/56
f 26/57/57 25/54/54 59/53/53
f 40/39/39 30/56/56 29/58/58
f 40/39/39 29/58/58 28/59/59
f 27/60/60 26/57/57 59/53/53
f 40/39/39 28/59/59 27/60/60
f 40/39/39 27/60/60 59/53/53
f 40/39/39 59/53/53 58/61/61
f 40/39/39 58/61/61 57/62/62
f 40/39/39 57/62/62 56/63/63
f 41/64/64 40/39/39 56/63/63
f 42/65/65 41/64/64 56/63/63
f 42/65/65 56/63/63 55/66/66
f 43/67/67 42/65/65 55/66/66
f 44/68/68 43/67/67 55/66/66
f 45/69/69 44/68/68 55/66/66
f 45/69/69 55/66/66 54/70/70
f 46/71/71 45/69/69 54/70/70
f 47/72/72 46/71/71 54/70/70
f 47/72/72 54/70/70 53/73/73
f 48/74/74 47/72/72 53/73/73
f 49/75/75 48/74/74 53/73/73
f 50/76/76 49/75/75 53/73/73
f 50/76/76 53/73/73 52/77/77
f 51/78/78 50/76/76 52/77/77
f 80/1/79 81/3/80 79/2/81
f 81/3/80 82/4/82 79/2/81
f 81/3/80 83/5/83 82/4/82
f 80/1/79 84/6/84 81/3/80
f 84/6/84 86/8/85 85/7/86
f 80/1/79 86/8/85 84/6/84
f 80/1/79 87/9/87 86/8/85
f 80/1/79 88/10/88 87/9/87
f 80/1/79 89/11/89 88/10/88
f 80/1/79 90/12/90 89/11/89
f 90/12/90 91/13/91 89/11/89
f 90/12/90 92/14/92 91/13/91
f 92/14/92 93/15/93 91/13/91
f 92/14/92 94/16/94 93/15/93
f 94/16/94 95/17/95 93/15/93
f 96/18/96 95/17/95 94/16/94
f 97/19/97 95/17/95 96/18/96
f 98/20/98 95/17/95 97/19/97
f 98/20/98 99/21/99 95/17/95
f 100/22/100 99/21/99 98/20/98
f 101/23/101 99/21/99 100/22/100
f 101/23/101 102/24/102 99/21/99
f 103/25/103 102/24/102 101/23/101
f 103/25/103 104/26/104 102/24/102
f 105/27/105 104/26/104 103/25/103
f 106/28/106 104/26/104 105/27/105
f 106/28/106 107/29/107 104/26/104
f 108/30/108 107/29/107 106/28/106
f 108/30/108 109/31/109 107/29/107
f 110/32/110 109/31/109 108/30/108
f 111/33/111 109/31/109 110/32/110
f 111/33/111 112/34/112 109/31/109
f 113/35/113 112/34/112 111/33/111
f 114/36/114 112/34/112 113/35/113
f 114/36/114 115/37/115 112/34/112
f 116/38/116 115/37/115 114/36/114
f 118/39/117 119/41/118 117/40/119
f 120/42/120 115/37/115 116/38/116
f 118/39/117 121/43/121 119/41/118
f 120/42/120 122/44/122 115/37/115
f 123/45/123 122/44/122 120/42/120
f 118/39/117 124/46/124 121/43/121
f 118/39/117 125/47/125 124/46/124
f 126/48/126 122/44/122 123/45/123
f 118/39/117 127/49/127 125/47/125
f 118/39/117 128/50/128 127/49/127
f 129/51/129 122/44/122 126/48/126
f 118/39/117 130/52/130 128/50/128
f 129/51/129 131/53/131 122/44/122
f 132/54/132 131/53/131 129/51/129
f 118/39/117 133/55/133 130/52/130
f 118/39/117 134/56/134 133/55/133
f 135/57/135 131/53/131 132/54/132
f 118/39/117 136/58/136 134/56/134
f 118/39/117 137/59/137 136/58/136
f 138/60/138 131/53/131 135/57/135
f 118/39/117 138/60/138 137/59/137
f 118/39/117 131/53/131 138/60/138
f 118/39/117 139/61/139 131/53/131
f 118/39/117 140/62/140 139/61/139
f 118/39/117 141/63/141 140/62/140
f 142/64/142 141/63/141 118/39/117
f 143/65/143 141/63/141 142/64/142
f 143/65/143 144/66/144 141/63/141
f 145/67/145 144/66/144 143/65/143
f 146/68/146 144/66/144 145/67/145
f 147/69/147 144/66/144 146/68/146
f 147/69/147 148/70/148 144/66/144
f 149/71/149 148/70/148 147/69/147
f 150/72/150 148/70/148 149/71/149
f 150/72/150 151/73/151 148/70/148
f 152/74/152 151/73/151 150/72/150
f 153/75/153 151/73/151 152/74/152
f 154/76/154 151/73/151 153/75/153
f 154/76/154 155/77/155 151/73/151
f 156/78/156 155/77/155 154/76/154
f 46/71/71 47/72/72 150/72/150 149/71/149
f 76/6/6 77/3/3 81/3/80 84/6/84
f 35/47/47 36/46/46 124/46/124 125/47/125
f 16/32/32 17/33/33 111/33/111 110/32/110
f 8/19/19 9/20/20 98/20/98 97/19/97
f 75/7/7 76/6/6 84/6/84 85/7/86
f 22/45/45 23/48/48 126/48/126 123/45/123
f 27/60/60 28/59/59 137/59/137 138/60/138
f 53/73/73 54/70/70 148/70/148 151/73/151
f 74/8/8 75/7/7 85/7/86 86/8/85
f 62/34/34 63/31/31 109/31/109 112/34/112
f 67/21/21 68/17/17 95/17/95 99/21/99
f 47/72/72 48/74/74 152/74/152 150/72/150
f 34/49/49 35/47/47 125/47/125 127/49/127
f 17/33/33 18/35/35 113/35/113 111/33/111
f 9/20/20 10/22/22 100/22/100 98/20/98
f 58/61/61 59/53/53 131/53/131 139/61/139
f 48/74/74 49/75/75 153/75/153 152/74/152
f 73/9/9 74/8/8 86/8/85 87/9/87
f 33/50/50 34/49/49 127/49/127 128/50/128
f 18/35/35 19/36/36 114/36/114 113/35/113
f 10/22/22 11/23/23 101/23/101 100/22/100
f 57/62/62 58/61/61 139/61/139 140/62/140
f 23/48/48 24/51/51 129/51/129 126/48/126
f 49/75/75 50/76/76 154/76/154 153/75/153
f 72/10/10 73/9/9 87/9/87 88/10/88
f 56/63/63 57/62/62 140/62/140 141/63/141
f 61/37/37 62/34/34 112/34/112 115/37/115
f 66/24/24 67/21/21 99/21/99 102/24/102
f 71/11/11 72/10/10 88/10/88 89/11/89
f 40/39/39 41/64/64 142/64/142 118/39/117
f 32/52/52 33/50/50 128/50/128 130/52/130
f 19/36/36 20/38/38 116/38/116 114/36/114
f 11/23/23 12/25/25 103/25/103 101/23/101
f 52/77/77 53/73/73 151/73/151 155/77/155
f 3/1/1 4/12/12 90/12/90 80/1/79
f 50/76/76 51/78/78 156/78/156 154/76/154
f 41/64/64 42/65/65 143/65/143 142/64/142
f 59/53/53 60/44/44 122/44/122 131/53/131
f 39/40/40 40/39/39 118/39/117 117/40/119
f 51/78/78 52/77/77 155/77/155 156/78/156
f 24/51/51 25/54/54 132/54/132 129/51/129
f 65/26/26 66/24/24 102/24/102 104/26/104
f 70/13/13 71/11/11 89/11/89 91/13/91
f 38/41/41 39/40/40 117/40/119 119/41/118
f 12/25/25 13/27/27 105/27/105 103/25/103
f 4/12/12 5/14/14 92/14/92 90/12/90
f 55/66/66 56/63/63 141/63/141 144/66/144
f 20/38/38 21/42/42 120/42/120 116/38/116
f 42/65/65 43/67/67 145/67/145 143/65/143
f 31/55/55 32/52/52 130/52/130 133/55/133
f 13/27/27 14/28/28 106/28/106 105/27/105
f 69/15/15 70/13/13 91/13/91 93/15/93
f 43/67/67 44/68/68 146/68/146 145/67/145
f 2/2/2 3/1/1 80/1/79 79/2/81
f 30/56/56 31/55/55 133/55/133 134/56/134
f 37/43/43 38/41/41 119/41/118 121/43/121
f 5/14/14 6/16/16 94/16/94 92/14/92
f 25/54/54 26/57/57 135/57/135 132/54/132
f 64/29/29 65/26/26 104/26/104 107/29/107
f 44/68/68 45/69/69 147/69/147 146/68/146
f 60/44/44 61/37/37 115/37/115 122/44/122
f 14/28/28 15/30/30 108/30/108 106/28/106
f 21/42/42 22/45/45 123/45/123 120/42/120
f 68/17/17 69/15/15 93/15/93 95/17/95
f 1/4/4 2/2/2 79/2/81 82/4/82
f 29/58/58 30/56/56 134/56/134 136/58/136
f 6/16/16 7/18/18 96/18/96 94/16/94
f 54/70/70 55/66/66 144/66/144 148/70/148
f 77/3/3 78/5/5 83/5/83 81/3/80
f 63/31/31 64/29/29 107/29/107 109/31/109
f 45/69/69 46/71/71 149/71/149 147/69/147
f 78/5/5 1/4/4 82/4/82 83/5/83
f 28/59/59 29/58/58 136/58/136 137/59/137
f 36/46/46 37/43/43 121/43/121 124/46/124
f 15/30/30 16/32/32 110/32/110 108/30/108
f 7/18/18 8/19/19 97/19/97 96/18/96
f 26/57/57 27/60/60 138/60/138 135/57/135
