# Blender 4.4.1
# www.blender.org
mtllib 4.mtl
o テキスト
v 0.000000 0.691000 -0.169861
v 0.000000 0.691000 -0.127861
v 0.000000 0.269000 0.217139
v 0.000000 0.224000 0.217139
v -0.000000 0.224000 -0.071861
v -0.000000 0.000000 -0.071861
v -0.000000 0.000000 -0.169861
v -0.000000 0.224000 -0.169861
v -0.000000 0.224000 -0.242861
v -0.000000 0.312000 -0.242861
v -0.000000 0.312000 -0.169861
v 0.000000 0.506000 -0.069861
v 0.000000 0.506000 -0.071861
v 0.000000 0.312000 -0.071861
v 0.000000 0.312000 0.086139
vn 1.0000 -0.0000 -0.0000
vt 0.142857 0.000000
vt 0.000000 0.000000
vt 0.071429 0.000000
vt 0.785714 0.000000
vt 0.857143 0.000000
vt 0.714286 0.000000
vt 1.000000 0.000000
vt 0.928571 0.000000
vt 0.642857 0.000000
vt 0.571429 0.000000
vt 0.214286 0.000000
vt 0.285714 0.000000
vt 0.357143 0.000000
vt 0.500000 0.000000
vt 0.428571 0.000000
s 0
usemtl マテリアル
f 3/1/1 1/2/1 2/3/1
f 3/1/1 12/4/1 1/2/1
f 12/4/1 13/5/1 1/2/1
f 13/5/1 11/6/1 1/2/1
f 3/1/1 15/7/1 12/4/1
f 14/8/1 11/6/1 13/5/1
f 3/1/1 14/8/1 15/7/1
f 3/1/1 11/6/1 14/8/1
f 3/1/1 10/9/1 11/6/1
f 3/1/1 9/10/1 10/9/1
f 4/11/1 9/10/1 3/1/1
f 5/12/1 9/10/1 4/11/1
f 6/13/1 8/14/1 5/12/1
f 8/14/1 9/10/1 5/12/1
f 6/13/1 7/15/1 8/14/1
