# Blender 4.4.1
# www.blender.org
mtllib 8.mtl
o テキスト
v -0.000000 0.184000 -0.239861
v -0.000000 0.201091 -0.239195
v -0.000000 0.217815 -0.237199
v -0.000000 0.234094 -0.233877
v -0.000000 0.249852 -0.229232
v -0.000000 0.265013 -0.223267
v -0.000000 0.279500 -0.215986
v -0.000000 0.293237 -0.207393
v -0.000000 0.306148 -0.197491
v -0.000000 0.318156 -0.186283
v -0.000000 0.329185 -0.173773
v -0.000000 0.339159 -0.159965
v -0.000000 0.348000 -0.144861
v -0.000000 0.357862 -0.158718
v -0.000000 0.368394 -0.171296
v -0.000000 0.379516 -0.182611
v -0.000000 0.391148 -0.192676
v -0.000000 0.403211 -0.201505
v -0.000000 0.415625 -0.209111
v -0.000000 0.428310 -0.215509
v -0.000000 0.441185 -0.220713
v 0.000000 0.454172 -0.224736
v 0.000000 0.467190 -0.227593
v 0.000000 0.480159 -0.229296
v 0.000000 0.493000 -0.229861
v 0.000000 0.520634 -0.228103
v 0.000000 0.546903 -0.222958
v 0.000000 0.571609 -0.214627
v 0.000000 0.594556 -0.203306
v 0.000000 0.615543 -0.189193
v 0.000000 0.634375 -0.172486
v 0.000000 0.650852 -0.153384
v 0.000000 0.664778 -0.132083
v 0.000000 0.675953 -0.108783
v 0.000000 0.684181 -0.083681
v 0.000000 0.689262 -0.056974
v 0.000000 0.691000 -0.028861
v 0.000000 0.689282 0.000249
v 0.000000 0.684259 0.027940
v 0.000000 0.676125 0.053998
v 0.000000 0.665074 0.078213
v 0.000000 0.651301 0.100372
v 0.000000 0.635000 0.120264
v 0.000000 0.616366 0.137676
v 0.000000 0.595593 0.152398
v 0.000000 0.572875 0.164217
v 0.000000 0.548407 0.172921
v 0.000000 0.522384 0.178299
v 0.000000 0.495000 0.180139
v 0.000000 0.480630 0.179519
v 0.000000 0.466542 0.177680
v 0.000000 0.452766 0.174654
v 0.000000 0.439333 0.170472
v 0.000000 0.426276 0.165165
v 0.000000 0.413625 0.158764
v 0.000000 0.401412 0.151300
v 0.000000 0.389667 0.142805
v 0.000000 0.378422 0.133311
v 0.000000 0.367708 0.122847
v 0.000000 0.357557 0.111446
v 0.000000 0.348000 0.099139
v 0.000000 0.338185 0.114702
v 0.000000 0.327731 0.128893
v 0.000000 0.316625 0.141717
v 0.000000 0.304852 0.153176
v 0.000000 0.292398 0.163274
v 0.000000 0.279250 0.172014
v 0.000000 0.265394 0.179400
v 0.000000 0.250815 0.185435
v 0.000000 0.235500 0.190123
v 0.000000 0.219435 0.193468
v 0.000000 0.202606 0.195472
v 0.000000 0.185000 0.196139
v 0.000000 0.158285 0.194178
v 0.000000 0.132782 0.188454
v 0.000000 0.108703 0.179201
v 0.000000 0.086259 0.166657
v -0.000000 0.065663 0.151058
v -0.000000 0.047125 0.132639
v -0.000000 0.030858 0.111637
v -0.000000 0.017074 0.088287
v -0.000000 0.005984 0.062826
v -0.000000 -0.002199 0.035491
v -0.000000 -0.007264 0.006516
v -0.000000 -0.009000 -0.023861
v -0.000000 -0.007284 -0.053740
v -0.000000 -0.002273 -0.082222
v -0.000000 0.005828 -0.109080
v -0.000000 0.016815 -0.134083
v -0.000000 0.030482 -0.157004
v -0.000000 0.046625 -0.177611
v -0.000000 0.065039 -0.195677
v -0.000000 0.085519 -0.210972
v -0.000000 0.107859 -0.223267
v -0.000000 0.131857 -0.232333
v -0.000000 0.157305 -0.237941
v 0.000000 0.495000 -0.131861
v 0.000000 0.481439 -0.130883
v 0.000000 0.468347 -0.128032
v 0.000000 0.455859 -0.123439
v 0.000000 0.444111 -0.117232
v 0.000000 0.433238 -0.109538
v 0.000000 0.423375 -0.100486
v 0.000000 0.414658 -0.090206
v 0.000000 0.407222 -0.078824
v 0.000000 0.401203 -0.066471
v 0.000000 0.396736 -0.053273
v 0.000000 0.393957 -0.039361
v 0.000000 0.393000 -0.024861
v 0.000000 0.393977 -0.010572
v 0.000000 0.396815 0.003204
v 0.000000 0.401375 0.016326
v 0.000000 0.407519 0.028657
v 0.000000 0.415106 0.040058
v 0.000000 0.424000 0.050389
v 0.000000 0.434060 0.059512
v 0.000000 0.445148 0.067287
v 0.000000 0.457125 0.073576
v 0.000000 0.469852 0.078241
v 0.000000 0.483190 0.081141
v 0.000000 0.497000 0.082139
v 0.000000 0.511802 0.081235
v 0.000000 0.525662 0.078579
v 0.000000 0.538516 0.074248
v 0.000000 0.550296 0.068324
v 0.000000 0.560938 0.060886
v 0.000000 0.570375 0.052014
v 0.000000 0.578541 0.041788
v 0.000000 0.585370 0.030287
v 0.000000 0.590797 0.017592
v 0.000000 0.594755 0.003782
v 0.000000 0.597178 -0.011062
v 0.000000 0.598000 -0.026861
v 0.000000 0.597100 -0.041741
v 0.000000 0.594468 -0.055820
v 0.000000 0.590203 -0.069002
v 0.000000 0.584407 -0.081194
v 0.000000 0.577181 -0.092304
v 0.000000 0.568625 -0.102236
v 0.000000 0.558840 -0.110898
v 0.000000 0.547926 -0.118194
v 0.000000 0.535984 -0.124033
v 0.000000 0.523116 -0.128320
v 0.000000 0.509421 -0.130960
v -0.000000 0.192000 -0.141861
v -0.000000 0.177901 -0.141009
v -0.000000 0.164208 -0.138458
v -0.000000 0.151078 -0.134221
v -0.000000 0.138667 -0.128306
v -0.000000 0.127130 -0.120724
v -0.000000 0.116625 -0.111486
v -0.000000 0.107307 -0.100602
v -0.000000 0.099333 -0.088083
v -0.000000 0.092859 -0.073939
v -0.000000 0.088042 -0.058181
v -0.000000 0.085036 -0.040818
v -0.000000 0.084000 -0.021861
v -0.000000 0.084922 -0.004795
v -0.000000 0.087625 0.011333
v -0.000000 0.092016 0.026420
v -0.000000 0.098000 0.040361
v -0.000000 0.105484 0.053052
v -0.000000 0.114375 0.064389
v -0.000000 0.124578 0.074267
v -0.000000 0.136000 0.082583
v 0.000000 0.148547 0.089233
v 0.000000 0.162125 0.094111
v 0.000000 0.176641 0.097115
v 0.000000 0.192000 0.098139
v 0.000000 0.207569 0.097152
v 0.000000 0.222222 0.094241
v 0.000000 0.235875 0.089483
v 0.000000 0.248444 0.082954
v 0.000000 0.259847 0.074730
v 0.000000 0.270000 0.064889
v 0.000000 0.278819 0.053506
v 0.000000 0.286222 0.040657
v 0.000000 0.292125 0.026420
v 0.000000 0.296444 0.010870
v 0.000000 0.299097 -0.005916
v 0.000000 0.300000 -0.023861
v 0.000000 0.299059 -0.040678
v 0.000000 0.296306 -0.056560
v -0.000000 0.291844 -0.071408
v -0.000000 0.285778 -0.085120
v -0.000000 0.278212 -0.097597
v -0.000000 0.269250 -0.108736
v -0.000000 0.258997 -0.118438
v -0.000000 0.247556 -0.126602
v -0.000000 0.235031 -0.133127
v -0.000000 0.221528 -0.137912
v -0.000000 0.207149 -0.140857
vn 1.0000 -0.0000 -0.0000
vt 0.193717 0.000000
vt 0.183246 0.000000
vt 0.188482 0.000000
vt 0.198953 0.000000
vt 0.178010 0.000000
vt 0.204188 0.000000
vt 0.172775 0.000000
vt 0.209424 0.000000
vt 0.167539 0.000000
vt 0.214660 0.000000
vt 0.162304 0.000000
vt 0.219895 0.000000
vt 0.157068 0.000000
vt 0.225131 0.000000
vt 0.151832 0.000000
vt 0.230366 0.000000
vt 0.691099 0.000000
vt 0.146597 0.000000
vt 0.685864 0.000000
vt 0.696335 0.000000
vt 0.680628 0.000000
vt 0.701571 0.000000
vt 0.235602 0.000000
vt 0.675393 0.000000
vt 0.141361 0.000000
vt 0.706806 0.000000
vt 0.670157 0.000000
vt 0.712042 0.000000
vt 0.664921 0.000000
vt 0.717277 0.000000
vt 0.659686 0.000000
vt 0.722513 0.000000
vt 0.240838 0.000000
vt 0.136126 0.000000
vt 0.654450 0.000000
vt 0.727749 0.000000
vt 0.649215 0.000000
vt 0.732984 0.000000
vt 0.643979 0.000000
vt 0.246073 0.000000
vt 0.738220 0.000000
vt 0.130890 0.000000
vt 0.638743 0.000000
vt 0.743455 0.000000
vt 0.633508 0.000000
vt 0.748691 0.000000
vt 0.251309 0.000000
vt 0.125654 0.000000
vt 0.628272 0.000000
vt 0.502618 0.000000
vt 0.623037 0.000000
vt 0.256545 0.000000
vt 0.507853 0.000000
vt 0.120419 0.000000
vt 0.617801 0.000000
vt 0.513089 0.000000
vt 0.261780 0.000000
vt 0.115183 0.000000
vt 0.612565 0.000000
vt 0.518325 0.000000
vt 0.109948 0.000000
vt 0.267016 0.000000
vt 0.607330 0.000000
vt 0.523560 0.000000
vt 0.104712 0.000000
vt 0.272251 0.000000
vt 0.602094 0.000000
vt 0.528796 0.000000
vt 0.099476 0.000000
vt 0.277487 0.000000
vt 0.596859 0.000000
vt 0.534031 0.000000
vt 0.094241 0.000000
vt 0.282723 0.000000
vt 0.591623 0.000000
vt 0.539267 0.000000
vt 0.089005 0.000000
vt 0.586387 0.000000
vt 0.544503 0.000000
vt 0.287958 0.000000
vt 0.581152 0.000000
vt 0.549738 0.000000
vt 0.083770 0.000000
vt 0.293194 0.000000
vt 0.575916 0.000000
vt 0.554974 0.000000
vt 0.570681 0.000000
vt 0.560209 0.000000
vt 0.565445 0.000000
vt 0.078534 0.000000
vt 0.298429 0.000000
vt 0.073298 0.000000
vt 0.303665 0.000000
vt 0.068063 0.000000
vt 0.308901 0.000000
vt 0.062827 0.000000
vt 0.314136 0.000000
vt 0.319372 0.000000
vt 0.057592 0.000000
vt 0.052356 0.000000
vt 0.324607 0.000000
vt 0.047120 0.000000
vt 0.329843 0.000000
vt 0.041885 0.000000
vt 0.335079 0.000000
vt 0.942408 0.000000
vt 0.036649 0.000000
vt 0.340314 0.000000
vt 0.937173 0.000000
vt 0.947644 0.000000
vt 0.931937 0.000000
vt 0.952880 0.000000
vt 0.926702 0.000000
vt 0.958115 0.000000
vt 0.031414 0.000000
vt 0.345550 0.000000
vt 0.921466 0.000000
vt 0.963351 0.000000
vt 0.916230 0.000000
vt 0.968586 0.000000
vt 0.026178 0.000000
vt 0.350785 0.000000
vt 0.910995 0.000000
vt 0.973822 0.000000
vt 0.905759 0.000000
vt 0.979058 0.000000
vt 0.356021 0.000000
vt 0.020942 0.000000
vt 0.900524 0.000000
vt 0.984293 0.000000
vt 0.361257 0.000000
vt 0.015707 0.000000
vt 0.895288 0.000000
vt 0.989529 0.000000
vt 0.890052 0.000000
vt 0.366492 0.000000
vt 0.994764 0.000000
vt 0.010471 0.000000
vt 0.884817 0.000000
vt 1.000000 0.000000
vt 0.371728 0.000000
vt 0.005236 0.000000
vt 0.879581 0.000000
vt 0.753927 0.000000
vt 0.376963 0.000000
vt 0.000000 0.000000
vt 0.874346 0.000000
vt 0.759162 0.000000
vt 0.382199 0.000000
vt 0.497382 0.000000
vt 0.764398 0.000000
vt 0.869110 0.000000
vt 0.769634 0.000000
vt 0.863874 0.000000
vt 0.387435 0.000000
vt 0.492147 0.000000
vt 0.774869 0.000000
vt 0.858639 0.000000
vt 0.780105 0.000000
vt 0.853403 0.000000
vt 0.392670 0.000000
vt 0.486911 0.000000
vt 0.785340 0.000000
vt 0.848168 0.000000
vt 0.790576 0.000000
vt 0.842932 0.000000
vt 0.397906 0.000000
vt 0.481675 0.000000
vt 0.795812 0.000000
vt 0.837696 0.000000
vt 0.801047 0.000000
vt 0.832461 0.000000
vt 0.806283 0.000000
vt 0.827225 0.000000
vt 0.811518 0.000000
vt 0.821990 0.000000
vt 0.403141 0.000000
vt 0.476440 0.000000
vt 0.816754 0.000000
vt 0.408377 0.000000
vt 0.471204 0.000000
vt 0.413613 0.000000
vt 0.465969 0.000000
vt 0.418848 0.000000
vt 0.460733 0.000000
vt 0.424084 0.000000
vt 0.455497 0.000000
vt 0.429319 0.000000
vt 0.450262 0.000000
vt 0.434555 0.000000
vt 0.445026 0.000000
vt 0.439791 0.000000
s 0
usemtl マテリアル
f 38/1/1 36/2/1 37/3/1
f 39/4/1 36/2/1 38/1/1
f 39/4/1 35/5/1 36/2/1
f 40/6/1 35/5/1 39/4/1
f 40/6/1 34/7/1 35/5/1
f 41/8/1 34/7/1 40/6/1
f 41/8/1 33/9/1 34/7/1
f 42/10/1 33/9/1 41/8/1
f 42/10/1 32/11/1 33/9/1
f 43/12/1 32/11/1 42/10/1
f 43/12/1 31/13/1 32/11/1
f 44/14/1 31/13/1 43/12/1
f 44/14/1 30/15/1 31/13/1
f 45/16/1 30/15/1 44/14/1
f 45/16/1 133/17/1 30/15/1
f 133/17/1 29/18/1 30/15/1
f 45/16/1 132/19/1 133/17/1
f 134/20/1 29/18/1 133/17/1
f 45/16/1 131/21/1 132/19/1
f 135/22/1 29/18/1 134/20/1
f 46/23/1 131/21/1 45/16/1
f 46/23/1 130/24/1 131/21/1
f 135/22/1 28/25/1 29/18/1
f 136/26/1 28/25/1 135/22/1
f 46/23/1 129/27/1 130/24/1
f 137/28/1 28/25/1 136/26/1
f 46/23/1 128/29/1 129/27/1
f 138/30/1 28/25/1 137/28/1
f 46/23/1 127/31/1 128/29/1
f 139/32/1 28/25/1 138/30/1
f 47/33/1 127/31/1 46/23/1
f 139/32/1 27/34/1 28/25/1
f 47/33/1 126/35/1 127/31/1
f 140/36/1 27/34/1 139/32/1
f 47/33/1 125/37/1 126/35/1
f 141/38/1 27/34/1 140/36/1
f 47/33/1 124/39/1 125/37/1
f 48/40/1 124/39/1 47/33/1
f 142/41/1 27/34/1 141/38/1
f 142/41/1 26/42/1 27/34/1
f 48/40/1 123/43/1 124/39/1
f 143/44/1 26/42/1 142/41/1
f 48/40/1 122/45/1 123/43/1
f 144/46/1 26/42/1 143/44/1
f 49/47/1 122/45/1 48/40/1
f 144/46/1 25/48/1 26/42/1
f 49/47/1 121/49/1 122/45/1
f 97/50/1 25/48/1 144/46/1
f 49/47/1 120/51/1 121/49/1
f 50/52/1 120/51/1 49/47/1
f 98/53/1 25/48/1 97/50/1
f 98/53/1 24/54/1 25/48/1
f 50/52/1 119/55/1 120/51/1
f 99/56/1 24/54/1 98/53/1
f 51/57/1 119/55/1 50/52/1
f 99/56/1 23/58/1 24/54/1
f 51/57/1 118/59/1 119/55/1
f 100/60/1 23/58/1 99/56/1
f 100/60/1 22/61/1 23/58/1
f 52/62/1 118/59/1 51/57/1
f 52/62/1 117/63/1 118/59/1
f 101/64/1 22/61/1 100/60/1
f 101/64/1 21/65/1 22/61/1
f 53/66/1 117/63/1 52/62/1
f 53/66/1 116/67/1 117/63/1
f 102/68/1 21/65/1 101/64/1
f 102/68/1 20/69/1 21/65/1
f 54/70/1 116/67/1 53/66/1
f 54/70/1 115/71/1 116/67/1
f 103/72/1 20/69/1 102/68/1
f 103/72/1 19/73/1 20/69/1
f 55/74/1 115/71/1 54/70/1
f 55/74/1 114/75/1 115/71/1
f 104/76/1 19/73/1 103/72/1
f 104/76/1 18/77/1 19/73/1
f 55/74/1 113/78/1 114/75/1
f 105/79/1 18/77/1 104/76/1
f 56/80/1 113/78/1 55/74/1
f 56/80/1 112/81/1 113/78/1
f 106/82/1 18/77/1 105/79/1
f 106/82/1 17/83/1 18/77/1
f 57/84/1 112/81/1 56/80/1
f 57/84/1 111/85/1 112/81/1
f 107/86/1 17/83/1 106/82/1
f 57/84/1 110/87/1 111/85/1
f 108/88/1 17/83/1 107/86/1
f 57/84/1 109/89/1 110/87/1
f 109/89/1 17/83/1 108/88/1
f 57/84/1 17/83/1 109/89/1
f 57/84/1 16/90/1 17/83/1
f 58/91/1 16/90/1 57/84/1
f 58/91/1 15/92/1 16/90/1
f 59/93/1 15/92/1 58/91/1
f 59/93/1 14/94/1 15/92/1
f 60/95/1 14/94/1 59/93/1
f 60/95/1 13/96/1 14/94/1
f 61/97/1 13/96/1 60/95/1
f 62/98/1 13/96/1 61/97/1
f 62/98/1 12/99/1 13/96/1
f 62/98/1 11/100/1 12/99/1
f 63/101/1 11/100/1 62/98/1
f 63/101/1 10/102/1 11/100/1
f 64/103/1 10/102/1 63/101/1
f 64/103/1 9/104/1 10/102/1
f 65/105/1 9/104/1 64/103/1
f 65/105/1 181/106/1 9/104/1
f 181/106/1 8/107/1 9/104/1
f 66/108/1 181/106/1 65/105/1
f 66/108/1 180/109/1 181/106/1
f 182/110/1 8/107/1 181/106/1
f 66/108/1 179/111/1 180/109/1
f 183/112/1 8/107/1 182/110/1
f 66/108/1 178/113/1 179/111/1
f 184/114/1 8/107/1 183/112/1
f 184/114/1 7/115/1 8/107/1
f 67/116/1 178/113/1 66/108/1
f 67/116/1 177/117/1 178/113/1
f 185/118/1 7/115/1 184/114/1
f 67/116/1 176/119/1 177/117/1
f 186/120/1 7/115/1 185/118/1
f 186/120/1 6/121/1 7/115/1
f 68/122/1 176/119/1 67/116/1
f 68/122/1 175/123/1 176/119/1
f 187/124/1 6/121/1 186/120/1
f 68/122/1 174/125/1 175/123/1
f 188/126/1 6/121/1 187/124/1
f 69/127/1 174/125/1 68/122/1
f 188/126/1 5/128/1 6/121/1
f 69/127/1 173/129/1 174/125/1
f 189/130/1 5/128/1 188/126/1
f 70/131/1 173/129/1 69/127/1
f 189/130/1 4/132/1 5/128/1
f 70/131/1 172/133/1 173/129/1
f 190/134/1 4/132/1 189/130/1
f 70/131/1 171/135/1 172/133/1
f 71/136/1 171/135/1 70/131/1
f 191/137/1 4/132/1 190/134/1
f 191/137/1 3/138/1 4/132/1
f 71/136/1 170/139/1 171/135/1
f 192/140/1 3/138/1 191/137/1
f 72/141/1 170/139/1 71/136/1
f 192/140/1 2/142/1 3/138/1
f 72/141/1 169/143/1 170/139/1
f 145/144/1 2/142/1 192/140/1
f 73/145/1 169/143/1 72/141/1
f 145/144/1 1/146/1 2/142/1
f 73/145/1 168/147/1 169/143/1
f 146/148/1 1/146/1 145/144/1
f 74/149/1 168/147/1 73/145/1
f 146/148/1 96/150/1 1/146/1
f 147/151/1 96/150/1 146/148/1
f 74/149/1 167/152/1 168/147/1
f 148/153/1 96/150/1 147/151/1
f 74/149/1 166/154/1 167/152/1
f 75/155/1 166/154/1 74/149/1
f 148/153/1 95/156/1 96/150/1
f 149/157/1 95/156/1 148/153/1
f 75/155/1 165/158/1 166/154/1
f 150/159/1 95/156/1 149/157/1
f 75/155/1 164/160/1 165/158/1
f 76/161/1 164/160/1 75/155/1
f 150/159/1 94/162/1 95/156/1
f 151/163/1 94/162/1 150/159/1
f 76/161/1 163/164/1 164/160/1
f 152/165/1 94/162/1 151/163/1
f 76/161/1 162/166/1 163/164/1
f 77/167/1 162/166/1 76/161/1
f 152/165/1 93/168/1 94/162/1
f 153/169/1 93/168/1 152/165/1
f 77/167/1 161/170/1 162/166/1
f 154/171/1 93/168/1 153/169/1
f 77/167/1 160/172/1 161/170/1
f 155/173/1 93/168/1 154/171/1
f 77/167/1 159/174/1 160/172/1
f 156/175/1 93/168/1 155/173/1
f 77/167/1 158/176/1 159/174/1
f 78/177/1 158/176/1 77/167/1
f 156/175/1 92/178/1 93/168/1
f 157/179/1 92/178/1 156/175/1
f 78/177/1 157/179/1 158/176/1
f 78/177/1 92/178/1 157/179/1
f 79/180/1 92/178/1 78/177/1
f 79/180/1 91/181/1 92/178/1
f 80/182/1 91/181/1 79/180/1
f 80/182/1 90/183/1 91/181/1
f 81/184/1 90/183/1 80/182/1
f 81/184/1 89/185/1 90/183/1
f 82/186/1 89/185/1 81/184/1
f 82/186/1 88/187/1 89/185/1
f 83/188/1 88/187/1 82/186/1
f 83/188/1 87/189/1 88/187/1
f 84/190/1 87/189/1 83/188/1
f 84/190/1 86/191/1 87/189/1
f 85/192/1 86/191/1 84/190/1
