# Blender 4.2.14 LTS
# www.blender.org
mtllib Tkey.mtl
o テキスト
v -3.075354 0.451000 0.000001
v -3.075354 0.252000 0.000001
v -2.888354 0.252000 0.000001
v -2.888354 0.451000 0.000001
v -3.075354 0.519000 0.000001
v -2.888354 0.519000 0.000001
v -2.888354 0.710000 0.000001
v -3.075354 0.710000 0.000001
v -2.817354 0.779000 0.000001
v -2.817354 0.088000 0.000001
v -2.888354 0.088000 0.000001
v -2.888354 0.182000 0.000001
v -3.145354 0.182000 0.000001
v -3.145354 0.779000 0.000001
v -3.591354 0.727000 0.000001
v -3.591354 0.554000 0.000001
v -3.311354 0.554000 0.000001
v -3.311354 0.727000 0.000001
v -3.238354 0.797000 0.000001
v -3.238354 0.441000 0.000001
v -3.237921 0.401327 0.000001
v -3.236308 0.360532 0.000001
v -3.233041 0.318953 0.000001
v -3.227650 0.276926 0.000001
v -3.219662 0.234788 0.000001
v -3.208604 0.192875 0.000001
v -3.194005 0.151525 0.000001
v -3.175391 0.111074 0.000001
v -3.152292 0.071859 0.000001
v -3.124234 0.034218 0.000001
v -3.090745 -0.001514 0.000001
v -3.051354 -0.035000 0.000001
v -3.055588 -0.038028 0.000001
v -3.060220 -0.041560 0.000001
v -3.065151 -0.045516 0.000001
v -3.070280 -0.049815 0.000001
v -3.075506 -0.054378 0.000001
v -3.080729 -0.059125 0.000001
v -3.085848 -0.063976 0.000001
v -3.090762 -0.068852 0.000001
v -3.095370 -0.073672 0.000001
v -3.099572 -0.078356 0.000001
v -3.103267 -0.082826 0.000001
v -3.106354 -0.087000 0.000001
v -3.133792 -0.064333 0.000001
v -3.158688 -0.040412 0.000001
v -3.181167 -0.015359 0.000001
v -3.201354 0.010704 0.000001
v -3.219375 0.037656 0.000001
v -3.235354 0.065375 0.000001
v -3.249416 0.093740 0.000001
v -3.261687 0.122630 0.000001
v -3.272292 0.151922 0.000001
v -3.281354 0.181495 0.000001
v -3.289000 0.211229 0.000001
v -3.295354 0.241000 0.000001
v -3.591354 0.241000 0.000001
v -3.591354 0.019000 0.000001
v -3.591206 0.014747 0.000001
v -3.590753 0.010972 0.000001
v -3.589980 0.007656 0.000001
v -3.588873 0.004778 0.000001
v -3.587420 0.002316 0.000001
v -3.585605 0.000250 0.000001
v -3.583415 -0.001441 0.000001
v -3.580836 -0.002778 0.000001
v -3.577855 -0.003781 0.000001
v -3.574457 -0.004472 0.000001
v -3.570628 -0.004872 0.000001
v -3.566354 -0.005000 0.000001
v -3.561172 -0.005248 0.000001
v -3.554225 -0.005481 0.000001
v -3.545667 -0.005688 0.000001
v -3.535651 -0.005852 0.000001
v -3.524330 -0.005961 0.000001
v -3.511855 -0.006000 0.000001
v -3.498381 -0.005956 0.000001
v -3.484059 -0.005815 0.000001
v -3.469043 -0.005562 0.000001
v -3.453485 -0.005185 0.000001
v -3.437538 -0.004669 0.000001
v -3.421354 -0.004000 0.000001
v -3.424139 -0.009466 0.000001
v -3.426965 -0.015315 0.000001
v -3.429791 -0.021469 0.000001
v -3.432576 -0.027852 0.000001
v -3.435277 -0.034388 0.000001
v -3.437854 -0.041000 0.000001
v -3.440264 -0.047612 0.000001
v -3.442465 -0.054148 0.000001
v -3.444417 -0.060531 0.000001
v -3.446076 -0.066685 0.000001
v -3.447403 -0.072534 0.000001
v -3.448354 -0.078000 0.000001
v -3.469424 -0.077954 0.000001
v -3.489160 -0.077796 0.000001
v -3.507605 -0.077500 0.000001
v -3.524799 -0.077037 0.000001
v -3.540785 -0.076380 0.000001
v -3.555604 -0.075500 0.000001
v -3.569299 -0.074370 0.000001
v -3.581910 -0.072963 0.000001
v -3.593479 -0.071250 0.000001
v -3.604049 -0.069204 0.000001
v -3.613660 -0.066796 0.000001
v -3.622355 -0.064000 0.000001
v -3.629923 -0.060744 0.000001
v -3.636651 -0.056949 0.000001
v -3.642573 -0.052578 0.000001
v -3.647725 -0.047593 0.000001
v -3.652141 -0.041954 0.000001
v -3.655855 -0.035625 0.000001
v -3.658902 -0.028567 0.000001
v -3.661318 -0.020741 0.000001
v -3.663136 -0.012109 0.000001
v -3.664392 -0.002634 0.000001
v -3.665120 0.007723 0.000001
v -3.665354 0.019000 0.000001
v -3.665354 0.797000 0.000001
v -3.591354 0.486000 0.000001
v -3.591354 0.309000 0.000001
v -3.305354 0.309000 0.000001
v -3.306522 0.320248 0.000001
v -3.307535 0.331482 0.000001
v -3.308401 0.342688 0.000001
v -3.309132 0.353852 0.000001
v -3.309738 0.364961 0.000001
v -3.310229 0.376000 0.000001
v -3.310616 0.386956 0.000001
v -3.310910 0.397815 0.000001
v -3.311120 0.408563 0.000001
v -3.311257 0.419185 0.000001
v -3.311332 0.429669 0.000001
v -3.311354 0.440000 0.000001
v -3.311354 0.486000 0.000001
v -1.890354 0.814000 0.000000
v -1.896966 0.803648 0.000000
v -1.903743 0.792685 0.000000
v -1.910604 0.781250 0.000000
v -1.917466 0.769481 0.000000
v -1.924243 0.757519 0.000000
v -1.930855 0.745500 0.000000
v -1.937216 0.733565 0.000000
v -1.943244 0.721852 0.000000
v -1.948854 0.710500 0.000000
v -1.953966 0.699648 0.000000
v -1.958493 0.689435 0.000000
v -1.962354 0.680000 0.000000
v -2.023355 0.715000 0.000000
v -2.019052 0.724337 0.000000
v -2.014184 0.734278 0.000000
v -2.008808 0.744719 0.000000
v -2.002984 0.755556 0.000000
v -1.996772 0.766684 0.000000
v -1.990230 0.778000 0.000000
v -1.983417 0.789399 0.000000
v -1.976392 0.800778 0.000000
v -1.969214 0.812031 0.000000
v -1.961943 0.823056 0.000000
v -1.954637 0.833747 0.000000
v -1.947354 0.844000 0.000000
v -2.260354 0.571000 0.000001
v -2.569354 0.571000 0.000001
v -2.569354 0.376000 0.000001
v -2.260354 0.376000 0.000001
v -1.819354 0.538000 0.000000
v -1.819354 0.478000 0.000000
v -2.106354 0.478000 0.000001
v -2.106354 0.538000 0.000000
v -1.819354 0.406000 0.000000
v -1.819354 0.347000 0.000000
v -2.106354 0.347000 0.000001
v -2.106354 0.406000 0.000001
v -1.778354 0.670000 0.000000
v -1.778354 0.608000 0.000000
v -2.140354 0.608000 0.000000
v -2.140354 0.670000 0.000000
v -2.191354 0.638000 0.000001
v -2.191354 0.310000 0.000001
v -2.292354 0.310000 0.000001
v -2.288556 0.274628 0.000001
v -2.283470 0.240111 0.000001
v -2.276807 0.206594 0.000001
v -2.268280 0.174222 0.000001
v -2.257600 0.143142 0.000001
v -2.244479 0.113500 0.000001
v -2.228629 0.085441 0.000001
v -2.209762 0.059111 0.000001
v -2.187589 0.034656 0.000001
v -2.161822 0.012222 0.000001
v -2.132173 -0.008045 0.000001
v -2.098354 -0.026000 0.000001
v -2.102448 -0.029718 0.000001
v -2.106692 -0.033829 0.000001
v -2.111026 -0.038266 0.000001
v -2.115391 -0.042963 0.000001
v -2.119729 -0.047855 0.000001
v -2.123979 -0.052875 0.000001
v -2.128084 -0.057958 0.000001
v -2.131984 -0.063037 0.000001
v -2.135620 -0.068047 0.000001
v -2.138933 -0.072921 0.000001
v -2.141864 -0.077594 0.000001
v -2.144354 -0.082000 0.000001
v -2.181321 -0.060900 0.000001
v -2.213919 -0.037199 0.000001
v -2.242448 -0.011047 0.000001
v -2.267207 0.017407 0.000001
v -2.288493 0.048014 0.000001
v -2.306605 0.080625 0.000001
v -2.321842 0.115090 0.000001
v -2.334503 0.151259 0.000001
v -2.344886 0.188984 0.000001
v -2.353290 0.228116 0.000001
v -2.360013 0.268504 0.000001
v -2.365355 0.310000 0.000001
v -2.447354 0.310000 0.000001
v -2.447354 0.029000 0.000001
v -2.447728 0.011566 0.000001
v -2.448924 -0.003806 0.000001
v -2.451058 -0.017219 0.000001
v -2.454244 -0.028778 0.000001
v -2.458596 -0.038587 0.000001
v -2.464230 -0.046750 0.000001
v -2.471260 -0.053372 0.000001
v -2.479800 -0.058556 0.000001
v -2.489964 -0.062406 0.000001
v -2.501869 -0.065028 0.000001
v -2.515628 -0.066524 0.000001
v -2.531354 -0.067000 0.000001
v -2.535681 -0.067000 0.000001
v -2.541470 -0.067000 0.000001
v -2.548432 -0.067000 0.000001
v -2.556280 -0.067000 0.000001
v -2.564725 -0.067000 0.000001
v -2.573479 -0.067000 0.000001
v -2.582254 -0.067000 0.000001
v -2.590762 -0.067000 0.000001
v -2.598714 -0.067000 0.000001
v -2.605822 -0.067000 0.000001
v -2.611798 -0.067000 0.000001
v -2.616354 -0.067000 0.000001
v -2.629807 -0.066275 0.000001
v -2.641729 -0.063954 0.000001
v -2.652214 -0.059813 0.000001
v -2.661354 -0.053630 0.000001
v -2.669245 -0.045183 0.000001
v -2.675979 -0.034250 0.000001
v -2.681651 -0.020609 0.000001
v -2.686354 -0.004037 0.000001
v -2.690182 0.015687 0.000001
v -2.693229 0.038787 0.000001
v -2.695589 0.065484 0.000001
v -2.697354 0.096000 0.000001
v -2.692391 0.097373 0.000001
v -2.687063 0.098981 0.000001
v -2.681464 0.100813 0.000001
v -2.675688 0.102852 0.000001
v -2.669828 0.105086 0.000001
v -2.663980 0.107500 0.000001
v -2.658235 0.110081 0.000001
v -2.652688 0.112815 0.000001
v -2.647432 0.115687 0.000001
v -2.642562 0.118685 0.000001
v -2.638172 0.121794 0.000001
v -2.634354 0.125000 0.000001
v -2.633804 0.099433 0.000001
v -2.633118 0.077546 0.000001
v -2.632245 0.059063 0.000001
v -2.631132 0.043704 0.000001
v -2.629728 0.031192 0.000001
v -2.627980 0.021250 0.000001
v -2.625835 0.013600 0.000001
v -2.623243 0.007963 0.000001
v -2.620152 0.004063 0.000001
v -2.616508 0.001620 0.000001
v -2.612259 0.000359 0.000001
v -2.607354 0.000000 0.000001
v -2.603726 0.000000 0.000001
v -2.598993 0.000000 0.000001
v -2.593386 0.000000 0.000001
v -2.587132 0.000000 0.000001
v -2.580462 0.000000 0.000001
v -2.573605 0.000000 0.000001
v -2.566789 0.000000 0.000001
v -2.560244 0.000000 0.000001
v -2.554199 0.000000 0.000001
v -2.548883 0.000000 0.000001
v -2.544525 0.000000 0.000001
v -2.541354 0.000000 0.000001
v -2.536911 0.000094 0.000001
v -2.533053 0.000417 0.000001
v -2.529745 0.001031 0.000001
v -2.526947 0.002000 0.000001
v -2.524621 0.003385 0.000001
v -2.522729 0.005250 0.000001
v -2.521234 0.007656 0.000001
v -2.520095 0.010667 0.000001
v -2.519277 0.014344 0.000001
v -2.518739 0.018750 0.000001
v -2.518445 0.023948 0.000001
v -2.518354 0.030000 0.000001
v -2.518354 0.310000 0.000001
v -2.641355 0.310000 0.000001
v -2.641355 0.638000 0.000001
v -2.548354 0.638000 0.000001
v -2.555161 0.651280 0.000001
v -2.562063 0.665069 0.000001
v -2.569026 0.679297 0.000001
v -2.576021 0.693889 0.000001
v -2.583016 0.708773 0.000001
v -2.589980 0.723875 0.000001
v -2.596881 0.739123 0.000001
v -2.603688 0.754444 0.000001
v -2.610371 0.769766 0.000001
v -2.616897 0.785014 0.000001
v -2.623235 0.800116 0.000001
v -2.629354 0.815000 0.000001
v -2.556355 0.841000 0.000001
v -2.551284 0.825280 0.000001
v -2.545623 0.808741 0.000001
v -2.539448 0.791563 0.000001
v -2.532836 0.773926 0.000001
v -2.525863 0.756012 0.000001
v -2.518605 0.738000 0.000001
v -2.511138 0.720072 0.000001
v -2.503540 0.702407 0.000001
v -2.495886 0.685188 0.000001
v -2.488253 0.668593 0.000001
v -2.480717 0.652803 0.000001
v -2.473354 0.638000 0.000001
v -2.301354 0.638000 0.000001
v -2.365355 0.668000 0.000001
v -2.361350 0.679976 0.000001
v -2.356400 0.692810 0.000001
v -2.350604 0.706359 0.000001
v -2.344058 0.720482 0.000001
v -2.336858 0.735034 0.000001
v -2.329103 0.749875 0.000001
v -2.320890 0.764862 0.000001
v -2.312316 0.779852 0.000001
v -2.303478 0.794703 0.000001
v -2.294474 0.809273 0.000001
v -2.285399 0.823420 0.000001
v -2.276354 0.837000 0.000001
v -2.215354 0.811000 0.000000
v -2.224112 0.796921 0.000000
v -2.232827 0.782282 0.000000
v -2.241417 0.767234 0.000001
v -2.249799 0.751926 0.000001
v -2.257889 0.736506 0.000001
v -2.265604 0.721125 0.000001
v -2.272861 0.705931 0.000001
v -2.279576 0.691074 0.000001
v -2.285666 0.676703 0.000001
v -2.291049 0.662968 0.000001
v -2.295639 0.650017 0.000001
v -2.299355 0.638000 0.000001
v -1.818354 0.273000 0.000000
v -1.818354 -0.067000 0.000000
v -1.882354 -0.067000 0.000001
v -1.882354 -0.019000 0.000001
v -2.112354 -0.019000 0.000001
v -2.112354 0.273000 0.000001
v -1.882354 0.210000 0.000000
v -2.046354 0.210000 0.000001
v -2.046354 0.044000 0.000001
v -1.882354 0.044000 0.000001
v -1.263354 0.828000 0.000000
v -1.250221 0.791320 0.000000
v -1.235873 0.754894 0.000000
v -1.220386 0.718891 0.000000
v -1.203836 0.683482 0.000000
v -1.186300 0.648836 0.000000
v -1.167855 0.615125 0.000000
v -1.148576 0.582518 0.000000
v -1.128540 0.551185 0.000000
v -1.107823 0.521297 0.000000
v -1.086503 0.493023 0.000000
v -1.064654 0.466534 0.000000
v -1.042354 0.442000 0.000000
v -1.046837 0.438724 0.000000
v -1.051720 0.434958 0.000000
v -1.056901 0.430797 0.000000
v -1.062280 0.426333 0.000000
v -1.067757 0.421661 0.000000
v -1.073229 0.416875 0.000000
v -1.078598 0.412068 0.000000
v -1.083762 0.407333 0.000000
v -1.088620 0.402766 0.000000
v -1.093071 0.398458 0.000000
v -1.097016 0.394505 0.000000
v -1.100354 0.391000 0.000000
v -1.113060 0.405349 0.000000
v -1.125669 0.420375 0.000000
v -1.138167 0.436047 0.000000
v -1.150539 0.452333 0.000000
v -1.162773 0.469203 0.000000
v -1.174854 0.486625 0.000000
v -1.186769 0.504568 0.000000
v -1.198503 0.523000 0.000000
v -1.210042 0.541891 0.000000
v -1.221373 0.561208 0.000000
v -1.232482 0.580922 0.000000
v -1.243354 0.601000 0.000000
v -1.312354 0.601000 0.000000
v -1.312354 -0.079000 0.000000
v -1.388354 -0.079000 0.000000
v -1.388354 0.164000 0.000000
v -1.689354 0.164000 0.000000
v -1.689354 0.235000 0.000000
v -1.388354 0.235000 0.000000
v -1.388354 0.387000 0.000000
v -1.676354 0.387000 0.000000
v -1.676354 0.456000 0.000000
v -1.388354 0.456000 0.000000
v -1.388354 0.601000 0.000000
v -1.699354 0.601000 0.000000
v -1.699354 0.673000 0.000000
v -1.279354 0.673000 0.000000
v -1.284562 0.684041 0.000000
v -1.289683 0.695157 0.000000
v -1.294714 0.706344 0.000000
v -1.299651 0.717593 0.000000
v -1.304491 0.728897 0.000000
v -1.309229 0.740250 0.000000
v -1.313864 0.751645 0.000000
v -1.318391 0.763074 0.000000
v -1.322807 0.774531 0.000000
v -1.327109 0.786009 0.000000
v -1.331292 0.797501 0.000000
v -1.335354 0.809000 0.000000
v -1.022354 0.836000 0.000000
v -1.007582 0.798071 0.000000
v -0.991341 0.760403 0.000000
v -0.973745 0.723172 0.000000
v -0.954910 0.686556 0.000000
v -0.934950 0.650731 0.000000
v -0.913980 0.615875 0.000000
v -0.892114 0.582165 0.000000
v -0.869466 0.549778 0.000000
v -0.846152 0.518891 0.000000
v -0.822286 0.489681 0.000000
v -0.797982 0.462325 0.000000
v -0.773354 0.437000 0.000000
v -0.777008 0.432278 0.000000
v -0.780919 0.426722 0.000000
v -0.785010 0.420500 0.000000
v -0.789206 0.413778 0.000000
v -0.793429 0.406722 0.000000
v -0.797604 0.399500 0.000000
v -0.801654 0.392278 0.000000
v -0.805502 0.385222 0.000000
v -0.809073 0.378500 0.000000
v -0.812289 0.372278 0.000000
v -0.815075 0.366722 0.000000
v -0.817354 0.362000 0.000000
v -0.825833 0.370854 0.000000
v -0.834271 0.379912 0.000000
v -0.842667 0.389172 0.000000
v -0.851021 0.398630 0.000000
v -0.859334 0.408282 0.000000
v -0.867604 0.418125 0.000000
v -0.875834 0.428156 0.000000
v -0.884021 0.438370 0.000000
v -0.892167 0.448766 0.000000
v -0.900271 0.459338 0.000000
v -0.908333 0.470084 0.000000
v -0.916354 0.481000 0.000000
v -0.916354 -0.078000 0.000000
v -0.991354 -0.078000 0.000000
v -0.991354 0.599000 0.000000
v -1.001039 0.616121 0.000000
v -1.010581 0.633468 0.000000
v -1.019964 0.651016 0.000000
v -1.029170 0.668741 0.000000
v -1.038180 0.686619 0.000000
v -1.046979 0.704625 0.000000
v -1.055550 0.722736 0.000000
v -1.063873 0.740926 0.000000
v -1.071933 0.759172 0.000000
v -1.079711 0.777449 0.000000
v -1.087191 0.795733 0.000000
v -1.094354 0.814000 0.000000
v -0.157354 0.480000 0.000000
v -0.289354 0.480000 0.000000
v -0.289354 0.366000 0.000000
v -0.157354 0.366000 0.000000
v -0.467354 0.480000 0.000000
v -0.603354 0.480000 0.000000
v -0.603354 0.366000 0.000000
v -0.467354 0.366000 0.000000
v 0.103646 0.840000 0.000000
v 0.103646 0.638000 0.000000
v 0.216646 0.638000 0.000000
v 0.216646 0.568000 0.000000
v 0.103646 0.568000 0.000000
v 0.103646 0.349000 0.000000
v 0.115060 0.345042 0.000000
v 0.126294 0.341171 0.000000
v 0.137333 0.337391 0.000000
v 0.148164 0.333704 0.000000
v 0.158773 0.330114 0.000000
v 0.169146 0.326625 0.000000
v 0.179268 0.323240 0.000000
v 0.189127 0.319963 0.000000
v 0.198708 0.316797 0.000000
v 0.207998 0.313745 0.000000
v 0.216981 0.310812 0.000000
v 0.225646 0.308000 0.000000
v 0.206646 0.236000 0.000000
v 0.103646 0.275000 0.000000
v 0.103646 0.008000 0.000000
v 0.103711 0.005184 0.000000
v 0.103919 0.002722 0.000000
v 0.104286 0.000594 0.000000
v 0.104831 -0.001222 0.000000
v 0.105570 -0.002747 0.000000
v 0.106521 -0.004000 0.000000
v 0.107701 -0.005003 0.000000
v 0.109127 -0.005778 0.000000
v 0.110817 -0.006344 0.000000
v 0.112789 -0.006722 0.000000
v 0.115059 -0.006934 0.000000
v 0.117646 -0.007000 0.000000
v 0.120323 -0.007019 0.000000
v 0.123817 -0.007069 0.000000
v 0.128067 -0.007141 0.000000
v 0.133016 -0.007222 0.000000
v 0.138603 -0.007304 0.000000
v 0.144771 -0.007375 0.000000
v 0.151459 -0.007425 0.000000
v 0.158609 -0.007444 0.000000
v 0.166161 -0.007422 0.000000
v 0.174058 -0.007347 0.000000
v 0.182239 -0.007210 0.000000
v 0.190646 -0.007000 0.000000
v 0.188169 -0.011985 0.000000
v 0.185752 -0.017380 0.000000
v 0.183411 -0.023094 0.000000
v 0.181164 -0.029037 0.000000
v 0.179028 -0.035119 0.000000
v 0.177021 -0.041250 0.000000
v 0.175159 -0.047339 0.000000
v 0.173460 -0.053296 0.000000
v 0.171942 -0.059031 0.000000
v 0.170622 -0.064454 0.000000
v 0.169518 -0.069473 0.000000
v 0.168646 -0.074000 0.000000
v 0.156267 -0.073954 0.000000
v 0.144613 -0.073801 0.000000
v 0.133661 -0.073516 0.000000
v 0.123386 -0.073074 0.000000
v 0.113764 -0.072452 0.000000
v 0.104771 -0.071625 0.000000
v 0.096381 -0.070569 0.000000
v 0.088572 -0.069259 0.000000
v 0.081317 -0.067672 0.000000
v 0.074594 -0.065782 0.000000
v 0.068379 -0.063567 0.000000
v 0.062646 -0.061000 0.000000
v 0.057434 -0.057847 0.000000
v 0.052784 -0.054361 0.000000
v 0.048677 -0.050500 0.000000
v 0.045090 -0.046222 0.000000
v 0.042003 -0.041486 0.000000
v 0.039396 -0.036250 0.000000
v 0.037246 -0.030472 0.000000
v 0.035534 -0.024111 0.000000
v 0.034239 -0.017125 0.000000
v 0.033340 -0.009472 0.000000
v 0.032816 -0.001111 0.000000
v 0.032646 0.008000 0.000000
v 0.032646 0.302000 0.000000
v -0.066354 0.340000 0.000000
v -0.054354 0.407000 0.000000
v 0.032646 0.375000 0.000000
v 0.032646 0.568000 0.000000
v -0.060354 0.568000 0.000000
v -0.060354 0.638000 0.000000
v 0.032646 0.638000 0.000000
v 0.032646 0.840000 0.000000
v -0.343354 0.310000 0.000000
v -0.343354 0.234000 0.000000
v -0.079354 0.234000 0.000000
v -0.079354 0.171000 0.000000
v -0.296354 0.171000 0.000000
v -0.278297 0.152721 0.000000
v -0.258729 0.134935 0.000000
v -0.237807 0.117719 0.000000
v -0.215687 0.101148 0.000000
v -0.192526 0.085300 0.000000
v -0.168479 0.070250 0.000000
v -0.143703 0.056075 0.000000
v -0.118354 0.042852 0.000000
v -0.092588 0.030656 0.000000
v -0.066562 0.019565 0.000000
v -0.040432 0.009654 0.000000
v -0.014354 0.001000 0.000000
v -0.018239 -0.002758 0.000000
v -0.022350 -0.006981 0.000000
v -0.026620 -0.011594 0.000000
v -0.030984 -0.016519 0.000000
v -0.035376 -0.021679 0.000000
v -0.039729 -0.027000 0.000000
v -0.043979 -0.032404 0.000000
v -0.048058 -0.037815 0.000000
v -0.051901 -0.043156 0.000000
v -0.055442 -0.048352 0.000000
v -0.058615 -0.053325 0.000000
v -0.061354 -0.058000 0.000000
v -0.086936 -0.048094 0.000000
v -0.112590 -0.036921 0.000000
v -0.138182 -0.024547 0.000000
v -0.163576 -0.011037 0.000000
v -0.188637 0.003542 0.000000
v -0.213229 0.019125 0.000000
v -0.237216 0.035645 0.000000
v -0.260465 0.053037 0.000000
v -0.282838 0.071234 0.000000
v -0.304201 0.090171 0.000000
v -0.324418 0.109782 0.000000
v -0.343354 0.130000 0.000000
v -0.343354 -0.081000 0.000000
v -0.414354 -0.081000 0.000000
v -0.414354 0.135000 0.000000
v -0.430707 0.116121 0.000000
v -0.448178 0.097551 0.000000
v -0.466635 0.079391 0.000000
v -0.485947 0.061741 0.000000
v -0.505980 0.044702 0.000000
v -0.526604 0.028375 0.000000
v -0.547686 0.012861 0.000000
v -0.569095 -0.001741 0.000000
v -0.590698 -0.015328 0.000000
v -0.612363 -0.027801 0.000000
v -0.633959 -0.039058 0.000000
v -0.655354 -0.049000 0.000000
v -0.658534 -0.044345 0.000000
v -0.662040 -0.039426 0.000000
v -0.665823 -0.034313 0.000000
v -0.669836 -0.029074 0.000000
v -0.674029 -0.023780 0.000000
v -0.678355 -0.018500 0.000000
v -0.682763 -0.013303 0.000000
v -0.687206 -0.008259 0.000000
v -0.691636 -0.003438 0.000000
v -0.696002 0.001093 0.000000
v -0.700258 0.005262 0.000000
v -0.704354 0.009000 0.000000
v -0.682212 0.017401 0.000000
v -0.659886 0.027042 0.000000
v -0.637526 0.037828 0.000000
v -0.615280 0.049667 0.000000
v -0.593298 0.062464 0.000000
v -0.571729 0.076125 0.000000
v -0.550723 0.090557 0.000000
v -0.530428 0.105667 0.000000
v -0.510994 0.121359 0.000000
v -0.492571 0.137542 0.000000
v -0.475308 0.154120 0.000000
v -0.459354 0.171000 0.000000
v -0.688354 0.171000 0.000000
v -0.688354 0.234000 0.000000
v -0.414354 0.234000 0.000000
v -0.414354 0.310000 0.000000
v -0.666354 0.310000 0.000000
v -0.666354 0.535000 0.000000
v -0.407354 0.535000 0.000000
v -0.407354 0.310000 0.000000
v -0.350354 0.310000 0.000000
v -0.350354 0.535000 0.000000
v -0.098354 0.535000 0.000000
v -0.098354 0.310000 0.000000
v -0.264354 0.742000 0.000000
v -0.495354 0.742000 0.000000
v -0.495354 0.637000 0.000000
v -0.264354 0.637000 0.000000
v -0.198354 0.799000 0.000000
v -0.198354 0.580000 0.000000
v -0.564354 0.580000 0.000000
v -0.564354 0.799000 0.000000
v 1.183646 0.658000 0.000000
v 1.174646 0.571000 0.000000
v 1.144754 0.576763 0.000000
v 1.109761 0.582523 0.000000
v 1.070693 0.588234 0.000000
v 1.028572 0.593852 0.000000
v 0.984423 0.599330 0.000000
v 0.939271 0.604625 0.000000
v 0.894139 0.609690 0.000000
v 0.850053 0.614481 0.000000
v 0.808036 0.618953 0.000000
v 0.769113 0.623060 0.000000
v 0.734308 0.626758 0.000000
v 0.704646 0.630000 0.000000
v 0.727651 0.614775 0.000000
v 0.750442 0.596699 0.000000
v 0.772677 0.575922 0.000000
v 0.794016 0.552593 0.000000
v 0.814119 0.526861 0.000000
v 0.832645 0.498875 0.000000
v 0.849255 0.468785 0.000000
v 0.863608 0.436741 0.000000
v 0.875364 0.402891 0.000000
v 0.884182 0.367384 0.000000
v 0.889723 0.330371 0.000000
v 0.891646 0.292000 0.000000
v 0.887387 0.238815 0.000000
v 0.875160 0.190685 0.000000
v 0.855786 0.147500 0.000000
v 0.830090 0.109148 0.000000
v 0.798894 0.075519 0.000000
v 0.763021 0.046500 0.000000
v 0.723293 0.021981 0.000000
v 0.680535 0.001852 0.000000
v 0.635568 -0.014000 0.000000
v 0.589215 -0.025685 0.000000
v 0.542300 -0.033315 0.000000
v 0.495646 -0.037000 0.000000
v 0.466646 0.046000 0.000000
v 0.507675 0.048711 0.000000
v 0.548799 0.054023 0.000000
v 0.589318 0.062203 0.000000
v 0.628535 0.073519 0.000000
v 0.665751 0.088237 0.000000
v 0.700271 0.106625 0.000000
v 0.731394 0.128951 0.000000
v 0.758423 0.155481 0.000000
v 0.780661 0.186484 0.000000
v 0.797409 0.222227 0.000000
v 0.807970 0.262976 0.000000
v 0.811646 0.309000 0.000000
v 0.809852 0.339357 0.000000
v 0.804544 0.370607 0.000000
v 0.795833 0.402266 0.000000
v 0.783831 0.433852 0.000000
v 0.768648 0.464883 0.000000
v 0.750396 0.494875 0.000000
v 0.729185 0.523347 0.000000
v 0.705127 0.549815 0.000000
v 0.678333 0.573797 0.000000
v 0.648914 0.594810 0.000000
v 0.616981 0.612372 0.000000
v 0.582646 0.626000 0.000000
v 0.569164 0.629466 0.000000
v 0.554377 0.632394 0.000000
v 0.538521 0.634828 0.000000
v 0.521831 0.636815 0.000000
v 0.504544 0.638399 0.000000
v 0.486896 0.639625 0.000000
v 0.469123 0.640539 0.000000
v 0.451461 0.641185 0.000000
v 0.434146 0.641609 0.000000
v 0.417414 0.641857 0.000000
v 0.401502 0.641972 0.000000
v 0.386646 0.642000 0.000000
v 0.386646 0.722000 0.000000
v 0.403951 0.721188 0.000000
v 0.422340 0.720250 0.000000
v 0.441771 0.719187 0.000000
v 0.462201 0.718000 0.000000
v 0.483590 0.716688 0.000000
v 0.505896 0.715250 0.000000
v 0.529076 0.713688 0.000000
v 0.553090 0.712000 0.000000
v 0.577896 0.710187 0.000000
v 0.603451 0.708250 0.000000
v 0.629715 0.706187 0.000000
v 0.656646 0.704000 0.000000
v 0.702675 0.700176 0.000000
v 0.748465 0.696241 0.000000
v 0.793568 0.692250 0.000000
v 0.837535 0.688259 0.000000
v 0.879918 0.684324 0.000000
v 0.920271 0.680500 0.000000
v 0.958144 0.676843 0.000000
v 0.993090 0.673407 0.000000
v 1.024661 0.670250 0.000000
v 1.052410 0.667426 0.000000
v 1.075887 0.664991 0.000000
v 1.094646 0.663000 0.000000
v 1.099663 0.662501 0.000000
v 1.105197 0.662005 0.000000
v 1.111224 0.661516 0.000000
v 1.117720 0.661037 0.000000
v 1.124660 0.660572 0.000000
v 1.132021 0.660125 0.000000
v 1.139777 0.659699 0.000000
v 1.147905 0.659296 0.000000
v 1.156380 0.658922 0.000000
v 1.165178 0.658579 0.000000
v 1.174275 0.658270 0.000000
v 0.530646 0.519000 0.000000
v 0.581646 0.497000 0.000000
v 0.574169 0.486530 0.000000
v 0.566752 0.475653 0.000000
v 0.559411 0.464422 0.000000
v 0.552164 0.452889 0.000000
v 0.545028 0.441106 0.000000
v 0.538020 0.429125 0.000000
v 0.531159 0.416998 0.000000
v 0.524460 0.404778 0.000000
v 0.517942 0.392516 0.000000
v 0.511622 0.380264 0.000000
v 0.505517 0.368075 0.000000
v 0.499646 0.356000 0.000000
v 0.448646 0.380000 0.000000
v 0.454231 0.391348 0.000000
v 0.460414 0.403282 0.000000
v 0.467083 0.415641 0.000000
v 0.474127 0.428259 0.000000
v 0.481435 0.440975 0.000000
v 0.488896 0.453625 0.000000
v 0.496398 0.466046 0.000000
v 0.503831 0.478074 0.000000
v 0.511083 0.489547 0.000000
v 0.518044 0.500301 0.000000
v 0.524602 0.510173 0.000000
v 0.421646 0.561000 0.000000
v 0.470646 0.538000 0.000000
v 0.462939 0.527358 0.000000
v 0.455326 0.516449 0.000000
v 0.447817 0.505297 0.000000
v 0.440423 0.493926 0.000000
v 0.433154 0.482361 0.000000
v 0.426020 0.470625 0.000000
v 0.419033 0.458744 0.000000
v 0.412201 0.446741 0.000000
v 0.405536 0.434641 0.000000
v 0.399048 0.422468 0.000000
v 0.392748 0.410246 0.000000
v 0.386646 0.398000 0.000000
v 0.334646 0.423000 0.000000
v 0.340731 0.434328 0.000000
v 0.347410 0.446208 0.000000
v 0.354568 0.458484 0.000000
v 0.362090 0.471000 0.000000
v 0.369863 0.483599 0.000000
v 0.377771 0.496125 0.000000
v 0.385700 0.508422 0.000000
v 0.393535 0.520333 0.000000
v 0.401161 0.531703 0.000000
v 0.408465 0.542375 0.000000
v 0.415331 0.552193 0.000000
v 2.160646 0.433000 0.000000
v 2.160646 0.335000 0.000000
v 2.152449 0.335729 0.000000
v 2.143405 0.336412 0.000000
v 2.133583 0.337047 0.000000
v 2.123053 0.337630 0.000000
v 2.111884 0.338157 0.000000
v 2.100146 0.338625 0.000000
v 2.087907 0.339031 0.000000
v 2.075238 0.339370 0.000000
v 2.062208 0.339641 0.000000
v 2.048887 0.339838 0.000000
v 2.035343 0.339959 0.000000
v 2.021646 0.340000 0.000000
v 1.996521 0.340000 0.000000
v 1.960146 0.340000 0.000000
v 1.914771 0.340000 0.000000
v 1.862646 0.340000 0.000000
v 1.806021 0.340000 0.000000
v 1.747146 0.340000 0.000000
v 1.688271 0.340000 0.000000
v 1.631646 0.340000 0.000000
v 1.579521 0.340000 0.000000
v 1.534146 0.340000 0.000000
v 1.497771 0.340000 0.000000
v 1.472646 0.340000 0.000000
v 1.461469 0.339921 0.000000
v 1.450484 0.339699 0.000000
v 1.439755 0.339359 0.000000
v 1.429349 0.338926 0.000000
v 1.419333 0.338423 0.000000
v 1.409770 0.337875 0.000000
v 1.400729 0.337306 0.000000
v 1.392275 0.336741 0.000000
v 1.384474 0.336203 0.000000
v 1.377391 0.335718 0.000000
v 1.371093 0.335308 0.000000
v 1.365646 0.335000 0.000000
v 1.365646 0.433000 0.000000
v 1.371437 0.432481 0.000000
v 1.377812 0.431935 0.000000
v 1.384771 0.431375 0.000000
v 1.392312 0.430815 0.000000
v 1.400437 0.430268 0.000000
v 1.409146 0.429750 0.000000
v 1.418437 0.429273 0.000000
v 1.428312 0.428852 0.000000
v 1.438771 0.428500 0.000000
v 1.449812 0.428231 0.000000
v 1.461437 0.428060 0.000000
v 1.473646 0.428000 0.000000
v 1.498560 0.428000 0.000000
v 1.534794 0.428000 0.000000
v 1.580083 0.428000 0.000000
v 1.632164 0.428000 0.000000
v 1.688773 0.428000 0.000000
v 1.747646 0.428000 0.000000
v 1.806519 0.428000 0.000000
v 1.863127 0.428000 0.000000
v 1.915208 0.428000 0.000000
v 1.960498 0.428000 0.000000
v 1.996732 0.428000 0.000000
v 2.021646 0.428000 0.000000
v 2.035572 0.428060 0.000000
v 2.049303 0.428232 0.000000
v 2.062771 0.428500 0.000000
v 2.075905 0.428852 0.000000
v 2.088636 0.429273 0.000000
v 2.100895 0.429750 0.000000
v 2.112613 0.430269 0.000000
v 2.123720 0.430815 0.000000
v 2.134145 0.431375 0.000000
v 2.143821 0.431935 0.000000
v 2.152678 0.432482 0.000000
v 3.155646 0.274000 0.000000
v 3.137646 0.187000 0.000000
v 3.132248 0.188481 0.000000
v 3.126544 0.189931 0.000000
v 3.120521 0.191359 0.000000
v 3.114164 0.192778 0.000000
v 3.107460 0.194196 0.000000
v 3.100396 0.195625 0.000000
v 3.092956 0.197075 0.000000
v 3.085127 0.198556 0.000000
v 3.076896 0.200078 0.000000
v 3.068248 0.201653 0.000000
v 3.059169 0.203290 0.000000
v 3.049646 0.205000 0.000000
v 3.036217 0.207433 0.000000
v 3.020553 0.210213 0.000000
v 3.002833 0.213313 0.000000
v 2.983238 0.216704 0.000000
v 2.961949 0.220359 0.000000
v 2.939146 0.224250 0.000000
v 2.915009 0.228350 0.000000
v 2.889720 0.232630 0.000000
v 2.863458 0.237062 0.000000
v 2.836405 0.241620 0.000000
v 2.808741 0.246275 0.000000
v 2.780646 0.251000 0.000000
v 2.741646 0.049000 0.000000
v 2.739976 0.041498 0.000000
v 2.738451 0.033981 0.000000
v 2.737052 0.026438 0.000000
v 2.735757 0.018852 0.000000
v 2.734545 0.011211 0.000000
v 2.733396 0.003500 0.000000
v 2.732288 -0.004294 0.000000
v 2.731201 -0.012185 0.000000
v 2.730114 -0.020188 0.000000
v 2.729007 -0.028315 0.000000
v 2.727858 -0.036581 0.000000
v 2.726646 -0.045000 0.000000
v 2.635646 -0.028000 0.000000
v 2.637875 -0.020881 0.000000
v 2.640062 -0.013551 0.000000
v 2.642208 -0.006047 0.000000
v 2.644312 0.001593 0.000000
v 2.646375 0.009329 0.000000
v 2.648396 0.017125 0.000000
v 2.650375 0.024942 0.000000
v 2.652313 0.032741 0.000000
v 2.654208 0.040484 0.000000
v 2.656063 0.048134 0.000000
v 2.657875 0.055652 0.000000
v 2.659646 0.063000 0.000000
v 2.700646 0.264000 0.000000
v 2.454646 0.303000 0.000000
v 2.445503 0.304478 0.000000
v 2.436590 0.305907 0.000000
v 2.427927 0.307281 0.000000
v 2.419535 0.308593 0.000000
v 2.411434 0.309835 0.000000
v 2.403646 0.311000 0.000000
v 2.396191 0.312082 0.000000
v 2.389090 0.313074 0.000000
v 2.382365 0.313969 0.000000
v 2.376035 0.314759 0.000000
v 2.370121 0.315439 0.000000
v 2.364646 0.316000 0.000000
v 2.380646 0.400000 0.000000
v 2.386274 0.398499 0.000000
v 2.392169 0.396991 0.000000
v 2.398349 0.395469 0.000000
v 2.404831 0.393926 0.000000
v 2.411632 0.392355 0.000000
v 2.418771 0.390750 0.000000
v 2.426263 0.389103 0.000000
v 2.434127 0.387407 0.000000
v 2.442380 0.385656 0.000000
v 2.451039 0.383843 0.000000
v 2.460122 0.381960 0.000000
v 2.469646 0.380000 0.000000
v 2.715646 0.338000 0.000000
v 2.755646 0.539000 0.000000
v 2.522646 0.576000 0.000000
v 2.516054 0.576999 0.000000
v 2.509326 0.577991 0.000000
v 2.502536 0.578969 0.000000
v 2.495757 0.579926 0.000000
v 2.489060 0.580855 0.000000
v 2.482521 0.581750 0.000000
v 2.476210 0.582603 0.000000
v 2.470201 0.583407 0.000000
v 2.464568 0.584156 0.000000
v 2.459382 0.584843 0.000000
v 2.454717 0.585460 0.000000
v 2.450646 0.586000 0.000000
v 2.467646 0.670000 0.000000
v 2.472060 0.668711 0.000000
v 2.476794 0.667352 0.000000
v 2.481833 0.665937 0.000000
v 2.487164 0.664481 0.000000
v 2.492773 0.662998 0.000000
v 2.498646 0.661500 0.000000
v 2.504768 0.660002 0.000000
v 2.511127 0.658518 0.000000
v 2.517708 0.657062 0.000000
v 2.524498 0.655648 0.000000
v 2.531481 0.654289 0.000000
v 2.538646 0.653000 0.000000
v 2.550161 0.650858 0.000000
v 2.563604 0.648444 0.000000
v 2.578818 0.645781 0.000000
v 2.595646 0.642889 0.000000
v 2.613932 0.639788 0.000000
v 2.633521 0.636500 0.000000
v 2.654255 0.633045 0.000000
v 2.675979 0.629444 0.000000
v 2.698537 0.625719 0.000000
v 2.721771 0.621889 0.000000
v 2.745526 0.617976 0.000000
v 2.769646 0.614000 0.000000
v 2.790646 0.722000 0.000000
v 2.791434 0.727616 0.000000
v 2.792284 0.733431 0.000000
v 2.793177 0.739391 0.000000
v 2.794090 0.745444 0.000000
v 2.795003 0.751540 0.000000
v 2.795896 0.757625 0.000000
v 2.796746 0.763648 0.000000
v 2.797534 0.769556 0.000000
v 2.798239 0.775297 0.000000
v 2.798840 0.780819 0.000000
v 2.799316 0.786071 0.000000
v 2.799646 0.791000 0.000000
v 2.889646 0.775000 0.000000
v 2.887897 0.769957 0.000000
v 2.886155 0.764824 0.000000
v 2.884427 0.759594 0.000000
v 2.882720 0.754259 0.000000
v 2.881040 0.748814 0.000000
v 2.879396 0.743250 0.000000
v 2.877793 0.737561 0.000000
v 2.876238 0.731741 0.000000
v 2.874740 0.725781 0.000000
v 2.873303 0.719676 0.000000
v 2.871936 0.713418 0.000000
v 2.870646 0.707000 0.000000
v 2.849646 0.602000 0.000000
v 2.872976 0.598296 0.000000
v 2.895873 0.594699 0.000000
v 2.918193 0.591234 0.000000
v 2.939794 0.587926 0.000000
v 2.960534 0.584798 0.000000
v 2.980271 0.581875 0.000000
v 2.998862 0.579181 0.000000
v 3.016164 0.576741 0.000000
v 3.032036 0.574578 0.000000
v 3.046336 0.572718 0.000000
v 3.058919 0.571183 0.000000
v 3.069646 0.570000 0.000000
v 3.077524 0.569041 0.000000
v 3.085169 0.568162 0.000000
v 3.092599 0.567359 0.000000
v 3.099831 0.566630 0.000000
v 3.106883 0.565969 0.000000
v 3.113771 0.565375 0.000000
v 3.120513 0.564843 0.000000
v 3.127127 0.564370 0.000000
v 3.133630 0.563953 0.000000
v 3.140039 0.563588 0.000000
v 3.146372 0.563272 0.000000
v 3.152646 0.563000 0.000000
v 3.135646 0.473000 0.000000
v 3.128285 0.474710 0.000000
v 3.121173 0.476343 0.000000
v 3.114271 0.477906 0.000000
v 3.107535 0.479407 0.000000
v 3.100924 0.480853 0.000000
v 3.094396 0.482250 0.000000
v 3.087910 0.483605 0.000000
v 3.081424 0.484926 0.000000
v 3.074896 0.486219 0.000000
v 3.068285 0.487491 0.000000
v 3.061548 0.488749 0.000000
v 3.054646 0.490000 0.000000
v 2.834646 0.526000 0.000000
v 2.794646 0.325000 0.000000
v 2.823010 0.320526 0.000000
v 2.850979 0.316125 0.000000
v 2.878365 0.311828 0.000000
v 2.904979 0.307667 0.000000
v 2.930635 0.303672 0.000000
v 2.955146 0.299875 0.000000
v 2.978323 0.296307 0.000000
v 2.999979 0.293000 0.000000
v 3.019927 0.289984 0.000000
v 3.037979 0.287292 0.000000
v 3.053948 0.284953 0.000000
v 3.067646 0.283000 0.000000
v 3.074400 0.282002 0.000000
v 3.081595 0.281014 0.000000
v 3.089130 0.280047 0.000000
v 3.096905 0.279111 0.000000
v 3.104819 0.278217 0.000000
v 3.112771 0.277375 0.000000
v 3.120660 0.276596 0.000000
v 3.128386 0.275889 0.000000
v 3.135849 0.275266 0.000000
v 3.142947 0.274736 0.000000
v 3.149579 0.274311 0.000000
v 3.279646 0.682000 0.000000
v 3.849646 0.682000 -0.000000
v 3.849646 0.594000 -0.000000
v 3.613646 0.594000 -0.000000
v 3.613646 0.000000 0.000000
v 3.515646 0.000000 0.000000
v 3.515646 0.594000 0.000000
v 3.279646 0.594000 0.000000
vn -0.0000 -0.0000 -1.0000
vn -0.0000 -0.0000 1.0000
vt 0.141791 0.000000
vt 0.126866 0.000000
vt 0.134328 0.000000
vt 0.880597 0.000000
vt 0.104478 0.000000
vt 0.873134 0.000000
vt 0.067164 0.000000
vt 0.044776 0.000000
vt 0.059701 0.000000
vt 0.097015 0.000000
vt 0.052239 0.000000
vt 0.089552 0.000000
vt 0.119403 0.000000
vt 0.111940 0.000000
vt 0.037313 0.000000
vt 0.029851 0.000000
vt 1.000000 0.000000
vt 0.888060 0.000000
vt 0.022388 0.000000
vt 0.000000 0.000000
vt 0.992537 0.000000
vt 0.895522 0.000000
vt 0.014925 0.000000
vt 0.007463 0.000000
vt 0.149254 0.000000
vt 0.985075 0.000000
vt 0.977612 0.000000
vt 0.970149 0.000000
vt 0.962687 0.000000
vt 0.156716 0.000000
vt 0.955224 0.000000
vt 0.947761 0.000000
vt 0.940298 0.000000
vt 0.932836 0.000000
vt 0.164179 0.000000
vt 0.925373 0.000000
vt 0.917910 0.000000
vt 0.910448 0.000000
vt 0.902985 0.000000
vt 0.171642 0.000000
vt 0.417910 0.000000
vt 0.179104 0.000000
vt 0.410448 0.000000
vt 0.082090 0.000000
vt 0.402985 0.000000
vt 0.425373 0.000000
vt 0.186567 0.000000
vt 0.395522 0.000000
vt 0.194030 0.000000
vt 0.074627 0.000000
vt 0.388060 0.000000
vt 0.380597 0.000000
vt 0.201493 0.000000
vt 0.373134 0.000000
vt 0.208955 0.000000
vt 0.365672 0.000000
vt 0.216418 0.000000
vt 0.358209 0.000000
vt 0.350746 0.000000
vt 0.223881 0.000000
vt 0.432836 0.000000
vt 0.865672 0.000000
vt 0.440298 0.000000
vt 0.447761 0.000000
vt 0.343284 0.000000
vt 0.858209 0.000000
vt 0.455224 0.000000
vt 0.462687 0.000000
vt 0.470149 0.000000
vt 0.477612 0.000000
vt 0.485075 0.000000
vt 0.231343 0.000000
vt 0.850746 0.000000
vt 0.492537 0.000000
vt 0.500000 0.000000
vt 0.611940 0.000000
vt 0.597015 0.000000
vt 0.604478 0.000000
vt 0.507463 0.000000
vt 0.589552 0.000000
vt 0.514925 0.000000
vt 0.522388 0.000000
vt 0.582090 0.000000
vt 0.529851 0.000000
vt 0.537313 0.000000
vt 0.574627 0.000000
vt 0.544776 0.000000
vt 0.567164 0.000000
vt 0.552239 0.000000
vt 0.559702 0.000000
vt 0.619403 0.000000
vt 0.843284 0.000000
vt 0.626866 0.000000
vt 0.335821 0.000000
vt 0.835821 0.000000
vt 0.634328 0.000000
vt 0.641791 0.000000
vt 0.828358 0.000000
vt 0.649254 0.000000
vt 0.238806 0.000000
vt 0.820895 0.000000
vt 0.246269 0.000000
vt 0.328358 0.000000
vt 0.656716 0.000000
vt 0.253731 0.000000
vt 0.813433 0.000000
vt 0.261194 0.000000
vt 0.805970 0.000000
vt 0.664179 0.000000
vt 0.268657 0.000000
vt 0.798507 0.000000
vt 0.671642 0.000000
vt 0.276119 0.000000
vt 0.791045 0.000000
vt 0.283582 0.000000
vt 0.679105 0.000000
vt 0.783582 0.000000
vt 0.291045 0.000000
vt 0.776119 0.000000
vt 0.298507 0.000000
vt 0.305970 0.000000
vt 0.313433 0.000000
vt 0.320896 0.000000
vt 0.686567 0.000000
vt 0.768657 0.000000
vt 0.761194 0.000000
vt 0.753731 0.000000
vt 0.694030 0.000000
vt 0.746269 0.000000
vt 0.738806 0.000000
vt 0.731343 0.000000
vt 0.723881 0.000000
vt 0.716418 0.000000
vt 0.708955 0.000000
vt 0.701493 0.000000
vt 0.793103 0.000000
vt 0.784483 0.000000
vt 0.788793 0.000000
vt 0.905172 0.000000
vt 0.896552 0.000000
vt 0.900862 0.000000
vt 0.797414 0.000000
vt 0.892241 0.000000
vt 0.780172 0.000000
vt 0.909483 0.000000
vt 0.887931 0.000000
vt 0.801724 0.000000
vt 0.775862 0.000000
vt 0.913793 0.000000
vt 0.883621 0.000000
vt 0.806035 0.000000
vt 0.771552 0.000000
vt 0.918103 0.000000
vt 0.879310 0.000000
vt 0.810345 0.000000
vt 0.767241 0.000000
vt 0.922414 0.000000
vt 0.875000 0.000000
vt 0.814655 0.000000
vt 0.762931 0.000000
vt 0.926724 0.000000
vt 0.870690 0.000000
vt 0.758621 0.000000
vt 0.818965 0.000000
vt 0.931035 0.000000
vt 0.866379 0.000000
vt 0.754310 0.000000
vt 0.935345 0.000000
vt 0.862069 0.000000
vt 0.823276 0.000000
vt 0.750000 0.000000
vt 0.857759 0.000000
vt 0.939655 0.000000
vt 0.827586 0.000000
vt 0.745690 0.000000
vt 0.853448 0.000000
vt 0.943965 0.000000
vt 0.831897 0.000000
vt 0.849138 0.000000
vt 0.741379 0.000000
vt 0.948276 0.000000
vt 0.168103 0.000000
vt 0.176724 0.000000
vt 0.163793 0.000000
vt 0.172414 0.000000
vt 0.836207 0.000000
vt 0.844828 0.000000
vt 0.737069 0.000000
vt 0.952586 0.000000
vt 0.840517 0.000000
vt 0.732759 0.000000
vt 0.956897 0.000000
vt 0.185345 0.000000
vt 0.112069 0.000000
vt 0.181034 0.000000
vt 0.728448 0.000000
vt 0.116379 0.000000
vt 0.724138 0.000000
vt 0.125000 0.000000
vt 0.120690 0.000000
vt 0.133621 0.000000
vt 0.142241 0.000000
vt 0.129310 0.000000
vt 0.137931 0.000000
vt 0.150862 0.000000
vt 0.159483 0.000000
vt 0.146552 0.000000
vt 0.155172 0.000000
vt 0.189655 0.000000
vt 0.193966 0.000000
vt 0.344828 0.000000
vt 0.340517 0.000000
vt 0.349138 0.000000
vt 0.353448 0.000000
vt 0.719828 0.000000
vt 0.715517 0.000000
vt 0.198276 0.000000
vt 0.965517 0.000000
vt 0.987069 0.000000
vt 0.961207 0.000000
vt 0.982759 0.000000
vt 0.991379 0.000000
vt 0.978448 0.000000
vt 0.336207 0.000000
vt 0.202586 0.000000
vt 0.331897 0.000000
vt 0.995690 0.000000
vt 0.206897 0.000000
vt 0.327586 0.000000
vt 0.211207 0.000000
vt 0.323276 0.000000
vt 0.215517 0.000000
vt 0.564655 0.000000
vt 0.556035 0.000000
vt 0.560345 0.000000
vt 0.551724 0.000000
vt 0.547414 0.000000
vt 0.543103 0.000000
vt 0.318966 0.000000
vt 0.219828 0.000000
vt 0.538793 0.000000
vt 0.534483 0.000000
vt 0.530172 0.000000
vt 0.525862 0.000000
vt 0.521552 0.000000
vt 0.517241 0.000000
vt 0.568965 0.000000
vt 0.512931 0.000000
vt 0.508621 0.000000
vt 0.504310 0.000000
vt 0.224138 0.000000
vt 0.314655 0.000000
vt 0.573276 0.000000
vt 0.228448 0.000000
vt 0.577586 0.000000
vt 0.310345 0.000000
vt 0.974138 0.000000
vt 0.581897 0.000000
vt 0.495690 0.000000
vt 0.232759 0.000000
vt 0.586207 0.000000
vt 0.711207 0.000000
vt 0.357759 0.000000
vt 0.706897 0.000000
vt 0.590517 0.000000
vt 0.702586 0.000000
vt 0.306034 0.000000
vt 0.491379 0.000000
vt 0.698276 0.000000
vt 0.594828 0.000000
vt 0.237069 0.000000
vt 0.362069 0.000000
vt 0.693965 0.000000
vt 0.599138 0.000000
vt 0.689655 0.000000
vt 0.685345 0.000000
vt 0.603448 0.000000
vt 0.681035 0.000000
vt 0.676724 0.000000
vt 0.607759 0.000000
vt 0.672414 0.000000
vt 0.668103 0.000000
vt 0.612069 0.000000
vt 0.663793 0.000000
vt 0.659483 0.000000
vt 0.655172 0.000000
vt 0.650862 0.000000
vt 0.646552 0.000000
vt 0.642241 0.000000
vt 0.637931 0.000000
vt 0.633621 0.000000
vt 0.629310 0.000000
vt 0.625000 0.000000
vt 0.620690 0.000000
vt 0.616379 0.000000
vt 0.366379 0.000000
vt 0.487069 0.000000
vt 0.241379 0.000000
vt 0.301724 0.000000
vt 0.370690 0.000000
vt 0.969828 0.000000
vt 0.482759 0.000000
vt 0.245690 0.000000
vt 0.375000 0.000000
vt 0.250000 0.000000
vt 0.254310 0.000000
vt 0.478448 0.000000
vt 0.297414 0.000000
vt 0.258621 0.000000
vt 0.379310 0.000000
vt 0.262931 0.000000
vt 0.474138 0.000000
vt 0.383621 0.000000
vt 0.267241 0.000000
vt 0.271552 0.000000
vt 0.387931 0.000000
vt 0.469828 0.000000
vt 0.275862 0.000000
vt 0.392241 0.000000
vt 0.465517 0.000000
vt 0.280172 0.000000
vt 0.284483 0.000000
vt 0.288793 0.000000
vt 0.293103 0.000000
vt 0.396552 0.000000
vt 0.461207 0.000000
vt 0.400862 0.000000
vt 0.456897 0.000000
vt 0.405172 0.000000
vt 0.409483 0.000000
vt 0.413793 0.000000
vt 0.418103 0.000000
vt 0.422414 0.000000
vt 0.426724 0.000000
vt 0.431034 0.000000
vt 0.435345 0.000000
vt 0.439655 0.000000
vt 0.443966 0.000000
vt 0.448276 0.000000
vt 0.452586 0.000000
vt 0.103448 0.000000
vt 0.107759 0.000000
vt 0.099138 0.000000
vt 0.094828 0.000000
vt 0.004310 0.000000
vt 0.090517 0.000000
vt 0.008621 0.000000
vt 0.086207 0.000000
vt 0.012931 0.000000
vt 0.081897 0.000000
vt 0.017241 0.000000
vt 0.077586 0.000000
vt 0.021552 0.000000
vt 0.073276 0.000000
vt 0.025862 0.000000
vt 0.068966 0.000000
vt 0.030172 0.000000
vt 0.064655 0.000000
vt 0.060345 0.000000
vt 0.034483 0.000000
vt 0.056034 0.000000
vt 0.038793 0.000000
vt 0.043103 0.000000
vt 0.047414 0.000000
vt 0.051724 0.000000
vt 0.565217 0.000000
vt 0.556522 0.000000
vt 0.008696 0.000000
vt 0.547826 0.000000
vt 0.991304 0.000000
vt 0.539130 0.000000
vt 0.573913 0.000000
vt 0.530435 0.000000
vt 0.982609 0.000000
vt 0.017391 0.000000
vt 0.521739 0.000000
vt 0.973913 0.000000
vt 0.513043 0.000000
vt 0.504348 0.000000
vt 0.582609 0.000000
vt 0.965217 0.000000
vt 0.026087 0.000000
vt 0.495652 0.000000
vt 0.956522 0.000000
vt 0.486957 0.000000
vt 0.478261 0.000000
vt 0.591304 0.000000
vt 0.947826 0.000000
vt 0.034783 0.000000
vt 0.469565 0.000000
vt 0.460870 0.000000
vt 0.939130 0.000000
vt 0.452174 0.000000
vt 0.930435 0.000000
vt 0.600000 0.000000
vt 0.443478 0.000000
vt 0.043478 0.000000
vt 0.434783 0.000000
vt 0.426087 0.000000
vt 0.921739 0.000000
vt 0.913043 0.000000
vt 0.608696 0.000000
vt 0.052174 0.000000
vt 0.904348 0.000000
vt 0.895652 0.000000
vt 0.617391 0.000000
vt 0.060870 0.000000
vt 0.313043 0.000000
vt 0.304348 0.000000
vt 0.321739 0.000000
vt 0.330435 0.000000
vt 0.417391 0.000000
vt 0.408696 0.000000
vt 0.869565 0.000000
vt 0.886957 0.000000
vt 0.069565 0.000000
vt 0.626087 0.000000
vt 0.295652 0.000000
vt 0.286957 0.000000
vt 0.078261 0.000000
vt 0.634783 0.000000
vt 0.278261 0.000000
vt 0.269565 0.000000
vt 0.086957 0.000000
vt 0.643478 0.000000
vt 0.260870 0.000000
vt 0.095652 0.000000
vt 0.652174 0.000000
vt 0.252174 0.000000
vt 0.860870 0.000000
vt 0.878261 0.000000
vt 0.852174 0.000000
vt 0.243478 0.000000
vt 0.104348 0.000000
vt 0.660870 0.000000
vt 0.843478 0.000000
vt 0.382609 0.000000
vt 0.400000 0.000000
vt 0.391304 0.000000
vt 0.234783 0.000000
vt 0.834783 0.000000
vt 0.113043 0.000000
vt 0.121739 0.000000
vt 0.826087 0.000000
vt 0.669565 0.000000
vt 0.226087 0.000000
vt 0.130435 0.000000
vt 0.678261 0.000000
vt 0.139130 0.000000
vt 0.817391 0.000000
vt 0.686957 0.000000
vt 0.147826 0.000000
vt 0.156522 0.000000
vt 0.695652 0.000000
vt 0.217391 0.000000
vt 0.808696 0.000000
vt 0.165217 0.000000
vt 0.704348 0.000000
vt 0.173913 0.000000
vt 0.800000 0.000000
vt 0.182609 0.000000
vt 0.713043 0.000000
vt 0.191304 0.000000
vt 0.200000 0.000000
vt 0.208696 0.000000
vt 0.721739 0.000000
vt 0.791304 0.000000
vt 0.730435 0.000000
vt 0.782609 0.000000
vt 0.373913 0.000000
vt 0.739130 0.000000
vt 0.773913 0.000000
vt 0.747826 0.000000
vt 0.756522 0.000000
vt 0.765217 0.000000
vt 0.347826 0.000000
vt 0.365217 0.000000
vt 0.356522 0.000000
vt 0.339130 0.000000
vt 0.989848 0.000000
vt 0.964467 0.000000
vt 0.984772 0.000000
vt 0.969543 0.000000
vt 0.994924 0.000000
vt 0.979695 0.000000
vt 0.974619 0.000000
vt 0.045685 0.000000
vt 0.492386 0.000000
vt 0.040609 0.000000
vt 0.487310 0.000000
vt 0.055838 0.000000
vt 0.050761 0.000000
vt 0.482233 0.000000
vt 0.477157 0.000000
vt 0.060914 0.000000
vt 0.065990 0.000000
vt 0.472081 0.000000
vt 0.467005 0.000000
vt 0.959391 0.000000
vt 0.954315 0.000000
vt 0.949239 0.000000
vt 0.005076 0.000000
vt 0.944162 0.000000
vt 0.939086 0.000000
vt 0.020305 0.000000
vt 0.934010 0.000000
vt 0.928934 0.000000
vt 0.025381 0.000000
vt 0.923858 0.000000
vt 0.015228 0.000000
vt 0.010152 0.000000
vt 0.035533 0.000000
vt 0.030457 0.000000
vt 0.456853 0.000000
vt 0.461929 0.000000
vt 0.071066 0.000000
vt 0.076142 0.000000
vt 0.081218 0.000000
vt 0.451777 0.000000
vt 0.086294 0.000000
vt 0.091371 0.000000
vt 0.096447 0.000000
vt 0.101523 0.000000
vt 0.106599 0.000000
vt 0.111675 0.000000
vt 0.116751 0.000000
vt 0.121827 0.000000
vt 0.126904 0.000000
vt 0.497462 0.000000
vt 0.502538 0.000000
vt 0.918782 0.000000
vt 0.913706 0.000000
vt 0.131980 0.000000
vt 0.137056 0.000000
vt 0.446701 0.000000
vt 0.142132 0.000000
vt 0.512690 0.000000
vt 0.507614 0.000000
vt 0.908629 0.000000
vt 0.903553 0.000000
vt 0.517766 0.000000
vt 0.522843 0.000000
vt 0.898477 0.000000
vt 0.893401 0.000000
vt 0.888325 0.000000
vt 0.527919 0.000000
vt 0.715736 0.000000
vt 0.883249 0.000000
vt 0.700508 0.000000
vt 0.710660 0.000000
vt 0.720812 0.000000
vt 0.532995 0.000000
vt 0.695431 0.000000
vt 0.705584 0.000000
vt 0.878173 0.000000
vt 0.538071 0.000000
vt 0.725888 0.000000
vt 0.690355 0.000000
vt 0.873096 0.000000
vt 0.543147 0.000000
vt 0.730964 0.000000
vt 0.868020 0.000000
vt 0.685279 0.000000
vt 0.548223 0.000000
vt 0.736041 0.000000
vt 0.862944 0.000000
vt 0.680203 0.000000
vt 0.553299 0.000000
vt 0.857868 0.000000
vt 0.741117 0.000000
vt 0.558376 0.000000
vt 0.675127 0.000000
vt 0.852792 0.000000
vt 0.746193 0.000000
vt 0.563452 0.000000
vt 0.847716 0.000000
vt 0.670051 0.000000
vt 0.568528 0.000000
vt 0.751269 0.000000
vt 0.842640 0.000000
vt 0.573604 0.000000
vt 0.664975 0.000000
vt 0.837563 0.000000
vt 0.756345 0.000000
vt 0.578680 0.000000
vt 0.832487 0.000000
vt 0.147208 0.000000
vt 0.441624 0.000000
vt 0.827411 0.000000
vt 0.152284 0.000000
vt 0.659898 0.000000
vt 0.157360 0.000000
vt 0.822335 0.000000
vt 0.583756 0.000000
vt 0.162437 0.000000
vt 0.436548 0.000000
vt 0.167513 0.000000
vt 0.761421 0.000000
vt 0.172589 0.000000
vt 0.588832 0.000000
vt 0.817259 0.000000
vt 0.177665 0.000000
vt 0.182741 0.000000
vt 0.187817 0.000000
vt 0.192893 0.000000
vt 0.197970 0.000000
vt 0.203046 0.000000
vt 0.593909 0.000000
vt 0.269036 0.000000
vt 0.258883 0.000000
vt 0.263959 0.000000
vt 0.208122 0.000000
vt 0.213198 0.000000
vt 0.218274 0.000000
vt 0.223350 0.000000
vt 0.253807 0.000000
vt 0.228426 0.000000
vt 0.233503 0.000000
vt 0.248731 0.000000
vt 0.238579 0.000000
vt 0.243655 0.000000
vt 0.812183 0.000000
vt 0.431472 0.000000
vt 0.654822 0.000000
vt 0.598985 0.000000
vt 0.274112 0.000000
vt 0.807107 0.000000
vt 0.766497 0.000000
vt 0.604061 0.000000
vt 0.426396 0.000000
vt 0.279188 0.000000
vt 0.802030 0.000000
vt 0.609137 0.000000
vt 0.284264 0.000000
vt 0.796954 0.000000
vt 0.421320 0.000000
vt 0.649746 0.000000
vt 0.614213 0.000000
vt 0.771574 0.000000
vt 0.289340 0.000000
vt 0.791878 0.000000
vt 0.416244 0.000000
vt 0.619289 0.000000
vt 0.786802 0.000000
vt 0.294416 0.000000
vt 0.411168 0.000000
vt 0.644670 0.000000
vt 0.624366 0.000000
vt 0.776650 0.000000
vt 0.781726 0.000000
vt 0.299492 0.000000
vt 0.406091 0.000000
vt 0.629442 0.000000
vt 0.401015 0.000000
vt 0.304569 0.000000
vt 0.634518 0.000000
vt 0.639594 0.000000
vt 0.395939 0.000000
vt 0.309645 0.000000
vt 0.390863 0.000000
vt 0.385787 0.000000
vt 0.314721 0.000000
vt 0.380711 0.000000
vt 0.375635 0.000000
vt 0.319797 0.000000
vt 0.370558 0.000000
vt 0.365482 0.000000
vt 0.360406 0.000000
vt 0.324873 0.000000
vt 0.355330 0.000000
vt 0.350254 0.000000
vt 0.345178 0.000000
vt 0.340102 0.000000
vt 0.335025 0.000000
vt 0.329949 0.000000
vt 0.469136 0.000000
vt 0.456790 0.000000
vt 0.462963 0.000000
vt 0.475309 0.000000
vt 0.481481 0.000000
vt 0.487654 0.000000
vt 0.493827 0.000000
vt 0.506173 0.000000
vt 0.512346 0.000000
vt 0.518519 0.000000
vt 0.524691 0.000000
vt 0.530864 0.000000
vt 0.537037 0.000000
vt 0.543210 0.000000
vt 0.549383 0.000000
vt 0.555556 0.000000
vt 0.561728 0.000000
vt 0.567901 0.000000
vt 0.574074 0.000000
vt 0.580247 0.000000
vt 0.586420 0.000000
vt 0.592593 0.000000
vt 0.598765 0.000000
vt 0.604938 0.000000
vt 0.611111 0.000000
vt 0.617284 0.000000
vt 0.623457 0.000000
vt 0.629630 0.000000
vt 0.635802 0.000000
vt 0.641975 0.000000
vt 0.648148 0.000000
vt 0.654321 0.000000
vt 0.660494 0.000000
vt 0.666667 0.000000
vt 0.672840 0.000000
vt 0.679012 0.000000
vt 0.006173 0.000000
vt 0.012346 0.000000
vt 0.018519 0.000000
vt 0.024691 0.000000
vt 0.030864 0.000000
vt 0.037037 0.000000
vt 0.043210 0.000000
vt 0.049383 0.000000
vt 0.055556 0.000000
vt 0.080247 0.000000
vt 0.425926 0.000000
vt 0.432099 0.000000
vt 0.438272 0.000000
vt 0.444444 0.000000
vt 0.450617 0.000000
vt 0.419753 0.000000
vt 0.413580 0.000000
vt 0.407407 0.000000
vt 0.401235 0.000000
vt 0.395062 0.000000
vt 0.388889 0.000000
vt 0.061728 0.000000
vt 0.074074 0.000000
vt 0.086420 0.000000
vt 0.382716 0.000000
vt 0.067901 0.000000
vt 0.376543 0.000000
vt 0.092593 0.000000
vt 0.370370 0.000000
vt 0.098765 0.000000
vt 0.364198 0.000000
vt 0.104938 0.000000
vt 0.358025 0.000000
vt 0.851852 0.000000
vt 0.845679 0.000000
vt 0.111111 0.000000
vt 0.993827 0.000000
vt 0.351852 0.000000
vt 0.987654 0.000000
vt 0.858025 0.000000
vt 0.981481 0.000000
vt 0.864198 0.000000
vt 0.117284 0.000000
vt 0.345679 0.000000
vt 0.975309 0.000000
vt 0.691358 0.000000
vt 0.839506 0.000000
vt 0.685185 0.000000
vt 0.870370 0.000000
vt 0.833333 0.000000
vt 0.969136 0.000000
vt 0.876543 0.000000
vt 0.827160 0.000000
vt 0.123457 0.000000
vt 0.697531 0.000000
vt 0.962963 0.000000
vt 0.339506 0.000000
vt 0.882716 0.000000
vt 0.820988 0.000000
vt 0.703704 0.000000
vt 0.956790 0.000000
vt 0.888889 0.000000
vt 0.814815 0.000000
vt 0.709877 0.000000
vt 0.950617 0.000000
vt 0.895062 0.000000
vt 0.129630 0.000000
vt 0.808642 0.000000
vt 0.333333 0.000000
vt 0.716049 0.000000
vt 0.901235 0.000000
vt 0.944444 0.000000
vt 0.802469 0.000000
vt 0.722222 0.000000
vt 0.907407 0.000000
vt 0.938272 0.000000
vt 0.728395 0.000000
vt 0.796296 0.000000
vt 0.135802 0.000000
vt 0.913580 0.000000
vt 0.932099 0.000000
vt 0.327161 0.000000
vt 0.734568 0.000000
vt 0.790123 0.000000
vt 0.919753 0.000000
vt 0.925926 0.000000
vt 0.740741 0.000000
vt 0.783951 0.000000
vt 0.746914 0.000000
vt 0.777778 0.000000
vt 0.141975 0.000000
vt 0.320988 0.000000
vt 0.753086 0.000000
vt 0.771605 0.000000
vt 0.759259 0.000000
vt 0.765432 0.000000
vt 0.314815 0.000000
vt 0.148148 0.000000
vt 0.308642 0.000000
vt 0.154321 0.000000
vt 0.302469 0.000000
vt 0.160494 0.000000
vt 0.296296 0.000000
vt 0.166667 0.000000
vt 0.290123 0.000000
vt 0.172840 0.000000
vt 0.283951 0.000000
vt 0.277778 0.000000
vt 0.179012 0.000000
vt 0.271605 0.000000
vt 0.185185 0.000000
vt 0.265432 0.000000
vt 0.259259 0.000000
vt 0.191358 0.000000
vt 0.253086 0.000000
vt 0.246914 0.000000
vt 0.240741 0.000000
vt 0.234568 0.000000
vt 0.197531 0.000000
vt 0.228395 0.000000
vt 0.203704 0.000000
vt 0.209877 0.000000
vt 0.216049 0.000000
vt 0.222222 0.000000
vt 0.013699 0.000000
vt 0.534247 0.000000
vt 0.506849 0.000000
vt 0.520548 0.000000
vt 0.986301 0.000000
vt 0.547945 0.000000
vt 0.972603 0.000000
vt 0.561644 0.000000
vt 0.958904 0.000000
vt 0.575342 0.000000
vt 0.945205 0.000000
vt 0.589041 0.000000
vt 0.931507 0.000000
vt 0.602740 0.000000
vt 0.917808 0.000000
vt 0.616438 0.000000
vt 0.904110 0.000000
vt 0.630137 0.000000
vt 0.890411 0.000000
vt 0.643836 0.000000
vt 0.876712 0.000000
vt 0.657534 0.000000
vt 0.863014 0.000000
vt 0.671233 0.000000
vt 0.849315 0.000000
vt 0.684932 0.000000
vt 0.835616 0.000000
vt 0.821918 0.000000
vt 0.808219 0.000000
vt 0.794521 0.000000
vt 0.780822 0.000000
vt 0.767123 0.000000
vt 0.753425 0.000000
vt 0.739726 0.000000
vt 0.726027 0.000000
vt 0.712329 0.000000
vt 0.698630 0.000000
vt 0.027397 0.000000
vt 0.041096 0.000000
vt 0.054795 0.000000
vt 0.068493 0.000000
vt 0.082192 0.000000
vt 0.095890 0.000000
vt 0.109589 0.000000
vt 0.123288 0.000000
vt 0.136986 0.000000
vt 0.150685 0.000000
vt 0.164384 0.000000
vt 0.178082 0.000000
vt 0.191781 0.000000
vt 0.205479 0.000000
vt 0.219178 0.000000
vt 0.246575 0.000000
vt 0.287671 0.000000
vt 0.328767 0.000000
vt 0.342466 0.000000
vt 0.356164 0.000000
vt 0.369863 0.000000
vt 0.383562 0.000000
vt 0.397260 0.000000
vt 0.410959 0.000000
vt 0.424658 0.000000
vt 0.438356 0.000000
vt 0.232877 0.000000
vt 0.260274 0.000000
vt 0.273973 0.000000
vt 0.301370 0.000000
vt 0.315068 0.000000
vt 0.452055 0.000000
vt 0.465753 0.000000
vt 0.479452 0.000000
vt 0.493151 0.000000
vt 0.637681 0.000000
vt 0.628019 0.000000
vt 0.632850 0.000000
vt 0.623188 0.000000
vt 0.618357 0.000000
vt 0.613527 0.000000
vt 0.642512 0.000000
vt 0.647343 0.000000
vt 0.603865 0.000000
vt 0.657005 0.000000
vt 0.599034 0.000000
vt 0.661836 0.000000
vt 0.594203 0.000000
vt 0.589372 0.000000
vt 0.671498 0.000000
vt 0.584541 0.000000
vt 0.676328 0.000000
vt 0.579710 0.000000
vt 0.681159 0.000000
vt 0.574879 0.000000
vt 0.685990 0.000000
vt 0.570048 0.000000
vt 0.690821 0.000000
vt 0.700483 0.000000
vt 0.458937 0.000000
vt 0.449275 0.000000
vt 0.454106 0.000000
vt 0.463768 0.000000
vt 0.468599 0.000000
vt 0.473430 0.000000
vt 0.483092 0.000000
vt 0.487923 0.000000
vt 0.492754 0.000000
vt 0.497585 0.000000
vt 0.502415 0.000000
vt 0.507246 0.000000
vt 0.512077 0.000000
vt 0.516908 0.000000
vt 0.526570 0.000000
vt 0.531401 0.000000
vt 0.536232 0.000000
vt 0.541063 0.000000
vt 0.545894 0.000000
vt 0.550725 0.000000
vt 0.560386 0.000000
vt 0.705314 0.000000
vt 0.710145 0.000000
vt 0.714976 0.000000
vt 0.719807 0.000000
vt 0.724638 0.000000
vt 0.439614 0.000000
vt 0.729469 0.000000
vt 0.429952 0.000000
vt 0.425121 0.000000
vt 0.420290 0.000000
vt 0.734300 0.000000
vt 0.415459 0.000000
vt 0.410628 0.000000
vt 0.405797 0.000000
vt 0.400966 0.000000
vt 0.396135 0.000000
vt 0.743961 0.000000
vt 0.386473 0.000000
vt 0.748792 0.000000
vt 0.753623 0.000000
vt 0.758454 0.000000
vt 0.763285 0.000000
vt 0.768116 0.000000
vt 0.772947 0.000000
vt 0.787440 0.000000
vt 0.792271 0.000000
vt 0.797101 0.000000
vt 0.801932 0.000000
vt 0.806763 0.000000
vt 0.811594 0.000000
vt 0.816425 0.000000
vt 0.821256 0.000000
vt 0.830918 0.000000
vt 0.835749 0.000000
vt 0.840580 0.000000
vt 0.845411 0.000000
vt 0.850242 0.000000
vt 0.855072 0.000000
vt 0.859903 0.000000
vt 0.864734 0.000000
vt 0.874396 0.000000
vt 0.879227 0.000000
vt 0.884058 0.000000
vt 0.381643 0.000000
vt 0.323671 0.000000
vt 0.314010 0.000000
vt 0.318841 0.000000
vt 0.328502 0.000000
vt 0.338164 0.000000
vt 0.342995 0.000000
vt 0.352657 0.000000
vt 0.357488 0.000000
vt 0.362319 0.000000
vt 0.367150 0.000000
vt 0.371981 0.000000
vt 0.376812 0.000000
vt 0.893720 0.000000
vt 0.898551 0.000000
vt 0.903382 0.000000
vt 0.309179 0.000000
vt 0.299517 0.000000
vt 0.294686 0.000000
vt 0.289855 0.000000
vt 0.285024 0.000000
vt 0.908213 0.000000
vt 0.280193 0.000000
vt 0.275362 0.000000
vt 0.270531 0.000000
vt 0.265700 0.000000
vt 0.256039 0.000000
vt 0.917874 0.000000
vt 0.251208 0.000000
vt 0.922705 0.000000
vt 0.927536 0.000000
vt 0.932367 0.000000
vt 0.937198 0.000000
vt 0.942029 0.000000
vt 0.946860 0.000000
vt 0.951691 0.000000
vt 0.961353 0.000000
vt 0.966184 0.000000
vt 0.971014 0.000000
vt 0.975845 0.000000
vt 0.980676 0.000000
vt 0.985507 0.000000
vt 0.990338 0.000000
vt 0.995169 0.000000
vt 0.004831 0.000000
vt 0.009662 0.000000
vt 0.014493 0.000000
vt 0.019324 0.000000
vt 0.024155 0.000000
vt 0.028986 0.000000
vt 0.033816 0.000000
vt 0.038647 0.000000
vt 0.048309 0.000000
vt 0.053140 0.000000
vt 0.067633 0.000000
vt 0.072464 0.000000
vt 0.077295 0.000000
vt 0.082126 0.000000
vt 0.091787 0.000000
vt 0.096618 0.000000
vt 0.101449 0.000000
vt 0.106280 0.000000
vt 0.115942 0.000000
vt 0.120773 0.000000
vt 0.246377 0.000000
vt 0.125604 0.000000
vt 0.057971 0.000000
vt 0.062802 0.000000
vt 0.241546 0.000000
vt 0.236715 0.000000
vt 0.231884 0.000000
vt 0.135266 0.000000
vt 0.227053 0.000000
vt 0.140097 0.000000
vt 0.144928 0.000000
vt 0.149758 0.000000
vt 0.212560 0.000000
vt 0.154589 0.000000
vt 0.207729 0.000000
vt 0.159420 0.000000
vt 0.202899 0.000000
vt 0.164251 0.000000
vt 0.198068 0.000000
vt 0.169082 0.000000
vt 0.193237 0.000000
vt 0.188406 0.000000
vt 0.183575 0.000000
vt 0.178744 0.000000
vt 0.285714 0.000000
vt 0.142857 0.000000
vt 0.428571 0.000000
vt 0.571429 0.000000
vt 0.857143 0.000000
vt 0.714286 0.000000
s 0
f 20/1/1 18/2/1 19/3/1
f 18/2/1 119/4/1 19/3/1
f 18/2/1 15/5/1 119/4/1
f 15/5/1 118/6/1 119/4/1
f 10/7/1 7/8/1 9/9/1
f 7/8/1 14/10/1 9/9/1
f 7/8/1 8/11/1 14/10/1
f 8/11/1 13/12/1 14/10/1
f 20/1/1 17/13/1 18/2/1
f 16/14/1 118/6/1 15/5/1
f 10/7/1 6/15/1 7/8/1
f 5/16/1 13/12/1 8/11/1
f 20/1/1 135/17/1 17/13/1
f 135/17/1 16/14/1 17/13/1
f 135/17/1 120/18/1 16/14/1
f 120/18/1 118/6/1 16/14/1
f 10/7/1 4/19/1 6/15/1
f 4/19/1 5/16/1 6/15/1
f 4/19/1 1/20/1 5/16/1
f 1/20/1 13/12/1 5/16/1
f 20/1/1 134/21/1 135/17/1
f 121/22/1 118/6/1 120/18/1
f 10/7/1 3/23/1 4/19/1
f 2/24/1 13/12/1 1/20/1
f 21/25/1 134/21/1 20/1/1
f 21/25/1 133/26/1 134/21/1
f 21/25/1 132/27/1 133/26/1
f 21/25/1 131/28/1 132/27/1
f 21/25/1 130/29/1 131/28/1
f 22/30/1 130/29/1 21/25/1
f 22/30/1 129/31/1 130/29/1
f 22/30/1 128/32/1 129/31/1
f 22/30/1 127/33/1 128/32/1
f 22/30/1 126/34/1 127/33/1
f 23/35/1 126/34/1 22/30/1
f 23/35/1 125/36/1 126/34/1
f 23/35/1 124/37/1 125/36/1
f 23/35/1 123/38/1 124/37/1
f 23/35/1 122/39/1 123/38/1
f 24/40/1 122/39/1 23/35/1
f 24/40/1 121/22/1 122/39/1
f 24/40/1 57/41/1 121/22/1
f 57/41/1 118/6/1 121/22/1
f 25/42/1 56/43/1 24/40/1
f 56/43/1 57/41/1 24/40/1
f 10/7/1 12/44/1 3/23/1
f 12/44/1 2/24/1 3/23/1
f 12/44/1 13/12/1 2/24/1
f 25/42/1 55/45/1 56/43/1
f 58/46/1 118/6/1 57/41/1
f 26/47/1 55/45/1 25/42/1
f 26/47/1 54/48/1 55/45/1
f 27/49/1 54/48/1 26/47/1
f 10/7/1 11/50/1 12/44/1
f 27/49/1 53/51/1 54/48/1
f 27/49/1 52/52/1 53/51/1
f 28/53/1 52/52/1 27/49/1
f 28/53/1 51/54/1 52/52/1
f 29/55/1 51/54/1 28/53/1
f 29/55/1 50/56/1 51/54/1
f 30/57/1 50/56/1 29/55/1
f 30/57/1 49/58/1 50/56/1
f 30/57/1 48/59/1 49/58/1
f 31/60/1 48/59/1 30/57/1
f 59/61/1 118/6/1 58/46/1
f 59/61/1 117/62/1 118/6/1
f 60/63/1 117/62/1 59/61/1
f 61/64/1 117/62/1 60/63/1
f 31/60/1 47/65/1 48/59/1
f 61/64/1 116/66/1 117/62/1
f 62/67/1 116/66/1 61/64/1
f 63/68/1 116/66/1 62/67/1
f 64/69/1 116/66/1 63/68/1
f 65/70/1 116/66/1 64/69/1
f 66/71/1 116/66/1 65/70/1
f 32/72/1 47/65/1 31/60/1
f 66/71/1 115/73/1 116/66/1
f 67/74/1 115/73/1 66/71/1
f 68/75/1 115/73/1 67/74/1
f 83/76/1 81/77/1 82/78/1
f 69/79/1 115/73/1 68/75/1
f 83/76/1 80/80/1 81/77/1
f 70/81/1 115/73/1 69/79/1
f 71/82/1 115/73/1 70/81/1
f 83/76/1 79/83/1 80/80/1
f 72/84/1 115/73/1 71/82/1
f 73/85/1 115/73/1 72/84/1
f 83/76/1 78/86/1 79/83/1
f 74/87/1 115/73/1 73/85/1
f 83/76/1 77/88/1 78/86/1
f 75/89/1 115/73/1 74/87/1
f 83/76/1 76/90/1 77/88/1
f 76/90/1 115/73/1 75/89/1
f 83/76/1 115/73/1 76/90/1
f 84/91/1 115/73/1 83/76/1
f 84/91/1 114/92/1 115/73/1
f 85/93/1 114/92/1 84/91/1
f 32/72/1 46/94/1 47/65/1
f 85/93/1 113/95/1 114/92/1
f 86/96/1 113/95/1 85/93/1
f 87/97/1 113/95/1 86/96/1
f 87/97/1 112/98/1 113/95/1
f 88/99/1 112/98/1 87/97/1
f 33/100/1 46/94/1 32/72/1
f 88/99/1 111/101/1 112/98/1
f 34/102/1 46/94/1 33/100/1
f 34/102/1 45/103/1 46/94/1
f 89/104/1 111/101/1 88/99/1
f 35/105/1 45/103/1 34/102/1
f 89/104/1 110/106/1 111/101/1
f 36/107/1 45/103/1 35/105/1
f 89/104/1 109/108/1 110/106/1
f 90/109/1 109/108/1 89/104/1
f 37/110/1 45/103/1 36/107/1
f 90/109/1 108/111/1 109/108/1
f 91/112/1 108/111/1 90/109/1
f 38/113/1 45/103/1 37/110/1
f 91/112/1 107/114/1 108/111/1
f 39/115/1 45/103/1 38/113/1
f 92/116/1 107/114/1 91/112/1
f 92/116/1 106/117/1 107/114/1
f 40/118/1 45/103/1 39/115/1
f 92/116/1 105/119/1 106/117/1
f 40/118/1 41/120/1 45/103/1
f 41/120/1 42/121/1 45/103/1
f 42/121/1 43/122/1 45/103/1
f 43/122/1 44/123/1 45/103/1
f 93/124/1 105/119/1 92/116/1
f 93/124/1 104/125/1 105/119/1
f 93/124/1 103/126/1 104/125/1
f 93/124/1 102/127/1 103/126/1
f 94/128/1 102/127/1 93/124/1
f 94/128/1 101/129/1 102/127/1
f 94/128/1 100/130/1 101/129/1
f 94/128/1 99/131/1 100/130/1
f 94/128/1 98/132/1 99/131/1
f 94/128/1 97/133/1 98/132/1
f 94/128/1 96/134/1 97/133/1
f 94/128/1 95/135/1 96/134/1
f 320/136/1 318/137/1 319/138/1
f 346/139/1 344/140/1 345/141/1
f 321/142/1 318/137/1 320/136/1
f 346/139/1 343/143/1 344/140/1
f 321/142/1 317/144/1 318/137/1
f 347/145/1 343/143/1 346/139/1
f 347/145/1 342/146/1 343/143/1
f 322/147/1 317/144/1 321/142/1
f 322/147/1 316/148/1 317/144/1
f 348/149/1 342/146/1 347/145/1
f 348/149/1 341/150/1 342/146/1
f 323/151/1 316/148/1 322/147/1
f 323/151/1 315/152/1 316/148/1
f 349/153/1 341/150/1 348/149/1
f 349/153/1 340/154/1 341/150/1
f 324/155/1 315/152/1 323/151/1
f 324/155/1 314/156/1 315/152/1
f 350/157/1 340/154/1 349/153/1
f 350/157/1 339/158/1 340/154/1
f 325/159/1 314/156/1 324/155/1
f 325/159/1 313/160/1 314/156/1
f 351/161/1 339/158/1 350/157/1
f 351/161/1 338/162/1 339/158/1
f 325/159/1 312/163/1 313/160/1
f 326/164/1 312/163/1 325/159/1
f 352/165/1 338/162/1 351/161/1
f 352/165/1 337/166/1 338/162/1
f 326/164/1 311/167/1 312/163/1
f 353/168/1 337/166/1 352/165/1
f 353/168/1 336/169/1 337/166/1
f 327/170/1 311/167/1 326/164/1
f 327/170/1 310/171/1 311/167/1
f 353/168/1 335/172/1 336/169/1
f 354/173/1 335/172/1 353/168/1
f 328/174/1 310/171/1 327/170/1
f 328/174/1 309/175/1 310/171/1
f 354/173/1 334/176/1 335/172/1
f 355/177/1 334/176/1 354/173/1
f 329/178/1 309/175/1 328/174/1
f 355/177/1 333/179/1 334/176/1
f 329/178/1 308/180/1 309/175/1
f 356/181/1 333/179/1 355/177/1
f 175/182/1 177/183/1 174/184/1
f 175/182/1 176/185/1 177/183/1
f 330/186/1 308/180/1 329/178/1
f 356/181/1 332/187/1 333/179/1
f 330/186/1 307/188/1 308/180/1
f 357/189/1 332/187/1 356/181/1
f 331/190/1 307/188/1 330/186/1
f 331/190/1 306/191/1 307/188/1
f 358/192/1 332/187/1 357/189/1
f 179/193/1 162/194/1 178/195/1
f 162/194/1 358/192/1 178/195/1
f 162/194/1 332/187/1 358/192/1
f 162/194/1 331/190/1 332/187/1
f 162/194/1 306/191/1 331/190/1
f 162/194/1 305/196/1 306/191/1
f 162/194/1 163/197/1 305/196/1
f 163/197/1 304/198/1 305/196/1
f 179/193/1 165/199/1 162/194/1
f 164/200/1 304/198/1 163/197/1
f 167/201/1 169/202/1 166/203/1
f 167/201/1 168/204/1 169/202/1
f 171/205/1 173/206/1 170/207/1
f 171/205/1 172/208/1 173/206/1
f 179/193/1 164/200/1 165/199/1
f 179/193/1 304/198/1 164/200/1
f 180/209/1 304/198/1 179/193/1
f 181/210/1 216/211/1 180/209/1
f 216/211/1 304/198/1 180/209/1
f 181/210/1 215/212/1 216/211/1
f 217/213/1 304/198/1 216/211/1
f 218/214/1 303/215/1 217/213/1
f 303/215/1 304/198/1 217/213/1
f 218/214/1 302/216/1 303/215/1
f 182/217/1 215/212/1 181/210/1
f 360/218/1 365/219/1 359/220/1
f 365/219/1 364/221/1 359/220/1
f 365/219/1 366/222/1 364/221/1
f 366/222/1 363/223/1 364/221/1
f 182/217/1 214/224/1 215/212/1
f 183/225/1 214/224/1 182/217/1
f 183/225/1 213/226/1 214/224/1
f 360/218/1 368/17/1 365/219/1
f 367/227/1 363/223/1 366/222/1
f 184/228/1 213/226/1 183/225/1
f 184/228/1 212/229/1 213/226/1
f 185/230/1 212/229/1 184/228/1
f 185/230/1 211/231/1 212/229/1
f 186/232/1 211/231/1 185/230/1
f 267/233/1 265/234/1 266/235/1
f 267/233/1 264/236/1 265/234/1
f 267/233/1 263/237/1 264/236/1
f 267/233/1 262/238/1 263/237/1
f 186/232/1 210/239/1 211/231/1
f 187/240/1 210/239/1 186/232/1
f 267/233/1 261/241/1 262/238/1
f 267/233/1 260/242/1 261/241/1
f 267/233/1 259/243/1 260/242/1
f 267/233/1 258/244/1 259/243/1
f 267/233/1 257/245/1 258/244/1
f 267/233/1 256/246/1 257/245/1
f 268/247/1 256/246/1 267/233/1
f 268/247/1 255/248/1 256/246/1
f 268/247/1 254/249/1 255/248/1
f 268/247/1 253/250/1 254/249/1
f 188/251/1 210/239/1 187/240/1
f 188/251/1 209/252/1 210/239/1
f 269/253/1 253/250/1 268/247/1
f 269/253/1 252/75/1 253/250/1
f 189/254/1 209/252/1 188/251/1
f 270/255/1 252/75/1 269/253/1
f 189/254/1 208/256/1 209/252/1
f 360/218/1 362/257/1 368/17/1
f 362/257/1 367/227/1 368/17/1
f 362/257/1 363/223/1 367/227/1
f 271/258/1 252/75/1 270/255/1
f 271/258/1 251/259/1 252/75/1
f 190/260/1 208/256/1 189/254/1
f 272/261/1 251/259/1 271/258/1
f 218/214/1 301/262/1 302/216/1
f 219/263/1 301/262/1 218/214/1
f 219/263/1 300/264/1 301/262/1
f 273/265/1 251/259/1 272/261/1
f 219/263/1 299/266/1 300/264/1
f 190/260/1 207/267/1 208/256/1
f 273/265/1 250/268/1 251/259/1
f 219/263/1 298/269/1 299/266/1
f 274/270/1 250/268/1 273/265/1
f 191/271/1 207/267/1 190/260/1
f 220/272/1 298/269/1 219/263/1
f 220/272/1 297/273/1 298/269/1
f 275/274/1 250/268/1 274/270/1
f 220/272/1 296/275/1 297/273/1
f 220/272/1 295/276/1 296/275/1
f 276/277/1 250/268/1 275/274/1
f 220/272/1 294/278/1 295/276/1
f 220/272/1 293/279/1 294/278/1
f 277/280/1 250/268/1 276/277/1
f 220/272/1 292/281/1 293/279/1
f 220/272/1 291/282/1 292/281/1
f 278/283/1 250/268/1 277/280/1
f 220/272/1 290/284/1 291/282/1
f 220/272/1 289/285/1 290/284/1
f 220/272/1 288/286/1 289/285/1
f 220/272/1 287/287/1 288/286/1
f 220/272/1 286/288/1 287/287/1
f 220/272/1 285/289/1 286/288/1
f 220/272/1 284/290/1 285/289/1
f 220/272/1 283/291/1 284/290/1
f 220/272/1 282/292/1 283/291/1
f 220/272/1 281/293/1 282/292/1
f 220/272/1 280/294/1 281/293/1
f 220/272/1 279/295/1 280/294/1
f 220/272/1 278/283/1 279/295/1
f 220/272/1 250/268/1 278/283/1
f 221/296/1 250/268/1 220/272/1
f 221/296/1 249/297/1 250/268/1
f 192/298/1 207/267/1 191/271/1
f 192/298/1 206/299/1 207/267/1
f 222/300/1 249/297/1 221/296/1
f 360/218/1 361/301/1 362/257/1
f 222/300/1 248/302/1 249/297/1
f 193/303/1 206/299/1 192/298/1
f 223/304/1 248/302/1 222/300/1
f 194/305/1 206/299/1 193/303/1
f 195/306/1 206/299/1 194/305/1
f 223/304/1 247/307/1 248/302/1
f 195/306/1 205/308/1 206/299/1
f 196/309/1 205/308/1 195/306/1
f 224/310/1 247/307/1 223/304/1
f 197/311/1 205/308/1 196/309/1
f 224/310/1 246/312/1 247/307/1
f 225/313/1 246/312/1 224/310/1
f 198/314/1 205/308/1 197/311/1
f 199/315/1 205/308/1 198/314/1
f 226/316/1 246/312/1 225/313/1
f 226/316/1 245/317/1 246/312/1
f 200/318/1 205/308/1 199/315/1
f 227/319/1 245/317/1 226/316/1
f 227/319/1 244/320/1 245/317/1
f 200/318/1 201/321/1 205/308/1
f 201/321/1 202/322/1 205/308/1
f 202/322/1 203/323/1 205/308/1
f 203/323/1 204/324/1 205/308/1
f 228/325/1 244/320/1 227/319/1
f 228/325/1 243/326/1 244/320/1
f 229/327/1 243/326/1 228/325/1
f 229/327/1 242/328/1 243/326/1
f 230/329/1 242/328/1 229/327/1
f 231/330/1 242/328/1 230/329/1
f 232/331/1 242/328/1 231/330/1
f 233/332/1 242/328/1 232/331/1
f 234/333/1 242/328/1 233/332/1
f 235/334/1 242/328/1 234/333/1
f 236/335/2 242/328/2 235/334/2
f 237/336/1 242/328/1 236/335/1
f 238/337/1 242/328/1 237/336/1
f 239/338/2 242/328/2 238/337/2
f 240/339/1 242/328/1 239/338/1
f 241/340/1 242/328/1 240/339/1
f 136/20/1 160/341/1 161/342/1
f 136/20/1 159/343/1 160/341/1
f 136/20/1 158/344/1 159/343/1
f 137/345/1 158/344/1 136/20/1
f 137/345/1 157/346/1 158/344/1
f 138/347/1 157/346/1 137/345/1
f 138/347/1 156/348/1 157/346/1
f 139/349/1 156/348/1 138/347/1
f 139/349/1 155/350/1 156/348/1
f 140/351/1 155/350/1 139/349/1
f 140/351/1 154/352/1 155/350/1
f 141/353/1 154/352/1 140/351/1
f 141/353/1 153/354/1 154/352/1
f 142/355/1 153/354/1 141/353/1
f 142/355/1 152/356/1 153/354/1
f 143/357/1 152/356/1 142/355/1
f 143/357/1 151/358/1 152/356/1
f 143/357/1 150/359/1 151/358/1
f 144/360/1 150/359/1 143/357/1
f 144/360/1 149/361/1 150/359/1
f 145/362/1 149/361/1 144/360/1
f 145/362/1 146/363/1 149/361/1
f 146/363/1 147/364/1 149/361/1
f 147/364/1 148/365/1 149/361/1
f 434/366/1 484/17/1 433/367/1
f 370/368/1 432/369/1 369/20/1
f 434/366/1 483/370/1 484/17/1
f 370/368/1 431/371/1 432/369/1
f 435/372/1 483/370/1 434/366/1
f 370/368/1 430/373/1 431/371/1
f 435/372/1 482/374/1 483/370/1
f 371/375/1 430/373/1 370/368/1
f 371/375/1 429/376/1 430/373/1
f 435/372/1 481/377/1 482/374/1
f 371/375/1 428/378/1 429/376/1
f 371/375/1 427/379/1 428/378/1
f 436/380/1 481/377/1 435/372/1
f 436/380/1 480/381/1 481/377/1
f 372/382/1 427/379/1 371/375/1
f 372/382/1 426/383/1 427/379/1
f 436/380/1 479/384/1 480/381/1
f 372/382/1 425/385/1 426/383/1
f 372/382/1 424/386/1 425/385/1
f 437/387/1 479/384/1 436/380/1
f 437/387/1 478/388/1 479/384/1
f 373/389/1 424/386/1 372/382/1
f 373/389/1 423/390/1 424/386/1
f 373/389/1 422/391/1 423/390/1
f 437/387/1 477/392/1 478/388/1
f 373/389/1 421/393/1 422/391/1
f 437/387/1 476/394/1 477/392/1
f 438/395/1 476/394/1 437/387/1
f 373/389/1 420/396/1 421/393/1
f 374/397/1 420/396/1 373/389/1
f 374/397/1 419/398/1 420/396/1
f 374/397/1 418/399/1 419/398/1
f 438/395/1 475/400/1 476/394/1
f 438/395/1 474/401/1 475/400/1
f 439/402/1 474/401/1 438/395/1
f 375/403/1 418/399/1 374/397/1
f 439/402/1 473/404/1 474/401/1
f 439/402/1 472/405/1 473/404/1
f 440/406/1 472/405/1 439/402/1
f 376/407/1 405/408/1 375/403/1
f 405/408/1 418/399/1 375/403/1
f 376/407/1 404/409/1 405/408/1
f 406/410/1 418/399/1 405/408/1
f 407/411/1 417/412/1 406/410/1
f 417/412/1 418/399/1 406/410/1
f 407/411/1 416/413/1 417/412/1
f 440/406/1 469/414/1 472/405/1
f 469/414/1 471/415/1 472/405/1
f 377/416/1 404/409/1 376/407/1
f 441/417/1 469/414/1 440/406/1
f 377/416/1 403/418/1 404/409/1
f 377/416/1 402/419/1 403/418/1
f 378/420/1 402/419/1 377/416/1
f 442/421/1 469/414/1 441/417/1
f 378/420/1 401/422/1 402/419/1
f 378/420/1 400/423/1 401/422/1
f 379/424/1 400/423/1 378/420/1
f 443/425/1 469/414/1 442/421/1
f 379/424/1 399/426/1 400/423/1
f 380/427/1 399/426/1 379/424/1
f 444/428/1 469/414/1 443/425/1
f 380/427/1 398/429/1 399/426/1
f 444/428/1 468/430/1 469/414/1
f 470/431/1 471/415/1 469/414/1
f 444/428/1 467/432/1 468/430/1
f 380/427/1 397/433/1 398/429/1
f 381/434/1 397/433/1 380/427/1
f 445/435/1 467/432/1 444/428/1
f 445/435/1 466/436/1 467/432/1
f 407/411/1 413/437/1 416/413/1
f 413/437/1 415/438/1 416/413/1
f 413/437/1 414/439/1 415/438/1
f 381/434/1 396/440/1 397/433/1
f 445/435/1 465/441/1 466/436/1
f 382/442/1 396/440/1 381/434/1
f 383/443/1 396/440/1 382/442/1
f 445/435/1 464/444/1 465/441/1
f 446/445/1 464/444/1 445/435/1
f 383/443/1 395/446/1 396/440/1
f 384/447/1 395/446/1 383/443/1
f 447/448/1 464/444/1 446/445/1
f 385/449/1 395/446/1 384/447/1
f 447/448/1 463/450/1 464/444/1
f 448/451/1 463/450/1 447/448/1
f 386/452/1 395/446/1 385/449/1
f 387/453/1 395/446/1 386/452/1
f 449/454/1 463/450/1 448/451/1
f 387/453/1 394/455/1 395/446/1
f 449/454/1 462/456/1 463/450/1
f 388/457/1 394/455/1 387/453/1
f 450/458/1 462/456/1 449/454/1
f 389/459/1 394/455/1 388/457/1
f 450/458/1 461/460/1 462/456/1
f 390/461/1 394/455/1 389/459/1
f 451/462/1 461/460/1 450/458/1
f 390/461/1 391/463/1 394/455/1
f 391/463/1 392/464/1 394/455/1
f 392/464/1 393/465/1 394/455/1
f 452/466/1 461/460/1 451/462/1
f 452/466/1 460/467/1 461/460/1
f 453/468/1 460/467/1 452/466/1
f 453/468/1 459/469/1 460/467/1
f 407/411/1 412/470/1 413/437/1
f 454/471/1 459/469/1 453/468/1
f 454/471/1 458/472/1 459/469/1
f 455/473/1 458/472/1 454/471/1
f 456/474/1 458/472/1 455/473/1
f 456/474/1 457/475/1 458/472/1
f 407/411/1 409/476/1 412/470/1
f 409/476/1 411/477/1 412/470/1
f 409/476/1 410/478/1 411/477/1
f 407/411/1 408/479/1 409/476/1
f 680/480/1 675/481/1 679/482/1
f 675/481/1 682/17/1 679/482/1
f 675/481/1 676/483/1 682/17/1
f 676/483/1 681/484/1 682/17/1
f 680/480/1 678/485/1 675/481/1
f 677/486/1 681/484/1 676/483/1
f 680/480/1 677/486/1 678/485/1
f 680/480/1 681/484/1 677/486/1
f 494/487/1 582/488/1 493/489/1
f 494/487/1 581/490/1 582/488/1
f 496/491/1 494/487/1 495/492/1
f 496/491/1 581/490/1 494/487/1
f 496/491/1 580/493/1 581/490/1
f 496/491/1 579/494/1 580/493/1
f 497/495/1 579/494/1 496/491/1
f 498/496/1 578/497/1 497/495/1
f 578/497/1 579/494/1 497/495/1
f 498/496/1 577/498/1 578/497/1
f 674/499/1 485/20/1 673/500/1
f 485/20/1 672/501/1 673/500/1
f 485/20/1 486/502/1 672/501/1
f 486/502/1 671/503/1 672/501/1
f 670/504/1 489/505/1 669/506/1
f 489/505/1 668/507/1 669/506/1
f 489/505/1 490/508/1 668/507/1
f 490/508/1 667/509/1 668/507/1
f 674/499/1 488/510/1 485/20/1
f 487/511/1 671/503/1 486/502/1
f 670/504/1 492/512/1 489/505/1
f 491/513/1 667/509/1 490/508/1
f 577/498/1 575/514/1 576/515/1
f 498/496/1 575/514/1 577/498/1
f 674/499/1 487/511/1 488/510/1
f 674/499/1 671/503/1 487/511/1
f 670/504/1 491/513/1 492/512/1
f 670/504/1 667/509/1 491/513/1
f 499/516/1 575/514/1 498/496/1
f 500/517/1 575/514/1 499/516/1
f 501/518/1 575/514/1 500/517/1
f 501/518/1 574/519/1 575/514/1
f 502/520/1 574/519/1 501/518/1
f 503/521/1 574/519/1 502/520/1
f 504/522/1 574/519/1 503/521/1
f 505/523/1 574/519/1 504/522/1
f 506/524/1 574/519/1 505/523/1
f 507/525/1 574/519/1 506/524/1
f 508/526/1 574/519/1 507/525/1
f 509/527/1 574/519/1 508/526/1
f 510/528/1 574/519/1 509/527/1
f 583/529/1 671/503/1 674/499/1
f 584/530/1 671/503/1 583/529/1
f 584/530/1 670/504/1 671/503/1
f 584/530/1 666/531/1 670/504/1
f 666/531/1 667/509/1 670/504/1
f 584/530/1 665/532/1 666/531/1
f 511/533/1 574/519/1 510/528/1
f 511/533/1 512/534/1 574/519/1
f 512/534/1 573/535/1 574/519/1
f 513/536/1 573/535/1 512/534/1
f 586/537/1 584/530/1 585/538/1
f 586/537/1 665/532/1 584/530/1
f 586/537/1 664/539/1 665/532/1
f 586/537/1 663/540/1 664/539/1
f 587/541/1 663/540/1 586/537/1
f 588/542/1 662/543/1 587/541/1
f 662/543/1 663/540/1 587/541/1
f 588/542/1 661/544/1 662/543/1
f 588/542/1 660/545/1 661/544/1
f 589/546/1 660/545/1 588/542/1
f 589/546/1 626/547/1 660/545/1
f 626/547/1 659/548/1 660/545/1
f 589/546/1 623/549/1 626/547/1
f 623/549/1 625/550/1 626/547/1
f 627/551/1 659/548/1 626/547/1
f 590/552/1 623/549/1 589/546/1
f 590/552/1 622/553/1 623/549/1
f 624/554/1 625/550/1 623/549/1
f 627/551/1 658/555/1 659/548/1
f 591/556/1 622/553/1 590/552/1
f 628/557/1 658/555/1 627/551/1
f 591/556/1 621/558/1 622/553/1
f 628/557/1 657/559/1 658/555/1
f 592/560/1 621/558/1 591/556/1
f 629/561/1 657/559/1 628/557/1
f 629/561/1 656/562/1 657/559/1
f 592/560/1 620/563/1 621/558/1
f 593/564/1 620/563/1 592/560/1
f 630/565/1 656/562/1 629/561/1
f 630/565/1 655/566/1 656/562/1
f 593/564/1 619/567/1 620/563/1
f 594/568/1 619/567/1 593/564/1
f 630/565/1 654/569/1 655/566/1
f 631/570/1 654/569/1 630/565/1
f 595/571/1 619/567/1 594/568/1
f 595/571/1 618/572/1 619/567/1
f 631/570/1 653/573/1 654/569/1
f 632/574/1 653/573/1 631/570/1
f 596/575/1 618/572/1 595/571/1
f 632/574/1 652/576/1 653/573/1
f 596/575/1 617/577/1 618/572/1
f 597/578/1 617/577/1 596/575/1
f 633/579/1 652/576/1 632/574/1
f 633/579/1 651/580/1 652/576/1
f 598/581/1 617/577/1 597/578/1
f 598/581/1 616/582/1 617/577/1
f 633/579/1 650/583/1 651/580/1
f 634/584/1 650/583/1 633/579/1
f 599/585/1 616/582/1 598/581/1
f 634/584/1 649/586/1 650/583/1
f 514/587/1 573/535/1 513/536/1
f 514/587/1 572/588/1 573/535/1
f 634/584/1 648/589/1 649/586/1
f 515/590/1 572/588/1 514/587/1
f 599/585/1 615/591/1 616/582/1
f 516/592/1 572/588/1 515/590/1
f 634/584/1 647/593/1 648/589/1
f 600/594/1 615/591/1 599/585/1
f 517/595/1 572/588/1 516/592/1
f 517/595/1 571/596/1 572/588/1
f 518/597/1 571/596/1 517/595/1
f 635/598/1 647/593/1 634/584/1
f 519/599/1 571/596/1 518/597/1
f 601/600/1 615/591/1 600/594/1
f 635/598/1 646/601/1 647/593/1
f 520/602/1 571/596/1 519/599/1
f 521/603/1 571/596/1 520/602/1
f 522/604/1 571/596/1 521/603/1
f 523/605/1 571/596/1 522/604/1
f 524/606/1 571/596/1 523/605/1
f 525/607/1 571/596/1 524/606/1
f 602/608/1 615/591/1 601/600/1
f 538/609/1 536/610/1 537/611/1
f 526/612/1 571/596/1 525/607/1
f 527/613/1 571/596/1 526/612/1
f 528/614/1 571/596/1 527/613/1
f 529/615/1 571/596/1 528/614/1
f 538/609/1 535/616/1 536/610/1
f 530/617/1 571/596/1 529/615/1
f 531/618/1 571/596/1 530/617/1
f 538/609/1 534/619/1 535/616/1
f 532/620/1 571/596/1 531/618/1
f 538/609/1 533/621/1 534/619/1
f 533/621/1 571/596/1 532/620/1
f 538/609/1 571/596/1 533/621/1
f 635/598/1 645/622/1 646/601/1
f 538/609/1 570/623/1 571/596/1
f 602/608/1 614/624/1 615/591/1
f 603/625/1 614/624/1 602/608/1
f 539/626/1 570/623/1 538/609/1
f 635/598/1 644/627/1 645/622/1
f 636/628/1 644/627/1 635/598/1
f 604/629/1 614/624/1 603/625/1
f 539/626/1 569/630/1 570/623/1
f 540/631/1 569/630/1 539/626/1
f 636/628/1 643/632/1 644/627/1
f 605/633/1 614/624/1 604/629/1
f 541/634/1 569/630/1 540/631/1
f 636/628/1 642/635/1 643/632/1
f 541/634/1 568/636/1 569/630/1
f 605/633/1 613/637/1 614/624/1
f 606/638/1 613/637/1 605/633/1
f 637/639/1 642/635/1 636/628/1
f 542/640/1 568/636/1 541/634/1
f 637/639/1 641/641/1 642/635/1
f 542/640/1 567/642/1 568/636/1
f 607/643/1 613/637/1 606/638/1
f 637/639/1 640/644/1 641/641/1
f 543/645/1 567/642/1 542/640/1
f 543/645/1 566/646/1 567/642/1
f 607/643/1 612/647/1 613/637/1
f 608/648/1 612/647/1 607/643/1
f 638/649/1 639/650/1 637/639/1
f 639/650/1 640/644/1 637/639/1
f 544/651/1 566/646/1 543/645/1
f 544/651/1 565/652/1 566/646/1
f 609/653/1 612/647/1 608/648/1
f 544/651/1 564/654/1 565/652/1
f 545/655/1 564/654/1 544/651/1
f 609/653/1 610/656/1 612/647/1
f 610/656/1 611/657/1 612/647/1
f 545/655/1 563/658/1 564/654/1
f 546/659/1 563/658/1 545/655/1
f 546/659/1 562/660/1 563/658/1
f 546/659/1 561/661/1 562/660/1
f 547/662/1 561/661/1 546/659/1
f 547/662/1 560/663/1 561/661/1
f 547/662/1 559/664/1 560/663/1
f 548/665/1 559/664/1 547/662/1
f 548/665/1 558/666/1 559/664/1
f 548/665/1 557/667/1 558/666/1
f 548/665/1 556/668/1 557/667/1
f 549/669/1 556/668/1 548/665/1
f 549/669/1 555/670/1 556/668/1
f 549/669/1 554/671/1 555/670/1
f 549/669/1 553/672/1 554/671/1
f 549/669/1 552/673/1 553/672/1
f 549/669/1 551/674/1 552/673/1
f 549/669/1 550/675/1 551/674/1
f 759/676/1 757/677/1 758/678/1
f 760/679/1 757/677/1 759/676/1
f 761/680/1 757/677/1 760/679/1
f 762/681/1 757/677/1 761/680/1
f 763/682/1 757/677/1 762/681/1
f 764/75/1 757/677/1 763/682/1
f 765/683/1 757/677/1 764/75/1
f 766/684/1 757/677/1 765/683/1
f 767/685/1 757/677/1 766/684/1
f 768/686/1 757/677/1 767/685/1
f 769/687/1 757/677/1 768/686/1
f 770/688/1 757/677/1 769/687/1
f 771/689/1 757/677/1 770/688/1
f 772/690/1 757/677/1 771/689/1
f 773/691/1 757/677/1 772/690/1
f 774/692/1 757/677/1 773/691/1
f 775/693/1 757/677/1 774/692/1
f 776/694/1 757/677/1 775/693/1
f 777/695/1 757/677/1 776/694/1
f 778/696/1 757/677/1 777/695/1
f 779/697/1 757/677/1 778/696/1
f 780/698/1 757/677/1 779/697/1
f 781/699/1 757/677/1 780/698/1
f 782/700/1 757/677/1 781/699/1
f 783/701/1 757/677/1 782/700/1
f 784/702/1 757/677/1 783/701/1
f 785/703/1 757/677/1 784/702/1
f 786/704/1 757/677/1 785/703/1
f 787/705/1 757/677/1 786/704/1
f 788/706/1 757/677/1 787/705/1
f 789/707/1 757/677/1 788/706/1
f 790/708/1 757/677/1 789/707/1
f 791/709/1 757/677/1 790/708/1
f 792/710/1 757/677/1 791/709/1
f 793/711/1 757/677/1 792/710/1
f 683/20/1 757/677/1 793/711/1
f 684/712/1 685/713/1 683/20/1
f 685/713/1 686/714/1 683/20/1
f 686/714/1 687/715/1 683/20/1
f 687/715/1 688/716/1 683/20/1
f 688/716/1 689/717/1 683/20/1
f 689/717/1 690/718/1 683/20/1
f 690/718/1 691/719/1 683/20/1
f 691/719/1 692/720/1 683/20/1
f 692/720/1 696/721/1 683/20/1
f 696/721/1 752/722/1 683/20/1
f 752/722/1 753/723/1 683/20/1
f 753/723/1 754/724/1 683/20/1
f 754/724/1 755/725/1 683/20/1
f 755/725/1 756/726/1 683/20/1
f 756/726/1 757/677/1 683/20/1
f 696/721/1 751/727/1 752/722/1
f 696/721/1 750/728/1 751/727/1
f 696/721/1 749/729/1 750/728/1
f 696/721/1 748/730/1 749/729/1
f 696/721/1 747/731/1 748/730/1
f 696/721/1 746/732/1 747/731/1
f 692/720/1 693/733/1 696/721/1
f 693/733/1 695/734/1 696/721/1
f 697/735/1 746/732/1 696/721/1
f 697/735/1 745/736/1 746/732/1
f 693/733/1 694/737/1 695/734/1
f 697/735/1 744/738/1 745/736/1
f 698/739/1 744/738/1 697/735/1
f 698/739/1 743/740/1 744/738/1
f 699/741/1 743/740/1 698/739/1
f 699/741/1 742/742/1 743/740/1
f 700/743/1 742/742/1 699/741/1
f 700/743/1 741/744/1 742/742/1
f 821/745/1 845/17/1 820/746/1
f 701/747/1 741/744/1 700/743/1
f 821/745/1 844/748/1 845/17/1
f 701/747/1 740/749/1 741/744/1
f 821/745/1 843/750/1 844/748/1
f 822/751/1 843/750/1 821/745/1
f 822/751/1 842/752/1 843/750/1
f 823/753/1 842/752/1 822/751/1
f 702/754/1 740/749/1 701/747/1
f 702/754/1 739/755/1 740/749/1
f 823/753/1 841/756/1 842/752/1
f 795/757/1 819/758/1 794/759/1
f 824/760/1 841/756/1 823/753/1
f 795/757/1 818/761/1 819/758/1
f 824/760/1 840/762/1 841/756/1
f 825/763/1 840/762/1 824/760/1
f 795/757/1 817/764/1 818/761/1
f 703/765/1 739/755/1 702/754/1
f 796/766/1 817/764/1 795/757/1
f 825/763/1 839/767/1 840/762/1
f 703/765/1 738/768/1 739/755/1
f 826/769/1 839/767/1 825/763/1
f 796/766/1 816/770/1 817/764/1
f 797/771/1 816/770/1 796/766/1
f 826/769/1 838/772/1 839/767/1
f 827/773/1 838/772/1 826/769/1
f 797/771/1 815/774/1 816/770/1
f 798/775/1 815/774/1 797/771/1
f 827/773/1 837/776/1 838/772/1
f 828/777/1 837/776/1 827/773/1
f 704/778/1 738/768/1 703/765/1
f 798/775/1 814/779/1 815/774/1
f 704/778/1 737/780/1 738/768/1
f 799/781/1 814/779/1 798/775/1
f 829/782/1 837/776/1 828/777/1
f 829/782/1 836/783/1 837/776/1
f 799/781/1 813/784/1 814/779/1
f 800/785/1 813/784/1 799/781/1
f 830/786/1 836/783/1 829/782/1
f 830/786/1 835/787/1 836/783/1
f 801/788/1 813/784/1 800/785/1
f 801/788/1 812/789/1 813/784/1
f 705/790/1 737/780/1 704/778/1
f 831/791/1 835/787/1 830/786/1
f 831/791/1 834/792/1 835/787/1
f 705/790/1 736/793/1 737/780/1
f 802/794/1 812/789/1 801/788/1
f 802/794/1 811/795/1 812/789/1
f 831/791/1 832/796/1 834/792/1
f 832/796/1 833/797/1 834/792/1
f 803/798/1 811/795/1 802/794/1
f 803/798/1 810/799/1 811/795/1
f 804/800/1 810/799/1 803/798/1
f 804/800/1 809/801/1 810/799/1
f 706/802/1 736/793/1 705/790/1
f 706/802/1 735/803/1 736/793/1
f 805/804/1 809/801/1 804/800/1
f 805/804/1 808/805/1 809/801/1
f 806/806/1 808/805/1 805/804/1
f 806/806/1 807/807/1 808/805/1
f 706/802/1 734/808/1 735/803/1
f 707/809/1 734/808/1 706/802/1
f 707/809/1 733/810/1 734/808/1
f 708/811/1 733/810/1 707/809/1
f 708/811/1 732/812/1 733/810/1
f 709/813/1 732/812/1 708/811/1
f 709/813/1 731/814/1 732/812/1
f 710/815/1 731/814/1 709/813/1
f 710/815/1 730/816/1 731/814/1
f 711/817/1 730/816/1 710/815/1
f 711/817/1 729/818/1 730/816/1
f 711/817/1 728/819/1 729/818/1
f 712/820/1 728/819/1 711/817/1
f 712/820/1 727/821/1 728/819/1
f 713/822/1 727/821/1 712/820/1
f 713/822/1 726/823/1 727/821/1
f 713/822/1 725/824/1 726/823/1
f 714/825/1 725/824/1 713/822/1
f 714/825/1 724/826/1 725/824/1
f 714/825/1 723/827/1 724/826/1
f 714/825/1 722/828/1 723/827/1
f 714/825/1 721/829/1 722/828/1
f 715/830/1 721/829/1 714/825/1
f 715/830/1 720/831/1 721/829/1
f 716/832/1 720/831/1 715/830/1
f 717/833/1 720/831/1 716/832/1
f 718/834/1 720/831/1 717/833/1
f 719/835/1 720/831/1 718/834/1
f 847/836/1 919/17/1 846/20/1
f 885/837/1 883/838/1 884/839/1
f 847/836/1 918/840/1 919/17/1
f 886/841/1 883/838/1 885/837/1
f 847/836/1 917/842/1 918/840/1
f 887/843/1 883/838/1 886/841/1
f 847/836/1 916/844/1 917/842/1
f 888/845/1 883/838/1 887/843/1
f 847/836/1 915/846/1 916/844/1
f 889/847/1 883/838/1 888/845/1
f 847/836/1 914/848/1 915/846/1
f 890/849/1 883/838/1 889/847/1
f 847/836/1 913/850/1 914/848/1
f 891/851/1 883/838/1 890/849/1
f 847/836/1 912/852/1 913/850/1
f 892/853/1 883/838/1 891/851/1
f 847/836/1 911/854/1 912/852/1
f 893/855/1 883/838/1 892/853/1
f 847/836/1 910/856/1 911/854/1
f 894/857/1 883/838/1 893/855/1
f 847/836/1 909/858/1 910/856/1
f 895/859/1 883/838/1 894/857/1
f 847/836/1 908/860/1 909/858/1
f 896/861/1 883/838/1 895/859/1
f 847/836/1 907/862/1 908/860/1
f 847/836/1 906/863/1 907/862/1
f 847/836/1 905/864/1 906/863/1
f 847/836/1 904/865/1 905/864/1
f 847/836/1 903/866/1 904/865/1
f 847/836/1 902/867/1 903/866/1
f 847/836/1 901/868/1 902/867/1
f 847/836/1 900/869/1 901/868/1
f 847/836/1 899/870/1 900/869/1
f 847/836/1 898/871/1 899/870/1
f 847/836/1 897/872/1 898/871/1
f 847/836/1 896/861/1 897/872/1
f 847/836/1 848/873/1 896/861/1
f 848/873/1 849/874/1 896/861/1
f 849/874/1 850/875/1 896/861/1
f 850/875/1 851/876/1 896/861/1
f 851/876/1 852/877/1 896/861/1
f 852/877/1 853/878/1 896/861/1
f 853/878/1 854/879/1 896/861/1
f 854/879/1 855/880/1 896/861/1
f 855/880/1 856/881/1 896/861/1
f 856/881/1 857/882/1 896/861/1
f 857/882/1 858/883/1 896/861/1
f 858/883/1 859/884/1 896/861/1
f 859/884/1 860/885/1 896/861/1
f 860/885/1 861/886/1 896/861/1
f 861/886/1 862/887/1 896/861/1
f 862/887/1 864/888/1 896/861/1
f 864/888/1 867/889/1 896/861/1
f 867/889/1 870/890/1 896/861/1
f 870/890/1 871/891/1 896/861/1
f 871/891/1 872/892/1 896/861/1
f 872/892/1 873/893/1 896/861/1
f 873/893/1 874/894/1 896/861/1
f 874/894/1 875/895/1 896/861/1
f 875/895/1 876/896/1 896/861/1
f 876/896/1 877/897/1 896/861/1
f 877/897/1 878/898/1 896/861/1
f 878/898/1 883/838/1 896/861/1
f 863/899/1 864/888/1 862/887/1
f 865/900/1 867/889/1 864/888/1
f 866/901/1 867/889/1 865/900/1
f 868/902/2 870/890/2 867/889/2
f 869/903/1 870/890/1 868/902/1
f 879/904/1 883/838/1 878/898/1
f 880/905/1 883/838/1 879/904/1
f 881/906/1 883/838/1 880/905/1
f 882/907/1 883/838/1 881/906/1
f 1052/908/1 1050/909/1 1051/910/1
f 1052/908/1 1049/911/1 1050/909/1
f 1052/908/1 1048/912/1 1049/911/1
f 1052/908/1 1047/913/1 1048/912/1
f 1053/914/1 1047/913/1 1052/908/1
f 1054/915/1 1047/913/1 1053/914/1
f 1054/915/1 1046/402/1 1047/913/1
f 1055/428/1 1046/402/1 1054/915/1
f 1055/428/1 1045/916/1 1046/402/1
f 1056/917/1 1045/916/1 1055/428/1
f 1056/917/1 1044/918/1 1045/916/1
f 1057/919/1 1044/918/1 1056/917/1
f 1057/919/1 1043/920/1 1044/918/1
f 1058/709/1 1043/920/1 1057/919/1
f 1058/709/1 1042/921/1 1043/920/1
f 1059/922/1 1042/921/1 1058/709/1
f 1059/922/1 1041/923/1 1042/921/1
f 1060/924/1 1041/923/1 1059/922/1
f 1060/924/1 1040/925/1 1041/923/1
f 1061/926/1 1040/925/1 1060/924/1
f 1061/926/1 1039/927/1 1040/925/1
f 1062/928/1 1039/927/1 1061/926/1
f 1062/928/1 1038/929/1 1039/927/1
f 1063/930/1 1038/929/1 1062/928/1
f 1064/454/1 1038/929/1 1063/930/1
f 1065/931/1 1038/929/1 1064/454/1
f 1015/932/1 1013/933/1 1014/934/1
f 1016/935/1 1013/933/1 1015/932/1
f 1017/936/1 1013/933/1 1016/935/1
f 1018/937/1 1013/933/1 1017/936/1
f 1019/386/1 1013/933/1 1018/937/1
f 1020/938/1 1013/933/1 1019/386/1
f 1021/939/1 1013/933/1 1020/938/1
f 1022/940/1 1013/933/1 1021/939/1
f 1023/941/1 1013/933/1 1022/940/1
f 1024/942/1 1013/933/1 1023/941/1
f 1025/943/1 1013/933/1 1024/942/1
f 1026/944/1 1013/933/1 1025/943/1
f 1027/945/1 1013/933/1 1026/944/1
f 1028/376/1 1013/933/1 1027/945/1
f 1029/946/1 1013/933/1 1028/376/1
f 1030/947/1 1013/933/1 1029/946/1
f 1031/948/1 1013/933/1 1030/947/1
f 1032/949/1 1013/933/1 1031/948/1
f 1033/950/1 1013/933/1 1032/949/1
f 1034/951/1 1013/933/1 1033/950/1
f 1035/691/1 1013/933/1 1034/951/1
f 1036/952/1 1013/933/1 1035/691/1
f 1037/366/1 1013/933/1 1036/952/1
f 1038/929/1 1013/933/1 1037/366/1
f 1065/931/1 1013/933/1 1038/929/1
f 1066/953/1 1013/933/1 1065/931/1
f 1067/954/1 1013/933/1 1066/953/1
f 1068/955/1 1013/933/1 1067/954/1
f 1069/956/1 1013/933/1 1068/955/1
f 1070/957/1 1013/933/1 1069/956/1
f 1070/957/1 1012/725/1 1013/933/1
f 1070/957/1 1011/958/1 1012/725/1
f 1070/957/1 1010/398/1 1011/958/1
f 1071/959/1 1010/398/1 1070/957/1
f 1071/959/1 1009/960/1 1010/398/1
f 1071/959/1 1008/961/1 1009/960/1
f 1071/959/1 1007/962/1 1008/961/1
f 1072/963/1 1007/962/1 1071/959/1
f 1072/963/1 1006/964/1 1007/962/1
f 1072/963/1 1005/965/1 1006/964/1
f 1072/963/1 1004/966/1 1005/965/1
f 1073/471/1 1004/966/1 1072/963/1
f 1073/471/1 1003/967/1 1004/966/1
f 1073/471/1 1002/968/1 1003/967/1
f 1073/471/1 1001/439/1 1002/968/1
f 1074/969/1 1001/439/1 1073/471/1
f 1074/969/1 1000/970/1 1001/439/1
f 1075/971/1 1000/970/1 1074/969/1
f 1076/972/1 1000/970/1 1075/971/1
f 1077/973/1 1000/970/1 1076/972/1
f 1078/974/1 1000/970/1 1077/973/1
f 1079/975/1 1000/970/1 1078/974/1
f 1080/976/1 1000/970/1 1079/975/1
f 1081/801/1 1000/970/1 1080/976/1
f 1082/469/1 1000/970/1 1081/801/1
f 1083/977/1 1000/970/1 1082/469/1
f 1084/978/1 1000/970/1 1083/977/1
f 1085/979/1 1000/970/1 1084/978/1
f 1086/980/1 1000/970/1 1085/979/1
f 1087/981/1 1000/970/1 1086/980/1
f 1088/982/1 1000/970/1 1087/981/1
f 1089/983/1 1000/970/1 1088/982/1
f 1090/984/1 1091/444/1 1089/983/1
f 1091/444/1 1092/985/1 1089/983/1
f 1092/985/1 1093/986/1 1089/983/1
f 1093/986/1 1094/987/1 1089/983/1
f 1094/987/1 1095/988/1 1089/983/1
f 1095/988/1 1096/989/1 1089/983/1
f 1096/989/1 1097/990/1 1089/983/1
f 1097/990/1 1098/991/1 1089/983/1
f 1098/991/1 1099/992/1 1089/983/1
f 1099/992/1 1100/414/1 1089/983/1
f 1100/414/1 1101/993/1 1089/983/1
f 1101/993/1 1102/994/1 1089/983/1
f 1102/994/1 1000/970/1 1089/983/1
f 1102/994/1 1103/995/1 1000/970/1
f 1103/995/1 999/996/1 1000/970/1
f 1104/773/1 999/996/1 1103/995/1
f 987/997/1 985/998/1 986/999/1
f 988/1000/1 985/998/1 987/997/1
f 989/780/1 985/998/1 988/1000/1
f 990/1001/1 985/998/1 989/780/1
f 991/1002/1 985/998/1 990/1001/1
f 992/476/1 985/998/1 991/1002/1
f 993/1003/1 985/998/1 992/476/1
f 994/1004/1 985/998/1 993/1003/1
f 995/1005/1 985/998/1 994/1004/1
f 996/1006/1 985/998/1 995/1005/1
f 997/1007/1 985/998/1 996/1006/1
f 998/1008/1 985/998/1 997/1007/1
f 999/996/1 985/998/1 998/1008/1
f 1104/773/1 985/998/1 999/996/1
f 1105/1009/1 985/998/1 1104/773/1
f 1106/1010/1 985/998/1 1105/1009/1
f 1107/1011/1 985/998/1 1106/1010/1
f 1107/1011/1 984/1012/1 985/998/1
f 1107/1011/1 983/409/1 984/1012/1
f 1107/1011/1 982/1013/1 983/409/1
f 1107/1011/1 981/1014/1 982/1013/1
f 1107/1011/1 980/1015/1 981/1014/1
f 1107/1011/1 979/1016/1 980/1015/1
f 1108/1017/1 979/1016/1 1107/1011/1
f 1108/1017/1 978/1018/1 979/1016/1
f 1108/1017/1 977/1019/1 978/1018/1
f 1108/1017/1 976/1020/1 977/1019/1
f 1109/401/1 976/1020/1 1108/1017/1
f 1109/401/1 975/1021/1 976/1020/1
f 1109/401/1 974/426/1 975/1021/1
f 1109/401/1 973/1022/1 974/426/1
f 1110/1023/1 973/1022/1 1109/401/1
f 1110/1023/1 972/1024/1 973/1022/1
f 1111/1025/1 972/1024/1 1110/1023/1
f 1112/1026/1 972/1024/1 1111/1025/1
f 1113/1027/1 972/1024/1 1112/1026/1
f 1114/1028/1 972/1024/1 1113/1027/1
f 1115/1029/1 972/1024/1 1114/1028/1
f 1116/1030/1 972/1024/1 1115/1029/1
f 1117/1031/1 972/1024/1 1116/1030/1
f 1118/384/1 972/1024/1 1117/1031/1
f 1119/1032/1 972/1024/1 1118/384/1
f 1120/1033/1 972/1024/1 1119/1032/1
f 1121/1034/1 972/1024/1 1120/1033/1
f 1122/1035/1 972/1024/1 1121/1034/1
f 1123/1036/1 972/1024/1 1122/1035/1
f 1124/1037/1 972/1024/1 1123/1036/1
f 1125/1038/1 972/1024/1 1124/1037/1
f 1126/1039/1 972/1024/1 1125/1038/1
f 1127/17/1 972/1024/1 1126/1039/1
f 920/20/1 972/1024/1 1127/17/1
f 921/1040/1 922/1041/1 920/20/1
f 922/1041/1 923/1042/1 920/20/1
f 923/1042/1 924/1043/1 920/20/1
f 924/1043/1 925/1044/1 920/20/1
f 925/1044/1 926/1045/1 920/20/1
f 926/1045/1 927/1046/1 920/20/1
f 927/1046/1 928/1047/1 920/20/1
f 928/1047/1 929/397/1 920/20/1
f 929/397/1 930/1048/1 920/20/1
f 930/1048/1 931/1049/1 920/20/1
f 931/1049/1 934/1050/1 920/20/1
f 934/1050/1 935/1051/1 920/20/1
f 935/1051/1 936/1052/1 920/20/1
f 936/1052/1 937/1053/1 920/20/1
f 937/1053/1 938/424/1 920/20/1
f 938/424/1 939/1054/1 920/20/1
f 939/1054/1 940/1055/1 920/20/1
f 940/1055/1 941/1056/1 920/20/1
f 941/1056/1 942/1057/1 920/20/1
f 942/1057/1 943/747/1 920/20/1
f 943/747/1 944/1058/1 920/20/1
f 944/1058/1 945/1059/1 920/20/1
f 945/1059/1 972/1024/1 920/20/1
f 945/1059/1 971/1060/1 972/1024/1
f 946/1061/1 971/1060/1 945/1059/1
f 931/1049/1 932/1062/1 934/1050/1
f 932/1062/1 933/1063/1 934/1050/1
f 946/1061/1 970/1064/1 971/1060/1
f 946/1061/1 969/1065/1 970/1064/1
f 947/447/1 969/1065/1 946/1061/1
f 947/447/1 968/1066/1 969/1065/1
f 948/1067/1 968/1066/1 947/447/1
f 948/1067/1 967/1068/1 968/1066/1
f 949/1069/1 967/1068/1 948/1067/1
f 949/1069/1 966/835/1 967/1068/1
f 950/1070/1 966/835/1 949/1069/1
f 950/1070/1 965/455/1 966/835/1
f 951/1071/1 965/455/1 950/1070/1
f 951/1071/1 964/1072/1 965/455/1
f 952/1073/1 964/1072/1 951/1071/1
f 952/1073/1 963/1074/1 964/1072/1
f 953/1075/1 963/1074/1 952/1073/1
f 953/1075/1 962/1076/1 963/1074/1
f 954/1077/1 962/1076/1 953/1075/1
f 954/1077/1 961/1078/1 962/1076/1
f 955/1079/1 961/1078/1 954/1077/1
f 955/1079/1 960/1080/1 961/1078/1
f 956/459/1 960/1080/1 955/1079/1
f 956/459/1 959/1081/1 960/1080/1
f 956/459/1 958/1082/1 959/1081/1
f 957/1083/1 958/1082/1 956/459/1
f 1130/1084/1 1128/20/1 1129/1085/1
f 1130/1084/1 1135/17/1 1128/20/1
f 1131/1086/1 1135/17/1 1130/1084/1
f 1132/1087/1 1134/1088/1 1131/1086/1
f 1134/1088/1 1135/17/1 1131/1086/1
f 1132/1087/1 1133/1089/1 1134/1088/1
