# Blender 4.4.1
# www.blender.org
mtllib 9.mtl
o テキスト
v -0.000000 -0.009000 0.041139
v -0.000000 0.017310 0.002137
v -0.000000 0.046977 -0.034713
v -0.000000 0.079609 -0.069174
v -0.000000 0.114815 -0.101009
v -0.000000 0.152201 -0.129984
v -0.000000 0.191375 -0.155861
v -0.000000 0.231945 -0.178405
v -0.000000 0.273519 -0.197380
v -0.000000 0.315703 -0.212549
v -0.000000 0.358107 -0.223676
v -0.000000 0.400336 -0.230526
v -0.000000 0.442000 -0.232861
v 0.000000 0.476939 -0.230998
v 0.000000 0.510097 -0.225537
v 0.000000 0.541234 -0.216674
v 0.000000 0.570111 -0.204602
v 0.000000 0.596488 -0.189516
v 0.000000 0.620125 -0.171611
v 0.000000 0.640783 -0.151081
v 0.000000 0.658222 -0.128120
v 0.000000 0.672203 -0.102924
v 0.000000 0.682486 -0.075685
v 0.000000 0.688832 -0.046600
v 0.000000 0.691000 -0.015861
v 0.000000 0.688954 0.014700
v 0.000000 0.683051 0.043296
v 0.000000 0.673641 0.069795
v 0.000000 0.661074 0.094065
v 0.000000 0.645702 0.115973
v 0.000000 0.627875 0.135389
v 0.000000 0.607944 0.152179
v 0.000000 0.586259 0.166213
v 0.000000 0.563172 0.177358
v 0.000000 0.539032 0.185481
v 0.000000 0.514192 0.190453
v 0.000000 0.489000 0.192139
v 0.000000 0.461767 0.190404
v 0.000000 0.435718 0.185343
v 0.000000 0.411078 0.177170
v 0.000000 0.388074 0.166102
v 0.000000 0.366931 0.152353
v 0.000000 0.347875 0.136139
v 0.000000 0.331131 0.117675
v 0.000000 0.316926 0.097176
v 0.000000 0.305484 0.074858
v 0.000000 0.297032 0.050935
v 0.000000 0.291796 0.025624
v 0.000000 0.290000 -0.000861
v 0.000000 0.290227 -0.009936
v 0.000000 0.290898 -0.019130
v 0.000000 0.292000 -0.028392
v 0.000000 0.293519 -0.037676
v 0.000000 0.295440 -0.046932
v 0.000000 0.297750 -0.056111
v 0.000000 0.300435 -0.065166
v 0.000000 0.303482 -0.074046
v -0.000000 0.306875 -0.082705
v -0.000000 0.310602 -0.091093
v -0.000000 0.314648 -0.099161
v -0.000000 0.319000 -0.106861
v -0.000000 0.297329 -0.100973
v -0.000000 0.275384 -0.092843
v -0.000000 0.253266 -0.082517
v -0.000000 0.231074 -0.070046
v -0.000000 0.208910 -0.055478
v -0.000000 0.186875 -0.038861
v -0.000000 0.165069 -0.020244
v -0.000000 0.143593 0.000324
v -0.000000 0.122547 0.022795
v -0.000000 0.102032 0.047120
v -0.000000 0.082150 0.073251
v -0.000000 0.063000 0.101139
v 0.000000 0.490000 0.094139
v 0.000000 0.505359 0.093176
v 0.000000 0.519875 0.090356
v 0.000000 0.533453 0.085779
v 0.000000 0.546000 0.079546
v 0.000000 0.557422 0.071757
v 0.000000 0.567625 0.062514
v 0.000000 0.576516 0.051916
v 0.000000 0.584000 0.040065
v 0.000000 0.589984 0.027061
v 0.000000 0.594375 0.013005
v 0.000000 0.597078 -0.002003
v 0.000000 0.598000 -0.017861
v 0.000000 0.596840 -0.033339
v 0.000000 0.593472 -0.048181
v 0.000000 0.588063 -0.062252
v 0.000000 0.580778 -0.075417
v 0.000000 0.571785 -0.087540
v 0.000000 0.561250 -0.098486
v 0.000000 0.549340 -0.108120
v 0.000000 0.536222 -0.116306
v 0.000000 0.522062 -0.122908
v 0.000000 0.507028 -0.127792
v 0.000000 0.491285 -0.130821
v 0.000000 0.475000 -0.131861
v 0.000000 0.470805 -0.131858
v 0.000000 0.466690 -0.131838
v 0.000000 0.462609 -0.131783
v 0.000000 0.458519 -0.131676
v 0.000000 0.454372 -0.131499
v 0.000000 0.450125 -0.131236
v 0.000000 0.445732 -0.130869
v 0.000000 0.441148 -0.130380
v 0.000000 0.436328 -0.129752
v 0.000000 0.431227 -0.128968
v 0.000000 0.425799 -0.128010
v 0.000000 0.420000 -0.126861
v 0.000000 0.413810 -0.117576
v 0.000000 0.408231 -0.108250
v 0.000000 0.403250 -0.098924
v 0.000000 0.398852 -0.089639
v 0.000000 0.395023 -0.080438
v 0.000000 0.391750 -0.071361
v 0.000000 0.389019 -0.062451
v 0.000000 0.386815 -0.053750
v 0.000000 0.385125 -0.045299
v 0.000000 0.383935 -0.037139
v 0.000000 0.383231 -0.029313
v 0.000000 0.383000 -0.021861
v 0.000000 0.383979 -0.006134
v 0.000000 0.386829 0.008954
v 0.000000 0.391422 0.023264
v 0.000000 0.397630 0.036657
v 0.000000 0.405324 0.048995
v 0.000000 0.414375 0.060139
v 0.000000 0.424656 0.069949
v 0.000000 0.436037 0.078287
v 0.000000 0.448391 0.085014
v 0.000000 0.461588 0.089991
v 0.000000 0.475501 0.093079
vn 1.0000 -0.0000 -0.0000
vt 0.189394 0.000000
vt 0.174242 0.000000
vt 0.181818 0.000000
vt 0.196970 0.000000
vt 0.166667 0.000000
vt 0.204545 0.000000
vt 0.159091 0.000000
vt 0.212121 0.000000
vt 0.151515 0.000000
vt 0.219697 0.000000
vt 0.143939 0.000000
vt 0.227273 0.000000
vt 0.136364 0.000000
vt 0.234848 0.000000
vt 0.128788 0.000000
vt 0.242424 0.000000
vt 0.636364 0.000000
vt 0.643939 0.000000
vt 0.651515 0.000000
vt 0.628788 0.000000
vt 0.659091 0.000000
vt 0.121212 0.000000
vt 0.621212 0.000000
vt 0.666667 0.000000
vt 0.613636 0.000000
vt 0.674242 0.000000
vt 0.250000 0.000000
vt 0.606061 0.000000
vt 0.681818 0.000000
vt 0.598485 0.000000
vt 0.689394 0.000000
vt 0.113636 0.000000
vt 0.590909 0.000000
vt 0.257576 0.000000
vt 0.696970 0.000000
vt 0.583333 0.000000
vt 0.704545 0.000000
vt 0.575758 0.000000
vt 0.106061 0.000000
vt 0.265152 0.000000
vt 0.712121 0.000000
vt 0.568182 0.000000
vt 0.719697 0.000000
vt 0.560606 0.000000
vt 0.272727 0.000000
vt 0.098485 0.000000
vt 0.727273 0.000000
vt 0.553030 0.000000
vt 0.734848 0.000000
vt 1.000000 0.000000
vt 0.280303 0.000000
vt 0.090909 0.000000
vt 0.992424 0.000000
vt 0.742424 0.000000
vt 0.750000 0.000000
vt 0.757576 0.000000
vt 0.765152 0.000000
vt 0.287879 0.000000
vt 0.984848 0.000000
vt 0.772727 0.000000
vt 0.780303 0.000000
vt 0.787879 0.000000
vt 0.977273 0.000000
vt 0.795455 0.000000
vt 0.083333 0.000000
vt 0.803030 0.000000
vt 0.810606 0.000000
vt 0.969697 0.000000
vt 0.295455 0.000000
vt 0.818182 0.000000
vt 0.825758 0.000000
vt 0.962121 0.000000
vt 0.833333 0.000000
vt 0.954545 0.000000
vt 0.840909 0.000000
vt 0.303030 0.000000
vt 0.848485 0.000000
vt 0.946970 0.000000
vt 0.856061 0.000000
vt 0.075758 0.000000
vt 0.863636 0.000000
vt 0.939394 0.000000
vt 0.871212 0.000000
vt 0.878788 0.000000
vt 0.931818 0.000000
vt 0.886364 0.000000
vt 0.310606 0.000000
vt 0.924242 0.000000
vt 0.893939 0.000000
vt 0.901515 0.000000
vt 0.916667 0.000000
vt 0.909091 0.000000
vt 0.318182 0.000000
vt 0.068182 0.000000
vt 0.325758 0.000000
vt 0.333333 0.000000
vt 0.454545 0.000000
vt 0.446970 0.000000
vt 0.462121 0.000000
vt 0.340909 0.000000
vt 0.060606 0.000000
vt 0.439394 0.000000
vt 0.431818 0.000000
vt 0.424242 0.000000
vt 0.348485 0.000000
vt 0.416667 0.000000
vt 0.409091 0.000000
vt 0.401515 0.000000
vt 0.469697 0.000000
vt 0.356061 0.000000
vt 0.393939 0.000000
vt 0.386364 0.000000
vt 0.378788 0.000000
vt 0.363636 0.000000
vt 0.371212 0.000000
vt 0.477273 0.000000
vt 0.053030 0.000000
vt 0.484848 0.000000
vt 0.045455 0.000000
vt 0.492424 0.000000
vt 0.500000 0.000000
vt 0.037879 0.000000
vt 0.507576 0.000000
vt 0.515152 0.000000
vt 0.030303 0.000000
vt 0.522727 0.000000
vt 0.530303 0.000000
vt 0.022727 0.000000
vt 0.537879 0.000000
vt 0.545455 0.000000
vt 0.015152 0.000000
vt 0.000000 0.000000
vt 0.007576 0.000000
s 0
usemtl マテリアル
f 26/1/1 24/2/1 25/3/1
f 27/4/1 24/2/1 26/1/1
f 27/4/1 23/5/1 24/2/1
f 28/6/1 23/5/1 27/4/1
f 28/6/1 22/7/1 23/5/1
f 29/8/1 22/7/1 28/6/1
f 29/8/1 21/9/1 22/7/1
f 30/10/1 21/9/1 29/8/1
f 30/10/1 20/11/1 21/9/1
f 31/12/1 20/11/1 30/10/1
f 31/12/1 19/13/1 20/11/1
f 32/14/1 19/13/1 31/12/1
f 32/14/1 18/15/1 19/13/1
f 33/16/1 85/17/1 32/14/1
f 85/17/1 86/18/1 32/14/1
f 86/18/1 18/15/1 32/14/1
f 87/19/1 18/15/1 86/18/1
f 33/16/1 84/20/1 85/17/1
f 88/21/1 18/15/1 87/19/1
f 88/21/1 17/22/1 18/15/1
f 33/16/1 83/23/1 84/20/1
f 89/24/1 17/22/1 88/21/1
f 33/16/1 82/25/1 83/23/1
f 90/26/1 17/22/1 89/24/1
f 34/27/1 82/25/1 33/16/1
f 34/27/1 81/28/1 82/25/1
f 91/29/1 17/22/1 90/26/1
f 34/27/1 80/30/1 81/28/1
f 92/31/1 17/22/1 91/29/1
f 92/31/1 16/32/1 17/22/1
f 34/27/1 79/33/1 80/30/1
f 35/34/1 79/33/1 34/27/1
f 93/35/1 16/32/1 92/31/1
f 35/34/1 78/36/1 79/33/1
f 94/37/1 16/32/1 93/35/1
f 35/34/1 77/38/1 78/36/1
f 94/37/1 15/39/1 16/32/1
f 36/40/1 77/38/1 35/34/1
f 95/41/1 15/39/1 94/37/1
f 36/40/1 76/42/1 77/38/1
f 96/43/1 15/39/1 95/41/1
f 36/40/1 75/44/1 76/42/1
f 37/45/1 75/44/1 36/40/1
f 96/43/1 14/46/1 15/39/1
f 97/47/1 14/46/1 96/43/1
f 37/45/1 74/48/1 75/44/1
f 98/49/1 14/46/1 97/47/1
f 37/45/1 133/50/1 74/48/1
f 38/51/1 133/50/1 37/45/1
f 98/49/1 13/52/1 14/46/1
f 38/51/1 132/53/1 133/50/1
f 99/54/1 13/52/1 98/49/1
f 100/55/1 13/52/1 99/54/1
f 101/56/1 13/52/1 100/55/1
f 102/57/1 13/52/1 101/56/1
f 39/58/1 132/53/1 38/51/1
f 39/58/1 131/59/1 132/53/1
f 103/60/1 13/52/1 102/57/1
f 104/61/1 13/52/1 103/60/1
f 105/62/1 13/52/1 104/61/1
f 39/58/1 130/63/1 131/59/1
f 106/64/1 13/52/1 105/62/1
f 106/64/1 12/65/1 13/52/1
f 107/66/1 12/65/1 106/64/1
f 108/67/1 12/65/1 107/66/1
f 39/58/1 129/68/1 130/63/1
f 40/69/1 129/68/1 39/58/1
f 109/70/1 12/65/1 108/67/1
f 110/71/1 12/65/1 109/70/1
f 40/69/1 128/72/1 129/68/1
f 111/73/1 12/65/1 110/71/1
f 40/69/1 127/74/1 128/72/1
f 112/75/1 12/65/1 111/73/1
f 41/76/1 127/74/1 40/69/1
f 113/77/1 12/65/1 112/75/1
f 41/76/1 126/78/1 127/74/1
f 114/79/1 12/65/1 113/77/1
f 114/79/1 11/80/1 12/65/1
f 115/81/1 11/80/1 114/79/1
f 41/76/1 125/82/1 126/78/1
f 116/83/1 11/80/1 115/81/1
f 117/84/1 11/80/1 116/83/1
f 41/76/1 124/85/1 125/82/1
f 118/86/1 11/80/1 117/84/1
f 42/87/1 124/85/1 41/76/1
f 42/87/1 123/88/1 124/85/1
f 119/89/1 11/80/1 118/86/1
f 120/90/1 11/80/1 119/89/1
f 42/87/1 122/91/1 123/88/1
f 121/92/1 11/80/1 120/90/1
f 122/91/1 11/80/1 121/92/1
f 42/87/1 11/80/1 122/91/1
f 43/93/1 11/80/1 42/87/1
f 43/93/1 10/94/1 11/80/1
f 44/95/1 10/94/1 43/93/1
f 45/96/1 61/97/1 44/95/1
f 61/97/1 10/94/1 44/95/1
f 45/96/1 60/98/1 61/97/1
f 62/99/1 10/94/1 61/97/1
f 46/100/1 60/98/1 45/96/1
f 62/99/1 9/101/1 10/94/1
f 46/100/1 59/102/1 60/98/1
f 46/100/1 58/103/1 59/102/1
f 46/100/1 57/104/1 58/103/1
f 47/105/1 57/104/1 46/100/1
f 47/105/1 56/106/1 57/104/1
f 47/105/1 55/107/1 56/106/1
f 47/105/1 54/108/1 55/107/1
f 63/109/1 9/101/1 62/99/1
f 48/110/1 54/108/1 47/105/1
f 48/110/1 53/111/1 54/108/1
f 48/110/1 52/112/1 53/111/1
f 48/110/1 51/113/1 52/112/1
f 49/114/1 51/113/1 48/110/1
f 49/114/1 50/115/1 51/113/1
f 64/116/1 9/101/1 63/109/1
f 64/116/1 8/117/1 9/101/1
f 65/118/1 8/117/1 64/116/1
f 65/118/1 7/119/1 8/117/1
f 66/120/1 7/119/1 65/118/1
f 67/121/1 7/119/1 66/120/1
f 67/121/1 6/122/1 7/119/1
f 68/123/1 6/122/1 67/121/1
f 69/124/1 6/122/1 68/123/1
f 69/124/1 5/125/1 6/122/1
f 70/126/1 5/125/1 69/124/1
f 71/127/1 5/125/1 70/126/1
f 71/127/1 4/128/1 5/125/1
f 72/129/1 4/128/1 71/127/1
f 73/130/1 4/128/1 72/129/1
f 73/130/1 3/131/1 4/128/1
f 1/132/1 3/131/1 73/130/1
f 1/132/1 2/133/1 3/131/1
