# Blender 4.4.1
# www.blender.org
mtllib zangeki.mtl
o Cube
v -0.052433 0.776592 -1.000000
v -0.052433 0.771484 -1.000000
v -0.034352 0.752408 1.000000
v -0.034352 0.747356 1.000000
v -0.048638 0.776592 -1.000000
v -0.048638 0.771484 -1.000000
v -0.048638 0.752408 1.000000
v -0.048638 0.747356 1.000000
v -0.356901 0.881360 0.000000
v -0.355364 0.892194 0.000000
v -0.356901 0.892194 0.000000
v -0.355364 0.797403 0.000000
vn -0.0000 0.9904 0.1384
vn -0.0000 -0.0000 1.0000
vn -0.9556 -0.0000 -0.2946
vn -0.9433 -0.1778 0.2804
vn 0.9521 -0.0000 -0.3056
vn 0.9571 -0.0000 0.2899
vn -0.9555 0.0257 -0.2938
vn -0.9556 -0.0000 0.2946
vn -0.0000 -0.9934 0.1148
vt 0.625000 0.625000
vt 0.875000 0.625000
vt 0.875000 0.750000
vt 0.625000 0.750000
vt 0.375000 0.750000
vt 0.625000 1.000000
vt 0.375000 1.000000
vt 0.375000 0.125000
vt 0.625000 0.125000
vt 0.625000 0.250000
vt 0.375000 0.250000
vt 0.125000 0.625000
vt 0.375000 0.625000
vt 0.125000 0.750000
vt 0.625000 0.500000
vt 0.375000 0.500000
vt 0.125000 0.500000
vt 0.375000 0.000000
vt 0.625000 0.000000
vt 0.875000 0.500000
s 0
usemtl Material
f 10/1/1 11/2/1 7/3/1 3/4/1
f 4/5/2 3/4/2 7/6/2 8/7/2
f 9/8/3 11/9/3 5/10/3 6/11/3
f 9/12/4 12/13/4 4/5/4 8/14/4
f 12/13/5 10/1/5 3/4/5 4/5/5
f 6/11/2 5/10/2 1/15/2 2/16/2
f 2/16/6 1/15/6 10/1/6 12/13/6
f 6/17/7 2/16/7 12/13/7 9/12/7
f 8/18/8 7/19/8 11/9/8 9/8/8
f 1/15/9 5/20/9 11/2/9 10/1/9
