# Blender 4.4.1
# www.blender.org
mtllib 0.mtl
o テキスト
v 0.000000 0.341000 -0.241861
v 0.000000 0.392001 -0.240053
v 0.000000 0.439843 -0.234732
v 0.000000 0.484281 -0.226049
v 0.000000 0.525074 -0.214157
v 0.000000 0.561978 -0.199211
v 0.000000 0.594750 -0.181361
v 0.000000 0.623147 -0.160762
v 0.000000 0.646926 -0.137565
v 0.000000 0.665844 -0.111924
v 0.000000 0.679658 -0.083991
v 0.000000 0.688124 -0.053919
v 0.000000 0.691000 -0.021861
v 0.000000 0.688124 0.010197
v 0.000000 0.679657 0.040268
v 0.000000 0.665844 0.068201
v 0.000000 0.646926 0.093843
v 0.000000 0.623147 0.117039
v 0.000000 0.594750 0.137639
v 0.000000 0.561978 0.155488
v 0.000000 0.525074 0.170435
v 0.000000 0.484281 0.182326
v 0.000000 0.439843 0.191009
v 0.000000 0.392001 0.196331
v 0.000000 0.341000 0.198139
v 0.000000 0.289999 0.196331
v 0.000000 0.242157 0.191009
v 0.000000 0.197719 0.182326
v 0.000000 0.156926 0.170435
v 0.000000 0.120022 0.155488
v 0.000000 0.087250 0.137639
v 0.000000 0.058853 0.117039
v 0.000000 0.035074 0.093843
v 0.000000 0.016156 0.068201
v 0.000000 0.002343 0.040268
v 0.000000 -0.006124 0.010197
v 0.000000 -0.009000 -0.021861
v 0.000000 -0.006124 -0.053919
v 0.000000 0.002343 -0.083991
v 0.000000 0.016156 -0.111924
v 0.000000 0.035074 -0.137565
v 0.000000 0.058853 -0.160762
v 0.000000 0.087250 -0.181361
v 0.000000 0.120022 -0.199211
v 0.000000 0.156926 -0.214157
v 0.000000 0.197719 -0.226049
v 0.000000 0.242157 -0.234732
v 0.000000 0.289999 -0.240053
v 0.000000 0.341000 -0.143861
v 0.000000 0.302332 -0.142912
v 0.000000 0.266407 -0.140102
v 0.000000 0.233344 -0.135486
v 0.000000 0.203259 -0.129120
v 0.000000 0.176272 -0.121060
v 0.000000 0.152500 -0.111361
v 0.000000 0.132061 -0.100079
v 0.000000 0.115074 -0.087269
v 0.000000 0.101656 -0.072986
v 0.000000 0.091926 -0.057287
v 0.000000 0.086001 -0.040227
v 0.000000 0.084000 -0.021861
v 0.000000 0.086001 -0.003495
v 0.000000 0.091926 0.013565
v 0.000000 0.101656 0.029264
v 0.000000 0.115074 0.043546
v 0.000000 0.132061 0.056356
v 0.000000 0.152500 0.067639
v 0.000000 0.176272 0.077338
v 0.000000 0.203259 0.085398
v 0.000000 0.233344 0.091764
v 0.000000 0.266407 0.096380
v 0.000000 0.302332 0.099190
v 0.000000 0.341000 0.100139
v 0.000000 0.379668 0.099190
v 0.000000 0.415593 0.096380
v 0.000000 0.448656 0.091764
v 0.000000 0.478741 0.085398
v 0.000000 0.505728 0.077338
v 0.000000 0.529500 0.067639
v 0.000000 0.549939 0.056356
v 0.000000 0.566926 0.043546
v 0.000000 0.580344 0.029264
v 0.000000 0.590074 0.013565
v 0.000000 0.595999 -0.003495
v 0.000000 0.598000 -0.021861
v 0.000000 0.595999 -0.040227
v 0.000000 0.590074 -0.057287
v 0.000000 0.580344 -0.072986
v 0.000000 0.566926 -0.087269
v 0.000000 0.549939 -0.100079
v 0.000000 0.529500 -0.111361
v 0.000000 0.505728 -0.121060
v 0.000000 0.478741 -0.129120
v 0.000000 0.448656 -0.135486
v 0.000000 0.415593 -0.140102
v 0.000000 0.379668 -0.142912
v 0.061543 0.691000 -0.021861
v 0.061543 0.688124 0.010197
v 0.061543 0.688124 -0.053919
v 0.061543 0.679658 -0.083991
v 0.061543 0.679657 0.040268
v 0.061543 0.665844 -0.111924
v 0.061543 0.665844 0.068201
v 0.061543 0.646926 -0.137565
v 0.061543 0.646926 0.093843
v 0.061543 0.623147 0.117039
v 0.061543 0.623147 -0.160762
v 0.061543 0.594750 0.137639
v 0.061543 0.598000 -0.021861
v 0.061543 0.594750 -0.181361
v 0.061543 0.595999 -0.003495
v 0.061543 0.595999 -0.040227
v 0.061543 0.590074 0.013565
v 0.061543 0.590074 -0.057287
v 0.061543 0.561978 0.155488
v 0.061543 0.561978 -0.199211
v 0.061543 0.580344 0.029264
v 0.061543 0.580344 -0.072986
v 0.061543 0.566926 0.043546
v 0.061543 0.566926 -0.087269
v 0.061543 0.549939 0.056356
v 0.061543 0.549939 -0.100079
v 0.061543 0.525074 0.170435
v 0.061543 0.525074 -0.214157
v 0.061543 0.529500 0.067639
v 0.061543 0.529500 -0.111361
v 0.061543 0.505728 0.077338
v 0.061543 0.505728 -0.121060
v 0.061543 0.484281 0.182326
v 0.061543 0.484281 -0.226049
v 0.061543 0.478741 0.085398
v 0.061543 0.478741 -0.129120
v 0.061543 0.439843 0.191009
v 0.061543 0.439843 -0.234732
v 0.061543 0.448656 0.091764
v 0.061543 0.448656 -0.135486
v 0.061543 0.415593 0.096380
v 0.061543 0.415593 -0.140102
v 0.061543 0.392001 0.196331
v 0.061543 0.392001 -0.240053
v 0.061543 0.379668 0.099190
v 0.061543 0.379668 -0.142912
v 0.061543 0.341000 0.198139
v 0.061543 0.341000 -0.241861
v 0.061543 0.341000 0.100139
v 0.061543 0.341000 -0.143861
v 0.061543 0.289999 0.196331
v 0.061543 0.302332 0.099190
v 0.061543 0.302332 -0.142912
v 0.061543 0.289999 -0.240053
v 0.061543 0.266407 0.096380
v 0.061543 0.266407 -0.140102
v 0.061543 0.242157 0.191009
v 0.061543 0.242157 -0.234732
v 0.061543 0.233344 0.091764
v 0.061543 0.233344 -0.135486
v 0.061543 0.197719 0.182326
v 0.061543 0.197719 -0.226049
v 0.061543 0.203259 -0.129120
v 0.061543 0.203259 0.085398
v 0.061543 0.176272 -0.121060
v 0.061543 0.176272 0.077338
v 0.061543 0.156926 0.170435
v 0.061543 0.156926 -0.214157
v 0.061543 0.152500 -0.111361
v 0.061543 0.152500 0.067639
v 0.061543 0.120022 0.155488
v 0.061543 0.120022 -0.199211
v 0.061543 0.132061 -0.100079
v 0.061543 0.132061 0.056356
v 0.061543 0.115074 -0.087269
v 0.061543 0.115074 0.043546
v 0.061543 0.087250 0.137639
v 0.061543 0.087250 -0.181361
v 0.061543 0.101656 -0.072986
v 0.061543 0.101656 0.029264
v 0.061543 0.091926 -0.057287
v 0.061543 0.091926 0.013565
v 0.061543 0.086001 -0.040227
v 0.061543 0.086001 -0.003495
v 0.061543 0.058853 0.117039
v 0.061543 0.058853 -0.160762
v 0.061543 0.084000 -0.021861
v 0.061543 0.035074 0.093843
v 0.061543 0.035074 -0.137565
v 0.061543 0.016156 0.068201
v 0.061543 0.016156 -0.111924
v 0.061543 0.002343 0.040268
v 0.061543 0.002343 -0.083991
v 0.061543 -0.006124 0.010197
v 0.061543 -0.006124 -0.053919
v 0.061543 -0.009000 -0.021861
vn -0.6869 0.7148 0.1315
vn -0.6875 0.7261 -0.0000
vn -0.6869 0.7148 -0.1315
vn -0.6869 0.6784 -0.2607
vn -0.6869 0.6784 0.2607
vn -0.6878 0.6198 -0.3778
vn -0.6878 0.6198 0.3778
vn -0.6893 0.5462 -0.4759
vn -0.6893 0.5462 0.4759
vn -0.6911 0.4658 0.5526
vn -0.6911 0.4658 -0.5527
vn -0.6929 0.3849 0.6097
vn -0.7323 -0.6810 -0.0000
vn -0.6929 0.3849 -0.6097
vn -0.7334 -0.6632 -0.1493
vn -0.7334 -0.6632 0.1493
vn -0.7327 -0.6144 -0.2927
vn -0.7327 -0.6144 0.2927
vn -0.6945 0.3076 0.6504
vn -0.6945 0.3076 -0.6504
vn -0.7302 -0.5420 -0.4159
vn -0.7302 -0.5420 0.4159
vn -0.7268 -0.4587 -0.5112
vn -0.7268 -0.4588 0.5112
vn -0.7234 -0.3756 -0.5793
vn -0.7234 -0.3756 0.5793
vn -0.6959 0.2356 0.6784
vn -0.6959 0.2356 -0.6784
vn -0.7205 -0.2991 -0.6256
vn -0.7205 -0.2991 0.6257
vn -0.7182 -0.2313 -0.6563
vn -0.7182 -0.2313 0.6563
vn -0.6970 0.1693 0.6968
vn -0.6970 0.1693 -0.6968
vn -0.7164 -0.1722 -0.6761
vn -0.7164 -0.1722 0.6761
vn -0.6980 0.1083 0.7079
vn -0.6980 0.1083 -0.7079
vn -0.7150 -0.1208 -0.6886
vn -0.7150 -0.1208 0.6886
vn -0.7140 -0.0757 -0.6960
vn -0.7140 -0.0757 0.6960
vn -0.6987 0.0523 0.7135
vn -0.6987 0.0522 -0.7135
vn -0.7132 -0.0359 -0.7001
vn -0.7132 -0.0359 0.7001
vn -0.6992 -0.0000 0.7149
vn -0.6992 -0.0000 -0.7149
vn -0.7127 -0.0000 -0.7015
vn -0.7127 -0.0000 0.7015
vn -0.6987 -0.0523 0.7135
vn -0.7132 0.0359 -0.7001
vn -0.7132 0.0359 0.7001
vn -0.6987 -0.0522 -0.7135
vn -0.7140 0.0757 -0.6960
vn -0.7140 0.0757 0.6960
vn -0.6980 -0.1083 0.7079
vn -0.6980 -0.1083 -0.7079
vn -0.7150 0.1208 -0.6886
vn -0.7150 0.1208 0.6886
vn -0.6970 -0.1693 0.6968
vn -0.6970 -0.1693 -0.6968
vn -0.7164 0.1722 0.6761
vn -0.7164 0.1722 -0.6761
vn -0.7182 0.2313 0.6563
vn -0.7182 0.2313 -0.6563
vn -0.6959 -0.2356 0.6784
vn -0.6959 -0.2356 -0.6784
vn -0.7205 0.2991 0.6257
vn -0.7205 0.2991 -0.6257
vn -0.6945 -0.3076 0.6504
vn -0.6945 -0.3076 -0.6504
vn -0.7234 0.3756 0.5793
vn -0.7234 0.3756 -0.5793
vn -0.7268 0.4588 0.5112
vn -0.7268 0.4587 -0.5112
vn -0.6929 -0.3849 0.6097
vn -0.6929 -0.3849 -0.6097
vn -0.7302 0.5420 0.4159
vn -0.7302 0.5420 -0.4159
vn -0.7327 0.6144 0.2927
vn -0.7327 0.6144 -0.2927
vn -0.7334 0.6633 0.1493
vn -0.7334 0.6633 -0.1493
vn -0.6911 -0.4658 0.5526
vn -0.6911 -0.4658 -0.5527
vn -0.7323 0.6810 -0.0000
vn -0.6893 -0.5462 0.4759
vn -0.6893 -0.5462 -0.4759
vn -0.6878 -0.6198 0.3778
vn -0.6878 -0.6198 -0.3778
vn -0.6869 -0.6784 0.2607
vn -0.6869 -0.6784 -0.2607
vn -0.6869 -0.7148 0.1315
vn -0.6869 -0.7148 -0.1315
vn -0.6875 -0.7261 -0.0000
vn 0.6869 0.7148 0.1315
vn 0.6869 0.7148 -0.1315
vn 0.6875 0.7261 -0.0000
vn 0.6869 0.6784 -0.2607
vn 0.6869 0.6784 0.2607
vn 0.6878 0.6198 -0.3778
vn 0.6878 0.6198 0.3778
vn 0.6893 0.5462 -0.4759
vn 0.6893 0.5462 0.4759
vn 0.6911 0.4658 0.5526
vn 0.6911 0.4658 -0.5527
vn 0.6929 0.3849 0.6097
vn 0.7323 -0.6810 -0.0000
vn 0.6929 0.3849 -0.6097
vn 0.7334 -0.6632 -0.1493
vn 0.7334 -0.6632 0.1493
vn 0.7327 -0.6144 -0.2927
vn 0.7327 -0.6144 0.2927
vn 0.6945 0.3076 0.6504
vn 0.6945 0.3076 -0.6504
vn 0.7302 -0.5420 -0.4159
vn 0.7302 -0.5420 0.4159
vn 0.7268 -0.4587 -0.5112
vn 0.7268 -0.4588 0.5112
vn 0.7234 -0.3756 -0.5793
vn 0.7234 -0.3756 0.5793
vn 0.6959 0.2356 0.6784
vn 0.6959 0.2356 -0.6784
vn 0.7205 -0.2991 -0.6256
vn 0.7205 -0.2991 0.6257
vn 0.7182 -0.2313 -0.6563
vn 0.7182 -0.2313 0.6563
vn 0.6970 0.1693 0.6968
vn 0.6970 0.1693 -0.6968
vn 0.7164 -0.1722 -0.6761
vn 0.7164 -0.1722 0.6761
vn 0.6980 0.1083 0.7079
vn 0.6980 0.1083 -0.7079
vn 0.7150 -0.1208 -0.6886
vn 0.7150 -0.1208 0.6886
vn 0.7140 -0.0757 -0.6960
vn 0.7140 -0.0757 0.6960
vn 0.6987 0.0523 0.7135
vn 0.6987 0.0522 -0.7135
vn 0.7132 -0.0359 -0.7001
vn 0.7132 -0.0359 0.7001
vn 0.6992 -0.0000 0.7149
vn 0.6992 -0.0000 -0.7149
vn 0.7127 -0.0000 -0.7015
vn 0.7127 -0.0000 0.7015
vn 0.6987 -0.0523 0.7135
vn 0.7132 0.0359 -0.7001
vn 0.7132 0.0359 0.7001
vn 0.6987 -0.0522 -0.7135
vn 0.7140 0.0757 -0.6960
vn 0.7140 0.0757 0.6960
vn 0.6980 -0.1083 0.7079
vn 0.6980 -0.1083 -0.7079
vn 0.7150 0.1208 -0.6886
vn 0.7150 0.1208 0.6886
vn 0.6970 -0.1693 0.6968
vn 0.6970 -0.1693 -0.6968
vn 0.7164 0.1722 0.6761
vn 0.7164 0.1722 -0.6761
vn 0.7182 0.2313 0.6563
vn 0.7182 0.2313 -0.6563
vn 0.6959 -0.2356 0.6784
vn 0.6959 -0.2356 -0.6784
vn 0.7205 0.2991 0.6257
vn 0.7205 0.2991 -0.6257
vn 0.6945 -0.3076 0.6504
vn 0.6945 -0.3076 -0.6504
vn 0.7234 0.3756 0.5793
vn 0.7234 0.3756 -0.5793
vn 0.7268 0.4588 0.5112
vn 0.7268 0.4587 -0.5112
vn 0.6929 -0.3849 0.6097
vn 0.6929 -0.3849 -0.6097
vn 0.7302 0.5420 0.4159
vn 0.7302 0.5420 -0.4159
vn 0.7327 0.6144 0.2927
vn 0.7327 0.6144 -0.2927
vn 0.7334 0.6633 0.1493
vn 0.7334 0.6633 -0.1493
vn 0.6911 -0.4658 0.5526
vn 0.6911 -0.4658 -0.5527
vn 0.7323 0.6810 -0.0000
vn 0.6893 -0.5462 0.4759
vn 0.6893 -0.5462 -0.4759
vn 0.6878 -0.6198 0.3778
vn 0.6878 -0.6198 -0.3778
vn 0.6869 -0.6784 0.2607
vn 0.6869 -0.6784 -0.2607
vn 0.6869 -0.7148 0.1315
vn 0.6869 -0.7148 -0.1315
vn 0.6875 -0.7261 -0.0000
vt 0.136842 0.000000
vt 0.126316 0.000000
vt 0.115789 0.000000
vt 0.105263 0.000000
vt 0.147368 0.000000
vt 0.094737 0.000000
vt 0.157895 0.000000
vt 0.084211 0.000000
vt 0.168421 0.000000
vt 0.178947 0.000000
vt 0.073684 0.000000
vt 0.189474 0.000000
vt 0.884211 0.000000
vt 0.063158 0.000000
vt 0.873684 0.000000
vt 0.894737 0.000000
vt 0.863158 0.000000
vt 0.905263 0.000000
vt 0.200000 0.000000
vt 0.052632 0.000000
vt 0.852632 0.000000
vt 0.915789 0.000000
vt 0.842105 0.000000
vt 0.926316 0.000000
vt 0.831579 0.000000
vt 0.936842 0.000000
vt 0.210526 0.000000
vt 0.042105 0.000000
vt 0.821053 0.000000
vt 0.947368 0.000000
vt 0.810526 0.000000
vt 0.957895 0.000000
vt 0.221053 0.000000
vt 0.031579 0.000000
vt 0.800000 0.000000
vt 0.968421 0.000000
vt 0.231579 0.000000
vt 0.021053 0.000000
vt 0.789474 0.000000
vt 0.978947 0.000000
vt 0.778947 0.000000
vt 0.989474 0.000000
vt 0.242105 0.000000
vt 0.010526 0.000000
vt 0.768421 0.000000
vt 1.000000 0.000000
vt 0.252632 0.000000
vt 0.000000 0.000000
vt 0.757895 0.000000
vt 0.505263 0.000000
vt 0.263158 0.000000
vt 0.747368 0.000000
vt 0.515789 0.000000
vt 0.494737 0.000000
vt 0.736842 0.000000
vt 0.526316 0.000000
vt 0.273684 0.000000
vt 0.484211 0.000000
vt 0.726316 0.000000
vt 0.536842 0.000000
vt 0.284211 0.000000
vt 0.473684 0.000000
vt 0.547368 0.000000
vt 0.715789 0.000000
vt 0.557895 0.000000
vt 0.705263 0.000000
vt 0.294737 0.000000
vt 0.463158 0.000000
vt 0.568421 0.000000
vt 0.694737 0.000000
vt 0.305263 0.000000
vt 0.452632 0.000000
vt 0.578947 0.000000
vt 0.684211 0.000000
vt 0.589474 0.000000
vt 0.673684 0.000000
vt 0.315789 0.000000
vt 0.442105 0.000000
vt 0.600000 0.000000
vt 0.663158 0.000000
vt 0.610526 0.000000
vt 0.652632 0.000000
vt 0.621053 0.000000
vt 0.642105 0.000000
vt 0.326316 0.000000
vt 0.431579 0.000000
vt 0.631579 0.000000
vt 0.336842 0.000000
vt 0.421053 0.000000
vt 0.347368 0.000000
vt 0.410526 0.000000
vt 0.357895 0.000000
vt 0.400000 0.000000
vt 0.368421 0.000000
vt 0.389474 0.000000
vt 0.378947 0.000000
s 1
usemtl マテリアル
f 14/1/1 13/2/2 12/3/3
f 14/1/1 12/3/3 11/4/4
f 15/5/5 14/1/1 11/4/4
f 15/5/5 11/4/4 10/6/6
f 16/7/7 15/5/5 10/6/6
f 16/7/7 10/6/6 9/8/8
f 17/9/9 16/7/7 9/8/8
f 18/10/10 17/9/9 9/8/8
f 18/10/10 9/8/8 8/11/11
f 19/12/12 18/10/10 8/11/11
f 19/12/12 8/11/11 85/13/13
f 85/13/13 8/11/11 7/14/14
f 19/12/12 85/13/13 84/15/15
f 86/16/16 85/13/13 7/14/14
f 19/12/12 84/15/15 83/17/17
f 87/18/18 86/16/16 7/14/14
f 20/19/19 19/12/12 83/17/17
f 87/18/18 7/14/14 6/20/20
f 20/19/19 83/17/17 82/21/21
f 88/22/22 87/18/18 6/20/20
f 20/19/19 82/21/21 81/23/23
f 89/24/24 88/22/22 6/20/20
f 20/19/19 81/23/23 80/25/25
f 90/26/26 89/24/24 6/20/20
f 21/27/27 20/19/19 80/25/25
f 90/26/26 6/20/20 5/28/28
f 21/27/27 80/25/25 79/29/29
f 91/30/30 90/26/26 5/28/28
f 21/27/27 79/29/29 78/31/31
f 92/32/32 91/30/30 5/28/28
f 22/33/33 21/27/27 78/31/31
f 92/32/32 5/28/28 4/34/34
f 22/33/33 78/31/31 77/35/35
f 93/36/36 92/32/32 4/34/34
f 23/37/37 22/33/33 77/35/35
f 93/36/36 4/34/34 3/38/38
f 23/37/37 77/35/35 76/39/39
f 94/40/40 93/36/36 3/38/38
f 23/37/37 76/39/39 75/41/41
f 95/42/42 94/40/40 3/38/38
f 24/43/43 23/37/37 75/41/41
f 95/42/42 3/38/38 2/44/44
f 24/43/43 75/41/41 74/45/45
f 96/46/46 95/42/42 2/44/44
f 25/47/47 24/43/43 74/45/45
f 96/46/46 2/44/44 1/48/48
f 25/47/47 74/45/45 73/49/49
f 49/50/50 96/46/46 1/48/48
f 26/51/51 25/47/47 73/49/49
f 26/51/51 73/49/49 72/52/52
f 50/53/53 49/50/50 1/48/48
f 50/53/53 1/48/48 48/54/54
f 26/51/51 72/52/52 71/55/55
f 51/56/56 50/53/53 48/54/54
f 27/57/57 26/51/51 71/55/55
f 51/56/56 48/54/54 47/58/58
f 27/57/57 71/55/55 70/59/59
f 52/60/60 51/56/56 47/58/58
f 28/61/61 27/57/57 70/59/59
f 52/60/60 47/58/58 46/62/62
f 53/63/63 52/60/60 46/62/62
f 28/61/61 70/59/59 69/64/64
f 54/65/65 53/63/63 46/62/62
f 28/61/61 69/64/64 68/66/66
f 29/67/67 28/61/61 68/66/66
f 54/65/65 46/62/62 45/68/68
f 55/69/69 54/65/65 45/68/68
f 29/67/67 68/66/66 67/70/70
f 30/71/71 29/67/67 67/70/70
f 55/69/69 45/68/68 44/72/72
f 56/73/73 55/69/69 44/72/72
f 30/71/71 67/70/70 66/74/74
f 57/75/75 56/73/73 44/72/72
f 30/71/71 66/74/74 65/76/76
f 31/77/77 30/71/71 65/76/76
f 57/75/75 44/72/72 43/78/78
f 58/79/79 57/75/75 43/78/78
f 31/77/77 65/76/76 64/80/80
f 59/81/81 58/79/79 43/78/78
f 31/77/77 64/80/80 63/82/82
f 60/83/83 59/81/81 43/78/78
f 31/77/77 63/82/82 62/84/84
f 32/85/85 31/77/77 62/84/84
f 60/83/83 43/78/78 42/86/86
f 61/87/87 60/83/83 42/86/86
f 32/85/85 62/84/84 61/87/87
f 32/85/85 61/87/87 42/86/86
f 33/88/88 32/85/85 42/86/86
f 33/88/88 42/86/86 41/89/89
f 34/90/90 33/88/88 41/89/89
f 34/90/90 41/89/89 40/91/91
f 35/92/92 34/90/90 40/91/91
f 35/92/92 40/91/91 39/93/93
f 36/94/94 35/92/92 39/93/93
f 36/94/94 39/93/93 38/95/95
f 37/96/96 36/94/94 38/95/95
f 98/1/97 99/3/98 97/2/99
f 98/1/97 100/4/100 99/3/98
f 101/5/101 100/4/100 98/1/97
f 101/5/101 102/6/102 100/4/100
f 103/7/103 102/6/102 101/5/101
f 103/7/103 104/8/104 102/6/102
f 105/9/105 104/8/104 103/7/103
f 106/10/106 104/8/104 105/9/105
f 106/10/106 107/11/107 104/8/104
f 108/12/108 107/11/107 106/10/106
f 108/12/108 109/13/109 107/11/107
f 109/13/109 110/14/110 107/11/107
f 108/12/108 111/15/111 109/13/109
f 112/16/112 110/14/110 109/13/109
f 108/12/108 113/17/113 111/15/111
f 114/18/114 110/14/110 112/16/112
f 115/19/115 113/17/113 108/12/108
f 114/18/114 116/20/116 110/14/110
f 115/19/115 117/21/117 113/17/113
f 118/22/118 116/20/116 114/18/114
f 115/19/115 119/23/119 117/21/117
f 120/24/120 116/20/116 118/22/118
f 115/19/115 121/25/121 119/23/119
f 122/26/122 116/20/116 120/24/120
f 123/27/123 121/25/121 115/19/115
f 122/26/122 124/28/124 116/20/116
f 123/27/123 125/29/125 121/25/121
f 126/30/126 124/28/124 122/26/122
f 123/27/123 127/31/127 125/29/125
f 128/32/128 124/28/124 126/30/126
f 129/33/129 127/31/127 123/27/123
f 128/32/128 130/34/130 124/28/124
f 129/33/129 131/35/131 127/31/127
f 132/36/132 130/34/130 128/32/128
f 133/37/133 131/35/131 129/33/129
f 132/36/132 134/38/134 130/34/130
f 133/37/133 135/39/135 131/35/131
f 136/40/136 134/38/134 132/36/132
f 133/37/133 137/41/137 135/39/135
f 138/42/138 134/38/134 136/40/136
f 139/43/139 137/41/137 133/37/133
f 138/42/138 140/44/140 134/38/134
f 139/43/139 141/45/141 137/41/137
f 142/46/142 140/44/140 138/42/138
f 143/47/143 141/45/141 139/43/139
f 142/46/142 144/48/144 140/44/140
f 143/47/143 145/49/145 141/45/141
f 146/50/146 144/48/144 142/46/142
f 147/51/147 145/49/145 143/47/143
f 147/51/147 148/52/148 145/49/145
f 149/53/149 144/48/144 146/50/146
f 149/53/149 150/54/150 144/48/144
f 147/51/147 151/55/151 148/52/148
f 152/56/152 150/54/150 149/53/149
f 153/57/153 151/55/151 147/51/147
f 152/56/152 154/58/154 150/54/150
f 153/57/153 155/59/155 151/55/151
f 156/60/156 154/58/154 152/56/152
f 157/61/157 155/59/155 153/57/153
f 156/60/156 158/62/158 154/58/154
f 159/63/159 158/62/158 156/60/156
f 157/61/157 160/64/160 155/59/155
f 161/65/161 158/62/158 159/63/159
f 157/61/157 162/66/162 160/64/160
f 163/67/163 162/66/162 157/61/157
f 161/65/161 164/68/164 158/62/158
f 165/69/165 164/68/164 161/65/161
f 163/67/163 166/70/166 162/66/162
f 167/71/167 166/70/166 163/67/163
f 165/69/165 168/72/168 164/68/164
f 169/73/169 168/72/168 165/69/165
f 167/71/167 170/74/170 166/70/166
f 171/75/171 168/72/168 169/73/169
f 167/71/167 172/76/172 170/74/170
f 173/77/173 172/76/172 167/71/167
f 171/75/171 174/78/174 168/72/168
f 175/79/175 174/78/174 171/75/171
f 173/77/173 176/80/176 172/76/172
f 177/81/177 174/78/174 175/79/175
f 173/77/173 178/82/178 176/80/176
f 179/83/179 174/78/174 177/81/177
f 173/77/173 180/84/180 178/82/178
f 181/85/181 180/84/180 173/77/173
f 179/83/179 182/86/182 174/78/174
f 183/87/183 182/86/182 179/83/179
f 181/85/181 183/87/183 180/84/180
f 181/85/181 182/86/182 183/87/183
f 184/88/184 182/86/182 181/85/181
f 184/88/184 185/89/185 182/86/182
f 186/90/186 185/89/185 184/88/184
f 186/90/186 187/91/187 185/89/185
f 188/92/188 187/91/187 186/90/186
f 188/92/188 189/93/189 187/91/187
f 190/94/190 189/93/189 188/92/188
f 190/94/190 191/95/191 189/93/189
f 192/96/192 191/95/191 190/94/190
f 40/91/91 41/89/89 185/89/185 187/91/187
f 7/14/14 8/11/11 107/11/107 110/14/110
f 28/61/61 29/67/67 163/67/163 157/61/157
f 34/90/90 35/92/92 188/92/188 186/90/186
f 64/80/80 65/76/76 172/76/172 176/80/176
f 48/54/54 1/48/48 144/48/144 150/54/150
f 75/41/41 76/39/39 135/39/135 137/41/137
f 5/28/28 6/20/20 116/20/116 124/28/124
f 58/79/79 59/81/81 177/81/177 175/79/175
f 84/15/15 85/13/13 109/13/109 111/15/111
f 13/2/2 14/1/1 98/1/97 97/2/99
f 94/40/40 95/42/42 138/42/138 136/40/136
f 85/13/13 86/16/16 112/16/112 109/13/109
f 45/68/68 46/62/62 158/62/158 164/68/164
f 71/55/55 72/52/52 148/52/148 151/55/151
f 39/93/93 40/91/91 187/91/187 189/93/189
f 79/29/29 80/25/25 121/25/121 125/29/125
f 54/65/65 55/69/69 165/69/165 161/65/161
f 12/3/3 13/2/2 97/2/99 99/3/98
f 50/53/53 51/56/56 152/56/152 149/53/149
f 23/37/37 24/43/43 139/43/139 133/37/133
f 35/92/92 36/94/94 190/94/190 188/92/188
f 90/26/26 91/30/30 126/30/126 122/26/122
f 63/82/82 64/80/80 176/80/176 178/82/178
f 59/81/81 60/83/83 179/83/179 177/81/177
f 83/17/17 84/15/15 111/15/111 113/17/113
f 11/4/4 12/3/3 99/3/98 100/4/100
f 26/51/51 27/57/57 153/57/153 147/51/147
f 86/16/16 87/18/18 114/18/114 112/16/112
f 67/70/70 68/66/66 162/66/162 166/70/166
f 14/1/1 15/5/5 101/5/101 98/1/97
f 2/44/44 3/38/38 134/38/134 140/44/140
f 38/95/95 39/93/93 189/93/189 191/95/191
f 78/31/31 79/29/29 125/29/125 127/31/127
f 29/67/67 30/71/71 167/71/167 163/67/163
f 36/94/94 37/96/96 192/96/192 190/94/190
f 91/30/30 92/32/32 128/32/128 126/30/126
f 62/84/84 63/82/82 178/82/178 180/84/180
f 19/12/12 20/19/19 115/19/115 108/12/108
f 47/58/58 48/54/54 150/54/150 154/58/154
f 74/45/45 75/41/41 137/41/137 141/45/141
f 37/96/96 38/95/95 191/95/191 192/96/192
f 31/77/77 32/85/85 181/85/181 173/77/173
f 10/6/6 11/4/4 100/4/100 102/6/102
f 95/42/42 96/46/46 142/46/142 138/42/138
f 21/27/27 22/33/33 129/33/129 123/27/123
f 44/72/72 45/68/68 164/68/164 168/72/168
f 15/5/5 16/7/7 103/7/103 101/5/101
f 70/59/59 71/55/55 151/55/151 155/59/155
f 6/20/20 7/14/14 110/14/110 116/20/116
f 55/69/69 56/73/73 169/73/169 165/69/165
f 51/56/56 52/60/60 156/60/156 152/56/152
f 24/43/43 25/47/47 143/47/143 139/43/139
f 42/86/86 43/78/78 174/78/174 182/86/182
f 4/34/34 5/28/28 124/28/124 130/34/130
f 60/83/83 61/87/87 183/87/183 179/83/179
f 82/21/21 83/17/17 113/17/113 117/21/117
f 9/8/8 10/6/6 102/6/102 104/8/104
f 27/57/57 28/61/61 157/61/157 153/57/153
f 87/18/18 88/22/22 118/22/118 114/18/114
f 66/74/74 67/70/70 166/70/166 170/74/170
f 16/7/7 17/9/9 105/9/105 103/7/103
f 1/48/48 2/44/44 140/44/140 144/48/144
f 77/35/35 78/31/31 127/31/127 131/35/131
f 56/73/73 57/75/75 171/75/171 169/73/169
f 92/32/32 93/36/36 132/36/132 128/32/128
f 61/87/87 62/84/84 180/84/180 183/87/183
f 17/9/9 18/10/10 106/10/106 105/9/105
f 46/62/62 47/58/58 154/58/154 158/62/158
f 73/49/49 74/45/45 141/45/141 145/49/145
f 81/23/23 82/21/21 117/21/117 119/23/119
f 52/60/60 53/63/63 159/63/159 156/60/156
f 96/46/46 49/50/50 146/50/146 142/46/142
f 22/33/33 23/37/37 133/37/133 129/33/129
f 32/85/85 33/88/88 184/88/184 181/85/181
f 88/22/22 89/24/24 120/24/120 118/22/118
f 65/76/76 66/74/74 170/74/170 172/76/172
f 30/71/71 31/77/77 173/77/173 167/71/167
f 8/11/11 9/8/8 104/8/104 107/11/107
f 25/47/47 26/51/51 147/51/147 143/47/143
f 18/10/10 19/12/12 108/12/108 106/10/106
f 69/64/64 70/59/59 155/59/155 160/64/160
f 3/38/38 4/34/34 130/34/130 134/38/134
f 41/89/89 42/86/86 182/86/182 185/89/185
f 80/25/25 81/23/23 119/23/119 121/25/121
f 53/63/63 54/65/65 161/65/161 159/63/159
f 33/88/88 34/90/90 186/90/186 184/88/184
f 89/24/24 90/26/26 122/26/122 120/24/120
f 43/78/78 44/72/72 168/72/168 174/78/174
f 72/52/52 73/49/49 145/49/145 148/52/148
f 76/39/39 77/35/35 131/35/131 135/39/135
f 57/75/75 58/79/79 175/79/175 171/75/171
f 49/50/50 50/53/53 149/53/149 146/50/146
f 93/36/36 94/40/40 136/40/136 132/36/132
f 20/19/19 21/27/27 123/27/123 115/19/115
f 68/66/66 69/64/64 160/64/160 162/66/162
