# Blender 4.4.1
# www.blender.org
mtllib rankA.mtl
o テキスト.001
v 0.045943 0.359980 0.000000
v -0.023057 0.359980 0.000000
v -0.316057 -0.326021 0.000000
v -0.216057 -0.326021 0.000000
v -0.130057 -0.125021 0.000000
v 0.159943 -0.125021 0.000000
v 0.250943 -0.326021 0.000000
v 0.350943 -0.326021 0.000000
v 0.009943 0.209980 0.000000
v 0.119943 -0.037021 0.000000
v -0.092057 -0.037021 0.000000
vn -0.0000 -0.0000 1.0000
vt 0.200000 0.000000
vt 0.000000 0.000000
vt 0.100000 0.000000
vt 0.800000 0.000000
vt 0.700000 0.000000
vt 1.000000 0.000000
vt 0.900000 0.000000
vt 0.400000 0.000000
vt 0.500000 0.000000
vt 0.300000 0.000000
vt 0.600000 0.000000
s 0
f 3/1/1 1/2/1 2/3/1
f 3/1/1 9/4/1 1/2/1
f 9/4/1 8/5/1 1/2/1
f 3/1/1 11/6/1 9/4/1
f 10/7/1 8/5/1 9/4/1
f 3/1/1 5/8/1 11/6/1
f 5/8/1 10/7/1 11/6/1
f 5/8/1 6/9/1 10/7/1
f 6/9/1 8/5/1 10/7/1
f 3/1/1 4/10/1 5/8/1
f 7/11/1 8/5/1 6/9/1
