# Blender 4.4.1
# www.blender.org
mtllib rankC.mtl
o テキスト.001
v 0.314201 0.308980 0.000000
v 0.291397 0.318274 0.000000
v 0.269437 0.326669 0.000000
v 0.248248 0.334183 0.000000
v 0.227756 0.340831 0.000000
v 0.207890 0.346633 0.000000
v 0.188576 0.351604 0.000000
v 0.169741 0.355764 0.000000
v 0.151312 0.359128 0.000000
v 0.133216 0.361714 0.000000
v 0.115381 0.363540 0.000000
v 0.097734 0.364623 0.000000
v 0.080201 0.364980 0.000000
v 0.027257 0.361868 0.000000
v -0.022850 0.352757 0.000000
v -0.069784 0.337980 0.000000
v -0.113207 0.317868 0.000000
v -0.152782 0.292757 0.000000
v -0.188174 0.262980 0.000000
v -0.219045 0.228868 0.000000
v -0.245058 0.190757 0.000000
v -0.265877 0.148980 0.000000
v -0.281165 0.103868 0.000000
v -0.290585 0.055757 0.000000
v -0.293799 0.004980 0.000000
v -0.291447 -0.031750 0.000000
v -0.284318 -0.069858 0.000000
v -0.272299 -0.108474 0.000000
v -0.255281 -0.146724 0.000000
v -0.233151 -0.183739 0.000000
v -0.205799 -0.218646 0.000000
v -0.173114 -0.250573 0.000000
v -0.134984 -0.278650 0.000000
v -0.091299 -0.302005 0.000000
v -0.041947 -0.319766 0.000000
v 0.013182 -0.331062 -0.000000
v 0.074201 -0.335021 -0.000000
v 0.100259 -0.334508 -0.000000
v 0.124997 -0.333007 -0.000000
v 0.148513 -0.330567 -0.000000
v 0.170904 -0.327243 -0.000000
v 0.192268 -0.323085 0.000000
v 0.212701 -0.318146 0.000000
v 0.232300 -0.312477 0.000000
v 0.251164 -0.306132 0.000000
v 0.269388 -0.299161 0.000000
v 0.287071 -0.291618 0.000000
v 0.304310 -0.283553 0.000000
v 0.321201 -0.275021 0.000000
v 0.321201 -0.168021 0.000000
v 0.301813 -0.180039 0.000000
v 0.282182 -0.191085 0.000000
v 0.262357 -0.201145 0.000000
v 0.242386 -0.210206 0.000000
v 0.222318 -0.218252 0.000000
v 0.202201 -0.225270 0.000000
v 0.182084 -0.231247 0.000000
v 0.162016 -0.236169 0.000000
v 0.142045 -0.240020 0.000000
v 0.122219 -0.242789 0.000000
v 0.102589 -0.244460 0.000000
v 0.083201 -0.245021 0.000000
v 0.043319 -0.242846 0.000000
v 0.005812 -0.236460 0.000000
v -0.029112 -0.226067 0.000000
v -0.061244 -0.211872 0.000000
v -0.090376 -0.194080 0.000000
v -0.116299 -0.172896 0.000000
v -0.138806 -0.148523 0.000000
v -0.157688 -0.121169 0.000000
v -0.172737 -0.091036 0.000000
v -0.183744 -0.058331 0.000000
v -0.190501 -0.023257 0.000000
v -0.192799 0.013979 0.000000
v -0.190427 0.050625 0.000000
v -0.183484 0.085396 0.000000
v -0.172237 0.118042 0.000000
v -0.156947 0.148313 0.000000
v -0.137880 0.175959 0.000000
v -0.115299 0.200730 0.000000
v -0.089468 0.222375 0.000000
v -0.060651 0.240646 0.000000
v -0.029112 0.255292 0.000000
v 0.004886 0.266063 0.000000
v 0.041078 0.272709 0.000000
v 0.079201 0.274980 0.000000
v 0.098816 0.274518 0.000000
v 0.118205 0.273123 0.000000
v 0.137435 0.270776 0.000000
v 0.156571 0.267461 0.000000
v 0.175679 0.263160 0.000000
v 0.194826 0.257855 0.000000
v 0.214076 0.251529 0.000000
v 0.233497 0.244165 0.000000
v 0.253154 0.235745 0.000000
v 0.273113 0.226253 0.000000
v 0.293440 0.215670 0.000000
v 0.314201 0.203980 0.000000
vn -0.0000 -0.0000 1.0000
vt 0.134021 0.000000
vt 0.113402 0.000000
vt 0.123711 0.000000
vt 0.103093 0.000000
vt 0.092784 0.000000
vt 0.144330 0.000000
vt 0.082474 0.000000
vt 0.072165 0.000000
vt 0.061856 0.000000
vt 0.154639 0.000000
vt 0.051546 0.000000
vt 0.041237 0.000000
vt 0.030928 0.000000
vt 0.164948 0.000000
vt 0.020619 0.000000
vt 0.010309 0.000000
vt 0.000000 0.000000
vt 0.175258 0.000000
vt 0.896907 0.000000
vt 0.907216 0.000000
vt 0.917526 0.000000
vt 0.927835 0.000000
vt 0.938144 0.000000
vt 0.948454 0.000000
vt 0.958763 0.000000
vt 0.969072 0.000000
vt 0.979381 0.000000
vt 0.989691 0.000000
vt 1.000000 0.000000
vt 0.185567 0.000000
vt 0.876289 0.000000
vt 0.886598 0.000000
vt 0.865979 0.000000
vt 0.855670 0.000000
vt 0.845361 0.000000
vt 0.195876 0.000000
vt 0.835052 0.000000
vt 0.824742 0.000000
vt 0.206186 0.000000
vt 0.814433 0.000000
vt 0.804124 0.000000
vt 0.216495 0.000000
vt 0.793814 0.000000
vt 0.226804 0.000000
vt 0.783505 0.000000
vt 0.773196 0.000000
vt 0.237113 0.000000
vt 0.762887 0.000000
vt 0.247423 0.000000
vt 0.752577 0.000000
vt 0.742268 0.000000
vt 0.257732 0.000000
vt 0.731959 0.000000
vt 0.268041 0.000000
vt 0.721649 0.000000
vt 0.278351 0.000000
vt 0.711340 0.000000
vt 0.288660 0.000000
vt 0.701031 0.000000
vt 0.298969 0.000000
vt 0.690722 0.000000
vt 0.515464 0.000000
vt 0.494845 0.000000
vt 0.505155 0.000000
vt 0.680412 0.000000
vt 0.525773 0.000000
vt 0.309278 0.000000
vt 0.536082 0.000000
vt 0.670103 0.000000
vt 0.546392 0.000000
vt 0.556701 0.000000
vt 0.659794 0.000000
vt 0.567010 0.000000
vt 0.319588 0.000000
vt 0.577320 0.000000
vt 0.649485 0.000000
vt 0.587629 0.000000
vt 0.597938 0.000000
vt 0.639175 0.000000
vt 0.608247 0.000000
vt 0.618557 0.000000
vt 0.628866 0.000000
vt 0.329897 0.000000
vt 0.484536 0.000000
vt 0.340206 0.000000
vt 0.474227 0.000000
vt 0.463918 0.000000
vt 0.453608 0.000000
vt 0.350515 0.000000
vt 0.443299 0.000000
vt 0.432990 0.000000
vt 0.422680 0.000000
vt 0.360825 0.000000
vt 0.412371 0.000000
vt 0.402062 0.000000
vt 0.391753 0.000000
vt 0.371134 0.000000
vt 0.381443 0.000000
s 0
f 14/1/1 12/2/1 13/3/1
f 14/1/1 11/4/1 12/2/1
f 14/1/1 10/5/1 11/4/1
f 15/6/1 10/5/1 14/1/1
f 15/6/1 9/7/1 10/5/1
f 15/6/1 8/8/1 9/7/1
f 15/6/1 7/9/1 8/8/1
f 16/10/1 7/9/1 15/6/1
f 16/10/1 6/11/1 7/9/1
f 16/10/1 5/12/1 6/11/1
f 16/10/1 4/13/1 5/12/1
f 17/14/1 4/13/1 16/10/1
f 17/14/1 3/15/1 4/13/1
f 17/14/1 2/16/1 3/15/1
f 17/14/1 1/17/1 2/16/1
f 18/18/1 1/17/1 17/14/1
f 18/18/1 88/19/1 1/17/1
f 88/19/1 89/20/1 1/17/1
f 89/20/1 90/21/1 1/17/1
f 90/21/1 91/22/1 1/17/1
f 91/22/1 92/23/1 1/17/1
f 92/23/1 93/24/1 1/17/1
f 93/24/1 94/25/1 1/17/1
f 94/25/1 95/26/1 1/17/1
f 95/26/1 96/27/1 1/17/1
f 96/27/1 97/28/1 1/17/1
f 97/28/1 98/29/1 1/17/1
f 19/30/1 86/31/1 18/18/1
f 86/31/1 87/32/1 18/18/1
f 87/32/1 88/19/1 18/18/1
f 19/30/1 85/33/1 86/31/1
f 19/30/1 84/34/1 85/33/1
f 19/30/1 83/35/1 84/34/1
f 20/36/1 83/35/1 19/30/1
f 20/36/1 82/37/1 83/35/1
f 20/36/1 81/38/1 82/37/1
f 21/39/1 81/38/1 20/36/1
f 21/39/1 80/40/1 81/38/1
f 21/39/1 79/41/1 80/40/1
f 22/42/1 79/41/1 21/39/1
f 22/42/1 78/43/1 79/41/1
f 23/44/1 78/43/1 22/42/1
f 23/44/1 77/45/1 78/43/1
f 23/44/1 76/46/1 77/45/1
f 24/47/1 76/46/1 23/44/1
f 24/47/1 75/48/1 76/46/1
f 25/49/1 75/48/1 24/47/1
f 25/49/1 74/50/1 75/48/1
f 25/49/1 73/51/1 74/50/1
f 26/52/1 73/51/1 25/49/1
f 26/52/1 72/53/1 73/51/1
f 27/54/1 72/53/1 26/52/1
f 27/54/1 71/55/1 72/53/1
f 28/56/1 71/55/1 27/54/1
f 28/56/1 70/57/1 71/55/1
f 29/58/1 70/57/1 28/56/1
f 29/58/1 69/59/1 70/57/1
f 30/60/1 69/59/1 29/58/1
f 30/60/1 68/61/1 69/59/1
f 51/62/1 49/63/1 50/64/1
f 30/60/1 67/65/1 68/61/1
f 52/66/1 49/63/1 51/62/1
f 31/67/1 67/65/1 30/60/1
f 53/68/1 49/63/1 52/66/1
f 31/67/1 66/69/1 67/65/1
f 54/70/1 49/63/1 53/68/1
f 55/71/1 49/63/1 54/70/1
f 31/67/1 65/72/1 66/69/1
f 56/73/1 49/63/1 55/71/1
f 32/74/1 65/72/1 31/67/1
f 57/75/1 49/63/1 56/73/1
f 32/74/1 64/76/1 65/72/1
f 58/77/1 49/63/1 57/75/1
f 59/78/1 49/63/1 58/77/1
f 32/74/1 63/79/1 64/76/1
f 60/80/1 49/63/1 59/78/1
f 61/81/1 49/63/1 60/80/1
f 32/74/1 62/82/1 63/79/1
f 62/82/1 49/63/1 61/81/1
f 32/74/1 49/63/1 62/82/1
f 33/83/1 49/63/1 32/74/1
f 33/83/1 48/84/1 49/63/1
f 34/85/1 48/84/1 33/83/1
f 34/85/1 47/86/1 48/84/1
f 34/85/1 46/87/1 47/86/1
f 34/85/1 45/88/1 46/87/1
f 35/89/1 45/88/1 34/85/1
f 35/89/1 44/90/1 45/88/1
f 35/89/1 43/91/1 44/90/1
f 35/89/1 42/92/1 43/91/1
f 36/93/1 42/92/1 35/89/1
f 36/93/1 41/94/1 42/92/1
f 36/93/1 40/95/1 41/94/1
f 36/93/1 39/96/1 40/95/1
f 37/97/1 39/96/1 36/93/1
f 37/97/1 38/98/1 39/96/1
