# Blender 4.4.1
# www.blender.org
mtllib 3.mtl
o テキスト.001
v 0.000000 0.569000 0.147139
v 0.000000 0.573982 0.135690
v 0.000000 0.578440 0.124796
v 0.000000 0.582391 0.114389
v 0.000000 0.585852 0.104398
v 0.000000 0.588841 0.094755
v 0.000000 0.591375 0.085389
v 0.000000 0.593472 0.076231
v 0.000000 0.595148 0.067213
v 0.000000 0.596422 0.058264
v 0.000000 0.597310 0.049315
v 0.000000 0.597830 0.040296
v 0.000000 0.598000 0.031139
v 0.000000 0.597196 0.013692
v 0.000000 0.594819 -0.002602
v 0.000000 0.590922 -0.017674
v 0.000000 0.585556 -0.031454
v 0.000000 0.578773 -0.043873
v 0.000000 0.570625 -0.054861
v 0.000000 0.561165 -0.064350
v 0.000000 0.550444 -0.072269
v 0.000000 0.538516 -0.078549
v 0.000000 0.525431 -0.083120
v 0.000000 0.511241 -0.085914
v 0.000000 0.496000 -0.086861
v 0.000000 0.481028 -0.085924
v 0.000000 0.467139 -0.083111
v 0.000000 0.454375 -0.078424
v 0.000000 0.442778 -0.071861
v 0.000000 0.432389 -0.063424
v 0.000000 0.423250 -0.053111
v 0.000000 0.415403 -0.040924
v 0.000000 0.408889 -0.026861
v 0.000000 0.403750 -0.010924
v 0.000000 0.400028 0.006889
v 0.000000 0.397764 0.026576
v 0.000000 0.397000 0.048139
v 0.000000 0.307000 0.048139
v 0.000000 0.307087 0.024889
v 0.000000 0.304944 0.003643
v 0.000000 0.300719 -0.015596
v 0.000000 0.294556 -0.032824
v 0.000000 0.286601 -0.048039
v 0.000000 0.277000 -0.061236
v 0.000000 0.265899 -0.072413
v 0.000000 0.253444 -0.081565
v 0.000000 0.239781 -0.088689
v 0.000000 0.225056 -0.093782
v 0.000000 0.209413 -0.096841
v 0.000000 0.193000 -0.097861
v 0.000000 0.176991 -0.096976
v 0.000000 0.162009 -0.094366
v 0.000000 0.148125 -0.090096
v 0.000000 0.135407 -0.084232
v 0.000000 0.123926 -0.076840
v 0.000000 0.113750 -0.067986
v 0.000000 0.104949 -0.057737
v 0.000000 0.097593 -0.046158
v 0.000000 0.091750 -0.033314
v 0.000000 0.087491 -0.019273
v 0.000000 0.084884 -0.004100
v 0.000000 0.084000 0.012139
v 0.000000 0.084355 0.024640
v 0.000000 0.085421 0.037148
v 0.000000 0.087203 0.049670
v 0.000000 0.089704 0.062213
v 0.000000 0.092927 0.074784
v 0.000000 0.096875 0.087389
v 0.000000 0.101553 0.100036
v 0.000000 0.106963 0.112731
v 0.000000 0.113109 0.125483
v 0.000000 0.119995 0.138296
v 0.000000 0.127624 0.151179
v 0.000000 0.136000 0.164139
v 0.000000 0.030000 0.164139
v 0.000000 0.023981 0.151890
v 0.000000 0.018431 0.139648
v 0.000000 0.013359 0.127420
v 0.000000 0.008778 0.115213
v 0.000000 0.004696 0.103033
v 0.000000 0.001125 0.090889
v 0.000000 -0.001925 0.078786
v 0.000000 -0.004444 0.066731
v 0.000000 -0.006422 0.054733
v 0.000000 -0.007847 0.042796
v 0.000000 -0.008710 0.030929
v 0.000000 -0.009000 0.019139
v 0.000000 -0.007257 -0.011560
v 0.000000 -0.002139 -0.040537
v 0.000000 0.006188 -0.067611
v 0.000000 0.017556 -0.092602
v 0.000000 0.031799 -0.115329
v 0.000000 0.048750 -0.135611
v 0.000000 0.068243 -0.153269
v 0.000000 0.090111 -0.168120
v 0.000000 0.114188 -0.179986
v 0.000000 0.140306 -0.188685
v 0.000000 0.168299 -0.194037
v 0.000000 0.198000 -0.195861
v 0.000000 0.215491 -0.195232
v 0.000000 0.232847 -0.193324
v 0.000000 0.249891 -0.190111
v 0.000000 0.266444 -0.185565
v 0.000000 0.282332 -0.179657
v 0.000000 0.297375 -0.172361
v 0.000000 0.311398 -0.163648
v 0.000000 0.324222 -0.153491
v 0.000000 0.335672 -0.141861
v 0.000000 0.345569 -0.128732
v 0.000000 0.353738 -0.114074
v 0.000000 0.360000 -0.097861
v 0.000000 0.368701 -0.112597
v 0.000000 0.377861 -0.125833
v 0.000000 0.387563 -0.137611
v 0.000000 0.397889 -0.147972
v 0.000000 0.408924 -0.156958
v 0.000000 0.420750 -0.164611
v 0.000000 0.433451 -0.170972
v 0.000000 0.447111 -0.176083
v 0.000000 0.461813 -0.179986
v 0.000000 0.477639 -0.182722
v 0.000000 0.494674 -0.184333
v 0.000000 0.513000 -0.184861
v 0.000000 0.539190 -0.183236
v 0.000000 0.563685 -0.178445
v 0.000000 0.586375 -0.170611
v 0.000000 0.607148 -0.159861
v 0.000000 0.625894 -0.146320
v 0.000000 0.642500 -0.130111
v 0.000000 0.656857 -0.111361
v 0.000000 0.668852 -0.090195
v 0.000000 0.678375 -0.066736
v 0.000000 0.685315 -0.041111
v 0.000000 0.689560 -0.013445
v 0.000000 0.691000 0.016139
v 0.000000 0.690811 0.028647
v 0.000000 0.690241 0.040704
v 0.000000 0.689281 0.052358
v 0.000000 0.687926 0.063657
v 0.000000 0.686168 0.074652
v 0.000000 0.684000 0.085389
v 0.000000 0.681415 0.095918
v 0.000000 0.678407 0.106287
v 0.000000 0.674969 0.116545
v 0.000000 0.671093 0.126741
v 0.000000 0.666772 0.136922
v 0.000000 0.662000 0.147139
v 0.059238 0.691000 0.016139
v 0.059238 0.690811 0.028647
v 0.059238 0.689560 -0.013445
v 0.059238 0.690241 0.040704
v 0.059238 0.689281 0.052358
v 0.059238 0.685315 -0.041111
v 0.059238 0.687926 0.063657
v 0.059238 0.686168 0.074652
v 0.059238 0.684000 0.085389
v 0.059238 0.678375 -0.066736
v 0.059238 0.681415 0.095918
v 0.059238 0.678407 0.106287
v 0.059238 0.674969 0.116545
v 0.059238 0.668852 -0.090195
v 0.059238 0.671093 0.126741
v 0.059238 0.666772 0.136922
v 0.059238 0.656857 -0.111361
v 0.059238 0.662000 0.147139
v 0.059238 0.569000 0.147139
v 0.059238 0.573982 0.135690
v 0.059238 0.578440 0.124796
v 0.059238 0.582391 0.114389
v 0.059238 0.585852 0.104398
v 0.059238 0.588841 0.094755
v 0.059238 0.591375 0.085389
v 0.059238 0.642500 -0.130111
v 0.059238 0.593472 0.076231
v 0.059238 0.595148 0.067213
v 0.059238 0.625894 -0.146320
v 0.059238 0.596422 0.058264
v 0.059238 0.597310 0.049315
v 0.059238 0.597830 0.040296
v 0.059238 0.607148 -0.159861
v 0.059238 0.598000 0.031139
v 0.059238 0.597196 0.013692
v 0.059238 0.586375 -0.170611
v 0.059238 0.594819 -0.002602
v 0.059238 0.590922 -0.017674
v 0.059238 0.585556 -0.031454
v 0.059238 0.563685 -0.178445
v 0.059238 0.578773 -0.043873
v 0.059238 0.570625 -0.054861
v 0.059238 0.561165 -0.064350
v 0.059238 0.539190 -0.183236
v 0.059238 0.550444 -0.072269
v 0.059238 0.538516 -0.078549
v 0.059238 0.513000 -0.184861
v 0.059238 0.525431 -0.083120
v 0.059238 0.511241 -0.085914
v 0.059238 0.494674 -0.184333
v 0.059238 0.496000 -0.086861
v 0.059238 0.481028 -0.085924
v 0.059238 0.477639 -0.182722
v 0.059238 0.467139 -0.083111
v 0.059238 0.461813 -0.179986
v 0.059238 0.454375 -0.078424
v 0.059238 0.447111 -0.176083
v 0.059238 0.442778 -0.071861
v 0.059238 0.433451 -0.170972
v 0.059238 0.432389 -0.063424
v 0.059238 0.420750 -0.164611
v 0.059238 0.423250 -0.053111
v 0.059238 0.415403 -0.040924
v 0.059238 0.408924 -0.156958
v 0.059238 0.408889 -0.026861
v 0.059238 0.397889 -0.147972
v 0.059238 0.403750 -0.010924
v 0.059238 0.400028 0.006889
v 0.059238 0.397764 0.026576
v 0.059238 0.387563 -0.137611
v 0.059238 0.397000 0.048139
v 0.059238 0.307000 0.048139
v 0.059238 0.377861 -0.125833
v 0.059238 0.368701 -0.112597
v 0.059238 0.360000 -0.097861
v 0.059238 0.353738 -0.114074
v 0.059238 0.345569 -0.128732
v 0.059238 0.335672 -0.141861
v 0.059238 0.324222 -0.153491
v 0.059238 0.311398 -0.163648
v 0.059238 0.307087 0.024889
v 0.059238 0.297375 -0.172361
v 0.059238 0.304944 0.003643
v 0.059238 0.300719 -0.015596
v 0.059238 0.294556 -0.032824
v 0.059238 0.282332 -0.179657
v 0.059238 0.286601 -0.048039
v 0.059238 0.277000 -0.061236
v 0.059238 0.266444 -0.185565
v 0.059238 0.265899 -0.072413
v 0.059238 0.249891 -0.190111
v 0.059238 0.253444 -0.081565
v 0.059238 0.239781 -0.088689
v 0.059238 0.232847 -0.193324
v 0.059238 0.225056 -0.093782
v 0.059238 0.215491 -0.195232
v 0.059238 0.209413 -0.096841
v 0.059238 0.198000 -0.195861
v 0.059238 0.193000 -0.097861
v 0.059238 0.168299 -0.194037
v 0.059238 0.176991 -0.096976
v 0.059238 0.162009 -0.094366
v 0.059238 0.140306 -0.188685
v 0.059238 0.148125 -0.090096
v 0.059238 0.135407 -0.084232
v 0.059238 0.114188 -0.179986
v 0.059238 0.136000 0.164139
v 0.059238 0.030000 0.164139
v 0.059238 0.127624 0.151179
v 0.059238 0.123926 -0.076840
v 0.059238 0.119995 0.138296
v 0.059238 0.113750 -0.067986
v 0.059238 0.113109 0.125483
v 0.059238 0.090111 -0.168120
v 0.059238 0.104949 -0.057737
v 0.059238 0.106963 0.112731
v 0.059238 0.101553 0.100036
v 0.059238 0.097593 -0.046158
v 0.059238 0.096875 0.087389
v 0.059238 0.091750 -0.033314
v 0.059238 0.092927 0.074784
v 0.059238 0.089704 0.062213
v 0.059238 0.087491 -0.019273
v 0.059238 0.068243 -0.153269
v 0.059238 0.087203 0.049670
v 0.059238 0.084884 -0.004100
v 0.059238 0.085421 0.037148
v 0.059238 0.084355 0.024640
v 0.059238 0.084000 0.012139
v 0.059238 0.048750 -0.135611
v 0.059238 0.031799 -0.115329
v 0.059238 0.017556 -0.092602
v 0.059238 0.023981 0.151890
v 0.059238 0.018431 0.139648
v 0.059238 0.013359 0.127420
v 0.059238 0.006188 -0.067611
v 0.059238 0.008778 0.115213
v 0.059238 0.004696 0.103033
v 0.059238 -0.002139 -0.040537
v 0.059238 0.001125 0.090889
v 0.059238 -0.001925 0.078786
v 0.059238 -0.004444 0.066731
v 0.059238 -0.007257 -0.011560
v 0.059238 -0.006422 0.054733
v 0.059238 -0.007847 0.042796
v 0.059238 -0.009000 0.019139
v 0.059238 -0.008710 0.030929
vn -0.7035 0.7103 0.0222
vn -0.7000 0.7140 -0.0120
vn -0.6956 0.7148 -0.0720
vn -0.7032 0.7095 0.0460
vn -0.7029 0.7076 0.0716
vn -0.6947 0.7037 -0.1488
vn -0.7027 0.7046 0.0985
vn -0.7026 0.7003 0.1266
vn -0.7025 0.6946 0.1553
vn -0.6937 0.6825 -0.2300
vn -0.7025 0.6875 0.1840
vn -0.7025 0.6793 0.2123
vn -0.7026 0.6700 0.2395
vn -0.6928 0.6492 -0.3141
vn -0.7028 0.6600 0.2654
vn -0.7031 0.6495 0.2894
vn -0.6919 0.6021 -0.3984
vn -0.6038 0.4281 0.6724
vn -0.5588 -0.6936 0.4546
vn -0.7096 -0.6491 -0.2740
vn -0.7100 -0.6551 -0.2583
vn -0.7104 -0.6615 -0.2401
vn -0.7108 -0.6683 -0.2193
vn -0.7112 -0.6751 -0.1959
vn -0.7115 -0.6817 -0.1702
vn -0.6913 0.5406 -0.4794
vn -0.7118 -0.6878 -0.1426
vn -0.7119 -0.6930 -0.1137
vn -0.6909 0.4654 -0.5532
vn -0.7119 -0.6972 -0.0842
vn -0.7118 -0.7002 -0.0549
vn -0.7115 -0.7022 -0.0267
vn -0.6908 0.3789 -0.6158
vn -0.7144 -0.6996 0.0096
vn -0.7184 -0.6925 0.0663
vn -0.6912 0.2848 -0.6642
vn -0.7195 -0.6808 0.1373
vn -0.7207 -0.6598 0.2129
vn -0.7219 -0.6274 0.2920
vn -0.6918 0.1876 -0.6973
vn -0.7230 -0.5820 0.3722
vn -0.7239 -0.5228 0.4502
vn -0.7244 -0.4501 0.5221
vn -0.6926 0.0918 -0.7154
vn -0.7245 -0.3663 0.5838
vn -0.7242 -0.2751 0.6323
vn -0.6970 0.0119 -0.7169
vn -0.7234 -0.1810 0.6663
vn -0.7223 -0.0884 0.6859
vn -0.6998 -0.0439 -0.7130
vn -0.7214 0.0002 0.6925
vn -0.7229 0.0904 0.6850
vn -0.6985 -0.0947 -0.7093
vn -0.7246 0.1877 0.6631
vn -0.6973 -0.1532 -0.7002
vn -0.7259 0.2889 0.6242
vn -0.6962 -0.2181 -0.6839
vn -0.7264 0.3872 0.5678
vn -0.6953 -0.2872 -0.6588
vn -0.7260 0.4757 0.4967
vn -0.6949 -0.3569 -0.6243
vn -0.7247 0.5491 0.4162
vn -0.7230 0.6053 0.3330
vn -0.6950 -0.4229 -0.5814
vn -0.7211 0.6453 0.2524
vn -0.6956 -0.4819 -0.5328
vn -0.7192 0.6716 0.1779
vn -0.7175 0.6876 0.1111
vn -0.7161 0.6960 0.0523
vn -0.6966 -0.5316 -0.4819
vn -0.5792 0.5661 0.5865
vn -0.5771 -0.5785 0.5764
vn -0.6978 -0.5714 -0.4319
vn -0.6991 -0.6022 -0.3855
vn -0.9691 0.0203 -0.2458
vn -0.6917 0.6538 -0.3066
vn -0.6920 0.6050 -0.3939
vn -0.6926 0.5462 -0.4712
vn -0.6935 0.4813 -0.5361
vn -0.6945 0.4139 -0.5885
vn -0.7190 -0.6942 0.0336
vn -0.6956 0.3468 -0.6292
vn -0.7203 -0.6849 0.1094
vn -0.7217 -0.6653 0.1912
vn -0.7230 -0.6329 0.2771
vn -0.6965 0.2819 -0.6598
vn -0.7240 -0.5861 0.3637
vn -0.7247 -0.5246 0.4468
vn -0.6973 0.2200 -0.6821
vn -0.7250 -0.4496 0.5218
vn -0.6980 0.1613 -0.6977
vn -0.7247 -0.3644 0.5848
vn -0.7241 -0.2729 0.6334
vn -0.6986 0.1055 -0.7077
vn -0.7232 -0.1796 0.6669
vn -0.6989 0.0520 -0.7133
vn -0.7221 -0.0880 0.6861
vn -0.6963 -0.0091 -0.7177
vn -0.7205 -0.0024 0.6934
vn -0.6930 -0.0900 -0.7153
vn -0.7205 0.0788 0.6889
vn -0.7215 0.1615 0.6733
vn -0.6925 -0.1821 -0.6981
vn -0.7225 0.2469 0.6458
vn -0.7232 0.3323 0.6054
vn -0.6921 -0.2742 -0.6677
vn -0.6052 -0.4209 0.6758
vn -0.5530 0.7318 0.3984
vn -0.7115 0.5975 -0.3698
vn -0.7237 0.4144 0.5519
vn -0.7118 0.6117 -0.3453
vn -0.7238 0.4895 0.4863
vn -0.7121 0.6256 -0.3187
vn -0.6918 -0.3633 -0.6240
vn -0.7236 0.5545 0.4109
vn -0.7124 0.6391 -0.2900
vn -0.7126 0.6519 -0.2593
vn -0.7231 0.6074 0.3290
vn -0.7129 0.6637 -0.2265
vn -0.7223 0.6471 0.2441
vn -0.7131 0.6743 -0.1919
vn -0.7133 0.6834 -0.1556
vn -0.7214 0.6740 0.1595
vn -0.6918 -0.4463 -0.5677
vn -0.7134 0.6908 -0.1179
vn -0.7204 0.6892 0.0777
vn -0.7135 0.6962 -0.0791
vn -0.7135 0.6995 -0.0397
vn -0.7165 0.6975 0.0091
vn -0.6918 -0.5206 -0.5003
vn -0.6921 -0.5841 -0.4241
vn -0.6925 -0.6354 -0.3417
vn -0.7036 -0.6425 0.3034
vn -0.7035 -0.6520 0.2829
vn -0.7033 -0.6612 0.2611
vn -0.6929 -0.6741 -0.2558
vn -0.7031 -0.6701 0.2379
vn -0.7029 -0.6785 0.2134
vn -0.6935 -0.7004 -0.1689
vn -0.7027 -0.6864 0.1873
vn -0.7025 -0.6935 0.1598
vn -0.7023 -0.6997 0.1307
vn -0.6941 -0.7151 -0.0832
vn -0.7021 -0.7050 0.1001
vn -0.7019 -0.7090 0.0681
vn -0.6981 -0.7159 -0.0115
vn -0.7017 -0.7116 0.0346
vn 0.7035 0.7103 0.0222
vn 0.6956 0.7148 -0.0720
vn 0.7000 0.7140 -0.0120
vn 0.7032 0.7095 0.0460
vn 0.7029 0.7076 0.0716
vn 0.6947 0.7037 -0.1488
vn 0.7027 0.7046 0.0985
vn 0.7026 0.7003 0.1266
vn 0.7025 0.6946 0.1553
vn 0.6937 0.6825 -0.2300
vn 0.7025 0.6875 0.1840
vn 0.7025 0.6793 0.2123
vn 0.7026 0.6700 0.2395
vn 0.6928 0.6492 -0.3141
vn 0.7028 0.6600 0.2654
vn 0.7031 0.6495 0.2894
vn 0.6919 0.6021 -0.3984
vn 0.6038 0.4281 0.6724
vn 0.5588 -0.6936 0.4546
vn 0.7096 -0.6491 -0.2740
vn 0.7100 -0.6551 -0.2583
vn 0.7104 -0.6615 -0.2401
vn 0.7108 -0.6683 -0.2193
vn 0.7112 -0.6751 -0.1959
vn 0.7115 -0.6817 -0.1702
vn 0.6913 0.5406 -0.4794
vn 0.7118 -0.6878 -0.1426
vn 0.7119 -0.6930 -0.1137
vn 0.6909 0.4654 -0.5532
vn 0.7119 -0.6972 -0.0842
vn 0.7118 -0.7002 -0.0549
vn 0.7115 -0.7022 -0.0267
vn 0.6908 0.3789 -0.6158
vn 0.7144 -0.6996 0.0096
vn 0.7184 -0.6925 0.0663
vn 0.6912 0.2848 -0.6642
vn 0.7195 -0.6808 0.1373
vn 0.7207 -0.6598 0.2129
vn 0.7219 -0.6274 0.2920
vn 0.6918 0.1876 -0.6973
vn 0.7230 -0.5820 0.3722
vn 0.7239 -0.5228 0.4502
vn 0.7244 -0.4501 0.5221
vn 0.6926 0.0918 -0.7154
vn 0.7245 -0.3663 0.5838
vn 0.7242 -0.2751 0.6323
vn 0.6970 0.0119 -0.7169
vn 0.7234 -0.1810 0.6663
vn 0.7223 -0.0884 0.6859
vn 0.6998 -0.0439 -0.7130
vn 0.7214 0.0002 0.6925
vn 0.7229 0.0904 0.6850
vn 0.6985 -0.0947 -0.7093
vn 0.7246 0.1877 0.6631
vn 0.6973 -0.1532 -0.7002
vn 0.7259 0.2889 0.6242
vn 0.6962 -0.2181 -0.6839
vn 0.7264 0.3872 0.5678
vn 0.6953 -0.2872 -0.6588
vn 0.7260 0.4757 0.4967
vn 0.6949 -0.3569 -0.6243
vn 0.7247 0.5491 0.4162
vn 0.7230 0.6053 0.3330
vn 0.6950 -0.4229 -0.5814
vn 0.7211 0.6453 0.2524
vn 0.6956 -0.4819 -0.5328
vn 0.7192 0.6716 0.1779
vn 0.7175 0.6876 0.1111
vn 0.7161 0.6960 0.0523
vn 0.6966 -0.5316 -0.4819
vn 0.5792 0.5661 0.5865
vn 0.5771 -0.5785 0.5764
vn 0.6978 -0.5714 -0.4319
vn 0.6991 -0.6022 -0.3855
vn 0.9691 0.0203 -0.2458
vn 0.6917 0.6538 -0.3066
vn 0.6920 0.6050 -0.3939
vn 0.6926 0.5462 -0.4712
vn 0.6935 0.4813 -0.5361
vn 0.6945 0.4139 -0.5885
vn 0.7190 -0.6942 0.0336
vn 0.6956 0.3468 -0.6292
vn 0.7203 -0.6849 0.1094
vn 0.7217 -0.6653 0.1912
vn 0.7230 -0.6329 0.2771
vn 0.6965 0.2819 -0.6598
vn 0.7240 -0.5861 0.3637
vn 0.7247 -0.5246 0.4468
vn 0.6973 0.2200 -0.6821
vn 0.7250 -0.4496 0.5218
vn 0.6980 0.1613 -0.6977
vn 0.7247 -0.3644 0.5848
vn 0.7241 -0.2729 0.6334
vn 0.6986 0.1055 -0.7077
vn 0.7232 -0.1796 0.6669
vn 0.6989 0.0520 -0.7133
vn 0.7221 -0.0880 0.6861
vn 0.6963 -0.0091 -0.7177
vn 0.7205 -0.0024 0.6934
vn 0.6930 -0.0900 -0.7153
vn 0.7205 0.0788 0.6889
vn 0.7215 0.1615 0.6733
vn 0.6925 -0.1821 -0.6981
vn 0.7225 0.2469 0.6458
vn 0.7232 0.3323 0.6054
vn 0.6921 -0.2742 -0.6677
vn 0.6052 -0.4209 0.6758
vn 0.7115 0.5975 -0.3698
vn 0.5530 0.7318 0.3984
vn 0.7237 0.4144 0.5519
vn 0.7118 0.6117 -0.3453
vn 0.7238 0.4895 0.4863
vn 0.7121 0.6256 -0.3187
vn 0.6918 -0.3633 -0.6240
vn 0.7236 0.5545 0.4109
vn 0.7124 0.6391 -0.2900
vn 0.7126 0.6519 -0.2593
vn 0.7231 0.6074 0.3290
vn 0.7129 0.6637 -0.2265
vn 0.7223 0.6471 0.2441
vn 0.7131 0.6743 -0.1919
vn 0.7133 0.6834 -0.1556
vn 0.7214 0.6740 0.1595
vn 0.6918 -0.4463 -0.5677
vn 0.7134 0.6908 -0.1179
vn 0.7204 0.6892 0.0777
vn 0.7135 0.6962 -0.0791
vn 0.7135 0.6995 -0.0397
vn 0.7165 0.6975 0.0091
vn 0.6918 -0.5206 -0.5003
vn 0.6921 -0.5841 -0.4241
vn 0.6925 -0.6354 -0.3417
vn 0.7036 -0.6425 0.3034
vn 0.7035 -0.6520 0.2829
vn 0.7033 -0.6612 0.2611
vn 0.6929 -0.6741 -0.2558
vn 0.7031 -0.6701 0.2379
vn 0.7029 -0.6785 0.2134
vn 0.6935 -0.7004 -0.1689
vn 0.7027 -0.6864 0.1873
vn 0.7025 -0.6935 0.1598
vn 0.7023 -0.6997 0.1307
vn 0.6941 -0.7151 -0.0832
vn 0.7021 -0.7050 0.1001
vn 0.7019 -0.7090 0.0681
vn 0.6981 -0.7159 -0.0115
vn 0.7017 -0.7116 0.0346
vt 0.924658 0.000000
vt 0.917808 0.000000
vt 0.910959 0.000000
vt 0.931507 0.000000
vt 0.938356 0.000000
vt 0.904110 0.000000
vt 0.945205 0.000000
vt 0.952055 0.000000
vt 0.958904 0.000000
vt 0.897260 0.000000
vt 0.965753 0.000000
vt 0.972603 0.000000
vt 0.979452 0.000000
vt 0.890411 0.000000
vt 0.986301 0.000000
vt 0.993151 0.000000
vt 0.883562 0.000000
vt 1.000000 0.000000
vt 0.000000 0.000000
vt 0.006849 0.000000
vt 0.013699 0.000000
vt 0.020548 0.000000
vt 0.027397 0.000000
vt 0.034247 0.000000
vt 0.041096 0.000000
vt 0.876712 0.000000
vt 0.047945 0.000000
vt 0.054795 0.000000
vt 0.869863 0.000000
vt 0.061644 0.000000
vt 0.068493 0.000000
vt 0.075342 0.000000
vt 0.863014 0.000000
vt 0.082192 0.000000
vt 0.089041 0.000000
vt 0.856164 0.000000
vt 0.095890 0.000000
vt 0.102740 0.000000
vt 0.109589 0.000000
vt 0.849315 0.000000
vt 0.116438 0.000000
vt 0.123288 0.000000
vt 0.130137 0.000000
vt 0.842466 0.000000
vt 0.136986 0.000000
vt 0.143836 0.000000
vt 0.835616 0.000000
vt 0.150685 0.000000
vt 0.157534 0.000000
vt 0.828767 0.000000
vt 0.164384 0.000000
vt 0.171233 0.000000
vt 0.821918 0.000000
vt 0.178082 0.000000
vt 0.815068 0.000000
vt 0.184932 0.000000
vt 0.808219 0.000000
vt 0.191781 0.000000
vt 0.801370 0.000000
vt 0.198630 0.000000
vt 0.794521 0.000000
vt 0.205479 0.000000
vt 0.212329 0.000000
vt 0.787671 0.000000
vt 0.219178 0.000000
vt 0.780822 0.000000
vt 0.226027 0.000000
vt 0.232877 0.000000
vt 0.239726 0.000000
vt 0.773973 0.000000
vt 0.246575 0.000000
vt 0.253425 0.000000
vt 0.767123 0.000000
vt 0.760274 0.000000
vt 0.753425 0.000000
vt 0.746575 0.000000
vt 0.739726 0.000000
vt 0.732877 0.000000
vt 0.726027 0.000000
vt 0.719178 0.000000
vt 0.260274 0.000000
vt 0.712329 0.000000
vt 0.267123 0.000000
vt 0.273973 0.000000
vt 0.280822 0.000000
vt 0.705479 0.000000
vt 0.287671 0.000000
vt 0.294521 0.000000
vt 0.698630 0.000000
vt 0.301370 0.000000
vt 0.691781 0.000000
vt 0.308219 0.000000
vt 0.315068 0.000000
vt 0.684932 0.000000
vt 0.321918 0.000000
vt 0.678082 0.000000
vt 0.328767 0.000000
vt 0.671233 0.000000
vt 0.335616 0.000000
vt 0.664384 0.000000
vt 0.342466 0.000000
vt 0.349315 0.000000
vt 0.657534 0.000000
vt 0.356164 0.000000
vt 0.363014 0.000000
vt 0.650685 0.000000
vt 0.506849 0.000000
vt 0.500000 0.000000
vt 0.493151 0.000000
vt 0.369863 0.000000
vt 0.486301 0.000000
vt 0.376712 0.000000
vt 0.479452 0.000000
vt 0.643836 0.000000
vt 0.383562 0.000000
vt 0.472603 0.000000
vt 0.465753 0.000000
vt 0.390411 0.000000
vt 0.458904 0.000000
vt 0.397260 0.000000
vt 0.452055 0.000000
vt 0.445205 0.000000
vt 0.404110 0.000000
vt 0.636986 0.000000
vt 0.438356 0.000000
vt 0.410959 0.000000
vt 0.431507 0.000000
vt 0.424658 0.000000
vt 0.417808 0.000000
vt 0.630137 0.000000
vt 0.623288 0.000000
vt 0.616438 0.000000
vt 0.513699 0.000000
vt 0.520548 0.000000
vt 0.527397 0.000000
vt 0.609589 0.000000
vt 0.534247 0.000000
vt 0.541096 0.000000
vt 0.602740 0.000000
vt 0.547945 0.000000
vt 0.554795 0.000000
vt 0.561644 0.000000
vt 0.595890 0.000000
vt 0.568493 0.000000
vt 0.575342 0.000000
vt 0.589041 0.000000
vt 0.582192 0.000000
s 1
usemtl マテリアル.003
f 136/1/1 135/2/2 134/3/3
f 137/4/4 136/1/1 134/3/3
f 138/5/5 137/4/4 134/3/3
f 138/5/5 134/3/3 133/6/6
f 139/7/7 138/5/5 133/6/6
f 140/8/8 139/7/7 133/6/6
f 141/9/9 140/8/8 133/6/6
f 141/9/9 133/6/6 132/10/10
f 142/11/11 141/9/9 132/10/10
f 143/12/12 142/11/11 132/10/10
f 144/13/13 143/12/12 132/10/10
f 144/13/13 132/10/10 131/14/14
f 145/15/15 144/13/13 131/14/14
f 146/16/16 145/15/15 131/14/14
f 146/16/16 131/14/14 130/17/17
f 147/18/18 146/16/16 130/17/17
f 1/19/19 147/18/18 2/20/20
f 2/20/20 147/18/18 3/21/21
f 3/21/21 147/18/18 4/22/22
f 4/22/22 147/18/18 5/23/23
f 5/23/23 147/18/18 130/17/17
f 5/23/23 130/17/17 6/24/24
f 6/24/24 130/17/17 7/25/25
f 7/25/25 130/17/17 129/26/26
f 7/25/25 129/26/26 8/27/27
f 8/27/27 129/26/26 9/28/28
f 9/28/28 129/26/26 128/29/29
f 9/28/28 128/29/29 10/30/30
f 10/30/30 128/29/29 11/31/31
f 11/31/31 128/29/29 12/32/32
f 12/32/32 128/29/29 127/33/33
f 12/32/32 127/33/33 13/34/34
f 13/34/34 127/33/33 14/35/35
f 14/35/35 127/33/33 126/36/36
f 15/37/37 14/35/35 126/36/36
f 16/38/38 15/37/37 126/36/36
f 17/39/39 16/38/38 126/36/36
f 17/39/39 126/36/36 125/40/40
f 18/41/41 17/39/39 125/40/40
f 19/42/42 18/41/41 125/40/40
f 20/43/43 19/42/42 125/40/40
f 20/43/43 125/40/40 124/44/44
f 21/45/45 20/43/43 124/44/44
f 22/46/46 21/45/45 124/44/44
f 22/46/46 124/44/44 123/47/47
f 23/48/48 22/46/46 123/47/47
f 24/49/49 23/48/48 123/47/47
f 24/49/49 123/47/47 122/50/50
f 25/51/51 24/49/49 122/50/50
f 26/52/52 25/51/51 122/50/50
f 26/52/52 122/50/50 121/53/53
f 27/54/54 26/52/52 121/53/53
f 27/54/54 121/53/53 120/55/55
f 28/56/56 27/54/54 120/55/55
f 28/56/56 120/55/55 119/57/57
f 29/58/58 28/56/56 119/57/57
f 29/58/58 119/57/57 118/59/59
f 30/60/60 29/58/58 118/59/59
f 30/60/60 118/59/59 117/61/61
f 31/62/62 30/60/60 117/61/61
f 32/63/63 31/62/62 117/61/61
f 32/63/63 117/61/61 116/64/64
f 33/65/65 32/63/63 116/64/64
f 33/65/65 116/64/64 115/66/66
f 34/67/67 33/65/65 115/66/66
f 35/68/68 34/67/67 115/66/66
f 36/69/69 35/68/68 115/66/66
f 36/69/69 115/66/66 114/70/70
f 37/71/71 36/69/69 114/70/70
f 38/72/72 37/71/71 114/70/70
f 38/72/72 114/70/70 113/73/73
f 38/72/72 113/73/73 112/74/74
f 38/72/72 112/74/74 111/75/75
f 38/72/72 111/75/75 110/76/76
f 38/72/72 110/76/76 109/77/77
f 38/72/72 109/77/77 108/78/78
f 38/72/72 108/78/78 107/79/79
f 38/72/72 107/79/79 106/80/80
f 38/72/72 106/80/80 39/81/81
f 39/81/81 106/80/80 105/82/82
f 40/83/83 39/81/81 105/82/82
f 41/84/84 40/83/83 105/82/82
f 42/85/85 41/84/84 105/82/82
f 42/85/85 105/82/82 104/86/86
f 43/87/87 42/85/85 104/86/86
f 44/88/88 43/87/87 104/86/86
f 44/88/88 104/86/86 103/89/89
f 45/90/90 44/88/88 103/89/89
f 45/90/90 103/89/89 102/91/91
f 46/92/92 45/90/90 102/91/91
f 47/93/93 46/92/92 102/91/91
f 47/93/93 102/91/91 101/94/94
f 48/95/95 47/93/93 101/94/94
f 48/95/95 101/94/94 100/96/96
f 49/97/97 48/95/95 100/96/96
f 49/97/97 100/96/96 99/98/98
f 50/99/99 49/97/97 99/98/98
f 50/99/99 99/98/98 98/100/100
f 51/101/101 50/99/99 98/100/100
f 52/102/102 51/101/101 98/100/100
f 52/102/102 98/100/100 97/103/103
f 53/104/104 52/102/102 97/103/103
f 54/105/105 53/104/104 97/103/103
f 54/105/105 97/103/103 96/106/106
f 75/107/107 74/108/108 73/109/109
f 55/110/110 54/105/105 96/106/106
f 75/107/107 73/109/109 72/111/111
f 56/112/112 55/110/110 96/106/106
f 75/107/107 72/111/111 71/113/113
f 56/112/112 96/106/106 95/114/114
f 57/115/115 56/112/112 95/114/114
f 75/107/107 71/113/113 70/116/116
f 75/107/107 70/116/116 69/117/117
f 58/118/118 57/115/115 95/114/114
f 75/107/107 69/117/117 68/119/119
f 59/120/120 58/118/118 95/114/114
f 75/107/107 68/119/119 67/121/121
f 75/107/107 67/121/121 66/122/122
f 60/123/123 59/120/120 95/114/114
f 60/123/123 95/114/114 94/124/124
f 75/107/107 66/122/122 65/125/125
f 61/126/126 60/123/123 94/124/124
f 75/107/107 65/125/125 64/127/127
f 75/107/107 64/127/127 63/128/128
f 62/129/129 61/126/126 94/124/124
f 75/107/107 63/128/128 62/129/129
f 75/107/107 62/129/129 94/124/124
f 75/107/107 94/124/124 93/130/130
f 75/107/107 93/130/130 92/131/131
f 75/107/107 92/131/131 91/132/132
f 76/133/133 75/107/107 91/132/132
f 77/134/134 76/133/133 91/132/132
f 78/135/135 77/134/134 91/132/132
f 78/135/135 91/132/132 90/136/136
f 79/137/137 78/135/135 90/136/136
f 80/138/138 79/137/137 90/136/136
f 80/138/138 90/136/136 89/139/139
f 81/140/140 80/138/138 89/139/139
f 82/141/141 81/140/140 89/139/139
f 83/142/142 82/141/141 89/139/139
f 83/142/142 89/139/139 88/143/143
f 84/144/144 83/142/142 88/143/143
f 85/145/145 84/144/144 88/143/143
f 85/145/145 88/143/143 87/146/146
f 86/147/147 85/145/145 87/146/146
f 149/1/148 150/3/149 148/2/150
f 151/4/151 150/3/149 149/1/148
f 152/5/152 150/3/149 151/4/151
f 152/5/152 153/6/153 150/3/149
f 154/7/154 153/6/153 152/5/152
f 155/8/155 153/6/153 154/7/154
f 156/9/156 153/6/153 155/8/155
f 156/9/156 157/10/157 153/6/153
f 158/11/158 157/10/157 156/9/156
f 159/12/159 157/10/157 158/11/158
f 160/13/160 157/10/157 159/12/159
f 160/13/160 161/14/161 157/10/157
f 162/15/162 161/14/161 160/13/160
f 163/16/163 161/14/161 162/15/162
f 163/16/163 164/17/164 161/14/161
f 165/18/165 164/17/164 163/16/163
f 166/19/166 167/20/167 165/18/165
f 167/20/167 168/21/168 165/18/165
f 168/21/168 169/22/169 165/18/165
f 169/22/169 170/23/170 165/18/165
f 170/23/170 164/17/164 165/18/165
f 170/23/170 171/24/171 164/17/164
f 171/24/171 172/25/172 164/17/164
f 172/25/172 173/26/173 164/17/164
f 172/25/172 174/27/174 173/26/173
f 174/27/174 175/28/175 173/26/173
f 175/28/175 176/29/176 173/26/173
f 175/28/175 177/30/177 176/29/176
f 177/30/177 178/31/178 176/29/176
f 178/31/178 179/32/179 176/29/176
f 179/32/179 180/33/180 176/29/176
f 179/32/179 181/34/181 180/33/180
f 181/34/181 182/35/182 180/33/180
f 182/35/182 183/36/183 180/33/180
f 184/37/184 183/36/183 182/35/182
f 185/38/185 183/36/183 184/37/184
f 186/39/186 183/36/183 185/38/185
f 186/39/186 187/40/187 183/36/183
f 188/41/188 187/40/187 186/39/186
f 189/42/189 187/40/187 188/41/188
f 190/43/190 187/40/187 189/42/189
f 190/43/190 191/44/191 187/40/187
f 192/45/192 191/44/191 190/43/190
f 193/46/193 191/44/191 192/45/192
f 193/46/193 194/47/194 191/44/191
f 195/48/195 194/47/194 193/46/193
f 196/49/196 194/47/194 195/48/195
f 196/49/196 197/50/197 194/47/194
f 198/51/198 197/50/197 196/49/196
f 199/52/199 197/50/197 198/51/198
f 199/52/199 200/53/200 197/50/197
f 201/54/201 200/53/200 199/52/199
f 201/54/201 202/55/202 200/53/200
f 203/56/203 202/55/202 201/54/201
f 203/56/203 204/57/204 202/55/202
f 205/58/205 204/57/204 203/56/203
f 205/58/205 206/59/206 204/57/204
f 207/60/207 206/59/206 205/58/205
f 207/60/207 208/61/208 206/59/206
f 209/62/209 208/61/208 207/60/207
f 210/63/210 208/61/208 209/62/209
f 210/63/210 211/64/211 208/61/208
f 212/65/212 211/64/211 210/63/210
f 212/65/212 213/66/213 211/64/211
f 214/67/214 213/66/213 212/65/212
f 215/68/215 213/66/213 214/67/214
f 216/69/216 213/66/213 215/68/215
f 216/69/216 217/70/217 213/66/213
f 218/71/218 217/70/217 216/69/216
f 219/72/219 217/70/217 218/71/218
f 219/72/219 220/73/220 217/70/217
f 219/72/219 221/74/221 220/73/220
f 219/72/219 222/75/222 221/74/221
f 219/72/219 223/76/223 222/75/222
f 219/72/219 224/77/224 223/76/223
f 219/72/219 225/78/225 224/77/224
f 219/72/219 226/79/226 225/78/225
f 219/72/219 227/80/227 226/79/226
f 219/72/219 228/81/228 227/80/227
f 228/81/228 229/82/229 227/80/227
f 230/83/230 229/82/229 228/81/228
f 231/84/231 229/82/229 230/83/230
f 232/85/232 229/82/229 231/84/231
f 232/85/232 233/86/233 229/82/229
f 234/87/234 233/86/233 232/85/232
f 235/88/235 233/86/233 234/87/234
f 235/88/235 236/89/236 233/86/233
f 237/90/237 236/89/236 235/88/235
f 237/90/237 238/91/238 236/89/236
f 239/92/239 238/91/238 237/90/237
f 240/93/240 238/91/238 239/92/239
f 240/93/240 241/94/241 238/91/238
f 242/95/242 241/94/241 240/93/240
f 242/95/242 243/96/243 241/94/241
f 244/97/244 243/96/243 242/95/242
f 244/97/244 245/98/245 243/96/243
f 246/99/246 245/98/245 244/97/244
f 246/99/246 247/100/247 245/98/245
f 248/101/248 247/100/247 246/99/246
f 249/102/249 247/100/247 248/101/248
f 249/102/249 250/103/250 247/100/247
f 251/104/251 250/103/250 249/102/249
f 252/105/252 250/103/250 251/104/251
f 252/105/252 253/106/253 250/103/250
f 255/107/254 256/109/255 254/108/256
f 257/110/257 253/106/253 252/105/252
f 255/107/254 258/111/258 256/109/255
f 259/112/259 253/106/253 257/110/257
f 255/107/254 260/113/260 258/111/258
f 259/112/259 261/114/261 253/106/253
f 262/115/262 261/114/261 259/112/259
f 255/107/254 263/116/263 260/113/260
f 255/107/254 264/117/264 263/116/263
f 265/118/265 261/114/261 262/115/262
f 255/107/254 266/119/266 264/117/264
f 267/120/267 261/114/261 265/118/265
f 255/107/254 268/121/268 266/119/266
f 255/107/254 269/122/269 268/121/268
f 270/123/270 261/114/261 267/120/267
f 270/123/270 271/124/271 261/114/261
f 255/107/254 272/125/272 269/122/269
f 273/126/273 271/124/271 270/123/270
f 255/107/254 274/127/274 272/125/272
f 255/107/254 275/128/275 274/127/274
f 276/129/276 271/124/271 273/126/273
f 255/107/254 276/129/276 275/128/275
f 255/107/254 271/124/271 276/129/276
f 255/107/254 277/130/277 271/124/271
f 255/107/254 278/131/278 277/130/277
f 255/107/254 279/132/279 278/131/278
f 280/133/280 279/132/279 255/107/254
f 281/134/281 279/132/279 280/133/280
f 282/135/282 279/132/279 281/134/281
f 282/135/282 283/136/283 279/132/279
f 284/137/284 283/136/283 282/135/282
f 285/138/285 283/136/283 284/137/284
f 285/138/285 286/139/286 283/136/283
f 287/140/287 286/139/286 285/138/285
f 288/141/288 286/139/286 287/140/287
f 289/142/289 286/139/286 288/141/288
f 289/142/289 290/143/290 286/139/286
f 291/144/291 290/143/290 289/142/289
f 292/145/292 290/143/290 291/144/291
f 292/145/292 293/146/293 290/143/290
f 294/147/294 293/146/293 292/145/292
f 34/67/67 35/68/68 215/68/215 214/67/214
f 67/121/121 68/119/119 266/119/266 268/121/268
f 19/42/42 20/43/43 190/43/190 189/42/189
f 101/94/94 102/91/91 238/91/238 241/94/241
f 130/17/17 131/14/14 161/14/161 164/17/164
f 35/68/68 36/69/69 216/69/216 215/68/215
f 47/93/93 48/95/95 242/95/242 240/93/240
f 87/146/146 88/143/143 290/143/290 293/146/293
f 146/16/16 147/18/18 165/18/165 163/16/163
f 66/122/122 67/121/121 268/121/268 269/122/269
f 85/145/145 86/147/147 294/147/294 292/145/292
f 59/120/120 60/123/123 270/123/270 267/120/267
f 124/44/44 125/40/40 187/40/187 191/44/191
f 86/147/147 87/146/146 293/146/293 294/147/294
f 147/18/18 1/19/19 166/19/166 165/18/165
f 114/70/70 115/66/66 213/66/213 217/70/217
f 20/43/43 21/45/45 192/45/192 190/43/190
f 100/96/96 101/94/94 241/94/241 243/96/243
f 1/19/19 2/20/20 167/20/167 166/19/166
f 36/69/69 37/71/71 218/71/218 216/69/216
f 48/95/95 49/97/97 244/97/244 242/95/242
f 94/124/124 95/114/114 261/114/261 271/124/271
f 21/45/45 22/46/46 193/46/193 192/45/192
f 2/20/20 3/21/21 168/21/168 167/20/167
f 37/71/71 38/72/72 219/72/219 218/71/218
f 65/125/125 66/122/122 269/122/269 272/125/272
f 99/98/98 100/96/96 243/96/243 245/98/245
f 3/21/21 4/22/22 169/22/169 168/21/168
f 60/123/123 61/126/126 273/126/273 270/123/270
f 123/47/47 124/44/44 191/44/191 194/47/194
f 49/97/97 50/99/99 246/99/246 244/97/244
f 113/73/73 114/70/70 217/70/217 220/73/220
f 22/46/46 23/48/48 195/48/195 193/46/193
f 4/22/22 5/23/23 170/23/170 169/22/169
f 112/74/74 113/73/73 220/73/220 221/74/221
f 64/127/127 65/125/125 272/125/272 274/127/274
f 23/48/48 24/49/49 196/49/196 195/48/195
f 98/100/100 99/98/98 245/98/245 247/100/247
f 50/99/99 51/101/101 248/101/248 246/99/246
f 5/23/23 6/24/24 171/24/171 170/23/170
f 111/75/75 112/74/74 221/74/221 222/75/222
f 63/128/128 64/127/127 274/127/274 275/128/275
f 61/126/126 62/129/129 276/129/276 273/126/273
f 122/50/50 123/47/47 194/47/194 197/50/197
f 51/101/101 52/102/102 249/102/249 248/101/248
f 6/24/24 7/25/25 172/25/172 171/24/171
f 110/76/76 111/75/75 222/75/222 223/76/223
f 24/49/49 25/51/51 198/51/198 196/49/196
f 109/77/77 110/76/76 223/76/223 224/77/224
f 62/129/129 63/128/128 275/128/275 276/129/276
f 25/51/51 26/52/52 199/52/199 198/51/198
f 97/103/103 98/100/100 247/100/247 250/103/250
f 129/26/26 130/17/17 164/17/164 173/26/173
f 52/102/102 53/104/104 251/104/251 249/102/249
f 7/25/25 8/27/27 174/27/174 172/25/172
f 108/78/78 109/77/77 224/77/224 225/78/225
f 93/130/130 94/124/124 271/124/271 277/130/277
f 121/53/53 122/50/50 197/50/197 200/53/200
f 53/104/104 54/105/105 252/105/252 251/104/251
f 8/27/27 9/28/28 175/28/175 174/27/174
f 107/79/79 108/78/78 225/78/225 226/79/226
f 135/2/2 136/1/1 149/1/148 148/2/150
f 26/52/52 27/54/54 201/54/201 199/52/199
f 92/131/131 93/130/130 277/130/277 278/131/278
f 106/80/80 107/79/79 226/79/226 227/80/227
f 134/3/3 135/2/2 148/2/150 150/3/149
f 96/106/106 97/103/103 250/103/250 253/106/253
f 128/29/29 129/26/26 173/26/173 176/29/176
f 38/72/72 39/81/81 228/81/228 219/72/219
f 91/132/132 92/131/131 278/131/278 279/132/279
f 136/1/1 137/4/4 151/4/151 149/1/148
f 120/55/55 121/53/53 200/53/200 202/55/202
f 74/108/108 75/107/107 255/107/254 254/108/256
f 9/28/28 10/30/30 177/30/177 175/28/175
f 75/107/107 76/133/133 280/133/280 255/107/254
f 27/54/54 28/56/56 203/56/203 201/54/201
f 137/4/4 138/5/5 152/5/152 151/4/151
f 73/109/109 74/108/108 254/108/256 256/109/255
f 10/30/30 11/31/31 178/31/178 177/30/177
f 105/82/82 106/80/80 227/80/227 229/82/229
f 76/133/133 77/134/134 281/134/281 280/133/280
f 54/105/105 55/110/110 257/110/257 252/105/252
f 39/81/81 40/83/83 230/83/230 228/81/228
f 119/57/57 120/55/55 202/55/202 204/57/204
f 11/31/31 12/32/32 179/32/179 178/31/178
f 77/134/134 78/135/135 282/135/282 281/134/281
f 133/6/6 134/3/3 150/3/149 153/6/153
f 28/56/56 29/58/58 205/58/205 203/56/203
f 40/83/83 41/84/84 231/84/231 230/83/230
f 138/5/5 139/7/7 154/7/154 152/5/152
f 72/111/111 73/109/109 256/109/255 258/111/258
f 55/110/110 56/112/112 259/112/259 257/110/257
f 127/33/33 128/29/29 176/29/176 180/33/180
f 41/84/84 42/85/85 232/85/232 231/84/231
f 90/136/136 91/132/132 279/132/279 283/136/283
f 139/7/7 140/8/8 155/8/155 154/7/154
f 118/59/59 119/57/57 204/57/204 206/59/206
f 12/32/32 13/34/34 181/34/181 179/32/179
f 78/135/135 79/137/137 284/137/284 282/135/282
f 29/58/58 30/60/60 207/60/207 205/58/205
f 140/8/8 141/9/9 156/9/156 155/8/155
f 71/113/113 72/111/111 258/111/258 260/113/260
f 13/34/34 14/35/35 182/35/182 181/34/181
f 104/86/86 105/82/82 229/82/229 233/86/233
f 79/137/137 80/138/138 285/138/285 284/137/284
f 42/85/85 43/87/87 234/87/234 232/85/232
f 117/61/61 118/59/59 206/59/206 208/61/208
f 95/114/114 96/106/106 253/106/253 261/114/261
f 132/10/10 133/6/6 153/6/153 157/10/157
f 30/60/60 31/62/62 209/62/209 207/60/207
f 56/112/112 57/115/115 262/115/262 259/112/259
f 126/36/36 127/33/33 180/33/180 183/36/183
f 43/87/87 44/88/88 235/88/235 234/87/234
f 89/139/139 90/136/136 283/136/283 286/139/286
f 141/9/9 142/11/11 158/11/158 156/9/156
f 14/35/35 15/37/37 184/37/184 182/35/182
f 80/138/138 81/140/140 287/140/287 285/138/285
f 31/62/62 32/63/63 210/63/210 209/62/209
f 142/11/11 143/12/12 159/12/159 158/11/158
f 70/116/116 71/113/113 260/113/260 263/116/263
f 15/37/37 16/38/38 185/38/185 184/37/184
f 103/89/89 104/86/86 233/86/233 236/89/236
f 81/140/140 82/141/141 288/141/288 287/140/287
f 44/88/88 45/90/90 237/90/237 235/88/235
f 143/12/12 144/13/13 160/13/160 159/12/159
f 116/64/64 117/61/61 208/61/208 211/64/211
f 69/117/117 70/116/116 263/116/263 264/117/264
f 16/38/38 17/39/39 186/39/186 185/38/185
f 82/141/141 83/142/142 289/142/289 288/141/288
f 32/63/63 33/65/65 212/65/212 210/63/210
f 57/115/115 58/118/118 265/118/265 262/115/262
f 102/91/91 103/89/89 236/89/236 238/91/238
f 131/14/14 132/10/10 157/10/157 161/14/161
f 125/40/40 126/36/36 183/36/183 187/40/187
f 45/90/90 46/92/92 239/92/239 237/90/237
f 88/143/143 89/139/139 286/139/286 290/143/290
f 144/13/13 145/15/15 162/15/162 160/13/160
f 115/66/66 116/64/64 211/64/211 213/66/213
f 68/119/119 69/117/117 264/117/264 266/119/266
f 17/39/39 18/41/41 188/41/188 186/39/186
f 83/142/142 84/144/144 291/144/291 289/142/289
f 33/65/65 34/67/67 214/67/214 212/65/212
f 58/118/118 59/120/120 267/120/267 265/118/265
f 46/92/92 47/93/93 240/93/240 239/92/239
f 145/15/15 146/16/16 163/16/163 162/15/162
f 18/41/41 19/42/42 189/42/189 188/41/188
f 84/144/144 85/145/145 292/145/292 291/144/291
