# Blender 4.4.1
# www.blender.org
mtllib 7.mtl
o テキスト
v 0.000000 0.682000 -0.261861
v 0.000000 0.682000 0.179139
v 0.000000 0.589000 0.179139
v 0.000000 0.589000 -0.115861
v 0.000000 0.029000 0.134139
v 0.000000 -0.009000 0.047139
v 0.039572 0.682000 0.179139
v 0.039572 0.589000 0.179139
v 0.039572 0.682000 -0.261861
v 0.039572 0.589000 -0.115861
v 0.039572 -0.009000 0.047139
v 0.039572 0.029000 0.134139
vn -0.5773 -0.5774 0.5774
vn -0.5774 0.5774 0.5774
vn -0.5584 0.4513 -0.6961
vn -0.9487 -0.1720 0.2652
vn -0.5778 -0.7612 -0.2946
vn -0.5769 -0.2950 0.7617
vn 0.5773 -0.5774 0.5774
vn 0.5584 0.4513 -0.6961
vn 0.5774 0.5774 0.5774
vn 0.9487 -0.1720 0.2652
vn 0.5778 -0.7612 -0.2946
vn 0.5769 -0.2950 0.7617
vt 0.400000 0.000000
vt 0.200000 0.000000
vt 0.000000 0.000000
vt 0.600000 0.000000
vt 1.000000 0.000000
vt 0.800000 0.000000
s 1
usemtl マテリアル.007
f 3/1/1 2/2/2 1/3/3
f 3/1/1 1/3/3 4/4/4
f 4/4/4 1/3/3 6/5/5
f 5/6/6 4/4/4 6/5/5
f 8/1/7 9/3/8 7/2/9
f 8/1/7 10/4/10 9/3/8
f 10/4/10 11/5/11 9/3/8
f 12/6/12 11/5/11 10/4/10
f 6/5/5 1/3/3 9/3/8 11/5/11
f 1/3/3 2/2/2 7/2/9 9/3/8
f 2/2/2 3/1/1 8/1/7 7/2/9
f 4/4/4 5/6/6 12/6/12 10/4/10
f 3/1/1 4/4/4 10/4/10 8/1/7
f 5/6/6 6/5/5 11/5/11 12/6/12
