# Blender 4.4.1
# www.blender.org
mtllib 8.mtl
o テキスト
v 0.000000 0.184000 -0.239861
v 0.000000 0.201091 -0.239195
v 0.000000 0.217815 -0.237199
v 0.000000 0.234094 -0.233877
v 0.000000 0.249852 -0.229232
v 0.000000 0.265013 -0.223267
v 0.000000 0.279500 -0.215986
v 0.000000 0.293237 -0.207393
v 0.000000 0.306148 -0.197491
v 0.000000 0.318156 -0.186283
v 0.000000 0.329185 -0.173773
v 0.000000 0.339159 -0.159965
v 0.000000 0.348000 -0.144861
v 0.000000 0.357862 -0.158718
v 0.000000 0.368394 -0.171296
v 0.000000 0.379516 -0.182611
v 0.000000 0.391148 -0.192676
v 0.000000 0.403211 -0.201505
v 0.000000 0.415625 -0.209111
v 0.000000 0.428310 -0.215509
v 0.000000 0.441185 -0.220713
v 0.000000 0.454172 -0.224736
v 0.000000 0.467190 -0.227593
v 0.000000 0.480159 -0.229296
v 0.000000 0.493000 -0.229861
v 0.000000 0.520634 -0.228103
v 0.000000 0.546903 -0.222958
v 0.000000 0.571609 -0.214627
v 0.000000 0.594556 -0.203306
v 0.000000 0.615543 -0.189193
v 0.000000 0.634375 -0.172486
v 0.000000 0.650852 -0.153384
v 0.000000 0.664778 -0.132083
v 0.000000 0.675953 -0.108783
v 0.000000 0.684181 -0.083681
v 0.000000 0.689262 -0.056974
v 0.000000 0.691000 -0.028861
v 0.000000 0.689282 0.000249
v 0.000000 0.684259 0.027940
v 0.000000 0.676125 0.053998
v 0.000000 0.665074 0.078213
v 0.000000 0.651301 0.100372
v 0.000000 0.635000 0.120264
v 0.000000 0.616366 0.137676
v 0.000000 0.595593 0.152398
v 0.000000 0.572875 0.164217
v 0.000000 0.548407 0.172921
v 0.000000 0.522384 0.178299
v 0.000000 0.495000 0.180139
v 0.000000 0.480630 0.179519
v 0.000000 0.466542 0.177680
v 0.000000 0.452766 0.174654
v 0.000000 0.439333 0.170472
v 0.000000 0.426276 0.165165
v 0.000000 0.413625 0.158764
v 0.000000 0.401412 0.151300
v 0.000000 0.389667 0.142805
v 0.000000 0.378422 0.133311
v 0.000000 0.367708 0.122847
v 0.000000 0.357557 0.111446
v 0.000000 0.348000 0.099139
v 0.000000 0.338185 0.114702
v 0.000000 0.327731 0.128893
v 0.000000 0.316625 0.141717
v 0.000000 0.304852 0.153176
v 0.000000 0.292398 0.163274
v 0.000000 0.279250 0.172014
v 0.000000 0.265394 0.179400
v 0.000000 0.250815 0.185435
v 0.000000 0.235500 0.190123
v 0.000000 0.219435 0.193468
v 0.000000 0.202606 0.195472
v 0.000000 0.185000 0.196139
v 0.000000 0.158285 0.194178
v 0.000000 0.132782 0.188454
v 0.000000 0.108703 0.179201
v 0.000000 0.086259 0.166657
v 0.000000 0.065663 0.151058
v 0.000000 0.047125 0.132639
v 0.000000 0.030858 0.111637
v 0.000000 0.017074 0.088287
v 0.000000 0.005984 0.062826
v 0.000000 -0.002199 0.035491
v 0.000000 -0.007264 0.006516
v 0.000000 -0.009000 -0.023861
v 0.000000 -0.007284 -0.053740
v 0.000000 -0.002273 -0.082222
v 0.000000 0.005828 -0.109080
v 0.000000 0.016815 -0.134083
v 0.000000 0.030482 -0.157004
v 0.000000 0.046625 -0.177611
v 0.000000 0.065039 -0.195677
v 0.000000 0.085519 -0.210972
v 0.000000 0.107859 -0.223267
v 0.000000 0.131857 -0.232333
v 0.000000 0.157305 -0.237941
v 0.000000 0.495000 -0.131861
v 0.000000 0.481439 -0.130883
v 0.000000 0.468347 -0.128032
v 0.000000 0.455859 -0.123439
v 0.000000 0.444111 -0.117232
v 0.000000 0.433238 -0.109538
v 0.000000 0.423375 -0.100486
v 0.000000 0.414658 -0.090206
v 0.000000 0.407222 -0.078824
v 0.000000 0.401203 -0.066471
v 0.000000 0.396736 -0.053273
v 0.000000 0.393957 -0.039361
v 0.000000 0.393000 -0.024861
v 0.000000 0.393977 -0.010572
v 0.000000 0.396815 0.003204
v 0.000000 0.401375 0.016326
v 0.000000 0.407519 0.028657
v 0.000000 0.415106 0.040058
v 0.000000 0.424000 0.050389
v 0.000000 0.434060 0.059512
v 0.000000 0.445148 0.067287
v 0.000000 0.457125 0.073576
v 0.000000 0.469852 0.078241
v 0.000000 0.483190 0.081141
v 0.000000 0.497000 0.082139
v 0.000000 0.511802 0.081235
v 0.000000 0.525662 0.078579
v 0.000000 0.538516 0.074248
v 0.000000 0.550296 0.068324
v 0.000000 0.560938 0.060886
v 0.000000 0.570375 0.052014
v 0.000000 0.578541 0.041788
v 0.000000 0.585370 0.030287
v 0.000000 0.590797 0.017592
v 0.000000 0.594755 0.003782
v 0.000000 0.597178 -0.011062
v 0.000000 0.598000 -0.026861
v 0.000000 0.597100 -0.041741
v 0.000000 0.594468 -0.055820
v 0.000000 0.590203 -0.069002
v 0.000000 0.584407 -0.081194
v 0.000000 0.577181 -0.092304
v 0.000000 0.568625 -0.102236
v 0.000000 0.558840 -0.110898
v 0.000000 0.547926 -0.118194
v 0.000000 0.535984 -0.124033
v 0.000000 0.523116 -0.128320
v 0.000000 0.509421 -0.130960
v 0.000000 0.192000 -0.141861
v 0.000000 0.177901 -0.141009
v 0.000000 0.164208 -0.138458
v 0.000000 0.151078 -0.134221
v 0.000000 0.138667 -0.128306
v 0.000000 0.127130 -0.120724
v 0.000000 0.116625 -0.111486
v 0.000000 0.107307 -0.100602
v 0.000000 0.099333 -0.088083
v 0.000000 0.092859 -0.073939
v 0.000000 0.088042 -0.058181
v 0.000000 0.085036 -0.040818
v 0.000000 0.084000 -0.021861
v 0.000000 0.084922 -0.004795
v 0.000000 0.087625 0.011333
v 0.000000 0.092016 0.026420
v 0.000000 0.098000 0.040361
v 0.000000 0.105484 0.053052
v 0.000000 0.114375 0.064389
v 0.000000 0.124578 0.074267
v 0.000000 0.136000 0.082583
v 0.000000 0.148547 0.089233
v 0.000000 0.162125 0.094111
v 0.000000 0.176641 0.097115
v 0.000000 0.192000 0.098139
v 0.000000 0.207569 0.097152
v 0.000000 0.222222 0.094241
v 0.000000 0.235875 0.089483
v 0.000000 0.248444 0.082954
v 0.000000 0.259847 0.074730
v 0.000000 0.270000 0.064889
v 0.000000 0.278819 0.053506
v 0.000000 0.286222 0.040657
v 0.000000 0.292125 0.026420
v 0.000000 0.296444 0.010870
v 0.000000 0.299097 -0.005916
v 0.000000 0.300000 -0.023861
v 0.000000 0.299059 -0.040678
v 0.000000 0.296306 -0.056560
v 0.000000 0.291844 -0.071408
v 0.000000 0.285778 -0.085120
v 0.000000 0.278212 -0.097597
v 0.000000 0.269250 -0.108736
v 0.000000 0.258997 -0.118438
v 0.000000 0.247556 -0.126602
v 0.000000 0.235031 -0.133127
v 0.000000 0.221528 -0.137912
v 0.000000 0.207149 -0.140857
v 0.039142 0.691000 -0.028861
v 0.039142 0.689282 0.000249
v 0.039142 0.689262 -0.056974
v 0.039142 0.684259 0.027940
v 0.039142 0.684181 -0.083681
v 0.039142 0.676125 0.053998
v 0.039142 0.675953 -0.108783
v 0.039142 0.665074 0.078213
v 0.039142 0.664778 -0.132083
v 0.039142 0.651301 0.100372
v 0.039142 0.650852 -0.153384
v 0.039142 0.635000 0.120264
v 0.039142 0.634375 -0.172486
v 0.039142 0.616366 0.137676
v 0.039142 0.615543 -0.189193
v 0.039142 0.595593 0.152398
v 0.039142 0.598000 -0.026861
v 0.039142 0.594556 -0.203306
v 0.039142 0.597178 -0.011062
v 0.039142 0.597100 -0.041741
v 0.039142 0.594755 0.003782
v 0.039142 0.594468 -0.055820
v 0.039142 0.572875 0.164217
v 0.039142 0.590797 0.017592
v 0.039142 0.571609 -0.214627
v 0.039142 0.590203 -0.069002
v 0.039142 0.585370 0.030287
v 0.039142 0.584407 -0.081194
v 0.039142 0.578541 0.041788
v 0.039142 0.577181 -0.092304
v 0.039142 0.570375 0.052014
v 0.039142 0.568625 -0.102236
v 0.039142 0.548407 0.172921
v 0.039142 0.546903 -0.222958
v 0.039142 0.560938 0.060886
v 0.039142 0.558840 -0.110898
v 0.039142 0.550296 0.068324
v 0.039142 0.547926 -0.118194
v 0.039142 0.538516 0.074248
v 0.039142 0.522384 0.178299
v 0.039142 0.535984 -0.124033
v 0.039142 0.520634 -0.228103
v 0.039142 0.525662 0.078579
v 0.039142 0.523116 -0.128320
v 0.039142 0.511802 0.081235
v 0.039142 0.509421 -0.130960
v 0.039142 0.495000 0.180139
v 0.039142 0.493000 -0.229861
v 0.039142 0.497000 0.082139
v 0.039142 0.495000 -0.131861
v 0.039142 0.483190 0.081141
v 0.039142 0.480630 0.179519
v 0.039142 0.481439 -0.130883
v 0.039142 0.480159 -0.229296
v 0.039142 0.469852 0.078241
v 0.039142 0.468347 -0.128032
v 0.039142 0.466542 0.177680
v 0.039142 0.467190 -0.227593
v 0.039142 0.457125 0.073576
v 0.039142 0.455859 -0.123439
v 0.039142 0.454172 -0.224736
v 0.039142 0.452766 0.174654
v 0.039142 0.445148 0.067287
v 0.039142 0.444111 -0.117232
v 0.039142 0.441185 -0.220713
v 0.039142 0.439333 0.170472
v 0.039142 0.434060 0.059512
v 0.039142 0.433238 -0.109538
v 0.039142 0.428310 -0.215509
v 0.039142 0.426276 0.165165
v 0.039142 0.424000 0.050389
v 0.039142 0.423375 -0.100486
v 0.039142 0.415625 -0.209111
v 0.039142 0.413625 0.158764
v 0.039142 0.415106 0.040058
v 0.039142 0.414658 -0.090206
v 0.039142 0.403211 -0.201505
v 0.039142 0.407519 0.028657
v 0.039142 0.407222 -0.078824
v 0.039142 0.401412 0.151300
v 0.039142 0.401375 0.016326
v 0.039142 0.401203 -0.066471
v 0.039142 0.391148 -0.192676
v 0.039142 0.389667 0.142805
v 0.039142 0.396815 0.003204
v 0.039142 0.396736 -0.053273
v 0.039142 0.393977 -0.010572
v 0.039142 0.393957 -0.039361
v 0.039142 0.393000 -0.024861
v 0.039142 0.379516 -0.182611
v 0.039142 0.378422 0.133311
v 0.039142 0.368394 -0.171296
v 0.039142 0.367708 0.122847
v 0.039142 0.357862 -0.158718
v 0.039142 0.357557 0.111446
v 0.039142 0.348000 -0.144861
v 0.039142 0.348000 0.099139
v 0.039142 0.338185 0.114702
v 0.039142 0.339159 -0.159965
v 0.039142 0.329185 -0.173773
v 0.039142 0.327731 0.128893
v 0.039142 0.318156 -0.186283
v 0.039142 0.316625 0.141717
v 0.039142 0.306148 -0.197491
v 0.039142 0.304852 0.153176
v 0.039142 0.300000 -0.023861
v 0.039142 0.293237 -0.207393
v 0.039142 0.292398 0.163274
v 0.039142 0.299097 -0.005916
v 0.039142 0.299059 -0.040678
v 0.039142 0.296444 0.010870
v 0.039142 0.296306 -0.056560
v 0.039142 0.292125 0.026420
v 0.039142 0.291844 -0.071408
v 0.039142 0.279500 -0.215986
v 0.039142 0.279250 0.172014
v 0.039142 0.286222 0.040657
v 0.039142 0.285778 -0.085120
v 0.039142 0.278819 0.053506
v 0.039142 0.278212 -0.097597
v 0.039142 0.265013 -0.223267
v 0.039142 0.265394 0.179400
v 0.039142 0.270000 0.064889
v 0.039142 0.269250 -0.108736
v 0.039142 0.259847 0.074730
v 0.039142 0.258997 -0.118438
v 0.039142 0.250815 0.185435
v 0.039142 0.249852 -0.229232
v 0.039142 0.248444 0.082954
v 0.039142 0.247556 -0.126602
v 0.039142 0.235500 0.190123
v 0.039142 0.234094 -0.233877
v 0.039142 0.235875 0.089483
v 0.039142 0.235031 -0.133127
v 0.039142 0.222222 0.094241
v 0.039142 0.219435 0.193468
v 0.039142 0.221528 -0.137912
v 0.039142 0.217815 -0.237199
v 0.039142 0.207569 0.097152
v 0.039142 0.207149 -0.140857
v 0.039142 0.202606 0.195472
v 0.039142 0.201091 -0.239195
v 0.039142 0.192000 0.098139
v 0.039142 0.192000 -0.141861
v 0.039142 0.185000 0.196139
v 0.039142 0.184000 -0.239861
v 0.039142 0.176641 0.097115
v 0.039142 0.177901 -0.141009
v 0.039142 0.158285 0.194178
v 0.039142 0.157305 -0.237941
v 0.039142 0.164208 -0.138458
v 0.039142 0.162125 0.094111
v 0.039142 0.151078 -0.134221
v 0.039142 0.148547 0.089233
v 0.039142 0.132782 0.188454
v 0.039142 0.131857 -0.232333
v 0.039142 0.138667 -0.128306
v 0.039142 0.136000 0.082583
v 0.039142 0.127130 -0.120724
v 0.039142 0.124578 0.074267
v 0.039142 0.108703 0.179201
v 0.039142 0.107859 -0.223267
v 0.039142 0.116625 -0.111486
v 0.039142 0.114375 0.064389
v 0.039142 0.107307 -0.100602
v 0.039142 0.105484 0.053052
v 0.039142 0.086259 0.166657
v 0.039142 0.085519 -0.210972
v 0.039142 0.099333 -0.088083
v 0.039142 0.098000 0.040361
v 0.039142 0.092859 -0.073939
v 0.039142 0.092016 0.026420
v 0.039142 0.088042 -0.058181
v 0.039142 0.087625 0.011333
v 0.039142 0.085036 -0.040818
v 0.039142 0.084922 -0.004795
v 0.039142 0.065663 0.151058
v 0.039142 0.065039 -0.195677
v 0.039142 0.084000 -0.021861
v 0.039142 0.047125 0.132639
v 0.039142 0.046625 -0.177611
v 0.039142 0.030858 0.111637
v 0.039142 0.030482 -0.157004
v 0.039142 0.017074 0.088287
v 0.039142 0.016815 -0.134083
v 0.039142 0.005984 0.062826
v 0.039142 0.005828 -0.109080
v 0.039142 -0.002199 0.035491
v 0.039142 -0.002273 -0.082222
v 0.039142 -0.007264 0.006516
v 0.039142 -0.007284 -0.053740
v 0.039142 -0.009000 -0.023861
vn -0.6938 0.7151 0.0856
vn -0.6938 0.7202 -0.0010
vn -0.6932 0.7152 -0.0898
vn -0.6935 0.6996 0.1720
vn -0.6929 0.6982 -0.1800
vn -0.6932 0.6731 0.2575
vn -0.6927 0.6692 -0.2688
vn -0.6930 0.6354 0.3407
vn -0.6926 0.6285 -0.3541
vn -0.6927 0.5864 0.4198
vn -0.6925 0.5763 -0.4340
vn -0.6925 0.5264 0.4933
vn -0.6924 0.5137 -0.5066
vn -0.6922 0.4560 0.5593
vn -0.6924 0.4417 -0.5705
vn -0.6920 0.3762 0.6161
vn -0.7200 -0.6940 0.0029
vn -0.6924 0.3617 -0.6243
vn -0.7197 -0.6904 -0.0741
vn -0.7214 -0.6874 0.0847
vn -0.7205 -0.6766 -0.1516
vn -0.7218 -0.6708 0.1705
vn -0.6919 0.2883 0.6619
vn -0.7214 -0.6525 -0.2320
vn -0.6924 0.2755 -0.6668
vn -0.7221 -0.6428 0.2555
vn -0.7222 -0.6167 -0.3132
vn -0.7224 -0.6034 0.3377
vn -0.7230 -0.5683 -0.3929
vn -0.7225 -0.5529 0.4150
vn -0.7235 -0.5074 -0.4681
vn -0.7226 -0.4921 0.4855
vn -0.6919 0.1945 0.6953
vn -0.6926 0.1850 -0.6972
vn -0.7237 -0.4351 -0.5356
vn -0.7226 -0.4221 0.5474
vn -0.7237 -0.3536 -0.5927
vn -0.7225 -0.3447 0.5992
vn -0.7233 -0.2660 -0.6372
vn -0.6920 0.0975 0.7152
vn -0.7224 -0.2617 0.6400
vn -0.6928 0.0924 -0.7152
vn -0.7227 -0.1758 -0.6684
vn -0.7222 -0.1752 0.6692
vn -0.7218 -0.0864 -0.6867
vn -0.7218 -0.0873 0.6866
vn -0.6949 0.0086 0.7190
vn -0.6952 0.0070 -0.7188
vn -0.7224 0.0039 -0.6915
vn -0.7225 0.0033 0.6913
vn -0.7234 0.0985 -0.6834
vn -0.6975 -0.0619 0.7139
vn -0.7235 0.0985 0.6833
vn -0.6975 -0.0625 -0.7139
vn -0.7229 0.1928 -0.6636
vn -0.7230 0.1932 0.6633
vn -0.6975 -0.1234 0.7059
vn -0.6976 -0.1235 -0.7058
vn -0.7223 0.2804 -0.6322
vn -0.7224 0.2815 0.6315
vn -0.6977 -0.1829 -0.6926
vn -0.6976 -0.1835 0.6926
vn -0.7218 0.3603 -0.5909
vn -0.7220 0.3622 0.5895
vn -0.6978 -0.2404 -0.6747
vn -0.6977 -0.2415 0.6744
vn -0.7214 0.4322 -0.5410
vn -0.7216 0.4349 0.5386
vn -0.6979 -0.2957 -0.6523
vn -0.6980 -0.2967 0.6518
vn -0.7213 0.4961 -0.4834
vn -0.7214 0.4992 0.4800
vn -0.6979 -0.3486 -0.6256
vn -0.6982 -0.3485 0.6253
vn -0.7213 0.5518 -0.4186
vn -0.7214 0.5551 0.4141
vn -0.6980 -0.3989 -0.5947
vn -0.7214 0.5993 -0.3469
vn -0.7215 0.6023 0.3417
vn -0.6985 -0.3966 0.5957
vn -0.7218 0.6379 -0.2685
vn -0.7217 0.6403 0.2631
vn -0.6981 -0.4461 -0.5601
vn -0.6988 -0.4407 0.5635
vn -0.7222 0.6669 -0.1837
vn -0.7219 0.6684 0.1791
vn -0.7226 0.6849 -0.0935
vn -0.7222 0.6857 0.0907
vn -0.7225 0.6914 -0.0008
vn -0.6981 -0.4899 -0.5221
vn -0.6990 -0.4808 0.5293
vn -0.6982 -0.5301 -0.4811
vn -0.6993 -0.5170 0.4936
vn -0.6984 -0.5664 -0.4376
vn -0.6996 -0.5493 0.4569
vn -0.9490 0.0140 -0.3150
vn -0.9420 0.0164 0.3353
vn -0.6991 0.5907 0.4030
vn -0.6965 0.6012 -0.3918
vn -0.6964 0.5607 -0.4480
vn -0.6983 0.5591 0.4469
vn -0.6963 0.5147 -0.5003
vn -0.6976 0.5211 0.4917
vn -0.6964 0.4638 -0.5477
vn -0.6971 0.4763 0.5359
vn -0.7192 -0.6948 0.0020
vn -0.6966 0.4090 -0.5895
vn -0.6966 0.4250 0.5780
vn -0.7193 -0.6910 -0.0718
vn -0.7204 -0.6891 0.0787
vn -0.7202 -0.6780 -0.1472
vn -0.7209 -0.6745 0.1592
vn -0.7211 -0.6550 -0.2258
vn -0.7214 -0.6495 0.2402
vn -0.6968 0.3516 -0.6252
vn -0.6964 0.3679 0.6162
vn -0.7220 -0.6206 -0.3059
vn -0.7219 -0.6136 0.3201
vn -0.7228 -0.5739 -0.3850
vn -0.7223 -0.5663 0.3969
vn -0.6970 0.2926 -0.6546
vn -0.6963 0.3064 0.6490
vn -0.7234 -0.5144 -0.4605
vn -0.7227 -0.5080 0.4687
vn -0.7238 -0.4431 -0.5290
vn -0.7230 -0.4391 0.5334
vn -0.6965 0.2425 0.6753
vn -0.6973 0.2328 -0.6779
vn -0.7239 -0.3618 -0.5875
vn -0.7231 -0.3610 0.5888
vn -0.6969 0.1782 0.6947
vn -0.6976 0.1731 -0.6953
vn -0.7236 -0.2733 -0.6337
vn -0.7232 -0.2756 0.6333
vn -0.7231 -0.1814 -0.6665
vn -0.6975 0.1155 0.7072
vn -0.7230 -0.1851 0.6656
vn -0.6979 0.1141 -0.7070
vn -0.7223 -0.0894 -0.6857
vn -0.7227 -0.0924 0.6850
vn -0.6981 0.0559 0.7138
vn -0.6982 0.0564 -0.7136
vn -0.7220 0.0011 -0.6919
vn -0.7216 -0.0020 0.6923
vn -0.6948 -0.0127 0.7191
vn -0.6949 -0.0118 -0.7190
vn -0.7229 0.0932 -0.6846
vn -0.7213 0.0845 0.6874
vn -0.6909 -0.1059 0.7152
vn -0.6911 -0.1040 -0.7152
vn -0.7218 0.1700 0.6709
vn -0.7233 0.1872 -0.6647
vn -0.7223 0.2555 0.6426
vn -0.7235 0.2791 -0.6314
vn -0.6910 -0.2093 0.6918
vn -0.6912 -0.2060 -0.6927
vn -0.7228 0.3392 0.6021
vn -0.7234 0.3658 -0.5856
vn -0.7232 0.4187 0.5493
vn -0.7232 0.4445 -0.5286
vn -0.6914 -0.3066 0.6542
vn -0.6915 -0.3026 -0.6560
vn -0.7234 0.4915 0.4850
vn -0.7228 0.5134 -0.4626
vn -0.7233 0.5549 0.4111
vn -0.7223 0.5712 -0.3899
vn -0.6919 -0.3950 0.6044
vn -0.6919 -0.3910 -0.6070
vn -0.7230 0.6069 0.3301
vn -0.7217 0.6174 -0.3129
vn -0.7223 0.6465 0.2455
vn -0.7211 0.6521 -0.2339
vn -0.7215 0.6736 0.1606
vn -0.7205 0.6760 -0.1545
vn -0.7205 0.6890 0.0782
vn -0.7199 0.6899 -0.0762
vn -0.6924 -0.4732 0.5448
vn -0.6923 -0.4696 -0.5479
vn -0.7195 0.6945 0.0002
vn -0.6928 -0.5403 0.4776
vn -0.6927 -0.5376 -0.4808
vn -0.6932 -0.5964 0.4047
vn -0.6931 -0.5945 -0.4077
vn -0.6936 -0.6416 0.3276
vn -0.6935 -0.6405 -0.3301
vn -0.6939 -0.6762 0.2475
vn -0.6937 -0.6757 -0.2493
vn -0.6941 -0.7006 0.1655
vn -0.6940 -0.7004 -0.1666
vn -0.6943 -0.7149 0.0826
vn -0.6942 -0.7150 -0.0831
vn -0.6945 -0.7195 -0.0001
vn 0.6938 0.7151 0.0856
vn 0.6932 0.7152 -0.0898
vn 0.6938 0.7202 -0.0010
vn 0.6935 0.6996 0.1720
vn 0.6929 0.6982 -0.1800
vn 0.6932 0.6731 0.2575
vn 0.6927 0.6692 -0.2688
vn 0.6930 0.6354 0.3407
vn 0.6926 0.6285 -0.3541
vn 0.6927 0.5864 0.4198
vn 0.6925 0.5763 -0.4340
vn 0.6925 0.5264 0.4933
vn 0.6924 0.5137 -0.5066
vn 0.6922 0.4560 0.5593
vn 0.6924 0.4417 -0.5705
vn 0.6920 0.3762 0.6161
vn 0.7200 -0.6940 0.0029
vn 0.6924 0.3617 -0.6243
vn 0.7197 -0.6904 -0.0741
vn 0.7214 -0.6874 0.0847
vn 0.7205 -0.6766 -0.1516
vn 0.7218 -0.6708 0.1705
vn 0.6919 0.2883 0.6619
vn 0.7214 -0.6525 -0.2319
vn 0.6924 0.2755 -0.6668
vn 0.7221 -0.6428 0.2555
vn 0.7222 -0.6167 -0.3132
vn 0.7224 -0.6034 0.3377
vn 0.7230 -0.5683 -0.3929
vn 0.7225 -0.5529 0.4150
vn 0.7235 -0.5074 -0.4681
vn 0.7226 -0.4921 0.4855
vn 0.6919 0.1945 0.6953
vn 0.6926 0.1850 -0.6972
vn 0.7237 -0.4351 -0.5356
vn 0.7226 -0.4221 0.5474
vn 0.7237 -0.3536 -0.5927
vn 0.7225 -0.3447 0.5992
vn 0.7233 -0.2660 -0.6372
vn 0.6920 0.0975 0.7152
vn 0.7224 -0.2617 0.6400
vn 0.6928 0.0924 -0.7152
vn 0.7227 -0.1758 -0.6684
vn 0.7222 -0.1752 0.6692
vn 0.7218 -0.0864 -0.6867
vn 0.7218 -0.0873 0.6866
vn 0.6949 0.0086 0.7190
vn 0.6952 0.0070 -0.7188
vn 0.7224 0.0039 -0.6915
vn 0.7225 0.0033 0.6913
vn 0.7234 0.0985 -0.6834
vn 0.6975 -0.0619 0.7139
vn 0.7235 0.0985 0.6833
vn 0.6975 -0.0625 -0.7139
vn 0.7229 0.1928 -0.6636
vn 0.7230 0.1932 0.6633
vn 0.6975 -0.1234 0.7059
vn 0.6976 -0.1235 -0.7058
vn 0.7223 0.2804 -0.6322
vn 0.7224 0.2815 0.6315
vn 0.6977 -0.1829 -0.6926
vn 0.6976 -0.1835 0.6926
vn 0.7218 0.3603 -0.5909
vn 0.7220 0.3622 0.5895
vn 0.6978 -0.2404 -0.6747
vn 0.6977 -0.2415 0.6744
vn 0.7214 0.4322 -0.5410
vn 0.7216 0.4349 0.5386
vn 0.6979 -0.2957 -0.6523
vn 0.6980 -0.2967 0.6518
vn 0.7213 0.4961 -0.4834
vn 0.7214 0.4992 0.4800
vn 0.6979 -0.3486 -0.6256
vn 0.6982 -0.3485 0.6253
vn 0.7213 0.5518 -0.4186
vn 0.7214 0.5551 0.4141
vn 0.6980 -0.3989 -0.5947
vn 0.7214 0.5993 -0.3469
vn 0.7215 0.6023 0.3417
vn 0.6985 -0.3966 0.5957
vn 0.7218 0.6379 -0.2685
vn 0.7217 0.6403 0.2631
vn 0.6981 -0.4461 -0.5601
vn 0.6988 -0.4407 0.5635
vn 0.7222 0.6669 -0.1837
vn 0.7219 0.6684 0.1791
vn 0.7226 0.6849 -0.0935
vn 0.7222 0.6857 0.0907
vn 0.7225 0.6914 -0.0008
vn 0.6981 -0.4899 -0.5221
vn 0.6990 -0.4808 0.5293
vn 0.6982 -0.5301 -0.4811
vn 0.6993 -0.5170 0.4936
vn 0.6984 -0.5664 -0.4376
vn 0.6996 -0.5493 0.4569
vn 0.9490 0.0140 -0.3150
vn 0.9420 0.0164 0.3353
vn 0.6991 0.5907 0.4030
vn 0.6965 0.6012 -0.3918
vn 0.6964 0.5607 -0.4480
vn 0.6983 0.5591 0.4469
vn 0.6963 0.5147 -0.5003
vn 0.6976 0.5211 0.4917
vn 0.6964 0.4638 -0.5477
vn 0.6971 0.4763 0.5359
vn 0.7192 -0.6948 0.0020
vn 0.6966 0.4090 -0.5895
vn 0.6966 0.4250 0.5780
vn 0.7193 -0.6910 -0.0718
vn 0.7204 -0.6891 0.0787
vn 0.7202 -0.6780 -0.1472
vn 0.7209 -0.6745 0.1592
vn 0.7211 -0.6550 -0.2258
vn 0.7214 -0.6495 0.2402
vn 0.6968 0.3516 -0.6252
vn 0.6964 0.3679 0.6162
vn 0.7220 -0.6206 -0.3059
vn 0.7219 -0.6136 0.3201
vn 0.7228 -0.5739 -0.3850
vn 0.7223 -0.5663 0.3969
vn 0.6970 0.2926 -0.6546
vn 0.6963 0.3064 0.6490
vn 0.7234 -0.5144 -0.4605
vn 0.7227 -0.5080 0.4687
vn 0.7238 -0.4431 -0.5290
vn 0.7230 -0.4391 0.5334
vn 0.6965 0.2425 0.6753
vn 0.6973 0.2328 -0.6779
vn 0.7239 -0.3618 -0.5875
vn 0.7231 -0.3610 0.5888
vn 0.6969 0.1782 0.6947
vn 0.6976 0.1731 -0.6953
vn 0.7236 -0.2733 -0.6337
vn 0.7232 -0.2756 0.6333
vn 0.7231 -0.1814 -0.6665
vn 0.6975 0.1155 0.7072
vn 0.7230 -0.1851 0.6656
vn 0.6979 0.1141 -0.7070
vn 0.7223 -0.0894 -0.6857
vn 0.7227 -0.0924 0.6850
vn 0.6981 0.0559 0.7138
vn 0.6982 0.0564 -0.7136
vn 0.7220 0.0011 -0.6919
vn 0.7216 -0.0020 0.6923
vn 0.6948 -0.0127 0.7191
vn 0.6949 -0.0118 -0.7190
vn 0.7229 0.0932 -0.6846
vn 0.7213 0.0845 0.6874
vn 0.6909 -0.1059 0.7152
vn 0.6911 -0.1040 -0.7152
vn 0.7218 0.1700 0.6709
vn 0.7233 0.1872 -0.6647
vn 0.7223 0.2555 0.6426
vn 0.7235 0.2791 -0.6314
vn 0.6910 -0.2093 0.6918
vn 0.6912 -0.2060 -0.6927
vn 0.7228 0.3392 0.6021
vn 0.7234 0.3658 -0.5856
vn 0.7232 0.4187 0.5493
vn 0.7232 0.4445 -0.5286
vn 0.6914 -0.3066 0.6542
vn 0.6915 -0.3026 -0.6560
vn 0.7234 0.4915 0.4850
vn 0.7228 0.5134 -0.4626
vn 0.7233 0.5549 0.4111
vn 0.7223 0.5712 -0.3899
vn 0.6919 -0.3950 0.6044
vn 0.6919 -0.3910 -0.6070
vn 0.7230 0.6069 0.3301
vn 0.7217 0.6174 -0.3129
vn 0.7223 0.6465 0.2455
vn 0.7211 0.6521 -0.2339
vn 0.7215 0.6736 0.1606
vn 0.7205 0.6760 -0.1545
vn 0.7205 0.6890 0.0782
vn 0.7199 0.6899 -0.0762
vn 0.6924 -0.4732 0.5448
vn 0.6923 -0.4696 -0.5479
vn 0.7195 0.6945 0.0002
vn 0.6928 -0.5403 0.4776
vn 0.6927 -0.5376 -0.4808
vn 0.6932 -0.5964 0.4047
vn 0.6931 -0.5945 -0.4077
vn 0.6936 -0.6416 0.3276
vn 0.6935 -0.6405 -0.3301
vn 0.6939 -0.6762 0.2475
vn 0.6937 -0.6757 -0.2493
vn 0.6941 -0.7006 0.1655
vn 0.6940 -0.7004 -0.1666
vn 0.6943 -0.7149 0.0826
vn 0.6942 -0.7150 -0.0831
vn 0.6945 -0.7195 -0.0001
vt 0.193717 0.000000
vt 0.188482 0.000000
vt 0.183246 0.000000
vt 0.198953 0.000000
vt 0.178010 0.000000
vt 0.204188 0.000000
vt 0.172775 0.000000
vt 0.209424 0.000000
vt 0.167539 0.000000
vt 0.214660 0.000000
vt 0.162304 0.000000
vt 0.219895 0.000000
vt 0.157068 0.000000
vt 0.225131 0.000000
vt 0.151832 0.000000
vt 0.230366 0.000000
vt 0.691099 0.000000
vt 0.146597 0.000000
vt 0.685864 0.000000
vt 0.696335 0.000000
vt 0.680628 0.000000
vt 0.701571 0.000000
vt 0.235602 0.000000
vt 0.675393 0.000000
vt 0.141361 0.000000
vt 0.706806 0.000000
vt 0.670157 0.000000
vt 0.712042 0.000000
vt 0.664921 0.000000
vt 0.717277 0.000000
vt 0.659686 0.000000
vt 0.722513 0.000000
vt 0.240838 0.000000
vt 0.136126 0.000000
vt 0.654450 0.000000
vt 0.727749 0.000000
vt 0.649215 0.000000
vt 0.732984 0.000000
vt 0.643979 0.000000
vt 0.246073 0.000000
vt 0.738220 0.000000
vt 0.130890 0.000000
vt 0.638743 0.000000
vt 0.743455 0.000000
vt 0.633508 0.000000
vt 0.748691 0.000000
vt 0.251309 0.000000
vt 0.125654 0.000000
vt 0.628272 0.000000
vt 0.502618 0.000000
vt 0.623037 0.000000
vt 0.256545 0.000000
vt 0.507853 0.000000
vt 0.120419 0.000000
vt 0.617801 0.000000
vt 0.513089 0.000000
vt 0.261780 0.000000
vt 0.115183 0.000000
vt 0.612565 0.000000
vt 0.518325 0.000000
vt 0.109948 0.000000
vt 0.267016 0.000000
vt 0.607330 0.000000
vt 0.523560 0.000000
vt 0.104712 0.000000
vt 0.272251 0.000000
vt 0.602094 0.000000
vt 0.528796 0.000000
vt 0.099476 0.000000
vt 0.277487 0.000000
vt 0.596859 0.000000
vt 0.534031 0.000000
vt 0.094241 0.000000
vt 0.282723 0.000000
vt 0.591623 0.000000
vt 0.539267 0.000000
vt 0.089005 0.000000
vt 0.586387 0.000000
vt 0.544503 0.000000
vt 0.287958 0.000000
vt 0.581152 0.000000
vt 0.549738 0.000000
vt 0.083770 0.000000
vt 0.293194 0.000000
vt 0.575916 0.000000
vt 0.554974 0.000000
vt 0.570681 0.000000
vt 0.560209 0.000000
vt 0.565445 0.000000
vt 0.078534 0.000000
vt 0.298429 0.000000
vt 0.073298 0.000000
vt 0.303665 0.000000
vt 0.068063 0.000000
vt 0.308901 0.000000
vt 0.062827 0.000000
vt 0.314136 0.000000
vt 0.319372 0.000000
vt 0.057592 0.000000
vt 0.052356 0.000000
vt 0.324607 0.000000
vt 0.047120 0.000000
vt 0.329843 0.000000
vt 0.041885 0.000000
vt 0.335079 0.000000
vt 0.942408 0.000000
vt 0.036649 0.000000
vt 0.340314 0.000000
vt 0.937173 0.000000
vt 0.947644 0.000000
vt 0.931937 0.000000
vt 0.952880 0.000000
vt 0.926702 0.000000
vt 0.958115 0.000000
vt 0.031414 0.000000
vt 0.345550 0.000000
vt 0.921466 0.000000
vt 0.963351 0.000000
vt 0.916230 0.000000
vt 0.968586 0.000000
vt 0.026178 0.000000
vt 0.350785 0.000000
vt 0.910995 0.000000
vt 0.973822 0.000000
vt 0.905759 0.000000
vt 0.979058 0.000000
vt 0.356021 0.000000
vt 0.020942 0.000000
vt 0.900524 0.000000
vt 0.984293 0.000000
vt 0.361257 0.000000
vt 0.015707 0.000000
vt 0.895288 0.000000
vt 0.989529 0.000000
vt 0.890052 0.000000
vt 0.366492 0.000000
vt 0.994764 0.000000
vt 0.010471 0.000000
vt 0.884817 0.000000
vt 1.000000 0.000000
vt 0.371728 0.000000
vt 0.005236 0.000000
vt 0.879581 0.000000
vt 0.753927 0.000000
vt 0.376963 0.000000
vt 0.000000 0.000000
vt 0.874346 0.000000
vt 0.759162 0.000000
vt 0.382199 0.000000
vt 0.497382 0.000000
vt 0.764398 0.000000
vt 0.869110 0.000000
vt 0.769634 0.000000
vt 0.863874 0.000000
vt 0.387435 0.000000
vt 0.492147 0.000000
vt 0.774869 0.000000
vt 0.858639 0.000000
vt 0.780105 0.000000
vt 0.853403 0.000000
vt 0.392670 0.000000
vt 0.486911 0.000000
vt 0.785340 0.000000
vt 0.848168 0.000000
vt 0.790576 0.000000
vt 0.842932 0.000000
vt 0.397906 0.000000
vt 0.481675 0.000000
vt 0.795812 0.000000
vt 0.837696 0.000000
vt 0.801047 0.000000
vt 0.832461 0.000000
vt 0.806283 0.000000
vt 0.827225 0.000000
vt 0.811518 0.000000
vt 0.821990 0.000000
vt 0.403141 0.000000
vt 0.476440 0.000000
vt 0.816754 0.000000
vt 0.408377 0.000000
vt 0.471204 0.000000
vt 0.413613 0.000000
vt 0.465969 0.000000
vt 0.418848 0.000000
vt 0.460733 0.000000
vt 0.424084 0.000000
vt 0.455497 0.000000
vt 0.429319 0.000000
vt 0.450262 0.000000
vt 0.434555 0.000000
vt 0.445026 0.000000
vt 0.439791 0.000000
s 1
usemtl マテリアル.008
f 38/1/1 37/2/2 36/3/3
f 39/4/4 38/1/1 36/3/3
f 39/4/4 36/3/3 35/5/5
f 40/6/6 39/4/4 35/5/5
f 40/6/6 35/5/5 34/7/7
f 41/8/8 40/6/6 34/7/7
f 41/8/8 34/7/7 33/9/9
f 42/10/10 41/8/8 33/9/9
f 42/10/10 33/9/9 32/11/11
f 43/12/12 42/10/10 32/11/11
f 43/12/12 32/11/11 31/13/13
f 44/14/14 43/12/12 31/13/13
f 44/14/14 31/13/13 30/15/15
f 45/16/16 44/14/14 30/15/15
f 45/16/16 30/15/15 133/17/17
f 133/17/17 30/15/15 29/18/18
f 45/16/16 133/17/17 132/19/19
f 134/20/20 133/17/17 29/18/18
f 45/16/16 132/19/19 131/21/21
f 135/22/22 134/20/20 29/18/18
f 46/23/23 45/16/16 131/21/21
f 46/23/23 131/21/21 130/24/24
f 135/22/22 29/18/18 28/25/25
f 136/26/26 135/22/22 28/25/25
f 46/23/23 130/24/24 129/27/27
f 137/28/28 136/26/26 28/25/25
f 46/23/23 129/27/27 128/29/29
f 138/30/30 137/28/28 28/25/25
f 46/23/23 128/29/29 127/31/31
f 139/32/32 138/30/30 28/25/25
f 47/33/33 46/23/23 127/31/31
f 139/32/32 28/25/25 27/34/34
f 47/33/33 127/31/31 126/35/35
f 140/36/36 139/32/32 27/34/34
f 47/33/33 126/35/35 125/37/37
f 141/38/38 140/36/36 27/34/34
f 47/33/33 125/37/37 124/39/39
f 48/40/40 47/33/33 124/39/39
f 142/41/41 141/38/38 27/34/34
f 142/41/41 27/34/34 26/42/42
f 48/40/40 124/39/39 123/43/43
f 143/44/44 142/41/41 26/42/42
f 48/40/40 123/43/43 122/45/45
f 144/46/46 143/44/44 26/42/42
f 49/47/47 48/40/40 122/45/45
f 144/46/46 26/42/42 25/48/48
f 49/47/47 122/45/45 121/49/49
f 97/50/50 144/46/46 25/48/48
f 49/47/47 121/49/49 120/51/51
f 50/52/52 49/47/47 120/51/51
f 98/53/53 97/50/50 25/48/48
f 98/53/53 25/48/48 24/54/54
f 50/52/52 120/51/51 119/55/55
f 99/56/56 98/53/53 24/54/54
f 51/57/57 50/52/52 119/55/55
f 99/56/56 24/54/54 23/58/58
f 51/57/57 119/55/55 118/59/59
f 100/60/60 99/56/56 23/58/58
f 100/60/60 23/58/58 22/61/61
f 52/62/62 51/57/57 118/59/59
f 52/62/62 118/59/59 117/63/63
f 101/64/64 100/60/60 22/61/61
f 101/64/64 22/61/61 21/65/65
f 53/66/66 52/62/62 117/63/63
f 53/66/66 117/63/63 116/67/67
f 102/68/68 101/64/64 21/65/65
f 102/68/68 21/65/65 20/69/69
f 54/70/70 53/66/66 116/67/67
f 54/70/70 116/67/67 115/71/71
f 103/72/72 102/68/68 20/69/69
f 103/72/72 20/69/69 19/73/73
f 55/74/74 54/70/70 115/71/71
f 55/74/74 115/71/71 114/75/75
f 104/76/76 103/72/72 19/73/73
f 104/76/76 19/73/73 18/77/77
f 55/74/74 114/75/75 113/78/78
f 105/79/79 104/76/76 18/77/77
f 56/80/80 55/74/74 113/78/78
f 56/80/80 113/78/78 112/81/81
f 106/82/82 105/79/79 18/77/77
f 106/82/82 18/77/77 17/83/83
f 57/84/84 56/80/80 112/81/81
f 57/84/84 112/81/81 111/85/85
f 107/86/86 106/82/82 17/83/83
f 57/84/84 111/85/85 110/87/87
f 108/88/88 107/86/86 17/83/83
f 57/84/84 110/87/87 109/89/89
f 109/89/89 108/88/88 17/83/83
f 57/84/84 109/89/89 17/83/83
f 57/84/84 17/83/83 16/90/90
f 58/91/91 57/84/84 16/90/90
f 58/91/91 16/90/90 15/92/92
f 59/93/93 58/91/91 15/92/92
f 59/93/93 15/92/92 14/94/94
f 60/95/95 59/93/93 14/94/94
f 60/95/95 14/94/94 13/96/96
f 61/97/97 60/95/95 13/96/96
f 62/98/98 61/97/97 13/96/96
f 62/98/98 13/96/96 12/99/99
f 62/98/98 12/99/99 11/100/100
f 63/101/101 62/98/98 11/100/100
f 63/101/101 11/100/100 10/102/102
f 64/103/103 63/101/101 10/102/102
f 64/103/103 10/102/102 9/104/104
f 65/105/105 64/103/103 9/104/104
f 65/105/105 9/104/104 181/106/106
f 181/106/106 9/104/104 8/107/107
f 66/108/108 65/105/105 181/106/106
f 66/108/108 181/106/106 180/109/109
f 182/110/110 181/106/106 8/107/107
f 66/108/108 180/109/109 179/111/111
f 183/112/112 182/110/110 8/107/107
f 66/108/108 179/111/111 178/113/113
f 184/114/114 183/112/112 8/107/107
f 184/114/114 8/107/107 7/115/115
f 67/116/116 66/108/108 178/113/113
f 67/116/116 178/113/113 177/117/117
f 185/118/118 184/114/114 7/115/115
f 67/116/116 177/117/117 176/119/119
f 186/120/120 185/118/118 7/115/115
f 186/120/120 7/115/115 6/121/121
f 68/122/122 67/116/116 176/119/119
f 68/122/122 176/119/119 175/123/123
f 187/124/124 186/120/120 6/121/121
f 68/122/122 175/123/123 174/125/125
f 188/126/126 187/124/124 6/121/121
f 69/127/127 68/122/122 174/125/125
f 188/126/126 6/121/121 5/128/128
f 69/127/127 174/125/125 173/129/129
f 189/130/130 188/126/126 5/128/128
f 70/131/131 69/127/127 173/129/129
f 189/130/130 5/128/128 4/132/132
f 70/131/131 173/129/129 172/133/133
f 190/134/134 189/130/130 4/132/132
f 70/131/131 172/133/133 171/135/135
f 71/136/136 70/131/131 171/135/135
f 191/137/137 190/134/134 4/132/132
f 191/137/137 4/132/132 3/138/138
f 71/136/136 171/135/135 170/139/139
f 192/140/140 191/137/137 3/138/138
f 72/141/141 71/136/136 170/139/139
f 192/140/140 3/138/138 2/142/142
f 72/141/141 170/139/139 169/143/143
f 145/144/144 192/140/140 2/142/142
f 73/145/145 72/141/141 169/143/143
f 145/144/144 2/142/142 1/146/146
f 73/145/145 169/143/143 168/147/147
f 146/148/148 145/144/144 1/146/146
f 74/149/149 73/145/145 168/147/147
f 146/148/148 1/146/146 96/150/150
f 147/151/151 146/148/148 96/150/150
f 74/149/149 168/147/147 167/152/152
f 148/153/153 147/151/151 96/150/150
f 74/149/149 167/152/152 166/154/154
f 75/155/155 74/149/149 166/154/154
f 148/153/153 96/150/150 95/156/156
f 149/157/157 148/153/153 95/156/156
f 75/155/155 166/154/154 165/158/158
f 150/159/159 149/157/157 95/156/156
f 75/155/155 165/158/158 164/160/160
f 76/161/161 75/155/155 164/160/160
f 150/159/159 95/156/156 94/162/162
f 151/163/163 150/159/159 94/162/162
f 76/161/161 164/160/160 163/164/164
f 152/165/165 151/163/163 94/162/162
f 76/161/161 163/164/164 162/166/166
f 77/167/167 76/161/161 162/166/166
f 152/165/165 94/162/162 93/168/168
f 153/169/169 152/165/165 93/168/168
f 77/167/167 162/166/166 161/170/170
f 154/171/171 153/169/169 93/168/168
f 77/167/167 161/170/170 160/172/172
f 155/173/173 154/171/171 93/168/168
f 77/167/167 160/172/172 159/174/174
f 156/175/175 155/173/173 93/168/168
f 77/167/167 159/174/174 158/176/176
f 78/177/177 77/167/167 158/176/176
f 156/175/175 93/168/168 92/178/178
f 157/179/179 156/175/175 92/178/178
f 78/177/177 158/176/176 157/179/179
f 78/177/177 157/179/179 92/178/178
f 79/180/180 78/177/177 92/178/178
f 79/180/180 92/178/178 91/181/181
f 80/182/182 79/180/180 91/181/181
f 80/182/182 91/181/181 90/183/183
f 81/184/184 80/182/182 90/183/183
f 81/184/184 90/183/183 89/185/185
f 82/186/186 81/184/184 89/185/185
f 82/186/186 89/185/185 88/187/187
f 83/188/188 82/186/186 88/187/187
f 83/188/188 88/187/187 87/189/189
f 84/190/190 83/188/188 87/189/189
f 84/190/190 87/189/189 86/191/191
f 85/192/192 84/190/190 86/191/191
f 194/1/193 195/3/194 193/2/195
f 196/4/196 195/3/194 194/1/193
f 196/4/196 197/5/197 195/3/194
f 198/6/198 197/5/197 196/4/196
f 198/6/198 199/7/199 197/5/197
f 200/8/200 199/7/199 198/6/198
f 200/8/200 201/9/201 199/7/199
f 202/10/202 201/9/201 200/8/200
f 202/10/202 203/11/203 201/9/201
f 204/12/204 203/11/203 202/10/202
f 204/12/204 205/13/205 203/11/203
f 206/14/206 205/13/205 204/12/204
f 206/14/206 207/15/207 205/13/205
f 208/16/208 207/15/207 206/14/206
f 208/16/208 209/17/209 207/15/207
f 209/17/209 210/18/210 207/15/207
f 208/16/208 211/19/211 209/17/209
f 212/20/212 210/18/210 209/17/209
f 208/16/208 213/21/213 211/19/211
f 214/22/214 210/18/210 212/20/212
f 215/23/215 213/21/213 208/16/208
f 215/23/215 216/24/216 213/21/213
f 214/22/214 217/25/217 210/18/210
f 218/26/218 217/25/217 214/22/214
f 215/23/215 219/27/219 216/24/216
f 220/28/220 217/25/217 218/26/218
f 215/23/215 221/29/221 219/27/219
f 222/30/222 217/25/217 220/28/220
f 215/23/215 223/31/223 221/29/221
f 224/32/224 217/25/217 222/30/222
f 225/33/225 223/31/223 215/23/215
f 224/32/224 226/34/226 217/25/217
f 225/33/225 227/35/227 223/31/223
f 228/36/228 226/34/226 224/32/224
f 225/33/225 229/37/229 227/35/227
f 230/38/230 226/34/226 228/36/228
f 225/33/225 231/39/231 229/37/229
f 232/40/232 231/39/231 225/33/225
f 233/41/233 226/34/226 230/38/230
f 233/41/233 234/42/234 226/34/226
f 232/40/232 235/43/235 231/39/231
f 236/44/236 234/42/234 233/41/233
f 232/40/232 237/45/237 235/43/235
f 238/46/238 234/42/234 236/44/236
f 239/47/239 237/45/237 232/40/232
f 238/46/238 240/48/240 234/42/234
f 239/47/239 241/49/241 237/45/237
f 242/50/242 240/48/240 238/46/238
f 239/47/239 243/51/243 241/49/241
f 244/52/244 243/51/243 239/47/239
f 245/53/245 240/48/240 242/50/242
f 245/53/245 246/54/246 240/48/240
f 244/52/244 247/55/247 243/51/243
f 248/56/248 246/54/246 245/53/245
f 249/57/249 247/55/247 244/52/244
f 248/56/248 250/58/250 246/54/246
f 249/57/249 251/59/251 247/55/247
f 252/60/252 250/58/250 248/56/248
f 252/60/252 253/61/253 250/58/250
f 254/62/254 251/59/251 249/57/249
f 254/62/254 255/63/255 251/59/251
f 256/64/256 253/61/253 252/60/252
f 256/64/256 257/65/257 253/61/253
f 258/66/258 255/63/255 254/62/254
f 258/66/258 259/67/259 255/63/255
f 260/68/260 257/65/257 256/64/256
f 260/68/260 261/69/261 257/65/257
f 262/70/262 259/67/259 258/66/258
f 262/70/262 263/71/263 259/67/259
f 264/72/264 261/69/261 260/68/260
f 264/72/264 265/73/265 261/69/261
f 266/74/266 263/71/263 262/70/262
f 266/74/266 267/75/267 263/71/263
f 268/76/268 265/73/265 264/72/264
f 268/76/268 269/77/269 265/73/265
f 266/74/266 270/78/270 267/75/267
f 271/79/271 269/77/269 268/76/268
f 272/80/272 270/78/270 266/74/266
f 272/80/272 273/81/273 270/78/270
f 274/82/274 269/77/269 271/79/271
f 274/82/274 275/83/275 269/77/269
f 276/84/276 273/81/273 272/80/272
f 276/84/276 277/85/277 273/81/273
f 278/86/278 275/83/275 274/82/274
f 276/84/276 279/87/279 277/85/277
f 280/88/280 275/83/275 278/86/278
f 276/84/276 281/89/281 279/87/279
f 281/89/281 275/83/275 280/88/280
f 276/84/276 275/83/275 281/89/281
f 276/84/276 282/90/282 275/83/275
f 283/91/283 282/90/282 276/84/276
f 283/91/283 284/92/284 282/90/282
f 285/93/285 284/92/284 283/91/283
f 285/93/285 286/94/286 284/92/284
f 287/95/287 286/94/286 285/93/285
f 287/95/287 288/96/288 286/94/286
f 289/97/289 288/96/288 287/95/287
f 290/98/290 288/96/288 289/97/289
f 290/98/290 291/99/291 288/96/288
f 290/98/290 292/100/292 291/99/291
f 293/101/293 292/100/292 290/98/290
f 293/101/293 294/102/294 292/100/292
f 295/103/295 294/102/294 293/101/293
f 295/103/295 296/104/296 294/102/294
f 297/105/297 296/104/296 295/103/295
f 297/105/297 298/106/298 296/104/296
f 298/106/298 299/107/299 296/104/296
f 300/108/300 298/106/298 297/105/297
f 300/108/300 301/109/301 298/106/298
f 302/110/302 299/107/299 298/106/298
f 300/108/300 303/111/303 301/109/301
f 304/112/304 299/107/299 302/110/302
f 300/108/300 305/113/305 303/111/303
f 306/114/306 299/107/299 304/112/304
f 306/114/306 307/115/307 299/107/299
f 308/116/308 305/113/305 300/108/300
f 308/116/308 309/117/309 305/113/305
f 310/118/310 307/115/307 306/114/306
f 308/116/308 311/119/311 309/117/309
f 312/120/312 307/115/307 310/118/310
f 312/120/312 313/121/313 307/115/307
f 314/122/314 311/119/311 308/116/308
f 314/122/314 315/123/315 311/119/311
f 316/124/316 313/121/313 312/120/312
f 314/122/314 317/125/317 315/123/315
f 318/126/318 313/121/313 316/124/316
f 319/127/319 317/125/317 314/122/314
f 318/126/318 320/128/320 313/121/313
f 319/127/319 321/129/321 317/125/317
f 322/130/322 320/128/320 318/126/318
f 323/131/323 321/129/321 319/127/319
f 322/130/322 324/132/324 320/128/320
f 323/131/323 325/133/325 321/129/321
f 326/134/326 324/132/324 322/130/322
f 323/131/323 327/135/327 325/133/325
f 328/136/328 327/135/327 323/131/323
f 329/137/329 324/132/324 326/134/326
f 329/137/329 330/138/330 324/132/324
f 328/136/328 331/139/331 327/135/327
f 332/140/332 330/138/330 329/137/329
f 333/141/333 331/139/331 328/136/328
f 332/140/332 334/142/334 330/138/330
f 333/141/333 335/143/335 331/139/331
f 336/144/336 334/142/334 332/140/332
f 337/145/337 335/143/335 333/141/333
f 336/144/336 338/146/338 334/142/334
f 337/145/337 339/147/339 335/143/335
f 340/148/340 338/146/338 336/144/336
f 341/149/341 339/147/339 337/145/337
f 340/148/340 342/150/342 338/146/338
f 343/151/343 342/150/342 340/148/340
f 341/149/341 344/152/344 339/147/339
f 345/153/345 342/150/342 343/151/343
f 341/149/341 346/154/346 344/152/344
f 347/155/347 346/154/346 341/149/341
f 345/153/345 348/156/348 342/150/342
f 349/157/349 348/156/348 345/153/345
f 347/155/347 350/158/350 346/154/346
f 351/159/351 348/156/348 349/157/349
f 347/155/347 352/160/352 350/158/350
f 353/161/353 352/160/352 347/155/347
f 351/159/351 354/162/354 348/156/348
f 355/163/355 354/162/354 351/159/351
f 353/161/353 356/164/356 352/160/352
f 357/165/357 354/162/354 355/163/355
f 353/161/353 358/166/358 356/164/356
f 359/167/359 358/166/358 353/161/353
f 357/165/357 360/168/360 354/162/354
f 361/169/361 360/168/360 357/165/357
f 359/167/359 362/170/362 358/166/358
f 363/171/363 360/168/360 361/169/361
f 359/167/359 364/172/364 362/170/362
f 365/173/365 360/168/360 363/171/363
f 359/167/359 366/174/366 364/172/364
f 367/175/367 360/168/360 365/173/365
f 359/167/359 368/176/368 366/174/366
f 369/177/369 368/176/368 359/167/359
f 367/175/367 370/178/370 360/168/360
f 371/179/371 370/178/370 367/175/367
f 369/177/369 371/179/371 368/176/368
f 369/177/369 370/178/370 371/179/371
f 372/180/372 370/178/370 369/177/369
f 372/180/372 373/181/373 370/178/370
f 374/182/374 373/181/373 372/180/372
f 374/182/374 375/183/375 373/181/373
f 376/184/376 375/183/375 374/182/374
f 376/184/376 377/185/377 375/183/375
f 378/186/378 377/185/377 376/184/376
f 378/186/378 379/187/379 377/185/377
f 380/188/380 379/187/379 378/186/378
f 380/188/380 381/189/381 379/187/379
f 382/190/382 381/189/381 380/188/380
f 382/190/382 383/191/383 381/189/381
f 384/192/384 383/191/383 382/190/382
f 57/84/84 58/91/91 283/91/283 276/84/276
f 2/142/142 3/138/138 330/138/330 334/142/334
f 30/15/15 31/13/13 205/13/205 207/15/207
f 85/192/192 86/191/191 383/191/383 384/192/384
f 93/168/168 94/162/162 354/162/354 360/168/360
f 44/14/14 45/16/16 208/16/208 206/14/206
f 116/67/67 117/63/63 255/63/255 259/67/259
f 177/117/117 178/113/113 305/113/305 309/117/309
f 152/165/165 153/169/169 361/169/361 357/165/357
f 169/143/143 170/139/139 331/139/331 335/143/335
f 101/64/64 102/68/68 260/68/260 256/64/256
f 184/114/114 185/118/118 310/118/310 306/114/306
f 26/42/42 27/34/34 226/34/226 234/42/234
f 15/92/92 16/90/90 282/90/282 284/92/284
f 192/140/140 145/144/144 336/144/336 332/140/332
f 58/91/91 59/93/93 285/93/285 283/91/283
f 161/170/170 162/166/166 358/166/358 362/170/362
f 123/43/43 124/39/39 231/39/231 235/43/235
f 72/141/141 73/145/145 337/145/337 333/141/333
f 20/69/69 21/65/65 257/65/257 261/69/261
f 176/119/119 177/117/117 309/117/309 311/119/311
f 153/169/169 154/171/171 363/171/363 361/169/361
f 142/41/41 143/44/44 236/44/236 233/41/233
f 29/18/18 30/15/15 207/15/207 210/18/210
f 53/66/66 54/70/70 262/70/262 258/66/258
f 185/118/118 186/120/120 312/120/312 310/118/310
f 14/94/94 15/92/92 284/92/284 286/94/286
f 59/93/93 60/95/95 287/95/287 285/93/285
f 1/146/146 2/142/142 334/142/334 338/146/338
f 132/19/19 133/17/17 209/17/209 211/19/211
f 160/172/172 161/170/170 362/170/362 364/172/364
f 122/45/45 123/43/43 235/43/235 237/45/237
f 133/17/17 134/20/20 212/20/212 209/17/209
f 115/71/71 116/67/67 259/67/259 263/71/263
f 6/121/121 7/115/115 307/115/307 313/121/313
f 154/171/171 155/173/173 365/173/365 363/171/363
f 143/44/44 144/46/46 238/46/238 236/44/236
f 168/147/147 169/143/143 335/143/335 339/147/339
f 102/68/68 103/72/72 264/72/264 260/68/260
f 67/116/116 68/122/122 314/122/314 308/116/308
f 13/96/96 14/94/94 286/94/286 288/96/288
f 145/144/144 146/148/148 340/148/340 336/144/336
f 48/40/40 49/47/47 239/47/239 232/40/232
f 60/95/95 61/97/97 289/97/289 287/95/287
f 131/21/21 132/19/19 211/19/211 213/21/213
f 159/174/174 160/172/172 364/172/364 366/174/366
f 73/145/145 74/149/149 341/149/341 337/145/337
f 134/20/20 135/22/22 214/22/214 212/20/212
f 19/73/73 20/69/69 261/69/261 265/73/265
f 175/123/123 176/119/119 311/119/311 315/123/315
f 155/173/173 156/175/175 367/175/367 365/173/365
f 61/97/97 62/98/98 290/98/290 289/97/289
f 54/70/70 55/74/74 266/74/266 262/70/262
f 186/120/120 187/124/124 316/124/316 312/120/312
f 25/48/48 26/42/42 234/42/234 240/48/240
f 45/16/16 46/23/23 215/23/215 208/16/208
f 96/150/150 1/146/146 338/146/338 342/150/342
f 158/176/176 159/174/174 366/174/366 368/176/368
f 121/49/49 122/45/45 237/45/237 241/49/241
f 12/99/99 13/96/96 288/96/288 291/99/291
f 146/148/148 147/151/151 343/151/343 340/148/340
f 114/75/75 115/71/71 263/71/263 267/75/267
f 174/125/125 175/123/123 315/123/315 317/125/317
f 77/167/167 78/177/177 369/177/369 359/167/359
f 144/46/46 97/50/50 242/50/242 238/46/238
f 130/24/24 131/21/21 213/21/213 216/24/216
f 103/72/72 104/76/76 268/76/268 264/72/264
f 187/124/124 188/126/126 318/126/318 316/124/316
f 11/100/100 12/99/99 291/99/291 292/100/292
f 62/98/98 63/101/101 293/101/293 290/98/290
f 167/152/152 168/147/147 339/147/339 344/152/344
f 28/25/25 29/18/18 210/18/210 217/25/217
f 68/122/122 69/127/127 319/127/319 314/122/314
f 92/178/178 93/168/168 360/168/360 370/178/370
f 120/51/51 121/49/49 241/49/241 243/51/243
f 147/151/151 148/153/153 345/153/345 343/151/343
f 135/22/22 136/26/26 218/26/218 214/22/214
f 18/77/77 19/73/73 265/73/265 269/77/269
f 156/175/175 157/179/179 371/179/371 367/175/367
f 49/47/47 50/52/52 244/52/244 239/47/239
f 10/102/102 11/100/100 292/100/292 294/102/294
f 113/78/78 114/75/75 267/75/267 270/78/270
f 5/128/128 6/121/121 313/121/313 320/128/320
f 97/50/50 98/53/53 245/53/245 242/50/242
f 63/101/101 64/103/103 295/103/295 293/101/293
f 166/154/154 167/152/152 344/152/344 346/154/346
f 129/27/27 130/24/24 216/24/216 219/27/219
f 104/76/76 105/79/79 271/79/271 268/76/268
f 157/179/179 158/176/176 368/176/368 371/179/371
f 74/149/149 75/155/155 347/155/347 341/149/341
f 136/26/26 137/28/28 220/28/220 218/26/218
f 173/129/129 174/125/125 317/125/317 321/129/321
f 37/2/2 38/1/1 194/1/193 193/2/195
f 55/74/74 56/80/80 272/80/272 266/74/266
f 188/126/126 189/130/130 322/130/322 318/126/318
f 78/177/177 79/180/180 372/180/372 369/177/369
f 24/54/54 25/48/48 240/48/240 246/54/246
f 9/104/104 10/102/102 294/102/294 296/104/296
f 36/3/3 37/2/2 193/2/195 195/3/194
f 64/103/103 65/105/105 297/105/297 295/103/295
f 95/156/156 96/150/150 342/150/342 348/156/348
f 128/29/29 129/27/27 219/27/219 221/29/221
f 69/127/127 70/131/131 323/131/323 319/127/319
f 38/1/1 39/4/4 196/4/196 194/1/193
f 119/55/55 120/51/51 243/51/243 247/55/247
f 148/153/153 149/157/157 349/157/349 345/153/345
f 137/28/28 138/30/30 222/30/222 220/28/220
f 112/81/81 113/78/78 270/78/270 273/81/273
f 91/181/181 92/178/178 370/178/370 373/181/373
f 98/53/53 99/56/56 248/56/248 245/53/245
f 105/79/79 106/82/82 274/82/274 271/79/271
f 79/180/180 80/182/182 374/182/374 372/180/372
f 4/132/132 5/128/128 320/128/320 324/132/324
f 35/5/5 36/3/3 195/3/194 197/5/197
f 50/52/52 51/57/57 249/57/249 244/52/244
f 165/158/158 166/154/154 346/154/346 350/158/350
f 127/31/31 128/29/29 221/29/221 223/31/223
f 39/4/4 40/6/6 198/6/198 196/4/196
f 8/107/107 9/104/104 296/104/296 299/107/299
f 149/157/157 150/159/159 351/159/351 349/157/349
f 138/30/30 139/32/32 224/32/224 222/30/222
f 17/83/83 18/77/77 269/77/269 275/83/275
f 172/133/133 173/129/129 321/129/321 325/133/325
f 90/183/183 91/181/181 373/181/373 375/183/375
f 65/105/105 66/108/108 300/108/300 297/105/297
f 56/80/80 57/84/84 276/84/276 272/80/272
f 189/130/130 190/134/134 326/134/326 322/130/322
f 80/182/182 81/184/184 376/184/376 374/182/374
f 23/58/58 24/54/54 246/54/246 250/58/250
f 46/23/23 47/33/33 225/33/225 215/23/215
f 34/7/7 35/5/5 197/5/197 199/7/199
f 164/160/160 165/158/158 350/158/350 352/160/352
f 40/6/6 41/8/8 200/8/200 198/6/198
f 118/59/59 119/55/55 247/55/247 251/59/251
f 180/109/109 181/106/106 298/106/298 301/109/301
f 75/155/155 76/161/161 353/161/353 347/155/347
f 111/85/85 112/81/81 273/81/273 277/85/277
f 171/135/135 172/133/133 325/133/325 327/135/327
f 89/185/185 90/183/183 375/183/375 377/185/377
f 99/56/56 100/60/60 252/60/252 248/56/248
f 181/106/106 182/110/110 302/110/302 298/106/298
f 27/34/34 28/25/25 217/25/217 226/34/226
f 106/82/82 107/86/86 278/86/278 274/82/274
f 70/131/131 71/136/136 328/136/328 323/131/323
f 81/184/184 82/186/186 378/186/378 376/184/376
f 33/9/9 34/7/7 199/7/199 201/9/201
f 94/162/162 95/156/156 348/156/348 354/162/354
f 126/35/35 127/31/31 223/31/223 227/35/227
f 190/134/134 191/137/137 329/137/329 326/134/326
f 41/8/8 42/10/10 202/10/202 200/8/200
f 22/61/61 23/58/58 250/58/250 253/61/253
f 179/111/111 180/109/109 301/109/301 303/111/303
f 150/159/159 151/163/163 355/163/355 351/159/351
f 139/32/32 140/36/36 228/36/228 224/32/224
f 110/87/87 111/85/85 277/85/277 279/87/279
f 88/187/187 89/185/185 377/185/377 379/187/379
f 51/57/57 52/62/62 254/62/254 249/57/249
f 182/110/110 183/112/112 304/112/304 302/110/302
f 107/86/86 108/88/88 280/88/280 278/86/278
f 82/186/186 83/188/188 380/188/380 378/186/378
f 3/138/138 4/132/132 324/132/324 330/138/330
f 32/11/11 33/9/9 201/9/201 203/11/203
f 163/164/164 164/160/160 352/160/352 356/164/356
f 125/37/37 126/35/35 227/35/227 229/37/229
f 42/10/10 43/12/12 204/12/204 202/10/202
f 117/63/63 118/59/59 251/59/251 255/63/255
f 178/113/113 179/111/111 303/111/303 305/113/305
f 151/163/163 152/165/165 357/165/357 355/163/355
f 140/36/36 141/38/38 230/38/230 228/36/228
f 109/89/89 110/87/87 279/87/279 281/89/281
f 170/139/139 171/135/135 327/135/327 331/139/331
f 87/189/189 88/187/187 379/187/379 381/189/381
f 100/60/60 101/64/64 256/64/256 252/60/252
f 183/112/112 184/114/114 306/114/306 304/112/304
f 108/88/88 109/89/89 281/89/281 280/88/280
f 191/137/137 192/140/140 332/140/332 329/137/329
f 83/188/188 84/190/190 382/190/382 380/188/380
f 31/13/13 32/11/11 203/11/203 205/13/205
f 162/166/166 163/164/164 356/164/356 358/166/358
f 124/39/39 125/37/37 229/37/229 231/39/231
f 71/136/136 72/141/141 333/141/333 328/136/328
f 43/12/12 44/14/14 206/14/206 204/12/204
f 21/65/65 22/61/61 253/61/253 257/65/257
f 7/115/115 8/107/107 299/107/299 307/115/307
f 76/161/161 77/167/167 359/167/359 353/161/353
f 47/33/33 48/40/40 232/40/232 225/33/225
f 86/191/191 87/189/189 381/189/381 383/191/383
f 52/62/62 53/66/66 258/66/258 254/62/254
f 66/108/108 67/116/116 308/116/308 300/108/300
f 16/90/90 17/83/83 275/83/275 282/90/282
f 84/190/190 85/192/192 384/192/384 382/190/382
f 141/38/38 142/41/41 233/41/233 230/38/230
