# Blender 4.4.1
# www.blender.org
mtllib rankD.mtl
o テキスト.001
v -0.265799 -0.326021 0.000000
v 0.000201 -0.326021 0.000000
v 0.054589 -0.322653 0.000000
v 0.105141 -0.312914 0.000000
v 0.151685 -0.297349 0.000000
v 0.194053 -0.276502 0.000000
v 0.232073 -0.250919 0.000000
v 0.265576 -0.221146 0.000000
v 0.294391 -0.187726 0.000000
v 0.318349 -0.151206 0.000000
v 0.337279 -0.112130 0.000000
v 0.351011 -0.071044 0.000000
v 0.359375 -0.028492 0.000000
v 0.362201 0.014980 0.000000
v 0.359871 0.055510 0.000000
v 0.352812 0.096142 0.000000
v 0.340920 0.136183 0.000000
v 0.324090 0.174942 0.000000
v 0.302218 0.211730 0.000000
v 0.275201 0.245855 0.000000
v 0.242933 0.276625 0.000000
v 0.205312 0.303350 0.000000
v 0.162232 0.325339 0.000000
v 0.113590 0.341901 0.000000
v 0.059281 0.352345 0.000000
v -0.000799 0.355980 0.000000
v -0.265799 0.355980 0.000000
v -0.167799 0.267980 0.000000
v -0.016799 0.267980 0.000000
v 0.028794 0.265618 0.000000
v 0.070113 0.258753 0.000000
v 0.107216 0.247714 0.000000
v 0.140164 0.232831 0.000000
v 0.169014 0.214435 0.000000
v 0.193826 0.192854 0.000000
v 0.214659 0.168420 0.000000
v 0.231571 0.141461 0.000000
v 0.244623 0.112308 0.000000
v 0.253872 0.081290 0.000000
v 0.259379 0.048737 0.000000
v 0.261201 0.014980 0.000000
v 0.260069 -0.007644 0.000000
v 0.256395 -0.032928 0.000000
v 0.249763 -0.059989 0.000000
v 0.239756 -0.087946 0.000000
v 0.225958 -0.115917 0.000000
v 0.207951 -0.143020 0.000000
v 0.185319 -0.168373 0.000000
v 0.157645 -0.191095 0.000000
v 0.124513 -0.210302 0.000000
v 0.085506 -0.225113 0.000000
v 0.040208 -0.234647 0.000000
v -0.011799 -0.238021 0.000000
v -0.167799 -0.238021 0.000000
vn -0.0000 -0.0000 1.0000
vt 0.000000 0.000000
vt 0.509434 0.000000
vt 0.490566 0.000000
vt 0.471698 0.000000
vt 0.452830 0.000000
vt 0.433962 0.000000
vt 0.415094 0.000000
vt 0.396226 0.000000
vt 0.377358 0.000000
vt 0.528302 0.000000
vt 0.547170 0.000000
vt 0.358491 0.000000
vt 1.000000 0.000000
vt 0.566038 0.000000
vt 0.584906 0.000000
vt 0.603774 0.000000
vt 0.339623 0.000000
vt 0.622642 0.000000
vt 0.641509 0.000000
vt 0.320755 0.000000
vt 0.660377 0.000000
vt 0.301887 0.000000
vt 0.679245 0.000000
vt 0.698113 0.000000
vt 0.283019 0.000000
vt 0.716981 0.000000
vt 0.264151 0.000000
vt 0.735849 0.000000
vt 0.245283 0.000000
vt 0.754717 0.000000
vt 0.773585 0.000000
vt 0.226415 0.000000
vt 0.792453 0.000000
vt 0.207547 0.000000
vt 0.811321 0.000000
vt 0.830189 0.000000
vt 0.188679 0.000000
vt 0.849057 0.000000
vt 0.169811 0.000000
vt 0.867925 0.000000
vt 0.886792 0.000000
vt 0.150943 0.000000
vt 0.905660 0.000000
vt 0.132075 0.000000
vt 0.924528 0.000000
vt 0.943396 0.000000
vt 0.113208 0.000000
vt 0.962264 0.000000
vt 0.981132 0.000000
vt 0.094340 0.000000
vt 0.075472 0.000000
vt 0.056604 0.000000
vt 0.037736 0.000000
vt 0.018868 0.000000
s 0
f 1/1/1 28/2/1 27/3/1
f 28/2/1 26/4/1 27/3/1
f 28/2/1 25/5/1 26/4/1
f 28/2/1 24/6/1 25/5/1
f 28/2/1 23/7/1 24/6/1
f 28/2/1 22/8/1 23/7/1
f 28/2/1 21/9/1 22/8/1
f 28/2/1 29/10/1 21/9/1
f 29/10/1 30/11/1 21/9/1
f 30/11/1 20/12/1 21/9/1
f 1/1/1 54/13/1 28/2/1
f 31/14/1 20/12/1 30/11/1
f 32/15/1 20/12/1 31/14/1
f 33/16/1 20/12/1 32/15/1
f 33/16/1 19/17/1 20/12/1
f 34/18/1 19/17/1 33/16/1
f 35/19/1 19/17/1 34/18/1
f 35/19/1 18/20/1 19/17/1
f 36/21/1 18/20/1 35/19/1
f 36/21/1 17/22/1 18/20/1
f 37/23/1 17/22/1 36/21/1
f 38/24/1 17/22/1 37/23/1
f 38/24/1 16/25/1 17/22/1
f 39/26/1 16/25/1 38/24/1
f 39/26/1 15/27/1 16/25/1
f 40/28/1 15/27/1 39/26/1
f 40/28/1 14/29/1 15/27/1
f 41/30/1 14/29/1 40/28/1
f 42/31/1 14/29/1 41/30/1
f 42/31/1 13/32/1 14/29/1
f 43/33/1 13/32/1 42/31/1
f 43/33/1 12/34/1 13/32/1
f 44/35/1 12/34/1 43/33/1
f 45/36/1 12/34/1 44/35/1
f 45/36/1 11/37/1 12/34/1
f 46/38/1 11/37/1 45/36/1
f 46/38/1 10/39/1 11/37/1
f 47/40/1 10/39/1 46/38/1
f 48/41/1 10/39/1 47/40/1
f 48/41/1 9/42/1 10/39/1
f 49/43/1 9/42/1 48/41/1
f 49/43/1 8/44/1 9/42/1
f 50/45/1 8/44/1 49/43/1
f 51/46/1 8/44/1 50/45/1
f 51/46/1 7/47/1 8/44/1
f 52/48/1 7/47/1 51/46/1
f 53/49/1 7/47/1 52/48/1
f 1/1/1 53/49/1 54/13/1
f 1/1/1 7/47/1 53/49/1
f 1/1/1 6/50/1 7/47/1
f 1/1/1 5/51/1 6/50/1
f 1/1/1 4/52/1 5/51/1
f 1/1/1 3/53/1 4/52/1
f 1/1/1 2/54/1 3/53/1
