# Blender 4.4.1
# www.blender.org
mtllib hpbar.mtl
o Cube.001
v 3.029831 1.000000 -0.114906
v 3.029831 -1.000000 -0.114906
v 3.029831 1.000000 0.114906
v 3.029831 -1.000000 0.114906
v -3.029831 1.000000 -0.114906
v -3.029831 -1.000000 -0.114906
v -3.029831 1.000000 0.114906
v -3.029831 -1.000000 0.114906
v 3.029831 -0.000000 -0.114906
v -3.029831 0.000000 0.114906
v 3.029831 0.000000 0.114906
v -3.029831 -0.000000 -0.114906
v 0.000000 -1.000000 -0.114906
v 0.000000 1.000000 0.114906
v 0.000000 -1.000000 0.114906
v 0.000000 1.000000 -0.114906
v -1.514916 -1.000000 -0.114906
v -1.514916 1.000000 0.114906
v -1.514916 -1.000000 0.114906
v -1.514916 1.000000 -0.114906
v 1.514916 -1.000000 0.114906
v 1.514916 1.000000 -0.114906
v 1.514916 -1.000000 -0.114906
v 1.514916 1.000000 0.114906
v -2.272373 -1.000000 -0.114906
v -2.272373 1.000000 0.114906
v -2.272373 -1.000000 0.114906
v -2.272373 1.000000 -0.114906
v 2.272373 -1.000000 0.114906
v 2.272373 1.000000 -0.114906
v 2.272373 -1.000000 -0.114906
v 2.272373 1.000000 0.114906
v 3.029831 -0.500000 -0.114906
v 3.029831 -0.500000 0.114906
v -3.029831 -0.500000 -0.114906
v -3.029831 -0.500000 0.114906
v 0.000000 -0.500000 0.114906
v 0.000000 -0.500000 -0.114906
v -1.514916 -0.500000 -0.114906
v -1.514916 -0.500000 0.114906
v 1.514916 -0.500000 0.114906
v 1.514916 -0.500000 -0.114906
v -2.272373 -0.500000 -0.114906
v -2.272373 -0.500000 0.114906
v 2.272373 -0.500000 0.114906
v 2.272373 -0.500000 -0.114906
v -3.029831 0.500000 0.114906
v 3.029831 0.500000 -0.114906
v 3.029831 0.500000 0.114906
v -3.029831 0.500000 -0.114906
v 0.000000 0.500000 -0.114906
v 0.000000 0.500000 0.114906
v -1.514916 0.500000 -0.114906
v -1.514916 0.500000 0.114906
v 1.514916 0.500000 0.114906
v 1.514916 0.500000 -0.114906
v -2.272373 0.500000 -0.114906
v -2.272373 0.500000 0.114906
v 2.272373 0.500000 0.114906
v 2.272373 0.500000 -0.114906
v -1.893644 -1.000000 0.114906
v -1.893644 1.000000 -0.114906
v -1.893644 -1.000000 -0.114906
v -1.893644 1.000000 0.114906
v -1.893644 -0.500000 0.114906
v -1.893644 -0.500000 -0.114906
v -1.893644 0.500000 0.114906
v -1.893644 0.500000 -0.114906
v -2.651102 -1.000000 -0.114906
v -2.651102 1.000000 0.114906
v -2.651102 0.000000 0.114906
v -2.651102 -1.000000 0.114906
v -2.651102 1.000000 -0.114906
v -2.651102 -0.000000 -0.114906
v -2.651102 -0.500000 -0.114906
v -2.651102 -0.500000 0.114906
v -2.651102 0.500000 -0.114906
v -2.651102 0.500000 0.114906
v 2.651102 -1.000000 0.114906
v 2.651102 1.000000 -0.114906
v 2.651102 -0.000000 -0.114906
v 2.651102 -1.000000 -0.114906
v 2.651102 1.000000 0.114906
v 2.651102 0.000000 0.114906
v 2.651102 -0.500000 0.114906
v 2.651102 -0.500000 -0.114906
v 2.651102 0.500000 0.114906
v 2.651102 0.500000 -0.114906
vn -0.0000 1.0000 -0.0000
vn -0.0000 -0.0000 1.0000
vn -1.0000 -0.0000 -0.0000
vn -0.0000 -1.0000 -0.0000
vn 1.0000 -0.0000 -0.0000
vn -0.0000 -0.0000 -1.0000
vt 0.859375 0.500000
vt 0.875000 0.500000
vt 0.875000 0.750000
vt 0.859375 0.750000
vt 0.562500 0.984375
vt 0.625000 0.984375
vt 0.625000 1.000000
vt 0.562500 1.000000
vt 0.562500 0.000000
vt 0.625000 0.000000
vt 0.625000 0.250000
vt 0.562500 0.250000
vt 0.359375 0.500000
vt 0.375000 0.500000
vt 0.375000 0.750000
vt 0.359375 0.750000
vt 0.562500 0.500000
vt 0.625000 0.500000
vt 0.625000 0.750000
vt 0.562500 0.750000
vt 0.562500 0.484375
vt 0.625000 0.484375
vt 0.437500 0.484375
vt 0.500000 0.484375
vt 0.500000 0.500000
vt 0.437500 0.500000
vt 0.500000 0.750000
vt 0.437500 0.750000
vt 0.437500 0.000000
vt 0.500000 0.000000
vt 0.500000 0.250000
vt 0.437500 0.250000
vt 0.437500 0.984375
vt 0.500000 0.984375
vt 0.500000 1.000000
vt 0.437500 1.000000
vt 0.562500 0.312500
vt 0.625000 0.312500
vt 0.625000 0.375000
vt 0.562500 0.375000
vt 0.187500 0.500000
vt 0.250000 0.500000
vt 0.250000 0.750000
vt 0.187500 0.750000
vt 0.562500 0.812500
vt 0.625000 0.812500
vt 0.625000 0.875000
vt 0.562500 0.875000
vt 0.687500 0.500000
vt 0.750000 0.500000
vt 0.750000 0.750000
vt 0.687500 0.750000
vt 0.171875 0.500000
vt 0.171875 0.750000
vt 0.562500 0.296875
vt 0.625000 0.296875
vt 0.625000 0.937500
vt 0.562500 0.937500
vt 0.812500 0.500000
vt 0.812500 0.750000
vt 0.656250 0.500000
vt 0.656250 0.750000
vt 0.562500 0.781250
vt 0.625000 0.781250
vt 0.625000 0.437500
vt 0.562500 0.437500
vt 0.312500 0.500000
vt 0.312500 0.750000
vt 0.562500 0.265625
vt 0.625000 0.265625
vt 0.625000 0.281250
vt 0.562500 0.281250
vt 0.140625 0.500000
vt 0.156250 0.500000
vt 0.156250 0.750000
vt 0.140625 0.750000
vt 0.562500 0.953125
vt 0.625000 0.953125
vt 0.625000 0.968750
vt 0.562500 0.968750
vt 0.828125 0.500000
vt 0.843750 0.500000
vt 0.843750 0.750000
vt 0.828125 0.750000
vt 0.562500 0.765625
vt 0.625000 0.765625
vt 0.640625 0.500000
vt 0.640625 0.750000
vt 0.625000 0.468750
vt 0.562500 0.468750
vt 0.343750 0.500000
vt 0.343750 0.750000
vt 0.375000 0.437500
vt 0.437500 0.437500
vt 0.437500 0.468750
vt 0.375000 0.468750
vt 0.375000 0.765625
vt 0.437500 0.765625
vt 0.437500 0.781250
vt 0.375000 0.781250
vt 0.375000 0.953125
vt 0.437500 0.953125
vt 0.437500 0.968750
vt 0.375000 0.968750
vt 0.375000 0.265625
vt 0.437500 0.265625
vt 0.437500 0.281250
vt 0.375000 0.281250
vt 0.375000 0.375000
vt 0.437500 0.375000
vt 0.437500 0.812500
vt 0.375000 0.812500
vt 0.375000 0.875000
vt 0.437500 0.875000
vt 0.437500 0.937500
vt 0.375000 0.937500
vt 0.375000 0.296875
vt 0.437500 0.296875
vt 0.437500 0.312500
vt 0.375000 0.312500
vt 0.375000 0.984375
vt 0.375000 1.000000
vt 0.375000 0.000000
vt 0.375000 0.250000
vt 0.375000 0.484375
vt 0.500000 0.265625
vt 0.125000 0.500000
vt 0.125000 0.750000
vt 0.500000 0.765625
s 1
usemtl Material.001
f 73/1/1 5/2/1 7/3/1 70/4/1
f 78/5/2 70/6/2 7/7/2 47/8/2
f 47/9/3 7/10/3 5/11/3 50/12/3
f 82/13/4 2/14/4 4/15/4 79/16/4
f 48/17/5 1/18/5 3/19/5 49/20/5
f 88/21/6 80/22/6 1/18/6 48/17/6
f 86/23/6 81/24/6 9/25/6 33/26/6
f 33/26/5 9/25/5 11/27/5 34/28/5
f 36/29/3 10/30/3 12/31/3 35/32/3
f 76/33/2 71/34/2 10/35/2 36/36/2
f 53/37/6 20/38/6 16/39/6 51/40/6
f 17/41/4 13/42/4 15/43/4 19/44/4
f 55/45/2 24/46/2 14/47/2 52/48/2
f 22/49/1 16/50/1 14/51/1 24/52/1
f 63/53/4 17/41/4 19/44/4 61/54/4
f 68/55/6 62/56/6 20/38/6 53/37/6
f 52/48/2 14/47/2 18/57/2 54/58/2
f 16/50/1 20/59/1 18/60/1 14/51/1
f 30/61/1 22/49/1 24/52/1 32/62/1
f 59/63/2 32/64/2 24/46/2 55/45/2
f 51/40/6 16/39/6 22/65/6 56/66/6
f 13/42/4 23/67/4 21/68/4 15/43/4
f 77/69/6 73/70/6 28/71/6 57/72/6
f 69/73/4 25/74/4 27/75/4 72/76/4
f 67/77/2 64/78/2 26/79/2 58/80/2
f 62/81/1 28/82/1 26/83/1 64/84/1
f 87/85/2 83/86/2 32/64/2 59/63/2
f 80/87/1 30/61/1 32/62/1 83/88/1
f 56/66/6 22/65/6 30/89/6 60/90/6
f 23/67/4 31/91/4 29/92/4 21/68/4
f 23/93/6 42/94/6 46/95/6 31/96/6
f 79/97/2 85/98/2 45/99/2 29/100/2
f 61/101/2 65/102/2 44/103/2 27/104/2
f 69/105/6 75/106/6 43/107/6 25/108/6
f 13/109/6 38/110/6 42/94/6 23/93/6
f 29/100/2 45/99/2 41/111/2 21/112/2
f 15/113/2 37/114/2 40/115/2 19/116/2
f 63/117/6 66/118/6 39/119/6 17/120/6
f 17/120/6 39/119/6 38/110/6 13/109/6
f 21/112/2 41/111/2 37/114/2 15/113/2
f 72/121/2 76/33/2 36/36/2 8/122/2
f 8/123/3 36/29/3 35/32/3 6/124/3
f 2/14/5 33/26/5 34/28/5 4/15/5
f 82/125/6 86/23/6 33/26/6 2/14/6
f 81/24/6 88/21/6 48/17/6 9/25/6
f 9/25/5 48/17/5 49/20/5 11/27/5
f 10/30/3 47/9/3 50/12/3 12/31/3
f 71/34/2 78/5/2 47/8/2 10/35/2
f 25/108/6 43/107/6 66/118/6 63/117/6
f 19/116/2 40/115/2 65/102/2 61/101/2
f 20/59/1 62/81/1 64/84/1 18/60/1
f 54/58/2 18/57/2 64/78/2 67/77/2
f 57/72/6 28/71/6 62/56/6 68/55/6
f 25/74/4 63/53/4 61/54/4 27/75/4
f 12/31/6 50/12/6 77/69/6 74/126/6
f 27/104/2 44/103/2 76/33/2 72/121/2
f 6/124/6 35/32/6 75/106/6 69/105/6
f 6/127/4 69/73/4 72/76/4 8/128/4
f 50/12/6 5/11/6 73/70/6 77/69/6
f 35/32/6 12/31/6 74/126/6 75/106/6
f 58/80/2 26/79/2 70/6/2 78/5/2
f 28/82/1 73/1/1 70/4/1 26/83/1
f 11/27/2 49/20/2 87/85/2 84/129/2
f 31/96/6 46/95/6 86/23/6 82/125/6
f 4/15/2 34/28/2 85/98/2 79/97/2
f 1/18/1 80/87/1 83/88/1 3/19/1
f 49/20/2 3/19/2 83/86/2 87/85/2
f 34/28/2 11/27/2 84/129/2 85/98/2
f 60/90/6 30/89/6 80/22/6 88/21/6
f 31/91/4 82/13/4 79/16/4 29/92/4
