# Blender 4.4.1
# www.blender.org
mtllib 6.mtl
o テキスト
v 0.000000 0.691000 -0.088861
v 0.000000 0.660466 -0.046307
v 0.000000 0.627977 -0.007181
v 0.000000 0.593703 0.028467
v 0.000000 0.557815 0.060583
v 0.000000 0.520482 0.089116
v 0.000000 0.481875 0.114014
v 0.000000 0.442164 0.135224
v 0.000000 0.401519 0.152694
v 0.000000 0.360109 0.166373
v 0.000000 0.318107 0.176208
v 0.000000 0.275680 0.182148
v 0.000000 0.233000 0.184139
v 0.000000 0.197988 0.182312
v 0.000000 0.165074 0.176940
v 0.000000 0.134438 0.168186
v 0.000000 0.106259 0.156213
v 0.000000 0.080720 0.141185
v 0.000000 0.058000 0.123264
v 0.000000 0.038280 0.102614
v 0.000000 0.021741 0.079398
v 0.000000 0.008563 0.053779
v 0.000000 -0.001074 0.025921
v 0.000000 -0.006988 -0.004013
v 0.000000 -0.009000 -0.035861
v 0.000000 -0.007106 -0.062714
v 0.000000 -0.001597 -0.088597
v 0.000000 0.007266 -0.113252
v 0.000000 0.019222 -0.136417
v 0.000000 0.034012 -0.157832
v 0.000000 0.051375 -0.177236
v 0.000000 0.071050 -0.194370
v 0.000000 0.092778 -0.208972
v 0.000000 0.116297 -0.220783
v 0.000000 0.141347 -0.229542
v 0.000000 0.167668 -0.234988
v 0.000000 0.195000 -0.236861
v 0.000000 0.222653 -0.235185
v 0.000000 0.248977 -0.230282
v 0.000000 0.273766 -0.222346
v 0.000000 0.296815 -0.211565
v 0.000000 0.317920 -0.198131
v 0.000000 0.336875 -0.182236
v 0.000000 0.353476 -0.164070
v 0.000000 0.367518 -0.143824
v 0.000000 0.378797 -0.121689
v 0.000000 0.387106 -0.097857
v 0.000000 0.392242 -0.072517
v 0.000000 0.394000 -0.045861
v 0.000000 0.393716 -0.034818
v 0.000000 0.392898 -0.024185
v 0.000000 0.391594 -0.013955
v 0.000000 0.389852 -0.004120
v 0.000000 0.387721 0.005325
v 0.000000 0.385250 0.014389
v 0.000000 0.382487 0.023078
v 0.000000 0.379482 0.031398
v 0.000000 0.376281 0.039358
v 0.000000 0.372935 0.046963
v 0.000000 0.369492 0.054221
v 0.000000 0.366000 0.061139
v 0.000000 0.389806 0.052978
v 0.000000 0.413616 0.042602
v 0.000000 0.437266 0.030170
v 0.000000 0.460593 0.015843
v 0.000000 0.483433 -0.000221
v 0.000000 0.505625 -0.017861
v 0.000000 0.527004 -0.036918
v 0.000000 0.547407 -0.057232
v 0.000000 0.566672 -0.078642
v 0.000000 0.584634 -0.100991
v 0.000000 0.601131 -0.124117
v 0.000000 0.616000 -0.147861
v 0.000000 0.265000 0.082139
v 0.000000 0.271590 0.071783
v 0.000000 0.277389 0.062125
v 0.000000 0.282438 0.053029
v 0.000000 0.286778 0.044361
v 0.000000 0.290451 0.035984
v 0.000000 0.293500 0.027764
v 0.000000 0.295965 0.019564
v 0.000000 0.297889 0.011250
v 0.000000 0.299313 0.002686
v 0.000000 0.300278 -0.006264
v 0.000000 0.300826 -0.015734
v 0.000000 0.301000 -0.025861
v 0.000000 0.300080 -0.041739
v 0.000000 0.297389 -0.056801
v 0.000000 0.293031 -0.070939
v 0.000000 0.287111 -0.084046
v 0.000000 0.279733 -0.096015
v 0.000000 0.271000 -0.106736
v 0.000000 0.261017 -0.116104
v 0.000000 0.249889 -0.124009
v 0.000000 0.237719 -0.130346
v 0.000000 0.224611 -0.135005
v 0.000000 0.210670 -0.137879
v 0.000000 0.196000 -0.138861
v 0.000000 0.179722 -0.137958
v 0.000000 0.164440 -0.135301
v 0.000000 0.150234 -0.130971
v 0.000000 0.137185 -0.125046
v 0.000000 0.125372 -0.117608
v 0.000000 0.114875 -0.108736
v 0.000000 0.105774 -0.098510
v 0.000000 0.098148 -0.087009
v 0.000000 0.092078 -0.074314
v 0.000000 0.087644 -0.060505
v 0.000000 0.084924 -0.045660
v 0.000000 0.084000 -0.029861
v 0.000000 0.085422 -0.012246
v 0.000000 0.089630 0.004893
v 0.000000 0.096531 0.021248
v 0.000000 0.106037 0.036509
v 0.000000 0.118057 0.050367
v 0.000000 0.132500 0.062514
v 0.000000 0.149277 0.072639
v 0.000000 0.168296 0.080435
v 0.000000 0.189469 0.085592
v 0.000000 0.212704 0.087801
v 0.000000 0.237911 0.086753
v 0.038162 0.691000 -0.088861
v 0.038162 0.660466 -0.046307
v 0.038162 0.616000 -0.147861
v 0.038162 0.627977 -0.007181
v 0.038162 0.593703 0.028467
v 0.038162 0.601131 -0.124117
v 0.038162 0.584634 -0.100991
v 0.038162 0.557815 0.060583
v 0.038162 0.566672 -0.078642
v 0.038162 0.547407 -0.057232
v 0.038162 0.520482 0.089116
v 0.038162 0.527004 -0.036918
v 0.038162 0.505625 -0.017861
v 0.038162 0.481875 0.114014
v 0.038162 0.483433 -0.000221
v 0.038162 0.460593 0.015843
v 0.038162 0.442164 0.135224
v 0.038162 0.437266 0.030170
v 0.038162 0.401519 0.152694
v 0.038162 0.413616 0.042602
v 0.038162 0.389806 0.052978
v 0.038162 0.360109 0.166373
v 0.038162 0.394000 -0.045861
v 0.038162 0.393716 -0.034818
v 0.038162 0.392242 -0.072517
v 0.038162 0.392898 -0.024185
v 0.038162 0.391594 -0.013955
v 0.038162 0.387106 -0.097857
v 0.038162 0.389852 -0.004120
v 0.038162 0.387721 0.005325
v 0.038162 0.366000 0.061139
v 0.038162 0.385250 0.014389
v 0.038162 0.378797 -0.121689
v 0.038162 0.382487 0.023078
v 0.038162 0.379482 0.031398
v 0.038162 0.376281 0.039358
v 0.038162 0.367518 -0.143824
v 0.038162 0.372935 0.046963
v 0.038162 0.369492 0.054221
v 0.038162 0.353476 -0.164070
v 0.038162 0.318107 0.176208
v 0.038162 0.336875 -0.182236
v 0.038162 0.317920 -0.198131
v 0.038162 0.275680 0.182148
v 0.038162 0.299313 0.002686
v 0.038162 0.300278 -0.006264
v 0.038162 0.300826 -0.015734
v 0.038162 0.301000 -0.025861
v 0.038162 0.296815 -0.211565
v 0.038162 0.300080 -0.041739
v 0.038162 0.297389 -0.056801
v 0.038162 0.297889 0.011250
v 0.038162 0.295965 0.019564
v 0.038162 0.293031 -0.070939
v 0.038162 0.273766 -0.222346
v 0.038162 0.293500 0.027764
v 0.038162 0.290451 0.035984
v 0.038162 0.287111 -0.084046
v 0.038162 0.286778 0.044361
v 0.038162 0.279733 -0.096015
v 0.038162 0.282438 0.053029
v 0.038162 0.277389 0.062125
v 0.038162 0.271000 -0.106736
v 0.038162 0.271590 0.071783
v 0.038162 0.233000 0.184139
v 0.038162 0.248977 -0.230282
v 0.038162 0.265000 0.082139
v 0.038162 0.261017 -0.116104
v 0.038162 0.237911 0.086753
v 0.038162 0.249889 -0.124009
v 0.038162 0.237719 -0.130346
v 0.038162 0.222653 -0.235185
v 0.038162 0.212704 0.087801
v 0.038162 0.224611 -0.135005
v 0.038162 0.197988 0.182312
v 0.038162 0.210670 -0.137879
v 0.038162 0.195000 -0.236861
v 0.038162 0.189469 0.085592
v 0.038162 0.196000 -0.138861
v 0.038162 0.165074 0.176940
v 0.038162 0.179722 -0.137958
v 0.038162 0.167668 -0.234988
v 0.038162 0.168296 0.080435
v 0.038162 0.164440 -0.135301
v 0.038162 0.149277 0.072639
v 0.038162 0.141347 -0.229542
v 0.038162 0.134438 0.168186
v 0.038162 0.150234 -0.130971
v 0.038162 0.137185 -0.125046
v 0.038162 0.132500 0.062514
v 0.038162 0.116297 -0.220783
v 0.038162 0.125372 -0.117608
v 0.038162 0.106259 0.156213
v 0.038162 0.118057 0.050367
v 0.038162 0.114875 -0.108736
v 0.038162 0.106037 0.036509
v 0.038162 0.092778 -0.208972
v 0.038162 0.105774 -0.098510
v 0.038162 0.080720 0.141185
v 0.038162 0.096531 0.021248
v 0.038162 0.098148 -0.087009
v 0.038162 0.092078 -0.074314
v 0.038162 0.089630 0.004893
v 0.038162 0.071050 -0.194370
v 0.038162 0.087644 -0.060505
v 0.038162 0.085422 -0.012246
v 0.038162 0.084924 -0.045660
v 0.038162 0.084000 -0.029861
v 0.038162 0.058000 0.123264
v 0.038162 0.051375 -0.177236
v 0.038162 0.038280 0.102614
v 0.038162 0.034012 -0.157832
v 0.038162 0.021741 0.079398
v 0.038162 0.019222 -0.136417
v 0.038162 0.008563 0.053779
v 0.038162 0.007266 -0.113252
v 0.038162 -0.001074 0.025921
v 0.038162 -0.001597 -0.088597
v 0.038162 -0.006988 -0.004013
v 0.038162 -0.007106 -0.062714
v 0.038162 -0.009000 -0.035861
vn -0.6993 0.5658 0.4370
vn -0.5797 0.8068 -0.1144
vn -0.5719 -0.1407 -0.8082
vn -0.6990 0.5332 0.4765
vn -0.6988 0.4967 0.5148
vn -0.7139 -0.5820 -0.3893
vn -0.7136 -0.5584 -0.4230
vn -0.6985 0.4562 0.5513
vn -0.7134 -0.5337 -0.4540
vn -0.7133 -0.5079 -0.4829
vn -0.6982 0.4117 0.5857
vn -0.7134 -0.4806 -0.5101
vn -0.7135 -0.4513 -0.5360
vn -0.6980 0.3631 0.6173
vn -0.7138 -0.4195 -0.5608
vn -0.7142 -0.3847 -0.5848
vn -0.6977 0.3105 0.6456
vn -0.7147 -0.3459 -0.6079
vn -0.6975 0.2541 0.6701
vn -0.7154 -0.3023 -0.6299
vn -0.7163 -0.2527 -0.6504
vn -0.6972 0.1943 0.6900
vn -0.7014 0.7118 0.0365
vn -0.6970 0.7170 -0.0144
vn -0.6923 0.7152 -0.0956
vn -0.7015 0.7090 0.0724
vn -0.7017 0.7044 0.1072
vn -0.6922 0.6960 -0.1909
vn -0.7019 0.6983 0.1405
vn -0.7022 0.6909 0.1720
vn -0.9777 0.1584 -0.1381
vn -0.7024 0.6826 0.2015
vn -0.6921 0.6638 -0.2833
vn -0.7028 0.6737 0.2287
vn -0.7031 0.6644 0.2535
vn -0.7035 0.6550 0.2757
vn -0.6922 0.6194 -0.3703
vn -0.7039 0.6460 0.2953
vn -0.7044 0.6376 0.3121
vn -0.6923 0.5641 -0.4500
vn -0.6970 0.1316 0.7049
vn -0.6925 0.4991 -0.5209
vn -0.6927 0.4263 -0.5818
vn -0.6968 0.0665 0.7141
vn -0.7136 -0.6941 -0.0950
vn -0.7127 -0.6990 -0.0579
vn -0.7117 -0.7020 -0.0263
vn -0.7156 -0.6983 0.0142
vn -0.6928 0.3471 -0.6321
vn -0.7207 -0.6885 0.0812
vn -0.7211 -0.6733 0.1633
vn -0.7142 -0.6865 -0.1364
vn -0.7144 -0.6762 -0.1797
vn -0.7215 -0.6477 0.2450
vn -0.6930 0.2632 -0.6712
vn -0.7143 -0.6635 -0.2225
vn -0.7137 -0.6494 -0.2625
vn -0.7218 -0.6112 0.3247
vn -0.7129 -0.6349 -0.2979
vn -0.7222 -0.5638 0.4008
vn -0.7119 -0.6211 -0.3277
vn -0.7110 -0.6090 -0.3517
vn -0.7224 -0.5057 0.4715
vn -0.7100 -0.5989 -0.3703
vn -0.6961 -0.0020 0.7179
vn -0.6932 0.1762 -0.6989
vn -0.8108 -0.3239 -0.4876
vn -0.7227 -0.4376 0.5350
vn -0.7217 -0.0726 -0.6884
vn -0.7229 -0.3605 0.5895
vn -0.7230 -0.2759 0.6334
vn -0.6935 0.0879 -0.7151
vn -0.7228 0.0184 -0.6908
vn -0.7230 -0.1859 0.6654
vn -0.6950 -0.0768 0.7149
vn -0.7228 -0.0931 0.6848
vn -0.6929 -0.0028 -0.7210
vn -0.7237 0.1146 -0.6806
vn -0.7211 -0.0040 0.6928
vn -0.6942 -0.1571 0.7024
vn -0.7205 0.0787 0.6890
vn -0.6922 -0.0980 -0.7150
vn -0.7244 0.2129 -0.6557
vn -0.7213 0.1606 0.6738
vn -0.7248 0.3095 -0.6155
vn -0.6925 -0.1926 -0.6952
vn -0.6935 -0.2403 0.6792
vn -0.7221 0.2444 0.6472
vn -0.7227 0.3278 0.6085
vn -0.7251 0.4008 -0.5600
vn -0.6929 -0.2814 -0.6639
vn -0.7232 0.4079 0.5573
vn -0.6928 -0.3246 0.6440
vn -0.7252 0.4832 -0.4906
vn -0.7234 0.4819 0.4944
vn -0.7252 0.5540 -0.4088
vn -0.6932 -0.3635 -0.6224
vn -0.7234 0.5470 0.4213
vn -0.6921 -0.4075 0.5958
vn -0.7253 0.6112 -0.3168
vn -0.7231 0.6009 0.3407
vn -0.7226 0.6423 0.2553
vn -0.7254 0.6534 -0.2165
vn -0.6933 -0.4384 -0.5719
vn -0.7220 0.6711 0.1685
vn -0.7256 0.6793 -0.1101
vn -0.7212 0.6878 0.0828
vn -0.7231 0.6907 -0.0076
vn -0.6916 -0.4860 0.5343
vn -0.6934 -0.5061 -0.5129
vn -0.6913 -0.5569 0.4603
vn -0.6933 -0.5662 -0.4459
vn -0.6913 -0.6171 0.3759
vn -0.6930 -0.6182 -0.3709
vn -0.6915 -0.6642 0.2840
vn -0.6926 -0.6613 -0.2880
vn -0.6919 -0.6970 0.1884
vn -0.6922 -0.6941 -0.1976
vn -0.6926 -0.7154 0.0928
vn -0.6918 -0.7150 -0.1008
vn -0.6924 -0.7215 -0.0026
vn 0.6993 0.5658 0.4370
vn 0.5719 -0.1407 -0.8082
vn 0.5797 0.8068 -0.1144
vn 0.6990 0.5332 0.4765
vn 0.6988 0.4967 0.5148
vn 0.7139 -0.5820 -0.3893
vn 0.7136 -0.5584 -0.4230
vn 0.6985 0.4562 0.5513
vn 0.7134 -0.5337 -0.4540
vn 0.7133 -0.5079 -0.4829
vn 0.6982 0.4117 0.5857
vn 0.7134 -0.4806 -0.5101
vn 0.7135 -0.4513 -0.5360
vn 0.6980 0.3631 0.6173
vn 0.7138 -0.4195 -0.5608
vn 0.7142 -0.3847 -0.5848
vn 0.6977 0.3105 0.6456
vn 0.7147 -0.3459 -0.6079
vn 0.6975 0.2541 0.6701
vn 0.7154 -0.3023 -0.6299
vn 0.7163 -0.2527 -0.6504
vn 0.6972 0.1943 0.6900
vn 0.7014 0.7118 0.0365
vn 0.6923 0.7152 -0.0956
vn 0.6970 0.7170 -0.0144
vn 0.7015 0.7090 0.0724
vn 0.7017 0.7044 0.1072
vn 0.6922 0.6960 -0.1909
vn 0.7019 0.6983 0.1405
vn 0.7022 0.6909 0.1720
vn 0.9777 0.1584 -0.1381
vn 0.7024 0.6826 0.2015
vn 0.6921 0.6638 -0.2833
vn 0.7028 0.6737 0.2287
vn 0.7031 0.6644 0.2535
vn 0.7035 0.6550 0.2757
vn 0.6922 0.6194 -0.3703
vn 0.7039 0.6460 0.2953
vn 0.7044 0.6376 0.3121
vn 0.6923 0.5641 -0.4500
vn 0.6970 0.1316 0.7049
vn 0.6925 0.4991 -0.5209
vn 0.6927 0.4263 -0.5818
vn 0.6968 0.0665 0.7141
vn 0.7136 -0.6941 -0.0950
vn 0.7127 -0.6990 -0.0579
vn 0.7117 -0.7020 -0.0263
vn 0.7156 -0.6983 0.0142
vn 0.6928 0.3471 -0.6321
vn 0.7207 -0.6885 0.0812
vn 0.7211 -0.6733 0.1633
vn 0.7142 -0.6865 -0.1364
vn 0.7144 -0.6762 -0.1797
vn 0.7215 -0.6477 0.2450
vn 0.6930 0.2632 -0.6712
vn 0.7143 -0.6635 -0.2225
vn 0.7137 -0.6494 -0.2625
vn 0.7218 -0.6112 0.3247
vn 0.7129 -0.6349 -0.2979
vn 0.7222 -0.5638 0.4008
vn 0.7119 -0.6211 -0.3277
vn 0.7110 -0.6090 -0.3517
vn 0.7224 -0.5057 0.4715
vn 0.7100 -0.5989 -0.3703
vn 0.6961 -0.0020 0.7179
vn 0.6932 0.1762 -0.6989
vn 0.8108 -0.3239 -0.4876
vn 0.7227 -0.4376 0.5350
vn 0.7217 -0.0726 -0.6884
vn 0.7229 -0.3605 0.5895
vn 0.7230 -0.2759 0.6334
vn 0.6935 0.0879 -0.7151
vn 0.7228 0.0184 -0.6908
vn 0.7230 -0.1859 0.6654
vn 0.6950 -0.0768 0.7149
vn 0.7228 -0.0931 0.6848
vn 0.6929 -0.0028 -0.7210
vn 0.7237 0.1146 -0.6806
vn 0.7211 -0.0040 0.6928
vn 0.6942 -0.1571 0.7024
vn 0.7205 0.0787 0.6890
vn 0.6922 -0.0980 -0.7150
vn 0.7244 0.2129 -0.6557
vn 0.7213 0.1606 0.6738
vn 0.7248 0.3095 -0.6155
vn 0.6925 -0.1926 -0.6952
vn 0.6935 -0.2403 0.6792
vn 0.7221 0.2444 0.6472
vn 0.7227 0.3278 0.6085
vn 0.7251 0.4008 -0.5600
vn 0.6929 -0.2814 -0.6639
vn 0.7232 0.4079 0.5573
vn 0.6928 -0.3246 0.6440
vn 0.7252 0.4832 -0.4906
vn 0.7234 0.4819 0.4944
vn 0.7252 0.5540 -0.4088
vn 0.6932 -0.3635 -0.6224
vn 0.7234 0.5470 0.4213
vn 0.6921 -0.4075 0.5958
vn 0.7253 0.6112 -0.3168
vn 0.7231 0.6009 0.3407
vn 0.7226 0.6423 0.2553
vn 0.7254 0.6534 -0.2165
vn 0.6933 -0.4384 -0.5719
vn 0.7220 0.6711 0.1685
vn 0.7256 0.6793 -0.1101
vn 0.7212 0.6878 0.0828
vn 0.7231 0.6907 -0.0076
vn 0.6916 -0.4860 0.5343
vn 0.6934 -0.5061 -0.5129
vn 0.6913 -0.5569 0.4603
vn 0.6933 -0.5662 -0.4459
vn 0.6913 -0.6171 0.3759
vn 0.6930 -0.6182 -0.3709
vn 0.6915 -0.6642 0.2840
vn 0.6926 -0.6613 -0.2880
vn 0.6919 -0.6970 0.1884
vn 0.6922 -0.6941 -0.1976
vn 0.6926 -0.7154 0.0928
vn 0.6918 -0.7150 -0.1008
vn 0.6924 -0.7215 -0.0026
vt 0.008333 0.000000
vt 0.000000 0.000000
vt 0.600000 0.000000
vt 0.016667 0.000000
vt 0.025000 0.000000
vt 0.591667 0.000000
vt 0.583333 0.000000
vt 0.033333 0.000000
vt 0.575000 0.000000
vt 0.566667 0.000000
vt 0.041667 0.000000
vt 0.558333 0.000000
vt 0.550000 0.000000
vt 0.050000 0.000000
vt 0.541667 0.000000
vt 0.533333 0.000000
vt 0.058333 0.000000
vt 0.525000 0.000000
vt 0.066667 0.000000
vt 0.516667 0.000000
vt 0.508333 0.000000
vt 0.075000 0.000000
vt 0.408333 0.000000
vt 0.400000 0.000000
vt 0.391667 0.000000
vt 0.416667 0.000000
vt 0.425000 0.000000
vt 0.383333 0.000000
vt 0.433333 0.000000
vt 0.441667 0.000000
vt 0.500000 0.000000
vt 0.450000 0.000000
vt 0.375000 0.000000
vt 0.458333 0.000000
vt 0.466667 0.000000
vt 0.475000 0.000000
vt 0.366667 0.000000
vt 0.483333 0.000000
vt 0.491667 0.000000
vt 0.358333 0.000000
vt 0.083333 0.000000
vt 0.350000 0.000000
vt 0.341667 0.000000
vt 0.091667 0.000000
vt 0.683333 0.000000
vt 0.691667 0.000000
vt 0.700000 0.000000
vt 0.708333 0.000000
vt 0.333333 0.000000
vt 0.716667 0.000000
vt 0.725000 0.000000
vt 0.675000 0.000000
vt 0.666667 0.000000
vt 0.733333 0.000000
vt 0.325000 0.000000
vt 0.658333 0.000000
vt 0.650000 0.000000
vt 0.741667 0.000000
vt 0.641667 0.000000
vt 0.750000 0.000000
vt 0.633333 0.000000
vt 0.625000 0.000000
vt 0.758333 0.000000
vt 0.616667 0.000000
vt 0.100000 0.000000
vt 0.316667 0.000000
vt 0.608333 0.000000
vt 0.766667 0.000000
vt 1.000000 0.000000
vt 0.775000 0.000000
vt 0.783333 0.000000
vt 0.308333 0.000000
vt 0.991667 0.000000
vt 0.791667 0.000000
vt 0.108333 0.000000
vt 0.800000 0.000000
vt 0.300000 0.000000
vt 0.983333 0.000000
vt 0.808333 0.000000
vt 0.116667 0.000000
vt 0.816667 0.000000
vt 0.291667 0.000000
vt 0.975000 0.000000
vt 0.825000 0.000000
vt 0.966667 0.000000
vt 0.283333 0.000000
vt 0.125000 0.000000
vt 0.833333 0.000000
vt 0.841667 0.000000
vt 0.958333 0.000000
vt 0.275000 0.000000
vt 0.850000 0.000000
vt 0.133333 0.000000
vt 0.950000 0.000000
vt 0.858333 0.000000
vt 0.941667 0.000000
vt 0.266667 0.000000
vt 0.866667 0.000000
vt 0.141667 0.000000
vt 0.933333 0.000000
vt 0.875000 0.000000
vt 0.883333 0.000000
vt 0.925000 0.000000
vt 0.258333 0.000000
vt 0.891667 0.000000
vt 0.916667 0.000000
vt 0.900000 0.000000
vt 0.908333 0.000000
vt 0.150000 0.000000
vt 0.250000 0.000000
vt 0.158333 0.000000
vt 0.241667 0.000000
vt 0.166667 0.000000
vt 0.233333 0.000000
vt 0.175000 0.000000
vt 0.225000 0.000000
vt 0.183333 0.000000
vt 0.216667 0.000000
vt 0.191667 0.000000
vt 0.208333 0.000000
vt 0.200000 0.000000
s 1
usemtl マテリアル.006
f 2/1/1 1/2/2 73/3/3
f 3/4/4 2/1/1 73/3/3
f 4/5/5 3/4/4 73/3/3
f 4/5/5 73/3/3 72/6/6
f 4/5/5 72/6/6 71/7/7
f 5/8/8 4/5/5 71/7/7
f 5/8/8 71/7/7 70/9/9
f 5/8/8 70/9/9 69/10/10
f 6/11/11 5/8/8 69/10/10
f 6/11/11 69/10/10 68/12/12
f 6/11/11 68/12/12 67/13/13
f 7/14/14 6/11/11 67/13/13
f 7/14/14 67/13/13 66/15/15
f 7/14/14 66/15/15 65/16/16
f 8/17/17 7/14/14 65/16/16
f 8/17/17 65/16/16 64/18/18
f 9/19/19 8/17/17 64/18/18
f 9/19/19 64/18/18 63/20/20
f 9/19/19 63/20/20 62/21/21
f 10/22/22 9/19/19 62/21/21
f 50/23/23 49/24/24 48/25/25
f 51/26/26 50/23/23 48/25/25
f 52/27/27 51/26/26 48/25/25
f 52/27/27 48/25/25 47/28/28
f 53/29/29 52/27/27 47/28/28
f 54/30/30 53/29/29 47/28/28
f 10/22/22 62/21/21 61/31/31
f 55/32/32 54/30/30 47/28/28
f 55/32/32 47/28/28 46/33/33
f 56/34/34 55/32/32 46/33/33
f 57/35/35 56/34/34 46/33/33
f 58/36/36 57/35/35 46/33/33
f 58/36/36 46/33/33 45/37/37
f 59/38/38 58/36/36 45/37/37
f 60/39/39 59/38/38 45/37/37
f 61/31/31 60/39/39 45/37/37
f 61/31/31 45/37/37 44/40/40
f 10/22/22 61/31/31 44/40/40
f 11/41/41 10/22/22 44/40/40
f 11/41/41 44/40/40 43/42/42
f 11/41/41 43/42/42 42/43/43
f 12/44/44 11/41/41 83/45/45
f 83/45/45 11/41/41 84/46/46
f 84/46/46 11/41/41 42/43/43
f 84/46/46 42/43/43 85/47/47
f 85/47/47 42/43/43 86/48/48
f 86/48/48 42/43/43 41/49/49
f 87/50/50 86/48/48 41/49/49
f 88/51/51 87/50/50 41/49/49
f 12/44/44 83/45/45 82/52/52
f 12/44/44 82/52/52 81/53/53
f 89/54/54 88/51/51 41/49/49
f 89/54/54 41/49/49 40/55/55
f 12/44/44 81/53/53 80/56/56
f 12/44/44 80/56/56 79/57/57
f 90/58/58 89/54/54 40/55/55
f 12/44/44 79/57/57 78/59/59
f 91/60/60 90/58/58 40/55/55
f 12/44/44 78/59/59 77/61/61
f 12/44/44 77/61/61 76/62/62
f 92/63/63 91/60/60 40/55/55
f 12/44/44 76/62/62 75/64/64
f 13/65/65 12/44/44 75/64/64
f 92/63/63 40/55/55 39/66/66
f 13/65/65 75/64/64 74/67/67
f 93/68/68 92/63/63 39/66/66
f 13/65/65 74/67/67 121/69/69
f 94/70/70 93/68/68 39/66/66
f 95/71/71 94/70/70 39/66/66
f 95/71/71 39/66/66 38/72/72
f 13/65/65 121/69/69 120/73/73
f 96/74/74 95/71/71 38/72/72
f 14/75/75 13/65/65 120/73/73
f 97/76/76 96/74/74 38/72/72
f 97/76/76 38/72/72 37/77/77
f 14/75/75 120/73/73 119/78/78
f 98/79/79 97/76/76 37/77/77
f 15/80/80 14/75/75 119/78/78
f 99/81/81 98/79/79 37/77/77
f 99/81/81 37/77/77 36/82/82
f 15/80/80 119/78/78 118/83/83
f 100/84/84 99/81/81 36/82/82
f 15/80/80 118/83/83 117/85/85
f 100/84/84 36/82/82 35/86/86
f 16/87/87 15/80/80 117/85/85
f 101/88/88 100/84/84 35/86/86
f 102/89/89 101/88/88 35/86/86
f 16/87/87 117/85/85 116/90/90
f 102/89/89 35/86/86 34/91/91
f 103/92/92 102/89/89 34/91/91
f 17/93/93 16/87/87 116/90/90
f 17/93/93 116/90/90 115/94/94
f 104/95/95 103/92/92 34/91/91
f 17/93/93 115/94/94 114/96/96
f 104/95/95 34/91/91 33/97/97
f 105/98/98 104/95/95 33/97/97
f 18/99/99 17/93/93 114/96/96
f 18/99/99 114/96/96 113/100/100
f 106/101/101 105/98/98 33/97/97
f 107/102/102 106/101/101 33/97/97
f 18/99/99 113/100/100 112/103/103
f 107/102/102 33/97/97 32/104/104
f 108/105/105 107/102/102 32/104/104
f 18/99/99 112/103/103 111/106/106
f 109/107/107 108/105/105 32/104/104
f 18/99/99 111/106/106 110/108/108
f 110/108/108 109/107/107 32/104/104
f 18/99/99 110/108/108 32/104/104
f 19/109/109 18/99/99 32/104/104
f 19/109/109 32/104/104 31/110/110
f 20/111/111 19/109/109 31/110/110
f 20/111/111 31/110/110 30/112/112
f 21/113/113 20/111/111 30/112/112
f 21/113/113 30/112/112 29/114/114
f 22/115/115 21/113/113 29/114/114
f 22/115/115 29/114/114 28/116/116
f 23/117/117 22/115/115 28/116/116
f 23/117/117 28/116/116 27/118/118
f 24/119/119 23/117/117 27/118/118
f 24/119/119 27/118/118 26/120/120
f 25/121/121 24/119/119 26/120/120
f 123/1/122 124/3/123 122/2/124
f 125/4/125 124/3/123 123/1/122
f 126/5/126 124/3/123 125/4/125
f 126/5/126 127/6/127 124/3/123
f 126/5/126 128/7/128 127/6/127
f 129/8/129 128/7/128 126/5/126
f 129/8/129 130/9/130 128/7/128
f 129/8/129 131/10/131 130/9/130
f 132/11/132 131/10/131 129/8/129
f 132/11/132 133/12/133 131/10/131
f 132/11/132 134/13/134 133/12/133
f 135/14/135 134/13/134 132/11/132
f 135/14/135 136/15/136 134/13/134
f 135/14/135 137/16/137 136/15/136
f 138/17/138 137/16/137 135/14/135
f 138/17/138 139/18/139 137/16/137
f 140/19/140 139/18/139 138/17/138
f 140/19/140 141/20/141 139/18/139
f 140/19/140 142/21/142 141/20/141
f 143/22/143 142/21/142 140/19/140
f 145/23/144 146/25/145 144/24/146
f 147/26/147 146/25/145 145/23/144
f 148/27/148 146/25/145 147/26/147
f 148/27/148 149/28/149 146/25/145
f 150/29/150 149/28/149 148/27/148
f 151/30/151 149/28/149 150/29/150
f 143/22/143 152/31/152 142/21/142
f 153/32/153 149/28/149 151/30/151
f 153/32/153 154/33/154 149/28/149
f 155/34/155 154/33/154 153/32/153
f 156/35/156 154/33/154 155/34/155
f 157/36/157 154/33/154 156/35/156
f 157/36/157 158/37/158 154/33/154
f 159/38/159 158/37/158 157/36/157
f 160/39/160 158/37/158 159/38/159
f 152/31/152 158/37/158 160/39/160
f 152/31/152 161/40/161 158/37/158
f 143/22/143 161/40/161 152/31/152
f 162/41/162 161/40/161 143/22/143
f 162/41/162 163/42/163 161/40/161
f 162/41/162 164/43/164 163/42/163
f 165/44/165 166/45/166 162/41/162
f 166/45/166 167/46/167 162/41/162
f 167/46/167 164/43/164 162/41/162
f 167/46/167 168/47/168 164/43/164
f 168/47/168 169/48/169 164/43/164
f 169/48/169 170/49/170 164/43/164
f 171/50/171 170/49/170 169/48/169
f 172/51/172 170/49/170 171/50/171
f 165/44/165 173/52/173 166/45/166
f 165/44/165 174/53/174 173/52/173
f 175/54/175 170/49/170 172/51/172
f 175/54/175 176/55/176 170/49/170
f 165/44/165 177/56/177 174/53/174
f 165/44/165 178/57/178 177/56/177
f 179/58/179 176/55/176 175/54/175
f 165/44/165 180/59/180 178/57/178
f 181/60/181 176/55/176 179/58/179
f 165/44/165 182/61/182 180/59/180
f 165/44/165 183/62/183 182/61/182
f 184/63/184 176/55/176 181/60/181
f 165/44/165 185/64/185 183/62/183
f 186/65/186 185/64/185 165/44/165
f 184/63/184 187/66/187 176/55/176
f 186/65/186 188/67/188 185/64/185
f 189/68/189 187/66/187 184/63/184
f 186/65/186 190/69/190 188/67/188
f 191/70/191 187/66/187 189/68/189
f 192/71/192 187/66/187 191/70/191
f 192/71/192 193/72/193 187/66/187
f 186/65/186 194/73/194 190/69/190
f 195/74/195 193/72/193 192/71/192
f 196/75/196 194/73/194 186/65/186
f 197/76/197 193/72/193 195/74/195
f 197/76/197 198/77/198 193/72/193
f 196/75/196 199/78/199 194/73/194
f 200/79/200 198/77/198 197/76/197
f 201/80/201 199/78/199 196/75/196
f 202/81/202 198/77/198 200/79/200
f 202/81/202 203/82/203 198/77/198
f 201/80/201 204/83/204 199/78/199
f 205/84/205 203/82/203 202/81/202
f 201/80/201 206/85/206 204/83/204
f 205/84/205 207/86/207 203/82/203
f 208/87/208 206/85/206 201/80/201
f 209/88/209 207/86/207 205/84/205
f 210/89/210 207/86/207 209/88/209
f 208/87/208 211/90/211 206/85/206
f 210/89/210 212/91/212 207/86/207
f 213/92/213 212/91/212 210/89/210
f 214/93/214 211/90/211 208/87/208
f 214/93/214 215/94/215 211/90/211
f 216/95/216 212/91/212 213/92/213
f 214/93/214 217/96/217 215/94/215
f 216/95/216 218/97/218 212/91/212
f 219/98/219 218/97/218 216/95/216
f 220/99/220 217/96/217 214/93/214
f 220/99/220 221/100/221 217/96/217
f 222/101/222 218/97/218 219/98/219
f 223/102/223 218/97/218 222/101/222
f 220/99/220 224/103/224 221/100/221
f 223/102/223 225/104/225 218/97/218
f 226/105/226 225/104/225 223/102/223
f 220/99/220 227/106/227 224/103/224
f 228/107/228 225/104/225 226/105/226
f 220/99/220 229/108/229 227/106/227
f 229/108/229 225/104/225 228/107/228
f 220/99/220 225/104/225 229/108/229
f 230/109/230 225/104/225 220/99/220
f 230/109/230 231/110/231 225/104/225
f 232/111/232 231/110/231 230/109/230
f 232/111/232 233/112/233 231/110/231
f 234/113/234 233/112/233 232/111/232
f 234/113/234 235/114/235 233/112/233
f 236/115/236 235/114/235 234/113/234
f 236/115/236 237/116/237 235/114/235
f 238/117/238 237/116/237 236/115/236
f 238/117/238 239/118/239 237/116/237
f 240/119/240 239/118/239 238/117/238
f 240/119/240 241/120/241 239/118/239
f 242/121/242 241/120/241 240/119/240
f 17/93/93 18/99/99 220/99/220 214/93/214
f 9/19/19 10/22/22 143/22/143 140/19/140
f 120/73/73 121/69/69 190/69/190 194/73/194
f 85/47/47 86/48/48 169/48/169 168/47/168
f 95/71/71 96/74/74 195/74/195 192/71/192
f 49/24/24 50/23/23 145/23/144 144/24/146
f 113/100/100 114/96/96 217/96/217 221/100/221
f 13/65/65 14/75/75 196/75/196 186/65/186
f 41/49/49 42/43/43 164/43/164 170/49/170
f 105/98/98 106/101/101 222/101/222 219/98/219
f 48/25/25 49/24/24 144/24/146 146/25/145
f 86/48/48 87/50/50 171/50/171 169/48/169
f 50/23/23 51/26/26 147/26/147 145/23/144
f 96/74/74 97/76/76 197/76/197 195/74/195
f 106/101/101 107/102/102 223/102/223 222/101/222
f 87/50/50 88/51/51 172/51/172 171/50/171
f 51/26/26 52/27/27 148/27/148 147/26/147
f 37/77/77 38/72/72 193/72/193 198/77/198
f 112/103/103 113/100/100 221/100/221 224/103/224
f 82/52/52 83/45/45 166/45/166 173/52/173
f 47/28/28 48/25/25 146/25/145 149/28/149
f 119/78/78 120/73/73 194/73/194 199/78/199
f 32/104/104 33/97/97 218/97/218 225/104/225
f 52/27/27 53/29/29 150/29/150 148/27/148
f 97/76/76 98/79/79 200/79/200 197/76/197
f 81/53/53 82/52/52 173/52/173 174/53/174
f 107/102/102 108/105/105 226/105/226 223/102/223
f 1/2/2 2/1/1 123/1/122 122/2/124
f 88/51/51 89/54/54 175/54/175 172/51/172
f 53/29/29 54/30/30 151/30/151 150/29/150
f 14/75/75 15/80/80 201/80/201 196/75/196
f 73/3/3 1/2/2 122/2/124 124/3/123
f 111/106/106 112/103/103 224/103/224 227/106/227
f 98/79/79 99/81/81 202/81/202 200/79/200
f 2/1/1 3/4/4 125/4/125 123/1/122
f 40/55/55 41/49/49 170/49/170 176/55/176
f 108/105/105 109/107/107 228/107/228 226/105/226
f 61/31/31 62/21/21 142/21/142 152/31/152
f 54/30/30 55/32/32 153/32/153 151/30/151
f 3/4/4 4/5/5 126/5/126 125/4/125
f 80/56/56 81/53/53 174/53/174 177/56/177
f 36/82/82 37/77/77 198/77/198 203/82/203
f 110/108/108 111/106/106 227/106/227 229/108/229
f 79/57/57 80/56/56 177/56/177 178/57/178
f 109/107/107 110/108/108 229/108/229 228/107/228
f 46/33/33 47/28/28 149/28/149 154/33/154
f 118/83/83 119/78/78 199/78/199 204/83/204
f 72/6/6 73/3/3 124/3/123 127/6/127
f 89/54/54 90/58/58 179/58/179 175/54/175
f 55/32/32 56/34/34 155/34/155 153/32/153
f 99/81/81 100/84/84 205/84/205 202/81/202
f 71/7/7 72/6/6 127/6/127 128/7/128
f 18/99/99 19/109/109 230/109/230 220/99/220
f 56/34/34 57/35/35 156/35/156 155/34/155
f 4/5/5 5/8/8 129/8/129 126/5/126
f 78/59/59 79/57/57 178/57/178 180/59/180
f 117/85/85 118/83/83 204/83/204 206/85/206
f 90/58/58 91/60/60 181/60/181 179/58/179
f 57/35/35 58/36/36 157/36/157 156/35/156
f 31/110/110 32/104/104 225/104/225 231/110/231
f 35/86/86 36/82/82 203/82/203 207/86/207
f 70/9/9 71/7/7 128/7/128 130/9/130
f 19/109/109 20/111/111 232/111/232 230/109/230
f 15/80/80 16/87/87 208/87/208 201/80/201
f 77/61/61 78/59/59 180/59/180 182/61/182
f 45/37/37 46/33/33 154/33/154 158/37/158
f 69/10/10 70/9/9 130/9/130 131/10/131
f 58/36/36 59/38/38 159/38/159 157/36/157
f 100/84/84 101/88/88 209/88/209 205/84/205
f 5/8/8 6/11/11 132/11/132 129/8/129
f 76/62/62 77/61/61 182/61/182 183/62/183
f 30/112/112 31/110/110 231/110/231 233/112/233
f 91/60/60 92/63/63 184/63/184 181/60/181
f 20/111/111 21/113/113 234/113/234 232/111/232
f 59/38/38 60/39/39 160/39/160 159/38/159
f 101/88/88 102/89/89 210/89/210 209/88/209
f 68/12/12 69/10/10 131/10/131 133/12/133
f 60/39/39 61/31/31 152/31/152 160/39/160
f 75/64/64 76/62/62 183/62/183 185/64/185
f 29/114/114 30/112/112 233/112/233 235/114/235
f 116/90/90 117/85/85 206/85/206 211/90/211
f 67/13/13 68/12/12 133/12/133 134/13/134
f 12/44/44 13/65/65 186/65/186 165/44/165
f 21/113/113 22/115/115 236/115/236 234/113/234
f 6/11/11 7/14/14 135/14/135 132/11/132
f 44/40/40 45/37/37 158/37/158 161/40/161
f 34/91/91 35/86/86 207/86/207 212/91/212
f 102/89/89 103/92/92 213/92/213 210/89/210
f 39/66/66 40/55/55 176/55/176 187/66/187
f 28/116/116 29/114/114 235/114/235 237/116/237
f 10/22/22 11/41/41 162/41/162 143/22/143
f 66/15/15 67/13/13 134/13/134 136/15/136
f 22/115/115 23/117/117 238/117/238 236/115/236
f 16/87/87 17/93/93 214/93/214 208/87/208
f 74/67/67 75/64/64 185/64/185 188/67/188
f 65/16/16 66/15/15 136/15/136 137/16/137
f 92/63/63 93/68/68 189/68/189 184/63/184
f 43/42/42 44/40/40 161/40/161 163/42/163
f 7/14/14 8/17/17 138/17/138 135/14/135
f 27/118/118 28/116/116 237/116/237 239/118/239
f 115/94/94 116/90/90 211/90/211 215/94/215
f 23/117/117 24/119/119 240/119/240 238/117/238
f 42/43/43 43/42/42 163/42/163 164/43/164
f 103/92/92 104/95/95 216/95/216 213/92/213
f 121/69/69 74/67/67 188/67/188 190/69/190
f 11/41/41 12/44/44 165/44/165 162/41/162
f 64/18/18 65/16/16 137/16/137 139/18/139
f 93/68/68 94/70/70 191/70/191 189/68/189
f 8/17/17 9/19/19 140/19/140 138/17/138
f 26/120/120 27/118/118 239/118/239 241/120/241
f 114/96/96 115/94/94 215/94/215 217/96/217
f 94/70/70 95/71/71 192/71/192 191/70/191
f 24/119/119 25/121/121 242/121/242 240/119/240
f 83/45/45 84/46/46 167/46/167 166/45/166
f 25/121/121 26/120/120 241/120/241 242/121/242
f 33/97/97 34/91/91 212/91/212 218/97/218
f 63/20/20 64/18/18 139/18/139 141/20/141
f 104/95/95 105/98/98 219/98/219 216/95/216
f 38/72/72 39/66/66 187/66/187 193/72/193
f 84/46/46 85/47/47 168/47/168 167/46/167
f 62/21/21 63/20/20 141/20/141 142/21/142
