# Blender 4.4.1
# www.blender.org
mtllib rankS.mtl
o テキスト.001
v 0.175399 0.316979 0.000000
v 0.163318 0.324646 0.000000
v 0.151084 0.331646 0.000000
v 0.138712 0.337980 0.000000
v 0.126214 0.343646 0.000000
v 0.113605 0.348646 0.000000
v 0.100899 0.352980 0.000000
v 0.088110 0.356646 0.000000
v 0.075251 0.359646 0.000000
v 0.062337 0.361980 0.000000
v 0.049381 0.363646 0.000000
v 0.036397 0.364646 0.000000
v 0.023399 0.364980 0.000000
v -0.006933 0.363518 0.000000
v -0.035337 0.359206 0.000000
v -0.061679 0.352151 0.000000
v -0.085823 0.342461 0.000000
v -0.107634 0.330243 0.000000
v -0.126976 0.315605 0.000000
v -0.143714 0.298654 0.000000
v -0.157712 0.279498 0.000000
v -0.168835 0.258245 0.000000
v -0.176948 0.235003 0.000000
v -0.181915 0.209878 0.000000
v -0.183601 0.182979 0.000000
v -0.177797 0.139621 0.000000
v -0.161749 0.102359 0.000000
v -0.137507 0.070167 0.000000
v -0.107119 0.042017 0.000000
v -0.072635 0.016880 0.000000
v -0.036101 -0.006271 0.000000
v 0.000433 -0.028463 0.000000
v 0.034918 -0.050724 0.000000
v 0.065305 -0.074083 0.000000
v 0.089547 -0.099567 0.000000
v 0.105595 -0.128203 0.000000
v 0.111399 -0.161021 0.000000
v 0.110666 -0.170695 0.000000
v 0.108455 -0.180585 0.000000
v 0.104743 -0.190489 0.000000
v 0.099510 -0.200206 0.000000
v 0.092736 -0.209533 0.000000
v 0.084399 -0.218271 0.000000
v 0.074479 -0.226216 0.000000
v 0.062955 -0.233169 0.000000
v 0.049805 -0.238927 0.000000
v 0.035010 -0.243289 0.000000
v 0.018548 -0.246054 0.000000
v 0.000399 -0.247021 0.000000
v -0.016262 -0.246295 0.000000
v -0.032726 -0.244132 0.000000
v -0.048960 -0.240552 0.000000
v -0.064934 -0.235576 0.000000
v -0.080617 -0.229225 0.000000
v -0.095976 -0.221521 0.000000
v -0.110981 -0.212482 0.000000
v -0.125601 -0.202132 0.000000
v -0.139804 -0.190489 0.000000
v -0.153559 -0.177576 0.000000
v -0.166835 -0.163413 0.000000
v -0.179601 -0.148021 0.000000
v -0.179601 -0.272021 0.000000
v -0.165282 -0.282293 0.000000
v -0.150800 -0.291618 0.000000
v -0.136117 -0.300005 0.000000
v -0.121194 -0.307465 0.000000
v -0.105993 -0.314008 0.000000
v -0.090476 -0.319645 0.000000
v -0.074605 -0.324387 0.000000
v -0.058342 -0.328243 -0.000000
v -0.041648 -0.331224 -0.000000
v -0.024485 -0.333340 -0.000000
v -0.006816 -0.334602 -0.000000
v 0.011399 -0.335021 -0.000000
v 0.038265 -0.333424 -0.000000
v 0.063742 -0.328747 -0.000000
v 0.087649 -0.321161 0.000000
v 0.109806 -0.310835 0.000000
v 0.130033 -0.297940 0.000000
v 0.148149 -0.282645 0.000000
v 0.163973 -0.265122 0.000000
v 0.177325 -0.245539 0.000000
v 0.188024 -0.224067 0.000000
v 0.195890 -0.200877 0.000000
v 0.200742 -0.176138 0.000000
v 0.202399 -0.150020 0.000000
v 0.196595 -0.100129 0.000000
v 0.180547 -0.058141 0.000000
v 0.156305 -0.022833 0.000000
v 0.125918 0.007017 0.000000
v 0.091433 0.032630 0.000000
v 0.054899 0.055229 0.000000
v 0.018366 0.076037 0.000000
v -0.016119 0.096276 0.000000
v -0.046507 0.117167 0.000000
v -0.070749 0.139933 0.000000
v -0.086796 0.165797 0.000000
v -0.092601 0.195980 0.000000
v -0.091679 0.207657 0.000000
v -0.088976 0.218646 0.000000
v -0.084585 0.228886 0.000000
v -0.078601 0.238313 0.000000
v -0.071117 0.246865 0.000000
v -0.062226 0.254480 0.000000
v -0.052023 0.261094 0.000000
v -0.040601 0.266646 0.000000
v -0.028054 0.271073 0.000000
v -0.014476 0.274313 0.000000
v 0.000040 0.276302 0.000000
v 0.015399 0.276980 0.000000
v 0.027103 0.276633 0.000000
v 0.039195 0.275540 0.000000
v 0.051649 0.273620 0.000000
v 0.064436 0.270794 0.000000
v 0.077529 0.266982 0.000000
v 0.090899 0.262105 0.000000
v 0.104519 0.256081 0.000000
v 0.118362 0.248831 0.000000
v 0.132399 0.240276 0.000000
v 0.146603 0.230336 0.000000
v 0.160945 0.218930 0.000000
v 0.175399 0.205979 0.000000
vn -0.0000 -0.0000 1.0000
vt 0.107438 0.000000
vt 0.090909 0.000000
vt 0.099174 0.000000
vt 0.082645 0.000000
vt 0.074380 0.000000
vt 0.115702 0.000000
vt 0.066116 0.000000
vt 0.057851 0.000000
vt 0.123967 0.000000
vt 0.049587 0.000000
vt 0.041322 0.000000
vt 0.132231 0.000000
vt 0.033058 0.000000
vt 0.024793 0.000000
vt 0.140496 0.000000
vt 0.016529 0.000000
vt 0.008264 0.000000
vt 0.148760 0.000000
vt 0.000000 0.000000
vt 0.933884 0.000000
vt 0.942149 0.000000
vt 0.950413 0.000000
vt 0.958678 0.000000
vt 0.966942 0.000000
vt 0.975207 0.000000
vt 0.983471 0.000000
vt 0.991736 0.000000
vt 1.000000 0.000000
vt 0.157025 0.000000
vt 0.917355 0.000000
vt 0.925620 0.000000
vt 0.165289 0.000000
vt 0.900826 0.000000
vt 0.909091 0.000000
vt 0.173554 0.000000
vt 0.892562 0.000000
vt 0.884298 0.000000
vt 0.876033 0.000000
vt 0.867769 0.000000
vt 0.859504 0.000000
vt 0.851240 0.000000
vt 0.181818 0.000000
vt 0.842975 0.000000
vt 0.834711 0.000000
vt 0.826446 0.000000
vt 0.190083 0.000000
vt 0.818182 0.000000
vt 0.809917 0.000000
vt 0.198347 0.000000
vt 0.801653 0.000000
vt 0.793388 0.000000
vt 0.206612 0.000000
vt 0.785124 0.000000
vt 0.776860 0.000000
vt 0.214876 0.000000
vt 0.768595 0.000000
vt 0.223140 0.000000
vt 0.760331 0.000000
vt 0.752066 0.000000
vt 0.231405 0.000000
vt 0.743802 0.000000
vt 0.239669 0.000000
vt 0.735537 0.000000
vt 0.247934 0.000000
vt 0.727273 0.000000
vt 0.256198 0.000000
vt 0.719008 0.000000
vt 0.264463 0.000000
vt 0.272727 0.000000
vt 0.710744 0.000000
vt 0.280992 0.000000
vt 0.289256 0.000000
vt 0.702479 0.000000
vt 0.297521 0.000000
vt 0.504132 0.000000
vt 0.487603 0.000000
vt 0.495868 0.000000
vt 0.694215 0.000000
vt 0.305785 0.000000
vt 0.479339 0.000000
vt 0.314050 0.000000
vt 0.685950 0.000000
vt 0.471074 0.000000
vt 0.322314 0.000000
vt 0.462810 0.000000
vt 0.330579 0.000000
vt 0.338843 0.000000
vt 0.677686 0.000000
vt 0.454545 0.000000
vt 0.347107 0.000000
vt 0.446281 0.000000
vt 0.355372 0.000000
vt 0.438017 0.000000
vt 0.669421 0.000000
vt 0.363636 0.000000
vt 0.429752 0.000000
vt 0.371901 0.000000
vt 0.421488 0.000000
vt 0.380165 0.000000
vt 0.413223 0.000000
vt 0.388430 0.000000
vt 0.404959 0.000000
vt 0.661157 0.000000
vt 0.396694 0.000000
vt 0.652893 0.000000
vt 0.512397 0.000000
vt 0.520661 0.000000
vt 0.644628 0.000000
vt 0.528926 0.000000
vt 0.636364 0.000000
vt 0.537190 0.000000
vt 0.545455 0.000000
vt 0.628099 0.000000
vt 0.553719 0.000000
vt 0.561983 0.000000
vt 0.619835 0.000000
vt 0.570248 0.000000
vt 0.578512 0.000000
vt 0.611570 0.000000
vt 0.586777 0.000000
vt 0.595041 0.000000
vt 0.603306 0.000000
s 0
f 14/1/1 12/2/1 13/3/1
f 14/1/1 11/4/1 12/2/1
f 14/1/1 10/5/1 11/4/1
f 15/6/1 10/5/1 14/1/1
f 15/6/1 9/7/1 10/5/1
f 15/6/1 8/8/1 9/7/1
f 16/9/1 8/8/1 15/6/1
f 16/9/1 7/10/1 8/8/1
f 16/9/1 6/11/1 7/10/1
f 17/12/1 6/11/1 16/9/1
f 17/12/1 5/13/1 6/11/1
f 17/12/1 4/14/1 5/13/1
f 18/15/1 4/14/1 17/12/1
f 18/15/1 3/16/1 4/14/1
f 18/15/1 2/17/1 3/16/1
f 19/18/1 2/17/1 18/15/1
f 19/18/1 1/19/1 2/17/1
f 19/18/1 114/20/1 1/19/1
f 114/20/1 115/21/1 1/19/1
f 115/21/1 116/22/1 1/19/1
f 116/22/1 117/23/1 1/19/1
f 117/23/1 118/24/1 1/19/1
f 118/24/1 119/25/1 1/19/1
f 119/25/1 120/26/1 1/19/1
f 120/26/1 121/27/1 1/19/1
f 121/27/1 122/28/1 1/19/1
f 20/29/1 112/30/1 19/18/1
f 112/30/1 113/31/1 19/18/1
f 113/31/1 114/20/1 19/18/1
f 21/32/1 110/33/1 20/29/1
f 110/33/1 111/34/1 20/29/1
f 111/34/1 112/30/1 20/29/1
f 22/35/1 109/36/1 21/32/1
f 109/36/1 110/33/1 21/32/1
f 22/35/1 108/37/1 109/36/1
f 22/35/1 107/38/1 108/37/1
f 22/35/1 106/39/1 107/38/1
f 22/35/1 105/40/1 106/39/1
f 22/35/1 104/41/1 105/40/1
f 23/42/1 104/41/1 22/35/1
f 23/42/1 103/43/1 104/41/1
f 23/42/1 102/44/1 103/43/1
f 23/42/1 101/45/1 102/44/1
f 24/46/1 101/45/1 23/42/1
f 24/46/1 100/47/1 101/45/1
f 24/46/1 99/48/1 100/47/1
f 25/49/1 99/48/1 24/46/1
f 25/49/1 98/50/1 99/48/1
f 25/49/1 97/51/1 98/50/1
f 26/52/1 97/51/1 25/49/1
f 26/52/1 96/53/1 97/51/1
f 26/52/1 95/54/1 96/53/1
f 27/55/1 95/54/1 26/52/1
f 27/55/1 94/56/1 95/54/1
f 28/57/1 94/56/1 27/55/1
f 28/57/1 93/58/1 94/56/1
f 28/57/1 92/59/1 93/58/1
f 29/60/1 92/59/1 28/57/1
f 29/60/1 91/61/1 92/59/1
f 30/62/1 91/61/1 29/60/1
f 30/62/1 90/63/1 91/61/1
f 31/64/1 90/63/1 30/62/1
f 31/64/1 89/65/1 90/63/1
f 32/66/1 89/65/1 31/64/1
f 32/66/1 88/67/1 89/65/1
f 33/68/1 88/67/1 32/66/1
f 34/69/1 88/67/1 33/68/1
f 34/69/1 87/70/1 88/67/1
f 35/71/1 87/70/1 34/69/1
f 36/72/1 87/70/1 35/71/1
f 36/72/1 86/73/1 87/70/1
f 37/74/1 86/73/1 36/72/1
f 62/75/1 60/76/1 61/77/1
f 37/74/1 85/78/1 86/73/1
f 38/79/1 85/78/1 37/74/1
f 62/75/1 59/80/1 60/76/1
f 39/81/1 85/78/1 38/79/1
f 39/81/1 84/82/1 85/78/1
f 62/75/1 58/83/1 59/80/1
f 40/84/1 84/82/1 39/81/1
f 62/75/1 57/85/1 58/83/1
f 41/86/1 84/82/1 40/84/1
f 42/87/1 84/82/1 41/86/1
f 42/87/1 83/88/1 84/82/1
f 62/75/1 56/89/1 57/85/1
f 43/90/1 83/88/1 42/87/1
f 62/75/1 55/91/1 56/89/1
f 44/92/1 83/88/1 43/90/1
f 62/75/1 54/93/1 55/91/1
f 44/92/1 82/94/1 83/88/1
f 45/95/1 82/94/1 44/92/1
f 62/75/1 53/96/1 54/93/1
f 46/97/1 82/94/1 45/95/1
f 62/75/1 52/98/1 53/96/1
f 47/99/1 82/94/1 46/97/1
f 62/75/1 51/100/1 52/98/1
f 48/101/1 82/94/1 47/99/1
f 62/75/1 50/102/1 51/100/1
f 48/101/1 81/103/1 82/94/1
f 49/104/1 81/103/1 48/101/1
f 62/75/1 49/104/1 50/102/1
f 62/75/1 81/103/1 49/104/1
f 62/75/1 80/105/1 81/103/1
f 63/106/1 80/105/1 62/75/1
f 64/107/1 80/105/1 63/106/1
f 64/107/1 79/108/1 80/105/1
f 65/109/1 79/108/1 64/107/1
f 65/109/1 78/110/1 79/108/1
f 66/111/1 78/110/1 65/109/1
f 67/112/1 78/110/1 66/111/1
f 67/112/1 77/113/1 78/110/1
f 68/114/1 77/113/1 67/112/1
f 69/115/1 77/113/1 68/114/1
f 69/115/1 76/116/1 77/113/1
f 70/117/1 76/116/1 69/115/1
f 71/118/1 76/116/1 70/117/1
f 71/118/1 75/119/1 76/116/1
f 72/120/1 75/119/1 71/118/1
f 73/121/1 75/119/1 72/120/1
f 73/121/1 74/122/1 75/119/1
