# Blender 4.4.1
# www.blender.org
mtllib 2.mtl
o テキスト
v 0.000000 0.093000 -0.237861
v 0.000000 0.093000 0.023139
v 0.000000 0.136478 -0.012963
v 0.000000 0.176657 -0.045343
v 0.000000 0.213906 -0.074111
v 0.000000 0.248593 -0.099380
v 0.000000 0.281085 -0.121259
v 0.000000 0.311750 -0.139861
v 0.000000 0.340957 -0.155296
v 0.000000 0.369074 -0.167676
v 0.000000 0.396469 -0.177111
v 0.000000 0.423509 -0.183713
v 0.000000 0.450564 -0.187593
v 0.000000 0.478000 -0.188861
v 0.000000 0.508660 -0.187118
v 0.000000 0.537528 -0.181995
v 0.000000 0.564438 -0.173658
v 0.000000 0.589222 -0.162269
v 0.000000 0.611715 -0.147990
v 0.000000 0.631750 -0.130986
v 0.000000 0.649160 -0.111420
v 0.000000 0.663778 -0.089454
v 0.000000 0.675438 -0.065252
v 0.000000 0.683972 -0.038977
v 0.000000 0.689215 -0.010792
v 0.000000 0.691000 0.019139
v 0.000000 0.690561 0.032810
v 0.000000 0.689241 0.046343
v 0.000000 0.687031 0.059764
v 0.000000 0.683926 0.073102
v 0.000000 0.679918 0.086384
v 0.000000 0.675000 0.099639
v 0.000000 0.669166 0.112893
v 0.000000 0.662407 0.126176
v 0.000000 0.654719 0.139514
v 0.000000 0.646093 0.152935
v 0.000000 0.636522 0.166468
v 0.000000 0.626000 0.180139
v 0.000000 0.503000 0.180139
v 0.000000 0.519515 0.166491
v 0.000000 0.534120 0.153037
v 0.000000 0.546906 0.139764
v 0.000000 0.557963 0.126657
v 0.000000 0.567381 0.113704
v 0.000000 0.575250 0.100889
v 0.000000 0.581661 0.088199
v 0.000000 0.586704 0.075620
v 0.000000 0.590469 0.063139
v 0.000000 0.593046 0.050741
v 0.000000 0.594527 0.038412
v 0.000000 0.595000 0.026139
v 0.000000 0.593914 0.009762
v 0.000000 0.590727 -0.005792
v 0.000000 0.585547 -0.020408
v 0.000000 0.578481 -0.033972
v 0.000000 0.569638 -0.046370
v 0.000000 0.559125 -0.057486
v 0.000000 0.547049 -0.067207
v 0.000000 0.533518 -0.075417
v 0.000000 0.518641 -0.082002
v 0.000000 0.502523 -0.086847
v 0.000000 0.485274 -0.089839
v 0.000000 0.467000 -0.090861
v 0.000000 0.453204 -0.090528
v 0.000000 0.440213 -0.089528
v 0.000000 0.427875 -0.087861
v 0.000000 0.416037 -0.085528
v 0.000000 0.404546 -0.082528
v 0.000000 0.393250 -0.078861
v 0.000000 0.381995 -0.074528
v 0.000000 0.370630 -0.069528
v 0.000000 0.359000 -0.063861
v 0.000000 0.346954 -0.057528
v 0.000000 0.334338 -0.050528
v 0.000000 0.321000 -0.042861
v 0.000000 0.295763 -0.027446
v 0.000000 0.269685 -0.010375
v 0.000000 0.242969 0.008092
v 0.000000 0.215815 0.027694
v 0.000000 0.188425 0.048172
v 0.000000 0.161000 0.069264
v 0.000000 0.133742 0.090710
v 0.000000 0.106852 0.112250
v 0.000000 0.080531 0.133623
v 0.000000 0.054981 0.154569
v 0.000000 0.030404 0.174828
v 0.000000 0.007000 0.194139
v 0.000000 0.000000 0.194139
v 0.000000 -0.000000 -0.237861
v 0.053503 0.691000 0.019139
v 0.053503 0.690561 0.032810
v 0.053503 0.689215 -0.010792
v 0.053503 0.689241 0.046343
v 0.053503 0.687031 0.059764
v 0.053503 0.683972 -0.038977
v 0.053503 0.683926 0.073102
v 0.053503 0.675438 -0.065252
v 0.053503 0.679918 0.086384
v 0.053503 0.675000 0.099639
v 0.053503 0.663778 -0.089454
v 0.053503 0.669166 0.112893
v 0.053503 0.662407 0.126176
v 0.053503 0.649160 -0.111420
v 0.053503 0.654719 0.139514
v 0.053503 0.646093 0.152935
v 0.053503 0.631750 -0.130986
v 0.053503 0.636522 0.166468
v 0.053503 0.626000 0.180139
v 0.053503 0.611715 -0.147990
v 0.053503 0.503000 0.180139
v 0.053503 0.519515 0.166491
v 0.053503 0.534120 0.153037
v 0.053503 0.546906 0.139764
v 0.053503 0.557963 0.126657
v 0.053503 0.567381 0.113704
v 0.053503 0.575250 0.100889
v 0.053503 0.581661 0.088199
v 0.053503 0.586704 0.075620
v 0.053503 0.590469 0.063139
v 0.053503 0.593046 0.050741
v 0.053503 0.594527 0.038412
v 0.053503 0.595000 0.026139
v 0.053503 0.589222 -0.162269
v 0.053503 0.593914 0.009762
v 0.053503 0.590727 -0.005792
v 0.053503 0.585547 -0.020408
v 0.053503 0.564438 -0.173658
v 0.053503 0.578481 -0.033972
v 0.053503 0.569638 -0.046370
v 0.053503 0.559125 -0.057486
v 0.053503 0.537528 -0.181995
v 0.053503 0.547049 -0.067207
v 0.053503 0.533518 -0.075417
v 0.053503 0.508660 -0.187118
v 0.053503 0.518641 -0.082002
v 0.053503 0.502523 -0.086847
v 0.053503 0.478000 -0.188861
v 0.053503 0.485274 -0.089839
v 0.053503 0.467000 -0.090861
v 0.053503 0.450564 -0.187593
v 0.053503 0.453204 -0.090528
v 0.053503 0.440213 -0.089528
v 0.053503 0.423509 -0.183713
v 0.053503 0.427875 -0.087861
v 0.053503 0.416037 -0.085528
v 0.053503 0.396469 -0.177111
v 0.053503 0.404546 -0.082528
v 0.053503 0.393250 -0.078861
v 0.053503 0.369074 -0.167676
v 0.053503 0.381995 -0.074528
v 0.053503 0.370630 -0.069528
v 0.053503 0.359000 -0.063861
v 0.053503 0.340957 -0.155296
v 0.053503 0.346954 -0.057528
v 0.053503 0.334338 -0.050528
v 0.053503 0.311750 -0.139861
v 0.053503 0.321000 -0.042861
v 0.053503 0.295763 -0.027446
v 0.053503 0.281085 -0.121259
v 0.053503 0.269685 -0.010375
v 0.053503 0.248593 -0.099380
v 0.053503 0.242969 0.008092
v 0.053503 0.213906 -0.074111
v 0.053503 0.215815 0.027694
v 0.053503 0.188425 0.048172
v 0.053503 0.176657 -0.045343
v 0.053503 0.161000 0.069264
v 0.053503 0.136478 -0.012963
v 0.053503 0.133742 0.090710
v 0.053503 0.093000 0.023139
v 0.053503 0.106852 0.112250
v 0.053503 0.080531 0.133623
v 0.053503 0.093000 -0.237861
v 0.053503 -0.000000 -0.237861
v 0.053503 0.054981 0.154569
v 0.053503 0.030404 0.174828
v 0.053503 0.007000 0.194139
v 0.053503 0.000000 0.194139
vn -0.6999 0.7128 0.0462
vn -0.6969 0.7171 -0.0098
vn -0.6934 0.7152 -0.0875
vn -0.6998 0.7083 0.0928
vn -0.6998 0.7007 0.1391
vn -0.6928 0.6989 -0.1777
vn -0.6999 0.6900 0.1842
vn -0.6922 0.6698 -0.2687
vn -0.7002 0.6768 0.2274
vn -0.7005 0.6614 0.2680
vn -0.6919 0.6273 -0.3575
vn -0.7009 0.6446 0.3056
vn -0.7013 0.6267 0.3398
vn -0.6917 0.5718 -0.4412
vn -0.7017 0.6085 0.3706
vn -0.7021 0.5903 0.3982
vn -0.6917 0.5046 -0.5166
vn -0.7026 0.5726 0.4225
vn -0.6198 0.3466 0.7040
vn -0.6919 0.4281 -0.5814
vn -0.5447 -0.7891 0.2839
vn -0.7132 -0.4609 -0.5281
vn -0.7139 -0.4896 -0.5007
vn -0.7146 -0.5195 -0.4684
vn -0.7153 -0.5500 -0.4311
vn -0.7160 -0.5802 -0.3882
vn -0.7165 -0.6090 -0.3401
vn -0.7170 -0.6352 -0.2871
vn -0.7172 -0.6577 -0.2305
vn -0.7171 -0.6754 -0.1717
vn -0.7168 -0.6881 -0.1126
vn -0.7163 -0.6956 -0.0551
vn -0.7191 -0.6949 0.0096
vn -0.6923 0.3448 -0.6339
vn -0.7227 -0.6849 0.0924
vn -0.7230 -0.6656 0.1852
vn -0.7231 -0.6333 0.2756
vn -0.6927 0.2578 -0.6735
vn -0.7231 -0.5889 0.3610
vn -0.7230 -0.5335 0.4390
vn -0.7227 -0.4689 0.5078
vn -0.6933 0.1699 -0.7003
vn -0.7223 -0.3971 0.5662
vn -0.7219 -0.3202 0.6135
vn -0.6940 0.0835 -0.7151
vn -0.7214 -0.2403 0.6495
vn -0.7209 -0.1593 0.6745
vn -0.6957 0.0038 -0.7183
vn -0.7204 -0.0788 0.6891
vn -0.7162 -0.0111 0.6978
vn -0.6964 -0.0676 -0.7144
vn -0.7131 0.0354 0.7002
vn -0.7136 0.0738 0.6966
vn -0.6963 -0.1362 -0.7047
vn -0.7140 0.1146 0.6907
vn -0.7140 0.1562 0.6825
vn -0.6969 -0.2020 -0.6882
vn -0.7138 0.1967 0.6722
vn -0.7132 0.2342 0.6607
vn -0.6979 -0.2612 -0.6669
vn -0.7124 0.2674 0.6488
vn -0.7115 0.2954 0.6375
vn -0.7106 0.3179 0.6277
vn -0.6992 -0.3113 -0.6437
vn -0.7097 0.3349 0.6199
vn -0.7088 0.3469 0.6142
vn -0.7005 -0.3519 -0.6208
vn -0.7101 0.3590 0.6057
vn -0.7106 0.3761 0.5946
vn -0.7018 -0.3838 -0.6001
vn -0.7100 0.3931 0.5843
vn -0.7030 -0.4081 -0.5825
vn -0.7094 0.4067 0.5756
vn -0.7040 -0.4262 -0.5681
vn -0.7090 0.4175 0.5683
vn -0.7086 0.4263 0.5622
vn -0.7048 -0.4394 -0.5569
vn -0.7084 0.4334 0.5571
vn -0.7055 -0.4488 -0.5486
vn -0.7081 0.4390 0.5530
vn -0.9708 0.1019 -0.2171
vn -0.7079 0.4434 0.5498
vn -0.7076 0.4467 0.5475
vn -0.5774 0.5773 -0.5773
vn -0.5773 -0.5774 -0.5774
vn -0.7074 0.4488 0.5460
vn -0.7072 0.4499 0.5455
vn -0.6383 0.2603 0.7244
vn -0.5774 -0.5774 0.5774
vn 0.6999 0.7128 0.0462
vn 0.6934 0.7152 -0.0875
vn 0.6969 0.7171 -0.0098
vn 0.6998 0.7083 0.0928
vn 0.6998 0.7007 0.1391
vn 0.6928 0.6989 -0.1777
vn 0.6999 0.6900 0.1842
vn 0.6922 0.6698 -0.2687
vn 0.7002 0.6768 0.2274
vn 0.7005 0.6614 0.2680
vn 0.6919 0.6273 -0.3575
vn 0.7009 0.6446 0.3056
vn 0.7013 0.6267 0.3398
vn 0.6917 0.5718 -0.4412
vn 0.7017 0.6085 0.3706
vn 0.7021 0.5903 0.3982
vn 0.6917 0.5046 -0.5166
vn 0.7026 0.5726 0.4225
vn 0.6198 0.3466 0.7040
vn 0.6919 0.4281 -0.5814
vn 0.5447 -0.7891 0.2839
vn 0.7132 -0.4609 -0.5281
vn 0.7139 -0.4896 -0.5007
vn 0.7146 -0.5195 -0.4684
vn 0.7153 -0.5500 -0.4311
vn 0.7160 -0.5802 -0.3882
vn 0.7165 -0.6090 -0.3401
vn 0.7170 -0.6352 -0.2871
vn 0.7172 -0.6577 -0.2305
vn 0.7171 -0.6754 -0.1717
vn 0.7168 -0.6881 -0.1126
vn 0.7163 -0.6956 -0.0551
vn 0.7191 -0.6949 0.0096
vn 0.6923 0.3448 -0.6339
vn 0.7227 -0.6849 0.0924
vn 0.7230 -0.6656 0.1852
vn 0.7231 -0.6333 0.2756
vn 0.6927 0.2578 -0.6735
vn 0.7231 -0.5889 0.3610
vn 0.7230 -0.5335 0.4390
vn 0.7227 -0.4689 0.5078
vn 0.6933 0.1699 -0.7003
vn 0.7223 -0.3971 0.5662
vn 0.7219 -0.3202 0.6135
vn 0.6940 0.0835 -0.7151
vn 0.7214 -0.2403 0.6495
vn 0.7209 -0.1593 0.6745
vn 0.6957 0.0038 -0.7183
vn 0.7204 -0.0788 0.6891
vn 0.7162 -0.0111 0.6978
vn 0.6964 -0.0676 -0.7144
vn 0.7131 0.0354 0.7002
vn 0.7136 0.0738 0.6966
vn 0.6963 -0.1362 -0.7047
vn 0.7140 0.1146 0.6907
vn 0.7140 0.1562 0.6825
vn 0.6969 -0.2020 -0.6882
vn 0.7138 0.1967 0.6722
vn 0.7132 0.2342 0.6607
vn 0.6979 -0.2612 -0.6669
vn 0.7124 0.2674 0.6488
vn 0.7115 0.2954 0.6375
vn 0.7106 0.3179 0.6277
vn 0.6992 -0.3113 -0.6437
vn 0.7097 0.3349 0.6199
vn 0.7088 0.3469 0.6142
vn 0.7005 -0.3519 -0.6208
vn 0.7101 0.3590 0.6057
vn 0.7106 0.3761 0.5946
vn 0.7018 -0.3838 -0.6001
vn 0.7100 0.3931 0.5843
vn 0.7030 -0.4081 -0.5825
vn 0.7094 0.4067 0.5756
vn 0.7040 -0.4262 -0.5681
vn 0.7090 0.4175 0.5683
vn 0.7086 0.4263 0.5622
vn 0.7048 -0.4394 -0.5569
vn 0.7084 0.4334 0.5571
vn 0.7055 -0.4488 -0.5486
vn 0.7081 0.4390 0.5530
vn 0.9708 0.1019 -0.2171
vn 0.7079 0.4434 0.5498
vn 0.7076 0.4467 0.5475
vn 0.5774 0.5773 -0.5773
vn 0.5773 -0.5774 -0.5774
vn 0.7074 0.4488 0.5460
vn 0.7072 0.4499 0.5455
vn 0.6383 0.2603 0.7244
vn 0.5774 -0.5774 0.5774
vt 0.295455 0.000000
vt 0.284091 0.000000
vt 0.272727 0.000000
vt 0.306818 0.000000
vt 0.318182 0.000000
vt 0.261364 0.000000
vt 0.329545 0.000000
vt 0.250000 0.000000
vt 0.340909 0.000000
vt 0.352273 0.000000
vt 0.238636 0.000000
vt 0.363636 0.000000
vt 0.375000 0.000000
vt 0.227273 0.000000
vt 0.386364 0.000000
vt 0.397727 0.000000
vt 0.215909 0.000000
vt 0.409091 0.000000
vt 0.420455 0.000000
vt 0.204545 0.000000
vt 0.431818 0.000000
vt 0.443182 0.000000
vt 0.454545 0.000000
vt 0.465909 0.000000
vt 0.477273 0.000000
vt 0.488636 0.000000
vt 0.500000 0.000000
vt 0.511364 0.000000
vt 0.522727 0.000000
vt 0.534091 0.000000
vt 0.545455 0.000000
vt 0.556818 0.000000
vt 0.568182 0.000000
vt 0.193182 0.000000
vt 0.579545 0.000000
vt 0.590909 0.000000
vt 0.602273 0.000000
vt 0.181818 0.000000
vt 0.613636 0.000000
vt 0.625000 0.000000
vt 0.636364 0.000000
vt 0.170455 0.000000
vt 0.647727 0.000000
vt 0.659091 0.000000
vt 0.159091 0.000000
vt 0.670455 0.000000
vt 0.681818 0.000000
vt 0.147727 0.000000
vt 0.693182 0.000000
vt 0.704545 0.000000
vt 0.136364 0.000000
vt 0.715909 0.000000
vt 0.727273 0.000000
vt 0.125000 0.000000
vt 0.738636 0.000000
vt 0.750000 0.000000
vt 0.113636 0.000000
vt 0.761364 0.000000
vt 0.772727 0.000000
vt 0.102273 0.000000
vt 0.784091 0.000000
vt 0.795455 0.000000
vt 0.806818 0.000000
vt 0.090909 0.000000
vt 0.818182 0.000000
vt 0.829545 0.000000
vt 0.079545 0.000000
vt 0.840909 0.000000
vt 0.852273 0.000000
vt 0.068182 0.000000
vt 0.863636 0.000000
vt 0.056818 0.000000
vt 0.875000 0.000000
vt 0.045455 0.000000
vt 0.886364 0.000000
vt 0.897727 0.000000
vt 0.034091 0.000000
vt 0.909091 0.000000
vt 0.022727 0.000000
vt 0.920455 0.000000
vt 0.011364 0.000000
vt 0.931818 0.000000
vt 0.943182 0.000000
vt 0.000000 0.000000
vt 1.000000 0.000000
vt 0.954545 0.000000
vt 0.965909 0.000000
vt 0.977273 0.000000
vt 0.988636 0.000000
s 1
usemtl マテリアル.002
f 27/1/1 26/2/2 25/3/3
f 28/4/4 27/1/1 25/3/3
f 29/5/5 28/4/4 25/3/3
f 29/5/5 25/3/3 24/6/6
f 30/7/7 29/5/5 24/6/6
f 30/7/7 24/6/6 23/8/8
f 31/9/9 30/7/7 23/8/8
f 32/10/10 31/9/9 23/8/8
f 32/10/10 23/8/8 22/11/11
f 33/12/12 32/10/10 22/11/11
f 34/13/13 33/12/12 22/11/11
f 34/13/13 22/11/11 21/14/14
f 35/15/15 34/13/13 21/14/14
f 36/16/16 35/15/15 21/14/14
f 36/16/16 21/14/14 20/17/17
f 37/18/18 36/16/16 20/17/17
f 38/19/19 37/18/18 20/17/17
f 38/19/19 20/17/17 19/20/20
f 39/21/21 38/19/19 40/22/22
f 40/22/22 38/19/19 41/23/23
f 41/23/23 38/19/19 42/24/24
f 42/24/24 38/19/19 43/25/25
f 43/25/25 38/19/19 44/26/26
f 44/26/26 38/19/19 45/27/27
f 45/27/27 38/19/19 46/28/28
f 46/28/28 38/19/19 47/29/29
f 47/29/29 38/19/19 48/30/30
f 48/30/30 38/19/19 49/31/31
f 49/31/31 38/19/19 50/32/32
f 50/32/32 38/19/19 19/20/20
f 50/32/32 19/20/20 51/33/33
f 51/33/33 19/20/20 18/34/34
f 52/35/35 51/33/33 18/34/34
f 53/36/36 52/35/35 18/34/34
f 54/37/37 53/36/36 18/34/34
f 54/37/37 18/34/34 17/38/38
f 55/39/39 54/37/37 17/38/38
f 56/40/40 55/39/39 17/38/38
f 57/41/41 56/40/40 17/38/38
f 57/41/41 17/38/38 16/42/42
f 58/43/43 57/41/41 16/42/42
f 59/44/44 58/43/43 16/42/42
f 59/44/44 16/42/42 15/45/45
f 60/46/46 59/44/44 15/45/45
f 61/47/47 60/46/46 15/45/45
f 61/47/47 15/45/45 14/48/48
f 62/49/49 61/47/47 14/48/48
f 63/50/50 62/49/49 14/48/48
f 63/50/50 14/48/48 13/51/51
f 64/52/52 63/50/50 13/51/51
f 65/53/53 64/52/52 13/51/51
f 65/53/53 13/51/51 12/54/54
f 66/55/55 65/53/53 12/54/54
f 67/56/56 66/55/55 12/54/54
f 67/56/56 12/54/54 11/57/57
f 68/58/58 67/56/56 11/57/57
f 69/59/59 68/58/58 11/57/57
f 69/59/59 11/57/57 10/60/60
f 70/61/61 69/59/59 10/60/60
f 71/62/62 70/61/61 10/60/60
f 72/63/63 71/62/62 10/60/60
f 72/63/63 10/60/60 9/64/64
f 73/65/65 72/63/63 9/64/64
f 74/66/66 73/65/65 9/64/64
f 74/66/66 9/64/64 8/67/67
f 75/68/68 74/66/66 8/67/67
f 76/69/69 75/68/68 8/67/67
f 76/69/69 8/67/67 7/70/70
f 77/71/71 76/69/69 7/70/70
f 77/71/71 7/70/70 6/72/72
f 78/73/73 77/71/71 6/72/72
f 78/73/73 6/72/72 5/74/74
f 79/75/75 78/73/73 5/74/74
f 80/76/76 79/75/75 5/74/74
f 80/76/76 5/74/74 4/77/77
f 81/78/78 80/76/76 4/77/77
f 81/78/78 4/77/77 3/79/79
f 82/80/80 81/78/78 3/79/79
f 82/80/80 3/79/79 2/81/81
f 83/82/82 82/80/80 2/81/81
f 84/83/83 83/82/82 2/81/81
f 84/83/83 2/81/81 1/84/84
f 84/83/83 1/84/84 89/85/85
f 85/86/86 84/83/83 89/85/85
f 86/87/87 85/86/86 89/85/85
f 87/88/88 86/87/87 89/85/85
f 88/89/89 87/88/88 89/85/85
f 91/1/90 92/3/91 90/2/92
f 93/4/93 92/3/91 91/1/90
f 94/5/94 92/3/91 93/4/93
f 94/5/94 95/6/95 92/3/91
f 96/7/96 95/6/95 94/5/94
f 96/7/96 97/8/97 95/6/95
f 98/9/98 97/8/97 96/7/96
f 99/10/99 97/8/97 98/9/98
f 99/10/99 100/11/100 97/8/97
f 101/12/101 100/11/100 99/10/99
f 102/13/102 100/11/100 101/12/101
f 102/13/102 103/14/103 100/11/100
f 104/15/104 103/14/103 102/13/102
f 105/16/105 103/14/103 104/15/104
f 105/16/105 106/17/106 103/14/103
f 107/18/107 106/17/106 105/16/105
f 108/19/108 106/17/106 107/18/107
f 108/19/108 109/20/109 106/17/106
f 110/21/110 111/22/111 108/19/108
f 111/22/111 112/23/112 108/19/108
f 112/23/112 113/24/113 108/19/108
f 113/24/113 114/25/114 108/19/108
f 114/25/114 115/26/115 108/19/108
f 115/26/115 116/27/116 108/19/108
f 116/27/116 117/28/117 108/19/108
f 117/28/117 118/29/118 108/19/108
f 118/29/118 119/30/119 108/19/108
f 119/30/119 120/31/120 108/19/108
f 120/31/120 121/32/121 108/19/108
f 121/32/121 109/20/109 108/19/108
f 121/32/121 122/33/122 109/20/109
f 122/33/122 123/34/123 109/20/109
f 124/35/124 123/34/123 122/33/122
f 125/36/125 123/34/123 124/35/124
f 126/37/126 123/34/123 125/36/125
f 126/37/126 127/38/127 123/34/123
f 128/39/128 127/38/127 126/37/126
f 129/40/129 127/38/127 128/39/128
f 130/41/130 127/38/127 129/40/129
f 130/41/130 131/42/131 127/38/127
f 132/43/132 131/42/131 130/41/130
f 133/44/133 131/42/131 132/43/132
f 133/44/133 134/45/134 131/42/131
f 135/46/135 134/45/134 133/44/133
f 136/47/136 134/45/134 135/46/135
f 136/47/136 137/48/137 134/45/134
f 138/49/138 137/48/137 136/47/136
f 139/50/139 137/48/137 138/49/138
f 139/50/139 140/51/140 137/48/137
f 141/52/141 140/51/140 139/50/139
f 142/53/142 140/51/140 141/52/141
f 142/53/142 143/54/143 140/51/140
f 144/55/144 143/54/143 142/53/142
f 145/56/145 143/54/143 144/55/144
f 145/56/145 146/57/146 143/54/143
f 147/58/147 146/57/146 145/56/145
f 148/59/148 146/57/146 147/58/147
f 148/59/148 149/60/149 146/57/146
f 150/61/150 149/60/149 148/59/148
f 151/62/151 149/60/149 150/61/150
f 152/63/152 149/60/149 151/62/151
f 152/63/152 153/64/153 149/60/149
f 154/65/154 153/64/153 152/63/152
f 155/66/155 153/64/153 154/65/154
f 155/66/155 156/67/156 153/64/153
f 157/68/157 156/67/156 155/66/155
f 158/69/158 156/67/156 157/68/157
f 158/69/158 159/70/159 156/67/156
f 160/71/160 159/70/159 158/69/158
f 160/71/160 161/72/161 159/70/159
f 162/73/162 161/72/161 160/71/160
f 162/73/162 163/74/163 161/72/161
f 164/75/164 163/74/163 162/73/162
f 165/76/165 163/74/163 164/75/164
f 165/76/165 166/77/166 163/74/163
f 167/78/167 166/77/166 165/76/165
f 167/78/167 168/79/168 166/77/166
f 169/80/169 168/79/168 167/78/167
f 169/80/169 170/81/170 168/79/168
f 171/82/171 170/81/170 169/80/169
f 172/83/172 170/81/170 171/82/171
f 172/83/172 173/84/173 170/81/170
f 172/83/172 174/85/174 173/84/173
f 175/86/175 174/85/174 172/83/172
f 176/87/176 174/85/174 175/86/175
f 177/88/177 174/85/174 176/87/176
f 178/89/178 174/85/174 177/88/177
f 76/69/69 77/71/71 160/71/160 158/69/158
f 67/56/56 68/58/58 147/58/147 145/56/145
f 1/84/84 2/81/81 170/81/170 173/84/173
f 37/18/18 38/19/19 108/19/108 107/18/107
f 15/45/45 16/42/42 131/42/131 134/45/134
f 24/6/6 25/3/3 92/3/91 95/6/95
f 68/58/58 69/59/59 148/59/148 147/58/147
f 59/44/44 60/46/46 135/46/135 133/44/133
f 50/32/32 51/33/33 122/33/122 121/32/121
f 89/85/85 1/84/84 173/84/173 174/85/174
f 6/72/72 7/70/70 159/70/159 161/72/161
f 29/5/5 30/7/7 96/7/96 94/5/94
f 84/83/83 85/86/86 175/86/175 172/83/172
f 19/20/20 20/17/17 106/17/106 109/20/109
f 77/71/71 78/73/73 162/73/162 160/71/160
f 60/46/46 61/47/47 136/47/136 135/46/135
f 38/19/19 39/21/21 110/21/110 108/19/108
f 10/60/60 11/57/57 146/57/146 149/60/149
f 18/34/34 19/20/20 109/20/109 123/34/123
f 85/86/86 86/87/87 176/87/176 175/86/175
f 39/21/21 40/22/22 111/22/111 110/21/110
f 23/8/8 24/6/6 95/6/95 97/8/97
f 69/59/59 70/61/61 150/61/150 148/59/148
f 51/33/33 52/35/35 124/35/124 122/33/122
f 5/74/74 6/72/72 161/72/161 163/74/163
f 30/7/7 31/9/9 98/9/98 96/7/96
f 14/48/48 15/45/45 134/45/134 137/48/137
f 86/87/87 87/88/88 177/88/177 176/87/176
f 40/22/22 41/23/23 112/23/112 111/22/111
f 78/73/73 79/75/75 164/75/164 162/73/162
f 70/61/61 71/62/62 151/62/151 150/61/150
f 61/47/47 62/49/49 138/49/138 136/47/136
f 52/35/35 53/36/36 125/36/125 124/35/124
f 31/9/9 32/10/10 99/10/99 98/9/98
f 87/88/88 88/89/89 178/89/178 177/88/177
f 41/23/23 42/24/24 113/24/113 112/23/112
f 79/75/75 80/76/76 165/76/165 164/75/164
f 71/62/62 72/63/63 152/63/152 151/62/151
f 62/49/49 63/50/50 139/50/139 138/49/138
f 53/36/36 54/37/37 126/37/126 125/36/125
f 88/89/89 89/85/85 174/85/174 178/89/178
f 42/24/24 43/25/25 114/25/114 113/24/113
f 22/11/11 23/8/8 97/8/97 100/11/100
f 4/77/77 5/74/74 163/74/163 166/77/166
f 32/10/10 33/12/12 101/12/101 99/10/99
f 9/64/64 10/60/60 149/60/149 153/64/153
f 13/51/51 14/48/48 137/48/137 140/51/140
f 17/38/38 18/34/34 123/34/123 127/38/127
f 43/25/25 44/26/26 115/26/115 114/25/114
f 80/76/76 81/78/78 167/78/167 165/76/165
f 72/63/63 73/65/65 154/65/154 152/63/152
f 63/50/50 64/52/52 141/52/141 139/50/139
f 54/37/37 55/39/39 128/39/128 126/37/126
f 33/12/12 34/13/13 102/13/102 101/12/101
f 44/26/26 45/27/27 116/27/116 115/26/115
f 73/65/65 74/66/66 155/66/155 154/65/154
f 64/52/52 65/53/53 142/53/142 141/52/141
f 55/39/39 56/40/40 129/40/129 128/39/128
f 3/79/79 4/77/77 166/77/166 168/79/168
f 45/27/27 46/28/28 117/28/117 116/27/116
f 81/78/78 82/80/80 169/80/169 167/78/167
f 21/14/14 22/11/11 100/11/100 103/14/103
f 56/40/40 57/41/41 130/41/130 129/40/129
f 34/13/13 35/15/15 104/15/104 102/13/102
f 8/67/67 9/64/64 153/64/153 156/67/156
f 12/54/54 13/51/51 140/51/140 143/54/143
f 46/28/28 47/29/29 118/29/118 117/28/117
f 74/66/66 75/68/68 157/68/157 155/66/155
f 26/2/2 27/1/1 91/1/90 90/2/92
f 65/53/53 66/55/55 144/55/144 142/53/142
f 2/81/81 3/79/79 168/79/168 170/81/170
f 35/15/15 36/16/16 105/16/105 104/15/104
f 16/42/42 17/38/38 127/38/127 131/42/131
f 47/29/29 48/30/30 119/30/119 118/29/118
f 82/80/80 83/82/82 171/82/171 169/80/169
f 75/68/68 76/69/69 158/69/158 157/68/157
f 25/3/3 26/2/2 90/2/92 92/3/91
f 66/55/55 67/56/56 145/56/145 144/55/144
f 57/41/41 58/43/43 132/43/132 130/41/130
f 27/1/1 28/4/4 93/4/93 91/1/90
f 48/30/30 49/31/31 120/31/120 119/30/119
f 83/82/82 84/83/83 172/83/172 171/82/171
f 20/17/17 21/14/14 103/14/103 106/17/106
f 58/43/43 59/44/44 133/44/133 132/43/132
f 36/16/16 37/18/18 107/18/107 105/16/105
f 7/70/70 8/67/67 156/67/156 159/70/159
f 28/4/4 29/5/5 94/5/94 93/4/93
f 11/57/57 12/54/54 143/54/143 146/57/146
f 49/31/31 50/32/32 121/32/121 120/31/120
