# Blender 4.4.1
# www.blender.org
mtllib 1.mtl
o テキスト
v 0.000000 0.682000 -0.071861
v 0.000000 0.682000 0.026139
v 0.000000 0.000000 0.026139
v 0.000000 -0.000000 -0.071861
v 0.052485 0.682000 0.026139
v 0.052485 0.000000 0.026139
v 0.052485 0.682000 -0.071861
v 0.052485 -0.000000 -0.071861
vn -0.5773 -0.5774 0.5774
vn -0.5774 0.5774 0.5774
vn -0.5773 0.5774 -0.5774
vn -0.5774 -0.5774 -0.5774
vn 0.5773 -0.5774 0.5774
vn 0.5773 0.5774 -0.5774
vn 0.5774 0.5774 0.5774
vn 0.5774 -0.5774 -0.5774
vt 0.666667 0.000000
vt 0.333333 0.000000
vt 0.000000 0.000000
vt 1.000000 0.000000
s 1
usemtl マテリアル.001
f 3/1/1 2/2/2 1/3/3
f 3/1/1 1/3/3 4/4/4
f 6/1/5 7/3/6 5/2/7
f 6/1/5 8/4/8 7/3/6
f 1/3/3 2/2/2 5/2/7 7/3/6
f 2/2/2 3/1/1 6/1/5 5/2/7
f 3/1/1 4/4/4 8/4/8 6/1/5
f 4/4/4 1/3/3 7/3/6 8/4/8
