# Blender 4.4.1
# www.blender.org
mtllib katana.mtl
o 円柱.001
v 0.000000 0.241175 0.010757
v 0.000000 0.191278 0.010757
v 0.001332 0.241175 0.010610
v 0.001332 0.191278 0.010610
v 0.002613 0.241175 0.010176
v 0.002613 0.191278 0.010176
v 0.003794 0.241175 0.009471
v 0.003794 0.191278 0.009471
v 0.004829 0.241175 0.008522
v 0.004829 0.191278 0.008522
v 0.005678 0.241175 0.007366
v 0.005678 0.191278 0.007366
v 0.006309 0.241175 0.006048
v 0.006309 0.191278 0.006048
v 0.006698 0.241175 0.004617
v 0.006698 0.191278 0.004617
v 0.006829 0.241175 0.003128
v 0.006829 0.191278 0.003128
v 0.006698 0.241175 0.001640
v 0.006698 0.191278 0.001640
v 0.006309 0.241175 0.000209
v 0.006309 0.191278 0.000209
v 0.005678 0.241175 -0.001110
v 0.005678 0.191278 -0.001110
v 0.004829 0.241175 -0.002266
v 0.004829 0.191278 -0.002266
v 0.003794 0.241175 -0.003214
v 0.003794 0.191278 -0.003214
v 0.002613 0.241175 -0.003919
v 0.002613 0.191278 -0.003919
v 0.001332 0.241175 -0.004353
v 0.001332 0.191278 -0.004353
v 0.000000 0.241175 -0.004500
v 0.000000 0.191278 -0.004500
v -0.001332 0.241175 -0.004353
v -0.001332 0.191278 -0.004353
v -0.002613 0.241175 -0.003919
v -0.002613 0.191278 -0.003919
v -0.003794 0.241175 -0.003214
v -0.003794 0.191278 -0.003214
v -0.004829 0.241175 -0.002266
v -0.004829 0.191278 -0.002266
v -0.005678 0.241175 -0.001110
v -0.005678 0.191278 -0.001110
v -0.006309 0.241175 0.000209
v -0.006309 0.191278 0.000209
v -0.006698 0.241175 0.001640
v -0.006698 0.191278 0.001640
v -0.006829 0.241175 0.003128
v -0.006829 0.191278 0.003128
v -0.006698 0.241175 0.004617
v -0.006698 0.191278 0.004617
v -0.006309 0.241175 0.006048
v -0.006309 0.191278 0.006048
v -0.005678 0.241175 0.007366
v -0.005678 0.191278 0.007366
v -0.004829 0.241175 0.008522
v -0.004829 0.191278 0.008522
v -0.003794 0.241175 0.009471
v -0.003794 0.191278 0.009471
v -0.002613 0.241175 0.010176
v -0.002613 0.191278 0.010176
v -0.001332 0.241175 0.010610
v -0.001332 0.191278 0.010610
v 0.000245 -0.243109 -0.020686
v 0.000245 0.192017 -0.020686
v -0.000688 -0.268257 -0.005993
v -0.000688 0.192017 -0.005993
v -0.001584 -0.268257 -0.005414
v -0.001584 0.192017 -0.005414
v -0.002410 -0.268257 -0.004474
v -0.002410 0.192017 -0.004474
v -0.003135 -0.268257 -0.003209
v -0.003135 0.192017 -0.003209
v -0.003729 -0.268257 -0.001668
v -0.003729 0.192017 -0.001668
v -0.004171 -0.268257 0.000091
v -0.004171 0.192017 0.000091
v -0.004443 -0.268257 0.001999
v -0.004443 0.192017 0.001999
v -0.004535 -0.268257 0.003983
v -0.004535 0.192017 0.003983
v -0.004443 -0.268257 0.005968
v -0.004443 0.192017 0.005968
v -0.004171 -0.268257 0.007876
v -0.004171 0.192017 0.007876
v -0.003729 -0.268257 0.009634
v -0.003729 0.192017 0.009634
v -0.003135 -0.268257 0.011176
v -0.003135 0.192017 0.011176
v -0.002410 -0.268257 0.012440
v -0.002410 0.192017 0.012440
v -0.001584 -0.268257 0.013380
v -0.001584 0.192017 0.013380
v -0.000688 -0.268257 0.013959
v -0.000688 0.192017 0.013959
v 0.000245 -0.268257 0.014155
v 0.000245 0.192017 0.014155
v 0.001177 -0.268257 0.013959
v 0.001177 0.192017 0.013959
v 0.002074 -0.268257 0.013380
v 0.002074 0.192017 0.013380
v 0.002900 -0.268257 0.012440
v 0.002900 0.192017 0.012440
v 0.003624 -0.268257 0.011176
v 0.003624 0.192017 0.011176
v 0.004219 -0.268257 0.009634
v 0.004219 0.192017 0.009634
v 0.004660 -0.268257 0.007876
v 0.004660 0.192017 0.007876
v 0.004932 -0.268257 0.005968
v 0.004932 0.192017 0.005968
v 0.005024 -0.268257 0.003983
v 0.005024 0.192017 0.003983
v 0.004932 -0.268257 0.001999
v 0.004932 0.192017 0.001999
v 0.004660 -0.268257 0.000091
v 0.004660 0.192017 0.000091
v 0.004219 -0.268257 -0.001668
v 0.004219 0.192017 -0.001668
v 0.003624 -0.268257 -0.003209
v 0.003624 0.192017 -0.003209
v 0.002900 -0.268257 -0.004474
v 0.002900 0.192017 -0.004474
v 0.002074 -0.268257 -0.005414
v 0.002074 0.192017 -0.005414
v 0.001177 -0.268257 -0.005993
v 0.001177 0.192017 -0.005993
v 0.030712 0.191979 0.027635
v -0.033783 0.191979 0.027635
v 0.030712 0.191979 -0.033241
v -0.033783 0.191979 -0.033241
vn 0.1094 -0.0000 0.9940
vn 0.3209 -0.0000 0.9471
vn 0.5126 -0.0000 0.8586
vn 0.6757 -0.0000 0.7371
vn 0.8059 -0.0000 0.5921
vn 0.9020 -0.0000 0.4316
vn 0.9650 -0.0000 0.2621
vn 0.9961 -0.0000 0.0878
vn 0.9961 -0.0000 -0.0878
vn 0.9650 -0.0000 -0.2621
vn 0.9020 -0.0000 -0.4316
vn 0.8059 -0.0000 -0.5921
vn 0.6757 -0.0000 -0.7371
vn 0.5126 -0.0000 -0.8586
vn 0.3209 -0.0000 -0.9471
vn 0.1094 -0.0000 -0.9940
vn -0.1094 -0.0000 -0.9940
vn -0.3209 -0.0000 -0.9471
vn -0.5126 -0.0000 -0.8586
vn -0.6757 -0.0000 -0.7371
vn -0.8059 -0.0000 -0.5921
vn -0.9020 -0.0000 -0.4316
vn -0.9650 -0.0000 -0.2621
vn -0.9961 -0.0000 -0.0878
vn -0.9961 -0.0000 0.0878
vn -0.9650 -0.0000 0.2621
vn -0.9020 -0.0000 0.4316
vn -0.8059 -0.0000 0.5921
vn -0.6757 -0.0000 0.7371
vn -0.5126 -0.0000 0.8586
vn -0.0000 -1.0000 -0.0000
vn -0.3209 -0.0000 0.9471
vn -0.1094 -0.0000 0.9940
vn -0.0000 1.0000 -0.0000
vn 0.9980 -0.0000 0.0633
vn 0.5424 -0.0000 0.8401
vn 0.7510 -0.0000 0.6602
vn 0.8678 -0.0000 0.4969
vn 0.9330 -0.0000 0.3598
vn 0.9699 -0.0000 0.2436
vn 0.9900 -0.0000 0.1411
vn 0.9989 -0.0000 0.0462
vn 0.9989 -0.0000 -0.0462
vn 0.9900 -0.0000 -0.1411
vn 0.9699 -0.0000 -0.2436
vn 0.9330 -0.0000 -0.3598
vn 0.8678 -0.0000 -0.4969
vn 0.7510 -0.0000 -0.6602
vn 0.5424 -0.0000 -0.8401
vn 0.2051 -0.0000 -0.9787
vn -0.2051 -0.0000 -0.9787
vn -0.5424 -0.0000 -0.8401
vn -0.7510 -0.0000 -0.6602
vn -0.8678 -0.0000 -0.4969
vn -0.9330 -0.0000 -0.3598
vn -0.9699 -0.0000 -0.2436
vn -0.9900 -0.0000 -0.1411
vn -0.9989 -0.0000 -0.0462
vn -0.9989 -0.0000 0.0462
vn -0.9900 -0.0000 0.1411
vn -0.9699 -0.0000 0.2436
vn -0.9330 -0.0000 0.3598
vn -0.8678 -0.0000 0.4969
vn -0.7510 -0.0000 0.6602
vn -0.5424 -0.0000 0.8401
vn -0.9980 -0.0000 0.0633
vn -0.0000 0.5045 0.8634
vt 1.000000 1.000000
vt 0.968750 0.500000
vt 1.000000 0.500000
vt 0.968750 1.000000
vt 0.937500 0.500000
vt 0.937500 1.000000
vt 0.906250 0.500000
vt 0.906250 1.000000
vt 0.875000 0.500000
vt 0.875000 1.000000
vt 0.843750 0.500000
vt 0.843750 1.000000
vt 0.812500 0.500000
vt 0.812500 1.000000
vt 0.781250 0.500000
vt 0.781250 1.000000
vt 0.750000 0.500000
vt 0.750000 1.000000
vt 0.718750 0.500000
vt 0.718750 1.000000
vt 0.687500 0.500000
vt 0.687500 1.000000
vt 0.656250 0.500000
vt 0.656250 1.000000
vt 0.625000 0.500000
vt 0.625000 1.000000
vt 0.593750 0.500000
vt 0.593750 1.000000
vt 0.562500 0.500000
vt 0.562500 1.000000
vt 0.531250 0.500000
vt 0.531250 1.000000
vt 0.500000 0.500000
vt 0.500000 1.000000
vt 0.468750 0.500000
vt 0.468750 1.000000
vt 0.437500 0.500000
vt 0.437500 1.000000
vt 0.406250 0.500000
vt 0.406250 1.000000
vt 0.375000 0.500000
vt 0.375000 1.000000
vt 0.343750 0.500000
vt 0.343750 1.000000
vt 0.312500 0.500000
vt 0.312500 1.000000
vt 0.281250 0.500000
vt 0.281250 1.000000
vt 0.250000 0.500000
vt 0.250000 1.000000
vt 0.218750 0.500000
vt 0.218750 1.000000
vt 0.187500 0.500000
vt 0.187500 1.000000
vt 0.156250 0.500000
vt 0.156250 1.000000
vt 0.125000 0.500000
vt 0.125000 1.000000
vt 0.093750 0.500000
vt 0.093750 1.000000
vt 0.062500 0.500000
vt 0.419706 0.419706
vt 0.383337 0.449553
vt 0.080294 0.419706
vt 0.062500 1.000000
vt 0.031250 0.500000
vt 0.031250 1.000000
vt 0.000000 0.500000
vt 0.616663 0.449553
vt 0.658156 0.471731
vt 0.883337 0.449553
vt 0.341844 0.471731
vt 0.116663 0.449553
vt 1.000000 0.000000
vt 0.000000 1.000000
vt 0.000000 0.000000
vt 0.296822 0.485388
vt 0.158156 0.471731
vt 0.250000 0.490000
vt 0.203178 0.485388
vt 0.050447 0.383337
vt 0.028269 0.341844
vt 0.449553 0.383337
vt 0.014612 0.296822
vt 0.485388 0.296822
vt 0.010000 0.250000
vt 0.490000 0.250000
vt 0.014612 0.203178
vt 0.485388 0.203178
vt 0.028269 0.158156
vt 0.471731 0.158156
vt 0.050447 0.116663
vt 0.080294 0.080294
vt 0.449553 0.116663
vt 0.116663 0.050447
vt 0.419706 0.080294
vt 0.158156 0.028269
vt 0.383337 0.050447
vt 0.203178 0.014612
vt 0.341844 0.028269
vt 0.250000 0.010000
vt 0.296822 0.014612
vt 0.471731 0.341844
vt 0.703178 0.485388
vt 0.750000 0.490000
vt 0.796822 0.485388
vt 0.841844 0.471731
vt 0.919706 0.419706
vt 0.580294 0.419706
vt 0.949553 0.383337
vt 0.550447 0.383337
vt 0.971731 0.341844
vt 0.985388 0.296822
vt 0.528269 0.341844
vt 0.990000 0.250000
vt 0.510000 0.250000
vt 0.985388 0.203178
vt 0.514612 0.203178
vt 0.971731 0.158156
vt 0.949553 0.116663
vt 0.528269 0.158156
vt 0.919706 0.080294
vt 0.580294 0.080294
vt 0.883337 0.050447
vt 0.616663 0.050447
vt 0.841844 0.028269
vt 0.796822 0.014612
vt 0.658156 0.028269
vt 0.750000 0.010000
vt 0.703178 0.014612
vt 0.550447 0.116663
vt 0.514612 0.296822
s 0
usemtl 
f 2/1/1 3/2/1 1/3/1
f 4/4/2 5/5/2 3/2/2
f 6/6/3 7/7/3 5/5/3
f 8/8/4 9/9/4 7/7/4
f 10/10/5 11/11/5 9/9/5
f 12/12/6 13/13/6 11/11/6
f 14/14/7 15/15/7 13/13/7
f 16/16/8 17/17/8 15/15/8
f 18/18/9 19/19/9 17/17/9
f 20/20/10 21/21/10 19/19/10
f 22/22/11 23/23/11 21/21/11
f 24/24/12 25/25/12 23/23/12
f 26/26/13 27/27/13 25/25/13
f 28/28/14 29/29/14 27/27/14
f 30/30/15 31/31/15 29/29/15
f 32/32/16 33/33/16 31/31/16
f 34/34/17 35/35/17 33/33/17
f 36/36/18 37/37/18 35/35/18
f 38/38/19 39/39/19 37/37/19
f 40/40/20 41/41/20 39/39/20
f 42/42/21 43/43/21 41/41/21
f 44/44/22 45/45/22 43/43/22
f 46/46/23 47/47/23 45/45/23
f 48/48/24 49/49/24 47/47/24
f 50/50/25 51/51/25 49/49/25
f 52/52/26 53/53/26 51/51/26
f 54/54/27 55/55/27 53/53/27
f 56/56/28 57/57/28 55/55/28
f 58/58/29 59/59/29 57/57/29
f 60/60/30 61/61/30 59/59/30
f 10/62/31 8/63/31 58/64/31
f 62/65/32 63/66/32 61/61/32
f 64/67/33 1/68/33 63/66/33
f 59/69/34 61/70/34 7/71/34
f 65/3/35 68/4/35 67/2/35
f 68/4/36 69/5/36 67/2/36
f 70/6/37 71/7/37 69/5/37
f 72/8/38 73/9/38 71/7/38
f 74/10/39 75/11/39 73/9/39
f 76/12/40 77/13/40 75/11/40
f 78/14/41 79/15/41 77/13/41
f 80/16/42 81/17/42 79/15/42
f 82/18/43 83/19/43 81/17/43
f 84/20/44 85/21/44 83/19/44
f 86/22/45 87/23/45 85/21/45
f 88/24/46 89/25/46 87/23/46
f 90/26/47 91/27/47 89/25/47
f 92/28/48 93/29/48 91/27/48
f 94/30/49 95/31/49 93/29/49
f 96/32/50 97/33/50 95/31/50
f 98/34/51 99/35/51 97/33/51
f 100/36/52 101/37/52 99/35/52
f 102/38/53 103/39/53 101/37/53
f 104/40/54 105/41/54 103/39/54
f 106/42/55 107/43/55 105/41/55
f 108/44/56 109/45/56 107/43/56
f 110/46/57 111/47/57 109/45/57
f 112/48/58 113/49/58 111/47/58
f 114/50/59 115/51/59 113/49/59
f 116/52/60 117/53/60 115/51/60
f 118/54/61 119/55/61 117/53/61
f 120/56/62 121/57/62 119/55/62
f 122/58/63 123/59/63 121/57/63
f 124/60/64 125/61/64 123/59/64
f 72/63/31 70/72/31 124/73/31
f 126/65/65 127/66/65 125/61/65
f 128/67/66 65/68/66 127/66/66
f 123/69/34 125/70/34 71/71/34
f 130/74/31 131/75/31 129/76/31
f 2/1/1 4/4/1 3/2/1
f 4/4/2 6/6/2 5/5/2
f 6/6/3 8/8/3 7/7/3
f 8/8/4 10/10/4 9/9/4
f 10/10/5 12/12/5 11/11/5
f 12/12/6 14/14/6 13/13/6
f 14/14/7 16/16/7 15/15/7
f 16/16/8 18/18/8 17/17/8
f 18/18/9 20/20/9 19/19/9
f 20/20/10 22/22/10 21/21/10
f 22/22/11 24/24/11 23/23/11
f 24/24/12 26/26/12 25/25/12
f 26/26/13 28/28/13 27/27/13
f 28/28/14 30/30/14 29/29/14
f 30/30/15 32/32/15 31/31/15
f 32/32/16 34/34/16 33/33/16
f 34/34/17 36/36/17 35/35/17
f 36/36/18 38/38/18 37/37/18
f 38/38/19 40/40/19 39/39/19
f 40/40/20 42/42/20 41/41/20
f 42/42/21 44/44/21 43/43/21
f 44/44/22 46/46/22 45/45/22
f 46/46/23 48/48/23 47/47/23
f 48/48/24 50/50/24 49/49/24
f 50/50/25 52/52/25 51/51/25
f 52/52/26 54/54/26 53/53/26
f 54/54/27 56/56/27 55/55/27
f 56/56/28 58/58/28 57/57/28
f 58/58/29 60/60/29 59/59/29
f 60/60/30 62/65/30 61/61/30
f 6/72/31 4/77/31 62/78/31
f 4/77/31 2/79/31 62/78/31
f 2/79/31 64/80/31 62/78/31
f 62/78/31 60/73/31 6/72/31
f 60/73/31 58/64/31 8/63/31
f 6/72/31 60/73/31 8/63/31
f 58/64/31 56/81/31 10/62/31
f 56/81/31 54/82/31 12/83/31
f 10/62/31 56/81/31 12/83/31
f 54/82/31 52/84/31 16/85/31
f 52/84/31 50/86/31 18/87/31
f 50/86/31 48/88/31 20/89/31
f 48/88/31 46/90/31 22/91/31
f 46/90/31 44/92/31 22/91/31
f 44/92/31 42/93/31 24/94/31
f 22/91/31 44/92/31 24/94/31
f 42/93/31 40/95/31 26/96/31
f 40/95/31 38/97/31 28/98/31
f 26/96/31 40/95/31 28/98/31
f 38/97/31 36/99/31 30/100/31
f 36/99/31 34/101/31 30/100/31
f 34/101/31 32/102/31 30/100/31
f 30/100/31 28/98/31 38/97/31
f 26/96/31 24/94/31 42/93/31
f 22/91/31 20/89/31 48/88/31
f 20/89/31 18/87/31 50/86/31
f 18/87/31 16/85/31 52/84/31
f 16/85/31 14/103/31 54/82/31
f 14/103/31 12/83/31 54/82/31
f 62/65/32 64/67/32 63/66/32
f 64/67/33 2/75/33 1/68/33
f 63/104/34 1/105/34 3/106/34
f 3/106/34 5/107/34 63/104/34
f 5/107/34 7/71/34 61/70/34
f 63/104/34 5/107/34 61/70/34
f 7/71/34 9/108/34 57/109/34
f 9/108/34 11/110/34 55/111/34
f 11/110/34 13/112/34 55/111/34
f 13/112/34 15/113/34 53/114/34
f 55/111/34 13/112/34 53/114/34
f 15/113/34 17/115/34 49/116/34
f 17/115/34 19/117/34 47/118/34
f 19/117/34 21/119/34 47/118/34
f 21/119/34 23/120/34 45/121/34
f 47/118/34 21/119/34 45/121/34
f 23/120/34 25/122/34 41/123/34
f 25/122/34 27/124/34 39/125/34
f 27/124/34 29/126/34 39/125/34
f 29/126/34 31/127/34 37/128/34
f 39/125/34 29/126/34 37/128/34
f 31/127/34 33/129/34 35/130/34
f 35/130/34 37/128/34 31/127/34
f 39/125/34 41/123/34 25/122/34
f 41/123/34 43/131/34 23/120/34
f 43/131/34 45/121/34 23/120/34
f 47/118/34 49/116/34 17/115/34
f 49/116/34 51/132/34 15/113/34
f 51/132/34 53/114/34 15/113/34
f 55/111/34 57/109/34 9/108/34
f 57/109/34 59/69/34 7/71/34
f 65/3/35 66/1/35 68/4/35
f 68/4/36 70/6/36 69/5/36
f 70/6/37 72/8/37 71/7/37
f 72/8/38 74/10/38 73/9/38
f 74/10/39 76/12/39 75/11/39
f 76/12/40 78/14/40 77/13/40
f 78/14/41 80/16/41 79/15/41
f 80/16/42 82/18/42 81/17/42
f 82/18/43 84/20/43 83/19/43
f 84/20/44 86/22/44 85/21/44
f 86/22/45 88/24/45 87/23/45
f 88/24/46 90/26/46 89/25/46
f 90/26/47 92/28/47 91/27/47
f 92/28/48 94/30/48 93/29/48
f 94/30/49 96/32/49 95/31/49
f 96/32/50 98/34/50 97/33/50
f 98/34/51 100/36/51 99/35/51
f 100/36/52 102/38/52 101/37/52
f 102/38/53 104/40/53 103/39/53
f 104/40/54 106/42/54 105/41/54
f 106/42/55 108/44/55 107/43/55
f 108/44/56 110/46/56 109/45/56
f 110/46/57 112/48/57 111/47/57
f 112/48/58 114/50/58 113/49/58
f 114/50/59 116/52/59 115/51/59
f 116/52/60 118/54/60 117/53/60
f 118/54/61 120/56/61 119/55/61
f 120/56/62 122/58/62 121/57/62
f 122/58/63 124/60/63 123/59/63
f 124/60/64 126/65/64 125/61/64
f 68/77/31 66/79/31 128/80/31
f 128/80/31 126/78/31 68/77/31
f 126/78/31 124/73/31 70/72/31
f 68/77/31 126/78/31 70/72/31
f 124/73/31 122/64/31 74/62/31
f 122/64/31 120/81/31 76/83/31
f 120/81/31 118/82/31 76/83/31
f 118/82/31 116/84/31 78/103/31
f 76/83/31 118/82/31 78/103/31
f 116/84/31 114/86/31 82/87/31
f 114/86/31 112/88/31 84/89/31
f 112/88/31 110/90/31 84/89/31
f 110/90/31 108/92/31 86/91/31
f 84/89/31 110/90/31 86/91/31
f 108/92/31 106/93/31 90/96/31
f 106/93/31 104/95/31 92/98/31
f 104/95/31 102/97/31 92/98/31
f 102/97/31 100/99/31 94/100/31
f 92/98/31 102/97/31 94/100/31
f 100/99/31 98/101/31 96/102/31
f 96/102/31 94/100/31 100/99/31
f 92/98/31 90/96/31 106/93/31
f 90/96/31 88/94/31 108/92/31
f 88/94/31 86/91/31 108/92/31
f 84/89/31 82/87/31 114/86/31
f 82/87/31 80/85/31 116/84/31
f 80/85/31 78/103/31 116/84/31
f 76/83/31 74/62/31 122/64/31
f 74/62/31 72/63/31 124/73/31
f 126/65/65 128/67/65 127/66/65
f 128/67/66 66/75/66 65/68/66
f 127/104/67 65/105/67 67/106/67
f 67/106/34 69/107/34 127/104/34
f 69/107/34 71/71/34 125/70/34
f 127/104/34 69/107/34 125/70/34
f 71/71/34 73/108/34 121/109/34
f 73/108/34 75/110/34 119/111/34
f 75/110/34 77/112/34 119/111/34
f 77/112/34 79/113/34 117/114/34
f 119/111/34 77/112/34 117/114/34
f 79/113/34 81/115/34 113/116/34
f 81/115/34 83/117/34 111/118/34
f 83/117/34 85/119/34 111/118/34
f 85/119/34 87/120/34 109/121/34
f 111/118/34 85/119/34 109/121/34
f 87/120/34 89/122/34 105/123/34
f 89/122/34 91/124/34 103/125/34
f 91/124/34 93/126/34 103/125/34
f 93/126/34 95/127/34 101/128/34
f 103/125/34 93/126/34 101/128/34
f 95/127/34 97/129/34 99/130/34
f 99/130/34 101/128/34 95/127/34
f 103/125/34 105/123/34 89/122/34
f 105/123/34 107/131/34 87/120/34
f 107/131/34 109/121/34 87/120/34
f 111/118/34 113/116/34 81/115/34
f 113/116/34 115/132/34 79/113/34
f 115/132/34 117/114/34 79/113/34
f 119/111/34 121/109/34 73/108/34
f 121/109/34 123/69/34 71/71/34
f 130/74/31 132/1/31 131/75/31
